<svg width="56" height="56" viewBox="0 0 56 56" fill="none" xmlns="http://www.w3.org/2000/svg">
<rect width="56" height="56" rx="8" fill="#E5F9FF"/>
<path fill-rule="evenodd" clip-rule="evenodd" d="M28.0001 10.5C29.2621 10.5 30.4263 11.1794 31.0472 12.278L35.3091 19.8197L42.6721 21.2602C43.9548 21.5111 44.9908 22.4559 45.3586 23.7101C45.7265 24.9643 45.3648 26.3189 44.4208 27.2229L38.8206 32.5857L40.1162 41.4964C40.3041 42.789 39.7566 44.0787 38.6962 44.8414C37.6358 45.6041 36.2389 45.7128 35.0733 45.1234L28.0001 41.547L20.9269 45.1234C19.7613 45.7128 18.3644 45.6041 17.304 44.8414C16.2436 44.0787 15.6961 42.789 15.884 41.4964L17.1796 32.5857L11.5794 27.2229C10.6354 26.3189 10.2737 24.9643 10.6416 23.7101C11.0094 22.4559 12.0454 21.5111 13.3281 21.2602L20.6911 19.8197L24.953 12.278C25.5739 11.1794 26.7381 10.5 28.0001 10.5ZM22.9451 22.945L14.0001 24.695L20.9026 31.3049L19.3476 42L28.0001 37.625L36.6526 42L35.0976 31.3049L42.0001 24.695L33.0551 22.945L28.0001 14L22.9451 22.945Z" fill="#14ACE8"/>
</svg>
