<svg width="56" height="56" viewBox="0 0 56 56" fill="none" xmlns="http://www.w3.org/2000/svg">
<rect width="56" height="56" rx="8" fill="#FFEBEB"/>
<path fill-rule="evenodd" clip-rule="evenodd" d="M43.2374 15.2374C43.9209 14.554 43.9209 13.446 43.2374 12.7626C42.554 12.0791 41.446 12.0791 40.7626 12.7626L28 25.5251L15.2374 12.7626C14.554 12.0791 13.446 12.0791 12.7626 12.7626C12.0791 13.446 12.0791 14.554 12.7626 15.2374L25.5251 28L12.7626 40.7626C12.0791 41.446 12.0791 42.554 12.7626 43.2374C13.446 43.9209 14.554 43.9209 15.2374 43.2374L28 30.4749L40.7626 43.2374C41.446 43.9209 42.554 43.9209 43.2374 43.2374C43.9209 42.554 43.9209 41.446 43.2374 40.7626L30.4749 28L43.2374 15.2374Z" fill="#FF3535"/>
</svg>
