<svg width="55" height="56" viewBox="0 0 55 56" fill="none" xmlns="http://www.w3.org/2000/svg">
<rect width="55" height="56" rx="8" fill="#F9F1FF"/>
<path fill-rule="evenodd" clip-rule="evenodd" d="M17.7096 13.9964C17.7096 13.9963 17.7101 13.9968 17.7108 13.9979L17.7096 13.9964ZM17.7836 14.1159L21.2336 19.7051C20.8167 20.1075 20.362 20.5061 19.8726 20.9351C19.452 21.3038 19.0057 21.6949 18.5359 22.1302C17.3715 23.2092 17.1466 24.9444 17.9002 26.2948C21.8853 33.4358 27.3207 36.6852 29.7528 37.8518C31.218 38.5547 32.8099 38 33.6961 36.8515L36.0835 33.7573C36.085 33.7554 36.0848 33.7559 36.0839 33.7565C36.0838 33.7566 36.0854 33.7556 36.0891 33.7549C36.0927 33.7543 36.0963 33.7544 36.0993 33.7549C36.1014 33.7553 36.1045 33.7562 36.1094 33.7593C37.5006 34.6335 39.4414 35.8215 41.2242 36.8273C40.904 38.7955 40.1685 39.942 39.3575 40.643C38.506 41.379 37.4048 41.7664 36.1765 41.9062C33.7242 42.1855 31.2346 41.428 30.6824 41.2434C30.0731 40.9262 26.7327 39.1359 23.1639 36.2347C19.4839 33.2431 15.7939 29.2562 14.3826 24.6836C13.3513 21.3418 13.7402 18.9901 14.5508 17.368C15.3345 15.7999 16.6026 14.7356 17.7836 14.1159ZM16.5356 10.8079C18.1614 10.0228 19.8426 10.8414 20.6256 12.11L24.2348 17.9571C24.9645 19.1392 25.0145 20.8673 23.8283 22.051C23.3199 22.5583 22.6126 23.1819 21.9545 23.7621C21.5932 24.0806 21.2467 24.3861 20.9561 24.6521C24.3859 30.7329 28.9712 33.5463 31.0568 34.575L33.3784 31.5661C34.4745 30.1455 36.4261 29.8135 37.9123 30.7474C39.2871 31.6114 41.1878 32.7742 42.9103 33.7451C44.059 34.3927 44.8807 35.7427 44.6479 37.2669C44.2297 40.0043 43.1375 41.9982 41.5811 43.3436C40.0506 44.6664 38.2275 45.2277 36.5574 45.4178C33.2725 45.7918 30.1305 44.7791 29.5568 44.5834C29.4115 44.5339 29.291 44.4817 29.1614 44.4146C28.5455 44.096 24.9155 42.1689 21.0206 39.0026C17.1662 35.8692 12.8193 31.3366 11.0948 25.7489C9.828 21.6444 10.2027 18.3164 11.4814 15.7577C12.7377 13.2438 14.7722 11.6595 16.5356 10.8079Z" fill="#BB77FE"/>
</svg>
