<svg width="56" height="56" viewBox="0 0 56 56" fill="none" xmlns="http://www.w3.org/2000/svg">
<rect width="56" height="56" rx="8" fill="#D9F4E1"/>
<path fill-rule="evenodd" clip-rule="evenodd" d="M14 14.8743C14 14.3917 14.3911 14 14.875 14H31.5C32.4665 14 33.25 14.7835 33.25 15.75V33.25H26.9453C25.931 33.25 25.1087 34.0723 25.1087 35.0866V36.1413C25.1087 39.377 22.4857 42 19.25 42C16.3505 42 14 39.6495 14 36.75V35V31.5V28.4V14.8743ZM10.5 31.5V28.4V14.8743C10.5 12.4574 12.4594 10.5 14.875 10.5H31.5C34.3995 10.5 36.75 12.8505 36.75 15.75V33.25H43.6634C44.6777 33.25 45.5 34.0723 45.5 35.0866C45.5 40.8603 40.7284 45.5 35 45.5H19.25C14.4844 45.5 10.6086 41.6901 10.5022 36.95H10.5V36.75V35V31.5ZM35 42H26.5484C27.7185 40.5442 28.462 38.731 28.5892 36.75H35.875H36.75H41.7928C41.0312 39.7521 38.2613 42 35 42ZM19.25 26.25C18.2835 26.25 17.5 27.0335 17.5 28C17.5 28.9665 18.2835 29.75 19.25 29.75H28C28.9665 29.75 29.75 28.9665 29.75 28C29.75 27.0335 28.9665 26.25 28 26.25H19.25ZM17.5 21C17.5 20.0335 18.2835 19.25 19.25 19.25H28C28.9665 19.25 29.75 20.0335 29.75 21C29.75 21.9665 28.9665 22.75 28 22.75H19.25C18.2835 22.75 17.5 21.9665 17.5 21Z" fill="#00B434"/>
</svg>
