<svg width="54" height="56" viewBox="0 0 54 56" fill="none" xmlns="http://www.w3.org/2000/svg">
<rect width="54" height="56" rx="8" fill="#EFF0F2"/>
<path fill-rule="evenodd" clip-rule="evenodd" d="M17.5362 28.4987C18.2025 27.823 19.2709 27.8355 19.9225 28.5265C20.5741 29.2176 20.562 30.3256 19.8957 31.0013L15.9521 35L42.1875 35C43.1195 35 43.875 35.7835 43.875 36.75C43.875 37.7165 43.1195 38.5 42.1875 38.5L15.9521 38.5L19.8957 42.4987C20.562 43.1744 20.5741 44.2824 19.9225 44.9735C19.2709 45.6645 18.2025 45.677 17.5362 45.0013L10.6327 38.0013C10.308 37.672 10.125 37.2209 10.125 36.75C10.125 36.2791 10.308 35.828 10.6327 35.4987L17.5362 28.4987ZM36.4638 10.9987C35.7975 10.323 34.7291 10.3355 34.0775 11.0265C33.4259 11.7176 33.438 12.8256 34.1043 13.5013L38.0479 17.5L11.8125 17.5C10.8805 17.5 10.125 18.2835 10.125 19.25C10.125 20.2165 10.8805 21 11.8125 21L38.0479 21L34.1043 24.9987C33.438 25.6744 33.4259 26.7824 34.0775 27.4735C34.7291 28.1645 35.7975 28.177 36.4638 27.5013L43.3673 20.5013C43.692 20.172 43.875 19.7209 43.875 19.25C43.875 18.7791 43.692 18.328 43.3673 17.9987L36.4638 10.9987Z" fill="#50555A"/>
</svg>
