<svg width="28" height="24" viewBox="0 0 28 24" fill="none" xmlns="http://www.w3.org/2000/svg">
<path fill-rule="evenodd" clip-rule="evenodd" d="M14 12C11.6804 12 9.8 13.8804 9.8 16.2V17.8V21.8C9.8 22.5732 9.1732 23.2 8.4 23.2C7.6268 23.2 7 22.5732 7 21.8V17.8V16.2L7.00017 16.1504C6.77149 16.1831 6.53773 16.2 6.3 16.2C6.14592 16.2 5.99351 16.1929 5.84306 16.179C5.76412 16.1928 5.6829 16.2 5.6 16.2H5C3.78497 16.2 2.8 17.185 2.8 18.4V20.4C2.8 21.1732 2.1732 21.8 1.4 21.8C0.626801 21.8 0 21.1732 0 20.4V18.4C0 16.6206 0.929546 15.0582 2.32955 14.1721C1.74477 13.3651 1.4 12.3728 1.4 11.3C1.4 8.5938 3.5938 6.4 6.3 6.4C7.05955 6.4 7.77874 6.57282 8.42039 6.88129C8.40689 6.72265 8.4 6.56213 8.4 6.4C8.4 3.3072 10.9072 0.8 14 0.8C17.0928 0.8 19.6 3.3072 19.6 6.4C19.6 6.56213 19.5931 6.72265 19.5796 6.88129C20.2213 6.57282 20.9404 6.4 21.7 6.4C24.4062 6.4 26.6 8.5938 26.6 11.3C26.6 12.3728 26.2552 13.3651 25.6705 14.1721C27.0705 15.0582 28 16.6206 28 18.4V20.4C28 21.1732 27.3732 21.8 26.6 21.8C25.8268 21.8 25.2 21.1732 25.2 20.4V18.4C25.2 17.185 24.215 16.2 23 16.2H22.4C22.3171 16.2 22.2359 16.1928 22.1569 16.179C22.0065 16.1929 21.8541 16.2 21.7 16.2C21.4623 16.2 21.2285 16.1831 20.9998 16.1504L21 16.2V17.8V21.8C21 22.5732 20.3732 23.2 19.6 23.2C18.8268 23.2 18.2 22.5732 18.2 21.8V17.8V16.2C18.2 13.8804 16.3196 12 14 12ZM14 9.2C12.4536 9.2 11.2 7.9464 11.2 6.4C11.2 4.8536 12.4536 3.6 14 3.6C15.5464 3.6 16.8 4.8536 16.8 6.4C16.8 7.9464 15.5464 9.2 14 9.2ZM6.3 9.2C5.1402 9.2 4.2 10.1402 4.2 11.3C4.2 12.4598 5.1402 13.4 6.3 13.4C7.4598 13.4 8.4 12.4598 8.4 11.3C8.4 10.1402 7.4598 9.2 6.3 9.2ZM21.7 9.2C20.5402 9.2 19.6 10.1402 19.6 11.3C19.6 12.4598 20.5402 13.4 21.7 13.4C22.8598 13.4 23.8 12.4598 23.8 11.3C23.8 10.1402 22.8598 9.2 21.7 9.2Z" fill="#50555A"/>
</svg>
