<svg xmlns="http://www.w3.org/2000/svg" width="86" height="86" viewBox="0 0 86 86"><defs><style>.a{fill:#ff9100;}.b,.d{fill:none;}.b{stroke:#ff9100;stroke-width:2px;}.c{stroke:none;}</style></defs><g transform="translate(-1317 -782)"><path class="a" d="M312.51,3637.33a1.525,1.525,0,0,1-.53-.1,1.491,1.491,0,0,1-1-1.4v-21.5a1,1,0,0,1,2,0v20.17l5.25-6a1,1,0,1,1,1.5,1.32l-6.12,7a1.49,1.49,0,0,1-1.1.51Zm-3.35-3.42a1,1,0,0,0,.09-1.41l-3.5-4a1,1,0,1,0-1.5,1.32l3.5,4a1,1,0,0,0,1.41.09Z" transform="translate(1048.027 -2802)"/><g class="b" transform="translate(1317 782)"><circle class="c" cx="43" cy="43" r="43"/><circle class="d" cx="43" cy="43" r="42"/></g></g></svg>