<?xml version="1.0" encoding="utf-8"?>
<!-- Generator: Adobe Illustrator 22.0.0, SVG Export Plug-In . SVG Version: 6.00 Build 0)  -->
<svg version="1.1" id="Layer_1" xmlns="http://www.w3.org/2000/svg" xmlns:xlink="http://www.w3.org/1999/xlink" x="0px" y="0px"
	 viewBox="0 0 86 86" style="enable-background:new 0 0 86 86;" xml:space="preserve">
<style type="text/css">
	.st0{fill:#FF9100;}
	.st1{fill:none;}
	.st2{fill:none;stroke:#FF9100;stroke-width:2;}
</style>
<g transform="translate(-1317 -782)">
	<path class="st0" d="M1359.5,814.7c0.2,0,0.4,0,0.5,0.1c0.6,0.2,1,0.8,1,1.4v21.5c0,0.6-0.4,1-1,1c-0.6,0-1-0.4-1-1v-20.2l-5.3,6
		c-0.3,0.4-1,0.5-1.4,0.2c-0.4-0.3-0.5-1-0.2-1.4c0,0,0,0,0.1-0.1l6.1-7C1358.6,814.9,1359,814.7,1359.5,814.7z M1362.8,818.1
		c-0.4,0.4-0.5,1-0.1,1.4l3.5,4c0.3,0.4,1,0.5,1.4,0.2c0.4-0.3,0.5-1,0.2-1.4c0,0,0,0-0.1-0.1l-3.5-4
		C1363.9,817.8,1363.2,817.7,1362.8,818.1L1362.8,818.1z"/>
	<g transform="translate(1317 782)">
		<circle class="st1" cx="43" cy="43" r="43"/>
		<circle class="st2" cx="43" cy="43" r="42"/>
	</g>
</g>
</svg>
