<svg width="18" height="20" viewBox="0 0 18 20" fill="none" xmlns="http://www.w3.org/2000/svg">
<path fill-rule="evenodd" clip-rule="evenodd" d="M3 0C1.34315 0 0 1.35919 0 3.03583V13.9283C0 15.0782 0.642006 16.1294 1.65836 16.6437L7.65836 19.6795C8.50294 20.1068 9.49706 20.1068 10.3416 19.6795L16.3416 16.6437C17.358 16.1294 18 15.0782 18 13.9283V3.03583C18 1.35919 16.6569 0 15 0H3ZM2 3.03583C2 2.47695 2.44772 2.02389 3 2.02389H15C15.5523 2.02389 16 2.47695 16 3.03583V13.9283C16 14.3116 15.786 14.662 15.4472 14.8334L9.44721 17.8693C9.16569 18.0117 8.83431 18.0117 8.55279 17.8693L2.55279 14.8334C2.214 14.662 2 14.3116 2 13.9283V3.03583ZM12.308 7.67982C12.6334 7.22824 12.5355 6.59523 12.0892 6.26595C11.643 5.93668 11.0174 6.03582 10.692 6.4874L8.55065 9.45924L7.78409 8.47938C7.44128 8.04119 6.81235 7.96719 6.37934 8.31409C5.94632 8.66099 5.87319 9.29743 6.21599 9.73562L7.79933 11.7595C7.99332 12.0075 8.29071 12.1494 8.60317 12.1431C8.91564 12.1369 9.20725 11.9831 9.39138 11.7276L12.308 7.67982Z" fill="#00BF85"/>
</svg>
