<svg width="20" height="21" viewBox="0 0 20 21" fill="none" xmlns="http://www.w3.org/2000/svg">
<path fill-rule="evenodd" clip-rule="evenodd" d="M5.41421 0.0333862H14.5858C15.3814 0.0333862 16.1445 0.354738 16.7071 0.926745L19.1213 3.38129C19.6839 3.9533 20 4.72911 20 5.53805V7.15033V17.3174C20 19.0019 18.6569 20.3675 17 20.3675H3C1.34315 20.3675 0 19.0019 0 17.3174V7.15033V5.53805C0 4.72911 0.316071 3.9533 0.87868 3.38129L3.29289 0.926746C3.8555 0.354737 4.61856 0.0333862 5.41421 0.0333862ZM15.2929 2.36459L17 4.10021H3L4.70711 2.36459C4.89464 2.17392 5.149 2.0668 5.41421 2.0668H14.5858C14.851 2.0668 15.1054 2.17392 15.2929 2.36459ZM2 7.61606V17.3174C2 17.8789 2.44772 18.3341 3 18.3341H17C17.5523 18.3341 18 17.8789 18 17.3174V7.61606L16.1178 10.3498C15.7436 10.8934 15.132 11.2172 14.4793 11.2172H5.52066C4.86803 11.2172 4.25645 10.8934 3.88219 10.3498L2 7.61606ZM16.5793 6.13363H3.42066L5.52066 9.18374L14.4793 9.18374L16.5793 6.13363Z" fill="black"/>
</svg>
