<svg width="25" height="23" viewBox="0 0 25 23" fill="none" xmlns="http://www.w3.org/2000/svg">
<path d="M10.6698 1.22656C15.8873 1.22656 20.132 5.12745 20.132 9.92226C20.132 12.0317 19.3104 13.9682 17.9458 15.4756L24.0112 21.0117C24.3643 21.3341 24.3663 21.8584 24.0156 22.1829C23.8394 22.3459 23.6078 22.4275 23.3762 22.4275C23.1466 22.4275 22.9169 22.3473 22.7412 22.1869L16.6675 16.6432C15.0338 17.8767 12.9442 18.6179 10.6698 18.6179C9.04653 18.6179 7.44472 18.2336 6.03765 17.5063C5.60383 17.2821 5.44995 16.7772 5.69394 16.3785C5.93789 15.9799 6.48733 15.8384 6.92114 16.0627C8.05904 16.6508 9.35532 16.9616 10.6698 16.9616C14.8935 16.9616 18.3297 13.8038 18.3297 9.92226C18.3297 6.04075 14.8935 2.88288 10.6698 2.88288C6.44614 2.88288 3.00992 6.04075 3.00992 9.92226C3.00992 11.1451 3.3561 12.3491 4.01098 13.4043C4.25758 13.8016 4.107 14.3074 3.67471 14.534C3.24238 14.7606 2.69204 14.6222 2.44543 14.225C1.63565 12.9202 1.2076 11.4324 1.2076 9.92226C1.2076 5.12745 5.45234 1.22656 10.6698 1.22656Z" fill="#50555A" stroke="#50555A" stroke-width="0.5"/>
</svg>
