<svg width="28" height="24" viewBox="0 0 28 24" fill="none" xmlns="http://www.w3.org/2000/svg">
<path d="M6.99609 13.4076C6.83451 13.4661 6.68777 13.5594 6.56626 13.6809C6.44475 13.8024 6.35145 13.9491 6.29297 14.1107C6.19825 14.3473 6.17507 14.6066 6.22628 14.8562C6.2775 15.1059 6.40087 15.3351 6.5811 15.5153C6.76132 15.6955 6.99048 15.8189 7.24015 15.8701C7.48983 15.9213 7.74905 15.8981 7.98568 15.8034C8.14347 15.7375 8.2888 15.645 8.41536 15.53C8.53038 15.4034 8.62286 15.2581 8.6888 15.1003C8.76169 14.9458 8.79737 14.7763 8.79297 14.6055C8.78817 14.2608 8.6533 13.9305 8.41536 13.681C8.23226 13.5003 7.99974 13.378 7.74715 13.3293C7.49456 13.2806 7.23322 13.3079 6.99609 13.4076ZM24.1055 8.19925L22.3346 2.95185C22.0645 2.18783 21.5635 1.52673 20.9009 1.06013C20.2384 0.593543 19.4471 0.344561 18.6367 0.347685H9.36588C8.55552 0.344561 7.76425 0.593543 7.10169 1.06013C6.43913 1.52673 5.93809 2.18783 5.66797 2.95185L3.89714 8.23831C3.06423 8.45642 2.32671 8.94361 1.79926 9.62412C1.2718 10.3046 0.983954 11.1403 0.980469 12.0013V17.2097C0.982734 18.0156 1.23422 18.8011 1.70044 19.4585C2.16666 20.1158 2.82481 20.6129 3.58464 20.8815V22.418C3.58464 22.7633 3.72182 23.0945 3.96601 23.3387C4.2102 23.5829 4.54138 23.7201 4.88672 23.7201C5.23205 23.7201 5.56324 23.5829 5.80743 23.3387C6.05162 23.0945 6.1888 22.7633 6.1888 22.418V21.1159H21.8138V22.418C21.8138 22.7633 21.951 23.0945 22.1952 23.3387C22.4394 23.5829 22.7706 23.7201 23.1159 23.7201C23.4612 23.7201 23.7924 23.5829 24.0366 23.3387C24.2808 23.0945 24.418 22.7633 24.418 22.418V20.8815C25.1778 20.6129 25.8359 20.1158 26.3022 19.4585C26.7684 18.8011 27.0199 18.0156 27.0221 17.2097V12.0013C27.0187 11.1403 26.7308 10.3046 26.2033 9.62412C25.6759 8.94361 24.9384 8.45642 24.1055 8.23831V8.19925ZM8.12891 3.77217C8.21626 3.51354 8.38268 3.28892 8.60465 3.13003C8.82662 2.97115 9.09291 2.88604 9.36588 2.88675H18.6367C18.9207 2.87193 19.2016 2.95045 19.4368 3.11033C19.6719 3.27021 19.8482 3.50266 19.9388 3.77217L21.306 8.09508H6.69661L8.12891 3.77217ZM24.418 17.2097C24.418 17.555 24.2808 17.8862 24.0366 18.1304C23.7924 18.3746 23.4612 18.5118 23.1159 18.5118H4.88672C4.54138 18.5118 4.2102 18.3746 3.96601 18.1304C3.72182 17.8862 3.58464 17.555 3.58464 17.2097V12.0013C3.58464 11.656 3.72182 11.3248 3.96601 11.0806C4.2102 10.8364 4.54138 10.6993 4.88672 10.6993H23.1159C23.4612 10.6993 23.7924 10.8364 24.0366 11.0806C24.2808 11.3248 24.418 11.656 24.418 12.0013V17.2097ZM20.0169 13.4076C19.8553 13.4661 19.7086 13.5594 19.5871 13.6809C19.4656 13.8024 19.3723 13.9491 19.3138 14.1107C19.2191 14.3473 19.1959 14.6066 19.2471 14.8562C19.2983 15.1059 19.4217 15.3351 19.6019 15.5153C19.7822 15.6955 20.0113 15.8189 20.261 15.8701C20.5107 15.9213 20.7699 15.8981 21.0065 15.8034C21.1681 15.7449 21.3148 15.6516 21.4363 15.5301C21.5579 15.4086 21.6512 15.2619 21.7096 15.1003C21.7825 14.9458 21.8182 14.7763 21.8138 14.6055C21.809 14.2608 21.6741 13.9305 21.4362 13.681C21.2531 13.5003 21.0206 13.378 20.768 13.3293C20.5154 13.2806 20.2541 13.3079 20.0169 13.4076ZM15.3034 13.3034H12.6992C12.3539 13.3034 12.0227 13.4406 11.7785 13.6848C11.5343 13.929 11.3971 14.2602 11.3971 14.6055C11.3971 14.9508 11.5343 15.282 11.7785 15.5262C12.0227 15.7704 12.3539 15.9076 12.6992 15.9076H15.3034C15.6487 15.9076 15.9799 15.7704 16.2241 15.5262C16.4683 15.282 16.6055 14.9508 16.6055 14.6055C16.6055 14.2602 16.4683 13.929 16.2241 13.6848C15.9799 13.4406 15.6487 13.3034 15.3034 13.3034Z" fill="#14ACE8"/>
</svg>
