<svg width="20" height="20" viewBox="0 0 20 20" fill="none" xmlns="http://www.w3.org/2000/svg">
<path fill-rule="evenodd" clip-rule="evenodd" d="M13.6107 0.6253C14.3532 -0.117694 15.5571 -0.117694 16.2996 0.6253L18.5586 2.88584C19.3011 3.62884 19.3011 4.83347 18.5586 5.57646L9.18995 14.9513C8.92566 15.2158 8.58933 15.3965 8.22301 15.4707L5.39009 16.045C4.76541 16.1716 4.11888 15.9766 3.66819 15.5256C3.21751 15.0746 3.02262 14.4276 3.14917 13.8026L3.72304 10.9678C3.79725 10.6012 3.97778 10.2646 4.24207 10.0002L13.6107 0.6253ZM5.4224 12.156L5.52443 11.652L7.53922 13.6681L7.03554 13.7702L5.01261 14.1803L5.4224 12.156ZM9.00577 12.445L6.74672 10.1845L13.6107 3.31592L14.9551 1.97061L15.8698 2.88584L16.2996 3.31592L17.2142 4.23115L15.8698 5.57646L9.00577 12.445ZM1.01852 17.2131C0.49349 17.2131 0.0678711 17.639 0.0678711 18.1644C0.0678711 18.6898 0.49349 19.1157 1.01852 19.1157L18.1302 19.1157C18.6552 19.1157 19.0808 18.6898 19.0808 18.1644C19.0808 17.639 18.6552 17.2131 18.1302 17.2131L1.01852 17.2131Z" fill="white"/>
</svg>
