<svg width="20" height="21" viewBox="0 0 20 21" fill="none" xmlns="http://www.w3.org/2000/svg">
<path fill-rule="evenodd" clip-rule="evenodd" d="M4.30377 2.06472C4.30379 2.0647 4.30404 2.06497 4.30444 2.06558L4.30377 2.06472ZM4.34683 2.13414L6.3541 5.38133C6.11154 5.61513 5.84697 5.84671 5.56223 6.09594C5.3175 6.31015 5.05788 6.5374 4.78454 6.7903C4.10705 7.41712 3.97619 8.42525 4.41466 9.20981C6.73326 13.3586 9.89567 15.2464 11.3107 15.9242C12.1632 16.3325 13.0894 16.0102 13.605 15.343L14.994 13.5453C14.9949 13.5442 14.9948 13.5445 14.9943 13.5449C14.9942 13.5449 14.9952 13.5443 14.9973 13.544C14.9994 13.5436 15.0015 13.5436 15.0032 13.5439C15.0045 13.5442 15.0062 13.5447 15.0091 13.5465C15.8185 14.0544 16.9477 14.7446 17.985 15.3289C17.7987 16.4724 17.3708 17.1385 16.8989 17.5457C16.4035 17.9733 15.7628 18.1984 15.0482 18.2797C13.6213 18.4419 12.1728 18.0018 11.8516 17.8946C11.4971 17.7103 9.55356 16.6702 7.47717 14.9847C5.33609 13.2466 3.18918 10.9303 2.36809 8.27373C1.768 6.33221 1.99428 4.96597 2.46593 4.02357C2.92188 3.11254 3.65972 2.49419 4.34683 2.13414ZM3.62071 0.212321C4.56664 -0.243827 5.54477 0.231771 6.00037 0.968809L8.10026 4.36583C8.52478 5.05259 8.55389 6.05653 7.86374 6.74427C7.56796 7.03901 7.15645 7.40128 6.77351 7.73838C6.56331 7.92343 6.36173 8.10089 6.19262 8.25544C8.18813 11.7883 10.856 13.4227 12.0694 14.0204L13.4201 12.2723C14.0579 11.447 15.1934 11.2541 16.0581 11.7967C16.858 12.2986 17.9638 12.9742 18.966 13.5383C19.6343 13.9145 20.1124 14.6988 19.977 15.5843C19.7337 17.1747 19.0982 18.3331 18.1926 19.1147C17.3022 19.8833 16.2415 20.2093 15.2698 20.3198C13.3585 20.5371 11.5305 19.9487 11.1967 19.8351C11.1122 19.8063 11.042 19.7759 10.9666 19.737C10.6083 19.5519 8.4963 18.4323 6.23016 16.5927C3.98759 14.7723 1.45851 12.139 0.455138 8.89264C-0.28189 6.50804 -0.0638629 4.57455 0.680113 3.08801C1.41105 1.62752 2.59475 0.707061 3.62071 0.212321Z" fill="black"/>
</svg>
