<svg width="16" height="16" viewBox="0 0 16 16" fill="none" xmlns="http://www.w3.org/2000/svg">
<path fill-rule="evenodd" clip-rule="evenodd" d="M8 0C3.58172 0 0 3.58172 0 8C0 12.4183 3.58172 16 8 16C12.4183 16 16 12.4183 16 8C16 3.58172 12.4183 0 8 0ZM10.8266 10.8267C10.5666 11.0851 10.1467 11.0851 9.88664 10.8267L7.99997 8.94L6.11331 10.8267C5.8488 11.0532 5.45451 11.038 5.20827 10.7917C4.96202 10.5455 4.94679 10.1512 5.17331 9.88667L7.05997 8L5.17331 6.11333C4.94679 5.84883 4.96202 5.45454 5.20827 5.20829C5.45451 4.96205 5.8488 4.94682 6.11331 5.17333L7.99997 7.06L9.88664 5.17333C10.1511 4.94682 10.5454 4.96205 10.7917 5.20829C11.0379 5.45454 11.0532 5.84883 10.8266 6.11333L8.93997 8L10.8266 9.88667C11.0851 10.1467 11.0851 10.5666 10.8266 10.8267Z" fill="#ff3535" fill-opacity="0.5"/>
</svg>
