<svg width="20" height="24" viewBox="0 0 20 24" fill="none" xmlns="http://www.w3.org/2000/svg">
<path fill-rule="evenodd" clip-rule="evenodd" d="M10.0013 0.332031L10.5131 0.591375L12.378 1.53635L15.3616 0.528448C15.8008 0.380104 16.2848 0.514448 16.5881 0.868834C16.8914 1.22322 16.9542 1.72786 16.7472 2.14744L14.8537 5.98525L16.135 7.12148C22.6078 12.8612 18.6021 23.6654 10.0013 23.6654C1.40049 23.6654 -2.6052 12.8612 3.86757 7.12148L5.1489 5.98525L3.25543 2.14744C3.04842 1.72786 3.11119 1.22322 3.41447 0.868834C3.71776 0.514448 4.20183 0.380104 4.64096 0.528448L7.62459 1.53635L9.48949 0.591375L10.0013 0.332031ZM13.4643 3.61451L12.4219 5.72723C12.18 6.19159 12.2741 6.78003 12.681 7.14089L14.6278 8.86719C19.51 13.1965 16.4886 21.3457 10.0013 21.3457C3.51398 21.3457 0.492614 13.1965 5.37482 8.86719L7.32158 7.14089C7.72853 6.78003 7.8226 6.19159 7.58067 5.72724L6.53831 3.61451L7.35049 3.88888L7.80021 4.0408L8.22421 3.82595L10.0013 2.92547L11.7784 3.82595L12.2024 4.0408L12.6521 3.88888L13.4643 3.61451ZM11.1455 9.16759C11.1455 8.52704 10.6331 8.00777 10.001 8.00777C9.36896 8.00777 8.85657 8.52704 8.85657 9.16759V9.58086C7.56265 9.76827 6.56795 10.8959 6.56795 12.2591C6.56795 13.7533 7.76321 14.9646 9.23764 14.9646H10.7671C10.9774 14.9646 11.1478 15.1374 11.1478 15.3505C11.1478 15.5636 10.9774 15.7364 10.767 15.7364H8.09406C7.462 15.7364 6.94961 16.2557 6.94961 16.8962C6.94961 17.5368 7.462 18.0561 8.09406 18.0561H8.85657V18.442C8.85657 19.0825 9.36896 19.6018 10.001 19.6018C10.6331 19.6018 11.1455 19.0825 11.1455 18.442V18.0291C12.4407 17.8428 13.4367 16.7146 13.4367 15.3505C13.4367 13.8563 12.2415 12.645 10.7671 12.645H9.23764C9.02734 12.645 8.85685 12.4722 8.85685 12.2591C8.85685 12.0459 9.02734 11.8731 9.23764 11.8731H11.9106C12.5427 11.8731 13.0551 11.3539 13.0551 10.7133C13.0551 10.0728 12.5427 9.5535 11.9106 9.5535H11.1455V9.16759Z" fill="#4A9D77"/>
</svg>
