<svg width="20" height="20" viewBox="0 0 20 20" fill="none" xmlns="http://www.w3.org/2000/svg">
<path fill-rule="evenodd" clip-rule="evenodd" d="M0.0454844 7.07296L0.733584 3.03446C0.971696 1.63696 2.09943 0.574252 3.48734 0.439504L7.86748 0.0142485C8.78613 -0.0749399 9.69593 0.257811 10.3485 0.92163L19.0941 9.81859C20.302 11.0474 20.302 13.0397 19.0941 14.2685L14.366 19.0784C13.1581 20.3072 11.1997 20.3072 9.99179 19.0784L0.905976 9.83533C0.194639 9.11168 -0.126324 8.08132 0.0454844 7.07296ZM3.68324 2.52774C3.22061 2.57265 2.8447 2.92689 2.76533 3.39272L2.07723 7.43123C2.01996 7.76734 2.12695 8.1108 2.36406 8.35202L11.4499 17.5951C11.8525 18.0047 12.5053 18.0047 12.908 17.5951L17.636 12.7852C18.0386 12.3756 18.0386 11.7115 17.636 11.3019L8.89038 2.40494C8.67287 2.18367 8.3696 2.07275 8.06339 2.10248L3.68324 2.52774ZM6.76607 4.96374C7.19313 5.39819 7.19313 6.10258 6.76607 6.53703C6.339 6.97148 5.6466 6.97148 5.21954 6.53703C4.79248 6.10258 4.79248 5.39819 5.21954 4.96374C5.6466 4.52928 6.339 4.52928 6.76607 4.96374Z" fill="#F56C00"/>
</svg>
