<svg width="20" height="18" viewBox="0 0 20 18" fill="none" xmlns="http://www.w3.org/2000/svg">
<path fill-rule="evenodd" clip-rule="evenodd" d="M11 18C13.8162 18 16.1109 16.6534 17.4071 15.3571C18.7098 14.0544 20 11.8084 20 9C20 6.18385 18.6534 3.88915 17.3571 2.59289C16.0544 1.29016 13.8084 0 11 0C10.4477 0 10 0.447716 10 1C10 1.55228 10.4477 2 11 2C13.1916 2 14.9494 3.01364 15.9429 4.00711C16.9428 5.00705 18 6.81615 18 9C18 11.1916 16.9864 12.9494 15.9929 13.9429C14.993 14.9428 13.1838 16 11 16C8.80839 16 7.05057 14.9864 6.05711 13.9929C5.24044 13.1762 4.38561 11.8198 4.09968 10.1604L4.87531 10.7809C5.30657 11.1259 5.93586 11.056 6.28087 10.6247C6.62588 10.1934 6.55596 9.56414 6.1247 9.21913L3.6247 7.21913C3.2268 6.90082 2.6532 6.93259 2.29289 7.29289L0.292893 9.29289C-0.0976311 9.68342 -0.0976311 10.3166 0.292893 10.7071C0.683418 11.0976 1.31658 11.0976 1.70711 10.7071L2.09858 10.3156C2.43162 12.5281 3.555 14.3192 4.64289 15.4071C5.94562 16.7098 8.19162 18 11 18Z" fill="#50555A"/>
</svg>
