<svg width="20" height="16" viewBox="0 0 20 16" fill="none" xmlns="http://www.w3.org/2000/svg">
<path fill-rule="evenodd" clip-rule="evenodd" d="M0 3V13C0 14.6569 1.34315 16 3 16H17C18.6569 16 20 14.6569 20 13V3C20 1.34315 18.6569 0 17 0H3C1.34315 0 0 1.34315 0 3ZM3 14C2.44772 14 2 13.5523 2 13L2 3C2 2.44772 2.44772 2 3 2L17 2C17.5523 2 18 2.44772 18 3V13C18 13.5523 17.5523 14 17 14L3 14ZM3 9C3 8.44772 3.44772 8 4 8H7C7.55229 8 8 8.44772 8 9C8 9.55229 7.55229 10 7 10H4C3.44772 10 3 9.55229 3 9ZM4 11C3.44772 11 3 11.4477 3 12C3 12.5523 3.44772 13 4 13H9.5C10.0523 13 10.5 12.5523 10.5 12C10.5 11.4477 10.0523 11 9.5 11H4Z" fill="#F56C00"/>
</svg>
