<svg width="32" height="32" viewBox="0 0 32 32" fill="none" xmlns="http://www.w3.org/2000/svg">
<rect x="0.5" y="0.5" width="31" height="31" rx="3.5" fill="white" stroke="#EAEEF0"/>
<path fill-rule="evenodd" clip-rule="evenodd" d="M16 16C14.3431 16 13 17.3431 13 19V20.1429V23C13 23.5523 12.5523 24 12 24C11.4477 24 11 23.5523 11 23V20.1429V19L11.0001 18.9645C10.8368 18.9879 10.6698 19 10.5 19C10.3899 19 10.2811 18.9949 10.1736 18.985C10.1172 18.9949 10.0592 19 10 19H9.57143C8.70355 19 8 19.7036 8 20.5714V22C8 22.5523 7.55228 23 7 23C6.44772 23 6 22.5523 6 22V20.5714C6 19.3004 6.66396 18.1845 7.66396 17.5515C7.24626 16.9751 7 16.2663 7 15.5C7 13.567 8.567 12 10.5 12C11.0425 12 11.5562 12.1234 12.0146 12.3438C12.0049 12.2305 12 12.1158 12 12C12 9.79086 13.7909 8 16 8C18.2091 8 20 9.79086 20 12C20 12.1158 19.9951 12.2305 19.9854 12.3438C20.4438 12.1234 20.9575 12 21.5 12C23.433 12 25 13.567 25 15.5C25 16.2663 24.7537 16.9751 24.336 17.5515C25.336 18.1845 26 19.3004 26 20.5714V22C26 22.5523 25.5523 23 25 23C24.4477 23 24 22.5523 24 22V20.5714C24 19.7036 23.2964 19 22.4286 19H22C21.9408 19 21.8828 18.9949 21.8264 18.985C21.7189 18.9949 21.6101 19 21.5 19C21.3302 19 21.1632 18.9879 20.9999 18.9645L21 19V20.1429V23C21 23.5523 20.5523 24 20 24C19.4477 24 19 23.5523 19 23V20.1429V19C19 17.3431 17.6569 16 16 16ZM16 14C14.8954 14 14 13.1046 14 12C14 10.8954 14.8954 10 16 10C17.1046 10 18 10.8954 18 12C18 13.1046 17.1046 14 16 14ZM10.5 14C9.67157 14 9 14.6716 9 15.5C9 16.3284 9.67157 17 10.5 17C11.3284 17 12 16.3284 12 15.5C12 14.6716 11.3284 14 10.5 14ZM21.5 14C20.6716 14 20 14.6716 20 15.5C20 16.3284 20.6716 17 21.5 17C22.3284 17 23 16.3284 23 15.5C23 14.6716 22.3284 14 21.5 14Z" fill="#50555A"/>
</svg>
