<svg width="33" height="32" viewBox="0 0 33 32" fill="none" xmlns="http://www.w3.org/2000/svg">
<rect x="1" y="0.5" width="31" height="31" rx="3.5" fill="white" stroke="#EAEEF0"/>
<path fill-rule="evenodd" clip-rule="evenodd" d="M11.5 7C11.5 6.44772 11.9477 6 12.5 6C13.0523 6 13.5 6.44772 13.5 7V8H19.5V7C19.5 6.44772 19.9477 6 20.5 6C21.0523 6 21.5 6.44772 21.5 7V8H22.5C24.1569 8 25.5 9.34314 25.5 11V13V23C25.5 24.6569 24.1569 26 22.5 26H10.5C8.84315 26 7.5 24.6569 7.5 23V13V11C7.5 9.34315 8.84315 8 10.5 8H11.5V7ZM12.5 10H20.5H22.5C23.0523 10 23.5 10.4477 23.5 11V12H9.5V11C9.5 10.4477 9.94772 10 10.5 10H12.5ZM9.5 14V23C9.5 23.5523 9.94772 24 10.5 24H22.5C23.0523 24 23.5 23.5523 23.5 23V14L9.5 14ZM19.308 17.5892C19.6334 17.1429 19.5354 16.5174 19.0892 16.192C18.6429 15.8666 18.0174 15.9646 17.692 16.4108L15.5506 19.3476L14.784 18.3793C14.4412 17.9463 13.8123 17.8731 13.3793 18.216C12.9463 18.5588 12.8731 19.1877 13.216 19.6207L14.7993 21.6207C14.9933 21.8657 15.2907 22.006 15.6031 21.9998C15.9156 21.9936 16.2072 21.8417 16.3913 21.5892L19.308 17.5892Z" fill="#50555A"/>
</svg>
