<svg width="28" height="20" viewBox="0 0 28 20" fill="none" xmlns="http://www.w3.org/2000/svg">
<path fill-rule="evenodd" clip-rule="evenodd" d="M3.81066 9.44327C3.68231 9.65468 3.57571 9.84306 3.49019 10.0013C3.57571 10.1595 3.68231 10.3479 3.81066 10.5593C4.22757 11.246 4.86607 12.1624 5.74681 13.0758C7.50228 14.8963 10.1766 16.668 14.0013 16.668C17.826 16.668 20.5003 14.8963 22.2558 13.0758C23.1365 12.1624 23.775 11.246 24.1919 10.5593C24.3203 10.3479 24.4269 10.1595 24.5124 10.0013C24.4269 9.84306 24.3203 9.65468 24.1919 9.44327C23.775 8.75661 23.1365 7.84017 22.2558 6.92682C20.5003 5.10632 17.826 3.33464 14.0013 3.33464C10.1766 3.33464 7.50228 5.10632 5.74681 6.92682C4.86607 7.84017 4.22757 8.75661 3.81066 9.44327ZM27.2263 10.5277C27.2266 10.5271 27.2268 10.5265 26.0013 10.0013L27.2268 10.5265C27.3706 10.1911 27.3706 9.81148 27.2268 9.47608L26.0013 10.0013C27.2268 9.47608 27.2266 9.4755 27.2263 9.4749L27.2257 9.47354L27.2243 9.47026L27.2205 9.46152L27.209 9.4354C27.1995 9.41423 27.1866 9.38559 27.17 9.34998C27.137 9.27877 27.0896 9.17959 27.0274 9.05642C26.903 8.81027 26.719 8.46714 26.4714 8.05933C25.9776 7.246 25.2232 6.16243 24.1754 5.07579C22.0737 2.89628 18.748 0.667969 14.0013 0.667969C9.25456 0.667969 5.92889 2.89628 3.82722 5.07579C2.77939 6.16243 2.02504 7.246 1.53123 8.05933C1.28363 8.46714 1.09956 8.81027 0.975234 9.05642C0.913019 9.17959 0.865612 9.27877 0.832554 9.34998C0.81602 9.38559 0.803062 9.41423 0.793621 9.4354L0.782086 9.46152L0.778281 9.47026L0.776866 9.47354L0.77628 9.4749C0.776021 9.4755 0.775775 9.47608 2.00126 10.0013L0.775775 9.47608C0.632033 9.81148 0.632033 10.1911 0.775775 10.5265L2.00126 10.0013C0.775775 10.5265 0.776021 10.5271 0.77628 10.5277L0.776866 10.5291L0.778281 10.5323L0.782086 10.5411L0.793621 10.5672C0.803062 10.5884 0.81602 10.617 0.832554 10.6526C0.865612 10.7238 0.913019 10.823 0.975234 10.9462C1.09956 11.1923 1.28363 11.5355 1.53123 11.9433C2.02504 12.7566 2.77939 13.8402 3.82722 14.9268C5.92889 17.1063 9.25456 19.3346 14.0013 19.3346C18.748 19.3346 22.0737 17.1063 24.1754 14.9268C25.2232 13.8402 25.9776 12.7566 26.4714 11.9433C26.719 11.5355 26.903 11.1923 27.0274 10.9462C27.0896 10.823 27.137 10.7238 27.17 10.6526C27.1866 10.617 27.1995 10.5884 27.209 10.5672L27.2205 10.5411L27.2243 10.5323L27.2257 10.5291L27.2263 10.5277ZM14.0013 12.668C12.5285 12.668 11.3346 11.4741 11.3346 10.0013C11.3346 8.52854 12.5285 7.33464 14.0013 7.33464C15.4741 7.33464 16.668 8.52854 16.668 10.0013C16.668 11.4741 15.4741 12.668 14.0013 12.668ZM8.66797 10.0013C8.66797 7.05578 11.0558 4.66797 14.0013 4.66797C16.9468 4.66797 19.3346 7.05578 19.3346 10.0013C19.3346 12.9468 16.9468 15.3346 14.0013 15.3346C11.0558 15.3346 8.66797 12.9468 8.66797 10.0013Z" fill="black"/>
</svg>
