<svg width="31" height="32" viewBox="0 0 31 32" fill="none" xmlns="http://www.w3.org/2000/svg">
<path fill-rule="evenodd" clip-rule="evenodd" d="M6.93196 16.4433C7.53526 15.8426 8.50254 15.8537 9.09243 16.468C9.68232 17.0822 9.67145 18.0671 9.06815 18.6677L5.49785 22.2221L29.2501 22.2221C30.0938 22.2221 30.7778 22.9186 30.7778 23.7777C30.7778 24.6368 30.0938 25.3333 29.2501 25.3333L5.49785 25.3333L9.06815 28.8877C9.67145 29.4883 9.68232 30.4732 9.09243 31.0874C8.50254 31.7017 7.53526 31.7128 6.93196 31.1122L0.681955 24.8899C0.387985 24.5973 0.222275 24.1963 0.222275 23.7777C0.222275 23.3591 0.387985 22.9581 0.681955 22.6655L6.93196 16.4433ZM24.0681 0.887695C23.4648 0.287077 22.4976 0.298143 21.9077 0.912411C21.3178 1.52668 21.3287 2.51154 21.932 3.11216L25.5023 6.66659L1.75005 6.66659C0.906285 6.66659 0.222275 7.36304 0.222275 8.22215C0.222275 9.08126 0.906285 9.7777 1.75005 9.7777L25.5023 9.7777L21.932 13.3321C21.3287 13.9328 21.3178 14.9176 21.9077 15.5319C22.4976 16.1462 23.4648 16.1572 24.0681 15.5566L30.3182 9.33438C30.6121 9.04172 30.7778 8.64077 30.7778 8.22215C30.7778 7.80353 30.6121 7.40258 30.3182 7.10992L24.0681 0.887695Z" fill="#5E6A7A"/>
</svg>
