<svg width="16" height="16" viewBox="0 0 16 16" fill="none" xmlns="http://www.w3.org/2000/svg">
<path fill-rule="evenodd" clip-rule="evenodd" d="M7.74622 10.4056L11.1299 6.81492C11.4173 6.45875 11.398 5.92784 11.0856 5.59626C10.7731 5.26469 10.2728 5.24418 9.93717 5.54919L7.15407 8.50255L6.06283 7.34455C5.7272 7.03954 5.22689 7.06004 4.91443 7.39162C4.60198 7.72319 4.58265 8.25411 4.87008 8.61027L6.56193 10.4056C6.89187 10.7537 7.42474 10.7537 7.75468 10.4056H7.74622ZM8 0C3.58172 0 0 3.58172 0 8C0 12.4183 3.58172 16 8 16C12.4183 16 16 12.4183 16 8C16 3.58172 12.4183 0 8 0Z" fill="#00BF85"/>
</svg>
