<svg width="35" height="35" viewBox="0 0 35 35" fill="none" xmlns="http://www.w3.org/2000/svg">
<path fill-rule="evenodd" clip-rule="evenodd" d="M33.7049 3.92705C34.4317 3.20024 34.4317 2.02185 33.7049 1.29505C32.9781 0.568237 31.7997 0.568237 31.0729 1.29505L17.5 14.8679L3.92712 1.29505C3.20031 0.568237 2.02192 0.568237 1.29511 1.29505C0.568301 2.02185 0.568301 3.20024 1.29511 3.92705L14.868 17.4999L1.29511 31.0728C0.568298 31.7996 0.568298 32.978 1.29511 33.7048C2.02192 34.4316 3.20031 34.4316 3.92712 33.7048L17.5 20.1319L31.0729 33.7048C31.7997 34.4316 32.9781 34.4316 33.7049 33.7048C34.4317 32.978 34.4317 31.7996 33.7049 31.0728L20.132 17.4999L33.7049 3.92705Z" fill="#FE7977"/>
</svg>
