<svg width="20" height="20" viewBox="0 0 20 20" fill="none" xmlns="http://www.w3.org/2000/svg">
<path fill-rule="evenodd" clip-rule="evenodd" d="M0 10C0 15.5229 4.47715 20 10 20C15.5228 20 20 15.5229 20 10C20 4.47718 15.5228 3.05176e-05 10 3.05176e-05C4.47715 3.05176e-05 0 4.47718 0 10ZM2 10C2 5.58175 5.58172 2.00003 10 2.00003C14.4183 2.00003 18 5.58175 18 10C18 14.4183 14.4183 18 10 18C5.58172 18 2 14.4183 2 10ZM9.70711 6.29292C9.31658 5.9024 8.68342 5.9024 8.29289 6.29292C7.90237 6.68345 7.90237 7.31661 8.29289 7.70714L10.5858 10L8.29289 12.2929C7.90237 12.6834 7.90237 13.3166 8.29289 13.7071C8.68342 14.0977 9.31658 14.0977 9.70711 13.7071L12.7071 10.7071C13.0976 10.3166 13.0976 9.68345 12.7071 9.29292L9.70711 6.29292Z" fill="#006EB4"/>
</svg>
