<svg width="21" height="18" viewBox="0 0 21 18" fill="none" xmlns="http://www.w3.org/2000/svg">
<path d="M5.51122 10.0808C5.38916 10.1257 5.27831 10.1974 5.18653 10.2907C5.09474 10.384 5.02426 10.4967 4.98009 10.6208C4.90854 10.8025 4.89103 11.0016 4.92972 11.1934C4.96841 11.3851 5.0616 11.5611 5.19774 11.6995C5.33387 11.8379 5.50697 11.9327 5.69558 11.972C5.88418 12.0114 6.07999 11.9935 6.25873 11.9208C6.37792 11.8702 6.4877 11.7991 6.58331 11.7108C6.67019 11.6136 6.74005 11.502 6.78986 11.3808C6.84492 11.2621 6.87187 11.132 6.86854 11.0008C6.86492 10.736 6.76304 10.4824 6.58331 10.2908C6.44499 10.152 6.26935 10.0581 6.07855 10.0207C5.88775 9.9833 5.69033 10.0042 5.51122 10.0808ZM18.4353 6.0808L17.0976 2.0508C16.8936 1.46403 16.5151 0.956307 16.0146 0.597964C15.5142 0.239622 14.9164 0.0484044 14.3043 0.0508036H7.30131C6.68918 0.0484044 6.09147 0.239622 5.59098 0.597964C5.0905 0.956307 4.71202 1.46403 4.50798 2.0508L3.17032 6.1108C2.54116 6.27831 1.98406 6.65247 1.58563 7.1751C1.1872 7.69774 0.969765 8.33957 0.967133 9.0008V13.0008C0.968843 13.6197 1.15881 14.223 1.51099 14.7279C1.86316 15.2327 2.36031 15.6145 2.93427 15.8208V17.0008C2.93427 17.266 3.03789 17.5204 3.22235 17.7079C3.4068 17.8954 3.65698 18.0008 3.91784 18.0008C4.17869 18.0008 4.42887 17.8954 4.61332 17.7079C4.79778 17.5204 4.9014 17.266 4.9014 17.0008V16.0008H16.7042V17.0008C16.7042 17.266 16.8078 17.5204 16.9923 17.7079C17.1768 17.8954 17.4269 18.0008 17.6878 18.0008C17.9486 18.0008 18.1988 17.8954 18.3833 17.7079C18.5677 17.5204 18.6714 17.266 18.6714 17.0008V15.8208C19.2453 15.6145 19.7425 15.2327 20.0946 14.7279C20.4468 14.223 20.6368 13.6197 20.6385 13.0008V9.0008C20.6359 8.33957 20.4184 7.69774 20.02 7.1751C19.6216 6.65247 19.0645 6.27831 18.4353 6.1108V6.0808ZM6.36692 2.6808C6.4329 2.48218 6.55862 2.30967 6.72629 2.18765C6.89396 2.06562 7.09511 2.00026 7.30131 2.0008H14.3043C14.5188 1.98942 14.7311 2.04973 14.9087 2.17252C15.0863 2.29531 15.2194 2.47382 15.2879 2.6808L16.3206 6.0008H5.285L6.36692 2.6808ZM18.6714 13.0008C18.6714 13.266 18.5677 13.5204 18.3833 13.7079C18.1988 13.8954 17.9486 14.0008 17.6878 14.0008H3.91784C3.65698 14.0008 3.4068 13.8954 3.22235 13.7079C3.03789 13.5204 2.93427 13.266 2.93427 13.0008V9.0008C2.93427 8.73559 3.03789 8.48123 3.22235 8.2937C3.4068 8.10616 3.65698 8.0008 3.91784 8.0008H17.6878C17.9486 8.0008 18.1988 8.10616 18.3833 8.2937C18.5677 8.48123 18.6714 8.73559 18.6714 9.0008V13.0008ZM15.3469 10.0808C15.2248 10.1257 15.114 10.1974 15.0222 10.2907C14.9304 10.384 14.8599 10.4967 14.8158 10.6208C14.7442 10.8025 14.7267 11.0016 14.7654 11.1934C14.8041 11.3851 14.8973 11.5611 15.0334 11.6995C15.1696 11.8379 15.3427 11.9327 15.5313 11.972C15.7199 12.0114 15.9157 11.9935 16.0944 11.9208C16.2165 11.8759 16.3273 11.8042 16.4191 11.7109C16.5109 11.6176 16.5814 11.5049 16.6255 11.3808C16.6806 11.2621 16.7075 11.132 16.7042 11.0008C16.7006 10.736 16.5987 10.4824 16.419 10.2908C16.2807 10.152 16.105 10.0581 15.9142 10.0207C15.7234 9.9833 15.526 10.0042 15.3469 10.0808ZM11.7864 10.0008H9.81924C9.55839 10.0008 9.30821 10.1062 9.12376 10.2937C8.9393 10.4812 8.83568 10.7356 8.83568 11.0008C8.83568 11.266 8.9393 11.5204 9.12376 11.7079C9.30821 11.8954 9.55839 12.0008 9.81924 12.0008H11.7864C12.0472 12.0008 12.2974 11.8954 12.4819 11.7079C12.6663 11.5204 12.7699 11.266 12.7699 11.0008C12.7699 10.7356 12.6663 10.4812 12.4819 10.2937C12.2974 10.1062 12.0472 10.0008 11.7864 10.0008Z" fill="#F56C00"/>
</svg>
