<svg width="42" height="38" viewBox="0 0 42 38" fill="none" xmlns="http://www.w3.org/2000/svg">
<path fill-rule="evenodd" clip-rule="evenodd" d="M23.0846 37.75C28.9516 37.75 33.7323 34.9445 36.4328 32.244C39.1468 29.53 41.8346 24.8508 41.8346 19C41.8346 13.133 39.0291 8.35239 36.3286 5.65186C33.6146 2.93784 28.9354 0.25 23.0846 0.25C21.934 0.25 21.0013 1.18274 21.0013 2.33334C21.0013 3.48393 21.934 4.41667 23.0846 4.41667C27.6505 4.41667 31.3126 6.52842 33.3823 8.59814C35.4655 10.6814 37.668 14.4503 37.668 19C37.668 23.5659 35.5562 27.228 33.4865 29.2977C31.4033 31.3809 27.6343 33.5833 23.0846 33.5833C18.5188 33.5833 14.8567 31.4716 12.7869 29.4019C11.0856 27.7005 9.30465 24.8747 8.70897 21.4174L10.3249 22.7101C11.2233 23.4289 12.5343 23.2832 13.2531 22.3848C13.9719 21.4863 13.8262 20.1753 12.9278 19.4565L7.71942 15.2899C6.89048 14.6267 5.69547 14.6929 4.94483 15.4435L0.778163 19.6102C-0.0354294 20.4238 -0.0354294 21.7429 0.778163 22.5565C1.59176 23.3701 2.91085 23.3701 3.72444 22.5565L4.54002 21.7409C5.23385 26.3501 7.57423 30.0817 9.84066 32.3481C12.5547 35.0622 17.2338 37.75 23.0846 37.75Z" fill="#50555A"/>
</svg>
