<svg width="12" height="18" viewBox="0 0 12 18" fill="none" xmlns="http://www.w3.org/2000/svg">
<path fill-rule="evenodd" clip-rule="evenodd" d="M0.292894 5.29289C-0.0976306 5.68342 -0.0976306 6.31658 0.292894 6.70711C0.683418 7.09763 1.31658 7.09763 1.70711 6.70711L6 2.41421L10.2929 6.70711C10.6834 7.09763 11.3166 7.09763 11.7071 6.70711C12.0976 6.31658 12.0976 5.68342 11.7071 5.29289L6.70711 0.292893C6.51957 0.105357 6.26522 -1.11759e-08 6 -1.11759e-08C5.73478 -1.11759e-08 5.48043 0.105357 5.29289 0.292893L0.292894 5.29289ZM11.7071 12.7071C12.0976 12.3166 12.0976 11.6834 11.7071 11.2929C11.3166 10.9024 10.6834 10.9024 10.2929 11.2929L6 15.5858L1.70711 11.2929C1.31658 10.9024 0.683417 10.9024 0.292894 11.2929C-0.0976312 11.6834 -0.0976312 12.3166 0.292894 12.7071L5.29289 17.7071C5.68342 18.0976 6.31658 18.0976 6.70711 17.7071L11.7071 12.7071Z" fill="#50555A"/>
</svg>
