<svg width="18" height="20" viewBox="0 0 18 20" fill="none" xmlns="http://www.w3.org/2000/svg">
<path fill-rule="evenodd" clip-rule="evenodd" d="M0 3.03583C0 1.35919 1.34315 0 3 0H15C16.6569 0 18 1.35919 18 3.03583V13.9283C18 15.0782 17.358 16.1294 16.3416 16.6437L10.3416 19.6795C9.49706 20.1068 8.50294 20.1068 7.65836 19.6795L1.65836 16.6437C0.642006 16.1294 0 15.0782 0 13.9283V3.03583ZM3 2.02389C2.44772 2.02389 2 2.47695 2 3.03583V13.9283C2 14.3116 2.214 14.662 2.55279 14.8334L8.55279 17.8693C8.83431 18.0117 9.16569 18.0117 9.44721 17.8693L15.4472 14.8334C15.786 14.662 16 14.3116 16 13.9283V3.03583C16 2.47695 15.5523 2.02389 15 2.02389H3Z" fill="#0057FF"/>
<path d="M8.99988 3.79727C8.31775 3.79727 7.77258 4.37185 7.79984 5.06202L8.02491 10.7597C8.04584 11.2896 8.47616 11.7083 8.99988 11.7083C9.5236 11.7083 9.95392 11.2896 9.97485 10.7597L10.1999 5.06202C10.2272 4.37185 9.682 3.79727 8.99988 3.79727Z" fill="#0057FF"/>
<path d="M7.5625 14.7144C7.5625 13.928 8.1921 13.2905 8.96875 13.2905C9.7454 13.2905 10.375 13.928 10.375 14.7144C10.375 15.5009 9.7454 16.1384 8.96875 16.1384C8.1921 16.1384 7.5625 15.5009 7.5625 14.7144Z" fill="#0057FF"/>
</svg>
