<svg width="20" height="17" viewBox="0 0 20 17" fill="none" xmlns="http://www.w3.org/2000/svg">
<path fill-rule="evenodd" clip-rule="evenodd" d="M0 3.11695V13.284C0 14.9686 1.34315 16.3341 3 16.3341H17C18.6569 16.3341 20 14.9686 20 13.284V3.11695C20 1.43242 18.6569 0.0668335 17 0.0668335H3C1.34315 0.0668335 0 1.43242 0 3.11695ZM3 14.3007C2.44772 14.3007 2 13.8455 2 13.284L2 3.11695C2 2.55544 2.44772 2.10025 3 2.10025L17 2.10025C17.5523 2.10025 18 2.55544 18 3.11695V13.284C18 13.8455 17.5523 14.3007 17 14.3007L3 14.3007ZM3 9.21719C3 8.65568 3.44772 8.20049 4 8.20049H7C7.55229 8.20049 8 8.65568 8 9.21719C8 9.7787 7.55229 10.2339 7 10.2339H4C3.44772 10.2339 3 9.7787 3 9.21719ZM4 11.2506C3.44772 11.2506 3 11.7058 3 12.2673C3 12.8288 3.44772 13.284 4 13.284H9.5C10.0523 13.284 10.5 12.8288 10.5 12.2673C10.5 11.7058 10.0523 11.2506 9.5 11.2506H4Z" fill="black"/>
</svg>
