<svg width="44" height="33" viewBox="0 0 44 33" fill="none" xmlns="http://www.w3.org/2000/svg">
<path d="M11.3307 21.3978H17.7307C18.2965 21.3978 18.8391 21.173 19.2392 20.7729C19.6393 20.3729 19.8641 19.8302 19.8641 19.2645C19.8641 18.6987 19.6393 18.156 19.2392 17.756C18.8391 17.3559 18.2965 17.1311 17.7307 17.1311H11.3307C10.7649 17.1311 10.2223 17.3559 9.82224 17.756C9.42216 18.156 9.1974 18.6987 9.1974 19.2645C9.1974 19.8302 9.42216 20.3729 9.82224 20.7729C10.2223 21.173 10.7649 21.3978 11.3307 21.3978ZM36.9307 0.0644531H7.06406C5.36668 0.0644531 3.73881 0.738737 2.53858 1.93897C1.33835 3.1392 0.664063 4.76707 0.664062 6.46445V25.6645C0.664063 27.3618 1.33835 28.9897 2.53858 30.1899C3.73881 31.3902 5.36668 32.0645 7.06406 32.0645H36.9307C38.6281 32.0645 40.256 31.3902 41.4562 30.1899C42.6564 28.9897 43.3307 27.3618 43.3307 25.6645V6.46445C43.3307 4.76707 42.6564 3.1392 41.4562 1.93897C40.256 0.738737 38.6281 0.0644531 36.9307 0.0644531ZM39.0641 25.6645C39.0641 26.2302 38.8393 26.7729 38.4392 27.1729C38.0392 27.573 37.4965 27.7978 36.9307 27.7978H7.06406C6.49827 27.7978 5.95565 27.573 5.55557 27.1729C5.15549 26.7729 4.93073 26.2302 4.93073 25.6645V12.8645H39.0641V25.6645ZM39.0641 8.59779H4.93073V6.46445C4.93073 5.89866 5.15549 5.35604 5.55557 4.95596C5.95565 4.55588 6.49827 4.33112 7.06406 4.33112H36.9307C37.4965 4.33112 38.0392 4.55588 38.4392 4.95596C38.8393 5.35604 39.0641 5.89866 39.0641 6.46445V8.59779Z" fill="#FF9311"/>
</svg>
