<svg width="32" height="32" viewBox="0 0 32 32" fill="none" xmlns="http://www.w3.org/2000/svg">
<rect width="32" height="32" rx="4" fill="#50555A"/>
<path fill-rule="evenodd" clip-rule="evenodd" d="M11 7C11 6.44772 11.4477 6 12 6C12.5523 6 13 6.44772 13 7V8H19V7C19 6.44772 19.4477 6 20 6C20.5523 6 21 6.44772 21 7V8H22C23.6569 8 25 9.34314 25 11V13V23C25 24.6569 23.6569 26 22 26H10C8.34315 26 7 24.6569 7 23V13V11C7 9.34315 8.34315 8 10 8H11V7ZM12 10H20H22C22.5523 10 23 10.4477 23 11V12H9V11C9 10.4477 9.44772 10 10 10H12ZM9 14V23C9 23.5523 9.44772 24 10 24H22C22.5523 24 23 23.5523 23 23V14L9 14ZM18.808 17.5892C19.1334 17.1429 19.0354 16.5174 18.5892 16.192C18.1429 15.8666 17.5174 15.9646 17.192 16.4108L15.0506 19.3476L14.284 18.3793C13.9412 17.9463 13.3123 17.8731 12.8793 18.216C12.4463 18.5588 12.3731 19.1877 12.716 19.6207L14.2993 21.6207C14.4933 21.8657 14.7907 22.006 15.1031 21.9998C15.4156 21.9936 15.7072 21.8417 15.8913 21.5892L18.808 17.5892Z" fill="white"/>
</svg>
