<svg width="19" height="18" viewBox="0 0 19 18" fill="none" xmlns="http://www.w3.org/2000/svg">
<path fill-rule="evenodd" clip-rule="evenodd"
d="M10.8608 1.11509C10.8608 0.499245 10.3616 0 9.74575 0C9.1299
0 8.63066 0.499245 8.63066 1.11509L8.63066 7.80566L1.7816 7.80566C1.16575 7.80566
0.666504 8.3049 0.666504 8.92075C0.666504 9.5366 1.16575 10.0358 1.7816 10.0358H8.63066L8.63066
16.8849C8.63065 17.5008 9.1299 18 9.74575 18C10.3616 18 10.8608 17.5008 10.8608 16.8849L10.8608
10.0358H17.5514C18.1673 10.0358 18.6665 9.5366 18.6665 8.92075C18.6665 8.3049 18.1673 7.80566
17.5514 7.80566L10.8608 7.80566L10.8608 1.11509Z" fill="black"/>
</svg>
