<svg width="32" height="32" viewBox="0 0 32 32" fill="none" xmlns="http://www.w3.org/2000/svg">
<rect x="0.5" y="0.5" width="31" height="31" rx="3.5" fill="white" stroke="#EAEEF0"/>
<path fill-rule="evenodd" clip-rule="evenodd" d="M20.3013 15.8553L16 22.9501L11.6987 15.8553C9.61249 12.4141 12.0364 7.97091 16 7.97091C19.9636 7.97091 22.3875 12.4141 20.3013 15.8553ZM10.0576 16.8927C7.17532 12.1385 10.5241 6 16 6C21.4759 6 24.8247 12.1385 21.9424 16.8927L16.6427 25.6344C16.3472 26.1219 15.6528 26.1219 15.3573 25.6344L10.0576 16.8927ZM16.0002 10.9273C14.9342 10.9273 14.07 11.8097 14.07 12.8982C14.07 13.9867 14.9342 14.8691 16.0002 14.8691C17.0662 14.8691 17.9304 13.9867 17.9304 12.8982C17.9304 11.8097 17.0662 10.9273 16.0002 10.9273Z" fill="#50555A"/>
</svg>
