<svg width="28" height="21" viewBox="0 0 28 21" fill="none" xmlns="http://www.w3.org/2000/svg">
<path d="M7.33464 14.0013H11.3346C11.6883 14.0013 12.0274 13.8608 12.2774 13.6108C12.5275 13.3607 12.668 13.0216 12.668 12.668C12.668 12.3143 12.5275 11.9752 12.2774 11.7252C12.0274 11.4751 11.6883 11.3346 11.3346 11.3346H7.33464C6.98101 11.3346 6.64188 11.4751 6.39183 11.7252C6.14178 11.9752 6.0013 12.3143 6.0013 12.668C6.0013 13.0216 6.14178 13.3607 6.39183 13.6108C6.64188 13.8608 6.98101 14.0013 7.33464 14.0013ZM23.3346 0.667969H4.66797C3.6071 0.667969 2.58969 1.0894 1.83954 1.83954C1.0894 2.58969 0.667969 3.6071 0.667969 4.66797V16.668C0.667969 17.7288 1.0894 18.7463 1.83954 19.4964C2.58969 20.2465 3.6071 20.668 4.66797 20.668H23.3346C24.3955 20.668 25.4129 20.2465 26.1631 19.4964C26.9132 18.7463 27.3346 17.7288 27.3346 16.668V4.66797C27.3346 3.6071 26.9132 2.58969 26.1631 1.83954C25.4129 1.0894 24.3955 0.667969 23.3346 0.667969ZM24.668 16.668C24.668 17.0216 24.5275 17.3607 24.2774 17.6108C24.0274 17.8608 23.6883 18.0013 23.3346 18.0013H4.66797C4.31435 18.0013 3.97521 17.8608 3.72516 17.6108C3.47511 17.3607 3.33464 17.0216 3.33464 16.668V8.66797H24.668V16.668ZM24.668 6.0013H3.33464V4.66797C3.33464 4.31435 3.47511 3.97521 3.72516 3.72516C3.97521 3.47511 4.31435 3.33464 4.66797 3.33464H23.3346C23.6883 3.33464 24.0274 3.47511 24.2774 3.72516C24.5275 3.97521 24.668 4.31435 24.668 4.66797V6.0013Z" fill="#F56C00"/>
</svg>
