<svg width="28" height="22" viewBox="0 0 28 22" fill="none" xmlns="http://www.w3.org/2000/svg">
<path fill-rule="evenodd" clip-rule="evenodd" d="M7.12729 0.207031H20.8753C22.5567 0.207031 24.0494 1.28293 24.5811 2.87802L26.7549 9.39927C26.9319 9.93035 27.0221 10.4865 27.0221 11.0463V17.1341C27.0221 19.2915 25.2732 21.0404 23.1159 21.0404H4.88672C2.72936 21.0404 0.980469 19.2915 0.980469 17.1341V11.0463C0.980469 10.4865 1.07072 9.93035 1.24774 9.39927L3.4215 2.87802C3.95319 1.28293 5.44592 0.207031 7.12729 0.207031ZM7.12729 2.8112C6.56683 2.8112 6.06926 3.16983 5.89203 3.70153L3.71827 10.2228C3.62976 10.4883 3.58464 10.7664 3.58464 11.0463V17.1341C3.58464 17.8532 4.1676 18.4362 4.88672 18.4362H23.1159C23.835 18.4362 24.418 17.8532 24.418 17.1341V11.0463C24.418 10.7664 24.3728 10.4883 24.2843 10.2228L22.1106 3.70153C21.9333 3.16983 21.4358 2.8112 20.8753 2.8112H7.12729Z" fill="#50555A"/>
<path fill-rule="evenodd" clip-rule="evenodd" d="M8.98241 11.9258H2.28255V9.32161H10.0951C10.8107 9.32161 11.3915 9.89895 11.3971 10.6133C11.3971 10.6146 11.3972 10.6169 11.3973 10.6202C11.3977 10.6321 11.3989 10.6561 11.4015 10.6904C11.4069 10.7595 11.4184 10.8676 11.4427 11.0011C11.4923 11.2739 11.5892 11.6204 11.7708 11.9533C11.9485 12.279 12.201 12.582 12.5718 12.8085C12.9396 13.0333 13.4969 13.2279 14.3564 13.2279C15.2159 13.2279 15.7732 13.0333 16.141 12.8085C16.5118 12.582 16.7644 12.279 16.942 11.9533C17.1236 11.6204 17.2205 11.2739 17.2701 11.0011C17.2944 10.8676 17.3059 10.7595 17.3113 10.6904C17.314 10.6561 17.3151 10.6321 17.3155 10.6202C17.3156 10.617 17.3157 10.6146 17.3157 10.6133C17.3213 9.89895 17.9021 9.32161 18.6178 9.32161H25.7201V11.9258H19.7304C19.6298 12.3085 19.4733 12.7511 19.2282 13.2003C18.8732 13.8512 18.3267 14.5248 17.499 15.0306C16.6683 15.5383 15.6276 15.832 14.3564 15.832C13.0852 15.832 12.0445 15.5383 11.2138 15.0306C10.3861 14.5248 9.83964 13.8512 9.48463 13.2003C9.23958 12.7511 9.08304 12.3085 8.98241 11.9258ZM11.3971 10.6223C11.3971 10.6223 11.3971 10.6224 11.3971 10.6223V10.6223Z" fill="#50555A"/>
</svg>
