<svg width="39" height="39" viewBox="0 0 39 39" fill="none" xmlns="http://www.w3.org/2000/svg">
<path fill-rule="evenodd" clip-rule="evenodd" d="M9.0626 20.0304C9.79753 19.3118 10.9758 19.325 11.6944 20.06C12.413 20.7949 12.3998 21.9732 11.6649 22.6918L7.31559 26.9444L36.2501 26.9444C37.278 26.9444 38.1112 27.7777 38.1112 28.8055C38.1112 29.8334 37.278 30.6666 36.2501 30.6666L7.31559 30.6666L11.6649 34.9193C12.3998 35.6379 12.413 36.8162 11.6944 37.5511C10.9758 38.286 9.79753 38.2993 9.0626 37.5807L1.44896 30.1362C1.09085 29.7861 0.888981 29.3064 0.888981 28.8055C0.888981 28.3047 1.09085 27.825 1.44896 27.4748L9.0626 20.0304ZM29.9376 1.41927C29.2027 0.700672 28.0243 0.713913 27.3057 1.44884C26.5871 2.18377 26.6004 3.36209 27.3353 4.08068L31.6846 8.33331L2.75009 8.33331C1.72223 8.33331 0.888981 9.16655 0.888981 10.1944C0.888981 11.2223 1.72223 12.0555 2.75009 12.0555L31.6846 12.0555L27.3353 16.3082C26.6004 17.0268 26.5871 18.2051 27.3057 18.94C28.0243 19.6749 29.2027 19.6882 29.9376 18.9696L37.5512 11.5251C37.9093 11.175 38.1112 10.6953 38.1112 10.1944C38.1112 9.69357 37.9093 9.21386 37.5512 8.86371L29.9376 1.41927Z" fill="#EBAA27"/>
</svg>
