<svg width="42" height="38" viewBox="0 0 42 38" fill="none" xmlns="http://www.w3.org/2000/svg">
<path d="M9.79297 21.2494C9.53444 21.343 9.29964 21.4922 9.10523 21.6867C8.91082 21.8811 8.76154 22.1159 8.66797 22.3744C8.51643 22.753 8.47933 23.1678 8.56127 23.5672C8.64322 23.9667 8.84061 24.3334 9.12897 24.6217C9.41733 24.9101 9.78398 25.1075 10.1835 25.1894C10.583 25.2714 10.9977 25.2343 11.3763 25.0827C11.6288 24.9772 11.8613 24.8293 12.0638 24.6452C12.2478 24.4427 12.3958 24.2102 12.5013 23.9577C12.6179 23.7105 12.675 23.4394 12.668 23.1661C12.6603 22.6145 12.4445 22.0861 12.0638 21.6869C11.7708 21.3978 11.3988 21.202 10.9947 21.1241C10.5905 21.0463 10.1724 21.0899 9.79297 21.2494ZM37.168 12.9161L34.3346 4.52023C33.9025 3.29779 33.1008 2.24003 32.0407 1.49348C30.9806 0.746934 29.7145 0.348564 28.418 0.353562H13.5846C12.2881 0.348564 11.022 0.746934 9.96193 1.49348C8.90183 2.24003 8.10015 3.29779 7.66797 4.52023L4.83464 12.9786C3.50198 13.3275 2.32196 14.107 1.47803 15.1959C0.634099 16.2847 0.173545 17.6218 0.167969 18.9994V27.3327C0.171593 28.6222 0.573966 29.879 1.31992 30.9308C2.06588 31.9826 3.11891 32.7779 4.33464 33.2077V35.6661C4.33464 36.2186 4.55413 36.7485 4.94483 37.1392C5.33553 37.5299 5.86543 37.7494 6.41797 37.7494C6.9705 37.7494 7.50041 37.5299 7.89111 37.1392C8.28181 36.7485 8.5013 36.2186 8.5013 35.6661V33.5827H33.5013V35.6661C33.5013 36.2186 33.7208 36.7485 34.1115 37.1392C34.5022 37.5299 35.0321 37.7494 35.5846 37.7494C36.1372 37.7494 36.6671 37.5299 37.0578 37.1392C37.4485 36.7485 37.668 36.2186 37.668 35.6661V33.2077C38.8837 32.7779 39.9367 31.9826 40.6827 30.9308C41.4286 29.879 41.831 28.6222 41.8346 27.3327V18.9994C41.8291 17.6218 41.3685 16.2847 40.5246 15.1959C39.6806 14.107 38.5006 13.3275 37.168 12.9786V12.9161ZM11.6055 5.83273C11.7452 5.41894 12.0115 5.05953 12.3667 4.80532C12.7218 4.5511 13.1479 4.41494 13.5846 4.41606H28.418C28.8723 4.39235 29.3219 4.51799 29.698 4.7738C30.0742 5.02961 30.3563 5.40152 30.5013 5.83273L32.6888 12.7494H9.3138L11.6055 5.83273ZM37.668 27.3327C37.668 27.8853 37.4485 28.4152 37.0578 28.8059C36.6671 29.1966 36.1372 29.4161 35.5846 29.4161H6.41797C5.86543 29.4161 5.33553 29.1966 4.94483 28.8059C4.55413 28.4152 4.33464 27.8853 4.33464 27.3327V18.9994C4.33464 18.4469 4.55413 17.917 4.94483 17.5263C5.33553 17.1356 5.86543 16.9161 6.41797 16.9161H35.5846C36.1372 16.9161 36.6671 17.1356 37.0578 17.5263C37.4485 17.917 37.668 18.4469 37.668 18.9994V27.3327ZM30.6263 21.2494C30.3678 21.343 30.133 21.4922 29.9386 21.6867C29.7442 21.8811 29.5949 22.1159 29.5013 22.3744C29.3498 22.753 29.3127 23.1678 29.3946 23.5672C29.4766 23.9667 29.6739 24.3334 29.9623 24.6217C30.2507 24.9101 30.6173 25.1075 31.0168 25.1894C31.4163 25.2714 31.831 25.2343 32.2096 25.0827C32.4682 24.9892 32.703 24.8399 32.8974 24.6455C33.0918 24.4511 33.2411 24.2163 33.3346 23.9577C33.4513 23.7105 33.5083 23.4394 33.5013 23.1661C33.4936 22.6145 33.2778 22.0861 32.8971 21.6869C32.6042 21.3978 32.2321 21.202 31.828 21.1241C31.4239 21.0463 31.0057 21.0899 30.6263 21.2494ZM23.0846 21.0827H18.918C18.3654 21.0827 17.8355 21.3022 17.4448 21.6929C17.0541 22.0836 16.8346 22.6135 16.8346 23.1661C16.8346 23.7186 17.0541 24.2485 17.4448 24.6392C17.8355 25.0299 18.3654 25.2494 18.918 25.2494H23.0846C23.6372 25.2494 24.1671 25.0299 24.5578 24.6392C24.9485 24.2485 25.168 23.7186 25.168 23.1661C25.168 22.6135 24.9485 22.0836 24.5578 21.6929C24.1671 21.3022 23.6372 21.0827 23.0846 21.0827Z" fill="#14ACE8"/>
</svg>
