<svg width="39" height="39" viewBox="0 0 39 39" fill="none" xmlns="http://www.w3.org/2000/svg">
<path fill-rule="evenodd" clip-rule="evenodd" d="M19.5001 0.888824C20.8422 0.888824 22.0804 1.61132 22.7407 2.77976L27.2732 10.8002L35.1037 12.3322C36.4678 12.5991 37.5696 13.6038 37.9608 14.9376C38.352 16.2715 37.9674 17.7121 36.9634 18.6735L31.0077 24.3768L32.3855 33.8533C32.5853 35.228 32.0031 36.5995 30.8753 37.4106C29.7476 38.2217 28.262 38.3374 27.0224 37.7106L19.5001 33.907L11.9779 37.7106C10.7382 38.3374 9.25266 38.2217 8.12492 37.4106C6.99718 36.5995 6.41493 35.228 6.6148 33.8533L7.99258 24.3768L2.03683 18.6735C1.03289 17.7121 0.648278 16.2715 1.03946 14.9376C1.43064 13.6038 2.53243 12.5991 3.89658 12.3322L11.7271 10.8002L16.2596 2.77976C16.9199 1.61132 18.158 0.888824 19.5001 0.888824ZM14.1242 14.124L4.61124 15.9851L11.952 23.0147L10.2983 34.3888L19.5001 29.736L28.702 34.3888L27.0483 23.0147L34.389 15.9851L24.876 14.124L19.5001 4.61105L14.1242 14.124Z" fill="#14ACE8"/>
</svg>
