<svg width="20" height="20" viewBox="0 0 20 20" fill="none" xmlns="http://www.w3.org/2000/svg">
<path fill-rule="evenodd" clip-rule="evenodd" d="M5.41422 0H14.5858C15.3814 0 16.1445 0.316071 16.7071 0.87868L19.1213 3.29289C19.6839 3.8555 20 4.61856 20 5.41421V7V17C20 18.6569 18.6569 20 17 20H3C1.34315 20 0 18.6569 0 17V7V5.41421C0 4.61856 0.316071 3.8555 0.87868 3.29289L3.29289 0.87868C3.8555 0.316071 4.61856 0 5.41422 0ZM15.2929 2.29289L17 4H3L4.70711 2.29289C4.89464 2.10536 5.149 2 5.41422 2H14.5858C14.851 2 15.1054 2.10536 15.2929 2.29289ZM2 7.45808V17C2 17.5523 2.44772 18 3 18H17C17.5523 18 18 17.5523 18 17V7.45808L16.1178 10.1469C15.7436 10.6816 15.132 11 14.4793 11H5.52066C4.86803 11 4.25645 10.6816 3.88219 10.1469L2 7.45808ZM16.5793 6H3.42066L5.52066 9L14.4793 9L16.5793 6Z" fill="#F56C00"/>
</svg>
