<svg width="17" height="17" viewBox="0 0 17 17" fill="none" xmlns="http://www.w3.org/2000/svg">
<path fill-rule="evenodd" clip-rule="evenodd" d="M16.1187 2.11872C16.4604 1.77701 16.4604 1.22299 16.1187 0.881282C15.777 0.539573 15.223 0.539573 14.8813 0.881282L8.5 7.26256L2.11872 0.881282C1.77701 0.539573 1.22299 0.539573 0.881283 0.881282C0.539574 1.22299 0.539574 1.77701 0.881283 2.11872L7.26256 8.5L0.881282 14.8813C0.539573 15.223 0.539573 15.777 0.881282 16.1187C1.22299 16.4604 1.77701 16.4604 2.11872 16.1187L8.5 9.73744L14.8813 16.1187C15.223 16.4604 15.777 16.4604 16.1187 16.1187C16.4604 15.777 16.4604 15.223 16.1187 14.8813L9.73744 8.5L16.1187 2.11872Z" fill="#FF9100"/>
</svg>
