<svg width="28" height="26" viewBox="0 0 28 26" fill="none" xmlns="http://www.w3.org/2000/svg">
<path d="M6.4684 14.5122C6.29466 14.5751 6.13688 14.6754 6.00624 14.806C5.87559 14.9367 5.77527 15.0945 5.7124 15.2682C5.61056 15.5226 5.58563 15.8013 5.6407 16.0698C5.69577 16.3382 5.82841 16.5846 6.02219 16.7784C6.21597 16.9722 6.46236 17.1048 6.73081 17.1599C6.99927 17.215 7.27798 17.19 7.5324 17.0882C7.70206 17.0173 7.85832 16.9179 7.9944 16.7942C8.11806 16.6581 8.2175 16.5018 8.2884 16.3322C8.36677 16.166 8.40513 15.9838 8.4004 15.8002C8.39524 15.4295 8.25022 15.0745 7.9944 14.8062C7.79752 14.6119 7.54752 14.4803 7.27594 14.428C7.00435 14.3757 6.72335 14.405 6.4684 14.5122ZM24.8644 8.91219L22.9604 3.27019C22.67 2.44871 22.1312 1.73789 21.4189 1.23621C20.7065 0.734531 19.8557 0.466826 18.9844 0.470185H9.0164C8.1451 0.466826 7.29432 0.734531 6.58194 1.23621C5.86955 1.73789 5.33083 2.44871 5.0404 3.27019L3.1364 8.95419C2.24085 9.1887 1.44788 9.71252 0.880758 10.4442C0.313636 11.1759 0.00414399 12.0745 0.000396729 13.0002V18.6002C0.00283204 19.4667 0.273227 20.3113 0.774511 21.0181C1.27579 21.7249 1.98343 22.2594 2.8004 22.5482V24.2002C2.8004 24.5715 2.9479 24.9276 3.21045 25.1901C3.473 25.4527 3.82909 25.6002 4.2004 25.6002C4.5717 25.6002 4.9278 25.4527 5.19035 25.1901C5.4529 24.9276 5.6004 24.5715 5.6004 24.2002V22.8002H22.4004V24.2002C22.4004 24.5715 22.5479 24.9276 22.8104 25.1901C23.073 25.4527 23.4291 25.6002 23.8004 25.6002C24.1717 25.6002 24.5278 25.4527 24.7903 25.1901C25.0529 24.9276 25.2004 24.5715 25.2004 24.2002V22.5482C26.0174 22.2594 26.725 21.7249 27.2263 21.0181C27.7276 20.3113 27.998 19.4667 28.0004 18.6002V13.0002C27.9967 12.0745 27.6872 11.1759 27.12 10.4442C26.5529 9.71252 25.7599 9.1887 24.8644 8.95419V8.91219ZM7.6864 4.15219C7.78032 3.87412 7.95925 3.6326 8.19792 3.46176C8.43658 3.29093 8.7229 3.19943 9.0164 3.20019H18.9844C19.2897 3.18425 19.5918 3.26868 19.8446 3.44059C20.0974 3.61249 20.287 3.86241 20.3844 4.15219L21.8544 8.80019H6.1464L7.6864 4.15219ZM25.2004 18.6002C25.2004 18.9715 25.0529 19.3276 24.7903 19.5901C24.5278 19.8527 24.1717 20.0002 23.8004 20.0002H4.2004C3.82909 20.0002 3.473 19.8527 3.21045 19.5901C2.9479 19.3276 2.8004 18.9715 2.8004 18.6002V13.0002C2.8004 12.6289 2.9479 12.2728 3.21045 12.0102C3.473 11.7477 3.82909 11.6002 4.2004 11.6002H23.8004C24.1717 11.6002 24.5278 11.7477 24.7903 12.0102C25.0529 12.2728 25.2004 12.6289 25.2004 13.0002V18.6002ZM20.4684 14.5122C20.2947 14.5751 20.1369 14.6754 20.0062 14.806C19.8756 14.9367 19.7753 15.0945 19.7124 15.2682C19.6106 15.5226 19.5856 15.8013 19.6407 16.0698C19.6958 16.3382 19.8284 16.5846 20.0222 16.7784C20.216 16.9722 20.4624 17.1048 20.7308 17.1599C20.9993 17.215 21.278 17.19 21.5324 17.0882C21.7061 17.0253 21.8639 16.925 21.9946 16.7943C22.1252 16.6637 22.2255 16.5059 22.2884 16.3322C22.3668 16.166 22.4051 15.9838 22.4004 15.8002C22.3952 15.4295 22.2502 15.0745 21.9944 14.8062C21.7975 14.6119 21.5475 14.4803 21.2759 14.428C21.0044 14.3757 20.7234 14.405 20.4684 14.5122ZM15.4004 14.4002H12.6004C12.2291 14.4002 11.873 14.5477 11.6104 14.8102C11.3479 15.0728 11.2004 15.4289 11.2004 15.8002C11.2004 16.1715 11.3479 16.5276 11.6104 16.7901C11.873 17.0527 12.2291 17.2002 12.6004 17.2002H15.4004C15.7717 17.2002 16.1278 17.0527 16.3903 16.7901C16.6529 16.5276 16.8004 16.1715 16.8004 15.8002C16.8004 15.4289 16.6529 15.0728 16.3903 14.8102C16.1278 14.5477 15.7717 14.4002 15.4004 14.4002Z" fill="#14ACE8"/>
</svg>
