<svg width="30" height="23" viewBox="0 0 30 23" fill="none" xmlns="http://www.w3.org/2000/svg">
<path d="M7.8316 15.3005H12.1324C12.5126 15.3005 12.8773 15.1495 13.1461 14.8806C13.415 14.6118 13.566 14.2471 13.566 13.8669C13.566 13.4867 13.415 13.1221 13.1461 12.8532C12.8773 12.5843 12.5126 12.4333 12.1324 12.4333H7.8316C7.45139 12.4333 7.08675 12.5843 6.8179 12.8532C6.54905 13.1221 6.39801 13.4867 6.39801 13.8669C6.39801 14.2471 6.54905 14.6118 6.8179 14.8806C7.08675 15.1495 7.45139 15.3005 7.8316 15.3005ZM25.0348 0.964508H4.96441C3.82376 0.964508 2.72984 1.41763 1.92328 2.22418C1.11672 3.03074 0.663605 4.12466 0.663605 5.26531V18.1677C0.663605 19.3083 1.11672 20.4023 1.92328 21.2088C2.72984 22.0154 3.82376 22.4685 4.96441 22.4685H25.0348C26.1754 22.4685 27.2694 22.0154 28.0759 21.2088C28.8825 20.4023 29.3356 19.3083 29.3356 18.1677V5.26531C29.3356 4.12466 28.8825 3.03074 28.0759 2.22418C27.2694 1.41763 26.1754 0.964508 25.0348 0.964508ZM26.4684 18.1677C26.4684 18.5479 26.3174 18.9126 26.0485 19.1814C25.7797 19.4503 25.415 19.6013 25.0348 19.6013H4.96441C4.58419 19.6013 4.21955 19.4503 3.9507 19.1814C3.68184 18.9126 3.5308 18.5479 3.5308 18.1677V9.56611H26.4684V18.1677ZM26.4684 6.69891H3.5308V5.26531C3.5308 4.88509 3.68184 4.52045 3.9507 4.2516C4.21955 3.98275 4.58419 3.83171 4.96441 3.83171H25.0348C25.415 3.83171 25.7797 3.98275 26.0485 4.2516C26.3174 4.52045 26.4684 4.88509 26.4684 5.26531V6.69891Z" fill="#FAB70B"/>
</svg>
