<svg width="24" height="28" viewBox="0 0 24 28" fill="none" xmlns="http://www.w3.org/2000/svg">
<path fill-rule="evenodd" clip-rule="evenodd" d="M12.0001 -6.10352e-05L12.6143 0.311152L14.8521 1.44512L18.4325 0.235639C18.9594 0.0576264 19.5403 0.218839 19.9043 0.644103C20.2682 1.06937 20.3435 1.67493 20.0951 2.17843L17.823 6.78381L19.3606 8.14728C27.1279 15.035 22.321 27.9999 12.0001 27.9999C1.67911 27.9999 -3.12772 15.035 4.6396 8.14727L6.1772 6.78381L3.90503 2.17843C3.65662 1.67493 3.73194 1.06937 4.09588 0.644103C4.45983 0.218839 5.04071 0.0576264 5.56767 0.235639L9.14802 1.44512L11.3859 0.311152L12.0001 -6.10352e-05ZM16.1557 3.93891L14.9048 6.47418C14.6145 7.0314 14.7274 7.73753 15.2157 8.17057L17.5519 10.2421C23.4105 15.4373 19.7849 25.2164 12.0001 25.2164C4.21529 25.2164 0.589653 15.4373 6.4483 10.2421L8.78441 8.17057C9.27275 7.73754 9.38564 7.03141 9.09532 6.47418L7.84448 3.93891L8.81911 4.26815L9.35877 4.45046L9.86757 4.19264L12.0001 3.11207L14.1326 4.19264L14.6414 4.45046L15.181 4.26815L16.1557 3.93891ZM13.3731 10.6026C13.3731 9.83395 12.7582 9.21083 11.9997 9.21083C11.2413 9.21083 10.6264 9.83395 10.6264 10.6026V11.0985C9.0737 11.3234 7.88006 12.6766 7.88006 14.3124C7.88006 16.1054 9.31437 17.559 11.0837 17.559H12.919C13.1713 17.559 13.3759 17.7664 13.3759 18.0221C13.3759 18.2779 13.1713 18.4852 12.919 18.4852H9.71139C8.95291 18.4852 8.33805 19.1083 8.33805 19.877C8.33805 20.6457 8.95291 21.2688 9.71139 21.2688H10.6264V21.7319C10.6264 22.5005 11.2413 23.1237 11.9997 23.1237C12.7582 23.1237 13.3731 22.5005 13.3731 21.7319V21.2364C14.9273 21.0129 16.1226 19.659 16.1226 18.0221C16.1226 16.229 14.6883 14.7755 12.919 14.7755H11.0837C10.8313 14.7755 10.6267 14.5681 10.6267 14.3124C10.6267 14.0566 10.8313 13.8493 11.0837 13.8493H14.2913C15.0498 13.8493 15.6646 13.2262 15.6646 12.4575C15.6646 11.6888 15.0498 11.0657 14.2913 11.0657H13.3731V10.6026Z" fill="#0AB64F"/>
</svg>
