<svg width="24" height="28" viewBox="0 0 24 28" fill="none" xmlns="http://www.w3.org/2000/svg">
<path fill-rule="evenodd" clip-rule="evenodd" d="M9.17833 4.277C9.17833 3.48962 9.80352 2.85133 10.5747 2.85133C11.3459 2.85133 11.9711 3.48962 11.9711 4.277V5.58905C11.0553 5.6445 10.1098 5.90651 9.17833 6.43762V4.277ZM6.38555 9.95093V12.1182C6.38555 12.9055 7.01074 13.5438 7.78194 13.5438C8.55315 13.5438 9.17833 12.9055 9.17833 12.1182V9.91329C10.0255 10.1712 10.614 10.659 11.0307 11.2119C11.6902 12.0872 11.9629 13.1956 11.9629 13.996C11.9629 16.0772 10.7224 17.177 10.1453 17.5798C9.61017 17.9534 9.17015 18.6118 9.17015 19.4263V23.8812L7.51438 24.8955L6.37737 23.1023L6.37737 21.1243V19.4263C6.37737 18.5948 5.91789 17.941 5.38591 17.5778C4.67275 17.0908 3.58459 15.8977 3.58459 13.996C3.58459 11.9238 4.82669 10.4865 6.38555 9.95093ZM6.38555 7.01031V4.277C6.38555 1.91488 8.26111 0 10.5747 0C12.8883 0 14.7639 1.91488 14.7639 4.277V6.04656C15.9903 6.52739 16.9998 7.31182 17.6652 8.08575C19.7057 10.4593 19.5465 13.0273 19.2882 14.2961L22.0142 17.467L22.053 17.5122L22.0879 17.5605L22.7821 18.5201C23.182 19.0729 23.2973 19.7884 23.0919 20.4429L22.1451 23.4607C21.8253 24.4798 20.817 25.1007 19.7849 24.914L16.1887 24.2635C15.6655 24.1689 15.1972 23.8749 14.8784 23.4409L12.0952 19.6522C12.0499 19.6889 12.0057 19.7236 11.9629 19.7565V23.9756V24.2848C11.9629 25.036 11.5769 25.7321 10.946 26.1186L8.37263 27.695C7.4045 28.288 6.15019 27.991 5.53666 27.0233L3.92086 24.475C3.70137 24.1288 3.58459 23.7253 3.58459 23.3129L3.58459 21.1243L3.58459 19.768C2.36074 18.834 0.791809 16.9093 0.791809 13.996C0.791809 10.1314 3.43891 7.61724 6.38555 7.01031ZM12.901 8.4725C13.0206 8.51575 13.1476 8.54285 13.2796 8.55122C14.2505 8.80327 15.084 9.40573 15.5662 9.96665C16.9109 11.5309 16.6891 13.1929 16.5157 13.8843C16.3549 14.5255 16.4496 15.3167 16.9759 15.9288L19.8764 19.3028L20.3233 19.9205L19.6715 21.9978L16.9473 21.505L13.9404 17.4118C14.4119 16.5148 14.7557 15.3844 14.7557 13.996C14.7557 12.6578 14.3303 10.9148 13.2443 9.47344C12.9607 9.09702 12.6347 8.74532 12.2654 8.42966C12.484 8.4246 12.6962 8.44051 12.901 8.4725Z" fill="#F56C00"/>
</svg>
