<svg width="33" height="28" viewBox="0 0 33 28" fill="none" xmlns="http://www.w3.org/2000/svg">
    <path fill-rule="evenodd" clip-rule="evenodd" d="M16.4011 27.0639C25.3379 27.0639 32.5826 21.0675 32.5826 13.6706C32.5826 6.27371 25.3379 0.277344 16.4011 0.277344C7.46427 0.277344 0.219574 6.27371 0.219574 13.6706C0.219574 21.0675 7.46427 27.0639 16.4011 27.0639Z" fill="#10BB55" fill-opacity="0.15"/>
    <path fill-rule="evenodd" clip-rule="evenodd" d="M16.4011 6.97412L16.756 7.12298L18.0493 7.6654L20.1184 7.08686C20.423 7.00171 20.7587 7.07883 20.969 7.28224C21.1793 7.48566 21.2229 7.77532 21.0793 8.01616L19.7662 10.2191L20.6548 10.8712C25.1436 14.1658 22.3657 20.3674 16.4011 20.3674C10.4365 20.3674 7.65858 14.1658 12.1474 10.8712L13.036 10.2191L11.7229 8.01616C11.5793 7.77532 11.6229 7.48566 11.8332 7.28224C12.0435 7.07883 12.3792 7.00171 12.6837 7.08686L14.7529 7.6654L16.0462 7.12298L16.4011 6.97412ZM18.8026 8.85826L18.0798 10.0709C17.912 10.3375 17.9772 10.6753 18.2595 10.8824L19.6095 11.8733C22.9953 14.3583 20.9 19.0359 16.4011 19.0359C11.9022 19.0359 9.80689 14.3583 13.1927 11.8733L14.5427 10.8824C14.8249 10.6753 14.8902 10.3375 14.7224 10.071L13.9995 8.85826L14.5628 9.01574L14.8747 9.10294L15.1687 8.97962L16.4011 8.46275L17.6335 8.97962L17.9275 9.10294L18.2394 9.01574L18.8026 8.85826ZM17.1946 12.0457C17.1946 11.678 16.8392 11.38 16.4009 11.38C15.9626 11.38 15.6072 11.678 15.6072 12.0457V12.2829C14.7099 12.3905 14.0201 13.0378 14.0201 13.8202C14.0201 14.6779 14.849 15.3732 15.8715 15.3732H16.9321C17.078 15.3732 17.1962 15.4724 17.1962 15.5947C17.1962 15.717 17.078 15.8162 16.9321 15.8162H15.0784C14.6401 15.8162 14.2848 16.1143 14.2848 16.4819C14.2848 16.8496 14.6401 17.1477 15.0784 17.1477H15.6072V17.3692C15.6072 17.7369 15.9626 18.0349 16.4009 18.0349C16.8392 18.0349 17.1946 17.7369 17.1946 17.3692V17.1322C18.0928 17.0253 18.7835 16.3776 18.7835 15.5947C18.7835 14.737 17.9546 14.0417 16.9321 14.0417H15.8715C15.7257 14.0417 15.6074 13.9425 15.6074 13.8202C15.6074 13.6979 15.7257 13.5987 15.8715 13.5987H17.7252C18.1635 13.5987 18.5189 13.3006 18.5189 12.933C18.5189 12.5653 18.1635 12.2672 17.7252 12.2672H17.1946V12.0457Z" fill="#0AB64F"/>
</svg>