<svg width="72" height="72" viewBox="0 0 72 72" fill="none" xmlns="http://www.w3.org/2000/svg">
<ellipse cx="35.8059" cy="35.8764" rx="35.8059" ry="35.8764" fill="#F56C00"/>
<path d="M19.916 37.8984L21.8301 27.7812H24.75L21.5957 42H18.6465L16.332 32.4883L14.0176 42H11.0684L7.91406 27.7812H10.834L12.7578 37.8789L15.1016 27.7812H17.582L19.916 37.8984ZM31.9473 42C31.8171 41.7461 31.7227 41.4303 31.6641 41.0527C30.9805 41.8145 30.0918 42.1953 28.998 42.1953C27.9629 42.1953 27.1035 41.8958 26.4199 41.2969C25.7428 40.6979 25.4043 39.9427 25.4043 39.0312C25.4043 37.9115 25.8177 37.0521 26.6445 36.4531C27.4779 35.8542 28.679 35.5514 30.248 35.5449H31.5469V34.9395C31.5469 34.4512 31.4199 34.0605 31.166 33.7676C30.9186 33.4746 30.5247 33.3281 29.9844 33.3281C29.5091 33.3281 29.1348 33.4421 28.8613 33.6699C28.5944 33.8978 28.4609 34.2103 28.4609 34.6074H25.6387C25.6387 33.9954 25.8275 33.429 26.2051 32.9082C26.5827 32.3874 27.1165 31.9805 27.8066 31.6875C28.4967 31.388 29.2715 31.2383 30.1309 31.2383C31.4329 31.2383 32.4648 31.5671 33.2266 32.2246C33.9948 32.8757 34.3789 33.7936 34.3789 34.9785V39.5586C34.3854 40.5612 34.5254 41.3197 34.7988 41.834V42H31.9473ZM29.6133 40.0371C30.0299 40.0371 30.4141 39.946 30.7656 39.7637C31.1172 39.5749 31.3776 39.3242 31.5469 39.0117V37.1953H30.4922C29.0794 37.1953 28.3275 37.6836 28.2363 38.6602L28.2266 38.8262C28.2266 39.1777 28.3503 39.4674 28.5977 39.6953C28.8451 39.9232 29.1836 40.0371 29.6133 40.0371ZM42.875 40.9258C42.1784 41.7721 41.2148 42.1953 39.9844 42.1953C38.8516 42.1953 37.9857 41.8698 37.3867 41.2188C36.7943 40.5677 36.4915 39.6139 36.4785 38.3574V31.4336H39.3008V38.2598C39.3008 39.36 39.8021 39.9102 40.8047 39.9102C41.7617 39.9102 42.4193 39.5781 42.7773 38.9141V31.4336H45.6094V42H42.9531L42.875 40.9258ZM51.1172 28.8359V31.4336H52.9238V33.5039H51.1172V38.7773C51.1172 39.168 51.1921 39.4479 51.3418 39.6172C51.4915 39.7865 51.778 39.8711 52.2012 39.8711C52.5137 39.8711 52.7904 39.8483 53.0312 39.8027V41.9414C52.4779 42.1107 51.9082 42.1953 51.3223 42.1953C49.3431 42.1953 48.334 41.196 48.2949 39.1973V33.5039H46.752V31.4336H48.2949V28.8359H51.1172ZM53.7637 36.6191C53.7637 35.571 53.9655 34.6367 54.3691 33.8164C54.7728 32.9961 55.3522 32.3613 56.1074 31.9121C56.8691 31.4629 57.7513 31.2383 58.7539 31.2383C60.1797 31.2383 61.3418 31.6745 62.2402 32.5469C63.1452 33.4193 63.6497 34.6042 63.7539 36.1016L63.7734 36.8242C63.7734 38.4453 63.321 39.7474 62.416 40.7305C61.5111 41.707 60.2969 42.1953 58.7734 42.1953C57.25 42.1953 56.0326 41.707 55.1211 40.7305C54.2161 39.7539 53.7637 38.4258 53.7637 36.7461V36.6191ZM56.5859 36.8242C56.5859 37.8268 56.7747 38.5951 57.1523 39.1289C57.5299 39.6562 58.0703 39.9199 58.7734 39.9199C59.457 39.9199 59.9909 39.6595 60.375 39.1387C60.7591 38.6113 60.9512 37.7715 60.9512 36.6191C60.9512 35.6361 60.7591 34.8743 60.375 34.334C59.9909 33.7936 59.4505 33.5234 58.7539 33.5234C58.0638 33.5234 57.5299 33.7936 57.1523 34.334C56.7747 34.8678 56.5859 35.6979 56.5859 36.8242Z" fill="white"/>
</svg>
