<svg width="150" height="217" viewBox="0 0 150 217" fill="none" xmlns="http://www.w3.org/2000/svg">
<path d="M108.463 206.642L104.32 205.374V199.508H104.681V205.121L108.571 206.279L108.463 206.642Z" fill="#050505"/>
<path d="M125.682 160.98C116.497 181.621 101.475 195.816 95.2429 201.247L94.5585 198.133C95.7833 197.988 96.936 197.844 98.0167 197.735C95.5671 189.515 93.2256 181.041 90.9922 172.423C91.5686 165.905 92.9734 158.264 95.9273 150.153C104.465 126.76 120.927 112.746 130.582 106.047C132.094 111.877 133.103 118.359 133.211 125.384C133.391 138.674 130.293 150.624 125.682 160.98Z" fill="#FFAD41"/>
<path d="M144.954 171.915C143.981 175.934 142.396 179.809 140.307 183.43C132.094 197.734 115.883 208.525 95.9266 213.268L96.1428 210.299C96.467 210.263 95.7825 207.402 95.2422 205.266C95.5664 205.266 95.8546 205.266 96.1428 205.266L95.2422 201.282C101.474 195.851 116.496 181.656 125.682 161.015C128.347 158.625 131.842 156.344 136.236 155.04C139.695 153.99 142.901 153.809 145.494 153.954C146.755 161.631 145.963 167.714 144.954 171.915Z" fill="#F56C00"/>
<path d="M138.938 202.405C138.83 201.898 144.774 201.463 148.016 197.154C149.529 195.126 150.646 192.048 149.637 190.962C148.34 189.658 143.909 191.65 140.739 193.279C142.685 192.084 144.954 190.165 145.891 187.449C146.467 185.711 146.719 182.959 145.494 182.09C144.738 181.547 143.333 181.583 140.343 183.43C132.13 197.733 115.919 208.524 95.9627 213.268L95.8906 214.318C97.7278 214.499 99.2408 214.68 100.502 214.898C101.726 215.115 104.068 215.513 105.329 214.21C106.085 213.413 105.725 212.725 106.409 212.182C107.598 211.24 109.579 212.761 114.443 213.666C116.496 214.065 117.577 214.029 118.189 213.413C118.909 212.653 118.405 211.602 118.981 211.132C119.882 210.407 121.899 212.109 124.205 213.015C128.888 214.825 134.435 213.196 134.615 211.82C134.796 210.661 131.193 209.683 131.409 208.742C131.662 207.547 137.353 208.995 143.585 206.605C146.755 205.374 149.745 203.274 149.457 202.441C148.881 200.956 139.046 203.056 138.938 202.405ZM137.461 195.017C137.461 194.981 137.785 194.836 138.362 194.583C138.938 194.257 139.767 193.822 140.739 193.316C139.839 193.895 138.974 194.293 138.362 194.583C137.785 194.873 137.461 195.054 137.461 195.017Z" fill="#FF9001"/>
<path d="M99.5308 206.716L99.3867 206.39C110.266 201.103 125.179 191.036 134.365 173.22C136.887 168.368 138.832 163.153 140.165 157.758L140.525 157.83C139.192 163.262 137.211 168.476 134.689 173.365C125.431 191.29 110.446 201.393 99.5308 206.716Z" fill="#050505"/>
<path d="M137.643 165.362L137.535 158.735L137.895 158.699L138.003 164.964L144.524 164.891V165.254L137.643 165.362Z" fill="#050505"/>
<path d="M133.391 175.177L130.617 163.697L130.977 163.625L133.643 174.706L143.081 172.026L143.189 172.388L133.391 175.177Z" fill="#050505"/>
<path d="M137.5 184.083L127.666 183.142L124.82 171.156L125.181 171.047L127.954 182.816L137.536 183.721L137.5 184.083Z" fill="#050505"/>
<path d="M127.051 197.372L117.901 194.512L116.496 182.489L116.856 182.453L118.261 194.222L127.159 197.01L127.051 197.372Z" fill="#050505"/>
<path d="M114.263 204.505L109.184 201.029L109.4 192.266H109.76L109.544 200.812L114.479 204.179L114.263 204.505Z" fill="#050505"/>
<path d="M99.3858 182.201L99.0977 182.02C106.446 170.288 111.165 158.7 113.111 147.583C113.183 147.257 113.219 146.895 113.291 146.497C113.903 142.731 114.876 137.082 117.938 130.057C120.315 124.625 123.521 119.519 127.448 114.848L127.736 115.065C123.845 119.7 120.639 124.806 118.262 130.201C115.2 137.154 114.263 142.803 113.651 146.533C113.579 146.931 113.543 147.257 113.471 147.619C111.526 158.809 106.807 170.433 99.3858 182.201Z" fill="#050505"/>
<path d="M122.333 122.449L121.793 115.532L122.153 115.496L122.658 122.014L129.538 120.566L129.61 120.928L122.333 122.449Z" fill="#050505"/>
<path d="M117.182 132.23L117.11 132.085C116.606 130.745 114.156 124.118 114.156 123.684H114.516H114.336H114.516C114.553 124.046 116.246 128.681 117.398 131.795L129.538 128.753L129.61 129.115L117.182 132.23Z" fill="#050505"/>
<path d="M113.472 145.01L107.492 134.4L107.816 134.219L113.616 144.575L130.043 139.107L130.151 139.433L113.472 145.01Z" fill="#050505"/>
<path d="M109.832 160.33L102.699 143.383L103.023 143.238L110.012 159.859L123.485 154.428L123.629 154.754L109.832 160.33Z" fill="#050505"/>
<path d="M117.541 173.688L104.861 172.203L104.825 172.131L96.6836 157.501L97.0078 157.32L105.113 171.877L117.577 173.326L117.541 173.688Z" fill="#050505"/>
<path d="M109.115 177.055L104.9 176.078L101.262 168.908L101.586 168.727L105.152 175.788L109.187 176.693L109.115 177.055Z" fill="#050505"/>
<path d="M102.486 99.13C102.017 102.063 99.8919 106.807 96.7219 106.662C96.6498 106.662 96.5778 106.662 96.5057 106.626C94.3083 106.372 92.8314 103.838 92.3271 102.896C93.0835 102.968 93.804 102.679 94.2363 102.136C94.9207 101.267 94.7406 99.7819 94.0562 99.4559C93.5879 99.2387 92.9034 99.6008 92.3271 100.216L91.9308 99.3473C91.9668 98.949 92.0029 98.4782 92.1109 97.9713C92.291 97.0298 92.6513 96.2331 92.9395 95.6175C91.8588 95.1105 90.9582 94.6036 90.3098 94.169C89.8415 93.8793 89.4092 93.5896 89.049 93.3362C88.1124 92.6843 87.536 92.1412 87.1758 91.3083C86.9236 90.7289 86.8516 90.1858 86.8516 89.6788C86.8516 89.208 86.9236 88.7735 86.9957 88.4476C87.2478 87.8682 87.6441 87.3612 88.1844 87.0353C88.5446 86.8181 88.8328 86.7456 89.121 86.7094C89.2291 86.6732 89.3732 86.6732 89.4812 86.6732C91.7867 86.4559 94.4524 88.3389 96.2176 91.598C96.6498 91.7066 97.1541 91.8877 97.7305 92.105C99.5677 92.793 100.792 93.2275 101.585 94.1328C103.026 95.6537 102.666 98.0075 102.486 99.13Z" fill="#50555A"/>
<path d="M96.5415 109.485C95.0645 109.051 93.6957 109.775 90.1294 109.304C89.8412 109.268 89.481 109.232 89.0847 109.232C89.1568 108.689 89.2288 108.145 89.2648 107.53C89.2648 107.24 89.3009 106.95 89.2648 106.697C88.5804 106.552 87.3556 106.154 86.5631 105.031C85.9867 104.235 85.9507 103.402 85.8787 102.533C85.6986 100.179 86.455 98.3683 86.9954 97.0647C87.3916 96.087 88.0401 94.7834 89.0847 93.3711C89.445 93.6246 89.8412 93.8781 90.3455 94.204C90.9939 94.6385 91.8945 95.1455 92.9752 95.6524C92.651 96.268 92.3268 97.0647 92.1467 98.0062C92.0386 98.5132 92.0026 98.9839 91.9666 99.3822L92.3628 100.251C92.9392 99.6357 93.6236 99.3098 94.0919 99.4909C94.7764 99.7806 94.9205 101.265 94.272 102.171C93.8398 102.714 93.1193 103.003 92.3628 102.931C92.8671 103.909 94.3441 106.407 96.5415 106.661C96.5055 107.023 96.4694 107.421 96.4694 107.82C96.4334 108.399 96.4694 108.942 96.5415 109.485Z" fill="#FFCBC2"/>
<path d="M108.357 135.993C106.375 138.854 101.656 139.796 96.253 138.673C95.4965 140.882 95.2443 142.439 95.3524 144.25C95.4244 145.336 95.5685 146.096 95.7126 146.748C96.289 149.5 96.7933 153.628 96.6132 159.64C96.1449 159.676 95.6766 159.712 95.1723 159.748C91.7141 160.002 87.9317 160.147 83.861 160.002C83.789 160.002 83.717 160.002 83.6809 160.002C83.0685 159.965 82.4922 159.965 81.8798 159.929C78.7818 159.748 75.9 159.458 73.2343 159.096C73.0541 156.163 72.9821 153.049 73.0541 149.79C73.0541 149.355 73.0902 148.921 73.0902 148.486C74.2789 149.464 75.5757 150.406 76.8726 151.311C82.4922 155.077 85.302 155.004 87.0311 154.172C89.3005 153.085 90.1651 150.478 90.3812 149.826C92.3265 143.453 86.2386 135.993 80.8351 129.403C78.7458 126.832 76.6925 124.659 74.9273 122.957C70.4605 125.021 62.2832 128.642 57.204 129.982C56.9879 130.055 56.8077 130.091 56.6276 130.127C55.0066 130.525 52.9173 130.851 51.0801 129.765C49.5671 128.86 48.9187 127.375 48.7746 126.977C47.91 124.876 48.5585 122.921 49.2429 120.495C49.4951 119.481 49.8553 118.612 50.2155 117.851C51.2242 119.807 52.2328 121.617 53.1694 123.283C58.753 120.603 63.2198 118.322 66.7861 116.367C68.7314 115.316 70.4245 114.339 71.8654 113.433C73.1622 112.637 75.6838 111.007 79.2501 110.573C79.3582 110.573 79.4662 110.536 79.5743 110.536C80.8351 110.428 82.4922 110.573 85.5902 110.826C85.6622 110.826 85.7342 110.826 85.8063 110.862C86.887 110.971 87.7876 111.043 88.5801 111.152C90.7054 111.369 92.1463 111.55 94.4878 111.514C95.3524 111.514 96.1809 111.478 96.9734 111.406C97.2976 111.369 97.5858 111.369 97.91 111.333L98.8106 111.587C98.9187 111.623 99.0267 111.623 99.1708 111.659C99.8193 111.84 100.648 112.13 101.548 112.637C105.619 114.991 106.772 119.843 107.816 124.514C109.185 130.67 109.906 133.784 108.357 135.993Z" fill="#FF9001"/>
<path d="M75.1085 123.319L74.8203 122.667C76.5134 121.907 77.6661 121.327 77.9183 121.219L78.2425 121.871C77.9543 121.979 76.8016 122.522 75.1085 123.319Z" fill="#050505"/>
<path d="M99.1705 111.625C99.0625 111.589 98.9184 111.553 98.8103 111.553L97.9097 111.299C97.6215 111.336 97.2973 111.336 96.9731 111.372C96.1806 111.444 95.3521 111.481 94.4875 111.481C92.1821 111.517 90.7051 111.336 88.5798 111.118C87.7872 111.046 86.8867 110.937 85.806 110.829C85.7339 110.829 85.6619 110.829 85.5898 110.793C86.1662 110.213 87.0668 109.525 88.2555 109.272C88.5437 109.199 88.7959 109.199 89.0481 109.199C89.4443 109.199 89.8045 109.235 90.0927 109.272C93.695 109.742 95.0639 109.018 96.5048 109.453C96.757 109.525 97.0092 109.634 97.2973 109.779C97.8377 110.105 98.5221 110.611 99.1705 111.625Z" fill="white"/>
<path d="M96.6141 138.819L95.9297 138.566C96.362 137.335 96.9744 135.814 97.983 133.532C98.7755 131.686 99.3879 130.382 99.8202 129.404C100.793 127.304 101.081 126.652 101.369 125.24C101.837 123.104 101.946 120.895 101.729 118.686L102.45 118.613C102.666 120.931 102.558 123.212 102.09 125.421C101.765 126.906 101.441 127.63 100.469 129.73C100.036 130.708 99.4239 132.012 98.6314 133.858C97.6228 136.067 97.0464 137.588 96.6141 138.819Z" fill="#050505"/>
<path d="M90.3804 149.861C90.2002 150.477 89.2997 153.084 87.0302 154.207C85.3011 155.04 82.4913 155.148 76.8717 151.346C75.5389 150.441 74.278 149.499 73.0893 148.521C72.3328 147.906 71.5763 147.254 70.8919 146.638C67.0014 143.126 63.7953 139.324 61.2737 135.956C59.6167 133.711 58.2478 131.683 57.2031 130.017C62.2824 128.677 70.4596 125.056 74.9265 122.992C76.6916 124.73 78.7089 126.867 80.8342 129.438C86.2377 136.028 92.3616 143.488 90.3804 149.861Z" fill="#50555A"/>
<path d="M57.3147 108.11C55.4054 108.871 52.9198 110.211 50.6144 112.601C49.8579 113.397 49.2455 114.194 48.7412 114.918C47.3723 112.166 45.9674 109.197 44.5625 105.974C47.0841 105.032 49.4256 103.801 51.587 102.316C52.9559 103.801 54.3968 105.286 55.9098 106.77C56.378 107.241 56.8464 107.676 57.3147 108.11Z" fill="#50555A"/>
<path d="M66.8249 116.365C63.2586 118.32 58.7557 120.601 53.2082 123.281C52.2716 121.615 51.2629 119.805 50.2543 117.849C49.75 116.908 49.2817 115.93 48.7773 114.952C49.2817 114.192 49.8941 113.395 50.6505 112.635C52.92 110.245 55.4416 108.905 57.3508 108.145C60.5209 111.186 63.7269 113.938 66.8249 116.365Z" fill="#FFAD41"/>
<path d="M81.9168 159.965C81.1603 161.486 80.2237 163.513 79.3592 165.903C76.7295 173.182 76.3693 179.157 76.2252 180.931C75.8289 185.747 74.424 193.171 70.2093 205.121C69.3448 207.547 68.3721 210.154 67.2554 212.979C67.0033 212.979 66.7151 213.015 66.4269 213.015C65.9586 213.015 65.4903 212.979 64.986 212.942C63.6531 212.798 62.5004 212.508 61.5638 212.146C61.2396 212.037 60.9514 211.929 60.6992 211.784C62.2122 206.75 64.0133 199.653 65.1301 190.926C65.5623 187.449 65.2741 188.717 66.4269 176.803C67.6877 163.803 68.4082 158.408 69.5609 152.65C70.0292 150.296 70.4975 148.232 70.8938 146.566C71.6142 147.218 72.3347 147.834 73.0912 148.449C73.0912 148.884 73.0551 149.319 73.0551 149.753C72.9831 153.012 73.0551 156.126 73.2353 159.059C75.937 159.494 78.8188 159.784 81.9168 159.965Z" fill="#2D2824"/>
<path d="M98.3802 202.041C98.3441 205.156 98.2721 208.596 98.092 212.398C97.8398 212.434 97.5876 212.47 97.3355 212.507C95.8225 212.724 94.2015 212.869 92.5084 212.905C91.86 212.941 91.2116 212.941 90.5631 212.941C90.347 212.941 90.0948 212.941 89.8787 212.941C89.7706 211.384 89.6265 209.899 89.5185 208.415C88.9421 201.39 88.4018 195.052 87.8974 189.295C87.6092 185.927 87.3931 183.284 86.7807 179.626C86.4205 177.49 86.1323 176.005 85.8081 174.557C85.4479 172.927 85.1237 171.37 84.7274 169.016C84.3672 166.88 83.9709 163.838 83.7188 160C83.7908 160 83.8628 160 83.8989 160C87.9695 160.144 91.7519 160.036 95.2101 159.746V160.036C95.2101 163.295 95.3182 167.423 95.8225 172.167C96.3268 177.091 97.0473 180.64 97.2995 182.016C98.092 186.362 98.4882 192.844 98.3802 202.041Z" fill="#50555A"/>
<path d="M97.4045 216.164C96.9362 216.273 96.4679 216.345 95.9636 216.454C95.4593 216.526 94.955 216.635 94.4146 216.707C91.8209 217.069 89.0832 217.178 86.8858 216.635C86.4535 216.526 85.3368 216.237 85.3008 215.802C85.3008 215.295 86.8137 215.114 88.8671 213.991C89.2273 213.81 89.5515 213.593 89.8397 213.412C90.0918 213.267 90.308 213.122 90.4881 212.978C91.1005 212.978 91.7489 212.977 92.4333 212.941C94.1624 212.869 95.7835 212.724 97.2604 212.543L97.4045 216.164Z" fill="#9BA5AE"/>
<path d="M66.4596 212.981L65.523 215.589C65.487 215.625 65.487 215.697 65.451 215.733C65.2709 216.096 64.8746 216.349 64.4784 216.385C64.3703 216.385 64.2622 216.385 64.1542 216.385C58.8948 216.675 53.5994 216.856 53.5273 216.421C53.5273 216.385 53.5634 216.349 53.6714 216.313C53.8155 216.24 54.1037 216.132 54.572 215.987C56.5173 215.299 57.8501 214.792 58.7867 214.357C60.1556 213.742 60.732 213.307 61.1642 212.728C61.2723 212.583 61.4164 212.402 61.5605 212.148C62.4971 212.474 63.6498 212.8 64.9827 212.945C65.523 212.981 65.9913 212.981 66.4596 212.981Z" fill="#9BA5AE"/>
<path d="M32.6369 45.7539C14.6254 45.7539 0 59.7316 0 76.9322C0 82.6536 1.62104 88.013 4.39481 92.6118C10.0504 101.882 20.5692 108.147 32.6009 108.147C36.8156 108.147 40.8501 107.386 44.5245 105.974C45.6772 105.539 46.83 105.032 47.9107 104.489C49.1715 103.837 50.3963 103.113 51.549 102.317C59.8343 96.6676 65.2378 87.3974 65.2378 76.9322C65.2738 59.7316 50.6484 45.7539 32.6369 45.7539ZM61.7795 77.9823C61.7795 78.2358 61.7795 78.4531 61.7435 78.7066C61.7435 78.96 61.7075 79.2135 61.6715 79.467C61.6715 79.5394 61.6715 79.6119 61.6355 79.6843C61.6355 79.9015 61.5994 80.1188 61.5634 80.3361C61.5274 80.6258 61.4914 80.9155 61.4193 81.2052C61.4193 81.3138 61.3833 81.3862 61.3833 81.4949C61.3473 81.7121 61.3112 81.9294 61.2752 82.1467C61.2392 82.4002 61.1671 82.6174 61.1311 82.8709C61.0951 82.9433 61.0951 83.0158 61.0591 83.0882C61.0231 83.2692 60.987 83.4141 60.951 83.5951C60.879 83.921 60.7709 84.2469 60.6988 84.5729C60.6628 84.7177 60.6268 84.8263 60.5908 84.9712C60.5548 85.0798 60.5187 85.1885 60.4827 85.2971C60.4467 85.4057 60.4107 85.5506 60.3746 85.6592C60.3386 85.8041 60.3026 85.9489 60.2305 86.0575C60.1945 86.13 60.1945 86.2024 60.1585 86.2748C60.0865 86.4197 60.0504 86.5645 59.9784 86.7456C59.9424 86.8542 59.8703 86.999 59.8343 87.1439C59.6542 87.5784 59.4741 87.9768 59.294 88.4113C59.2219 88.5561 59.1499 88.7372 59.0778 88.882C59.0058 89.0631 58.8977 89.2442 58.8257 89.4252C58.7536 89.5701 58.6816 89.6787 58.6095 89.8236C58.5375 89.9322 58.4654 90.0408 58.4294 90.1857C58.2133 90.6202 57.9611 91.0185 57.7089 91.4169C57.6009 91.5979 57.4928 91.779 57.3487 91.96L57.3127 91.9963C57.2406 92.1411 57.1326 92.2497 57.0605 92.3584C56.9524 92.5032 56.8444 92.6843 56.7363 92.8291C56.7363 92.8291 56.7363 92.8291 56.7363 92.8653C56.6282 93.0464 56.4842 93.1912 56.3761 93.3723C56.304 93.4447 56.232 93.5534 56.196 93.6258C55.8357 94.0603 55.4755 94.4949 55.1153 94.9294C54.9712 95.0743 54.8271 95.2191 54.683 95.4002C54.647 95.4364 54.611 95.4726 54.5749 95.5088C54.4308 95.6536 54.2867 95.7985 54.1427 95.9795C53.9265 96.233 53.6744 96.4503 53.4222 96.6676C53.2421 96.8486 53.0259 97.0297 52.8098 97.2107C52.6297 97.3918 52.4135 97.5366 52.2334 97.7177C52.1974 97.7539 52.1254 97.8263 52.0893 97.8625C51.9092 98.0074 51.7651 98.1522 51.585 98.2971C51.585 98.2971 51.549 98.3333 51.513 98.3333C51.2968 98.5144 51.0807 98.6592 50.8646 98.8403C50.2522 99.311 49.6037 99.7456 48.9193 100.18C48.6671 100.325 48.451 100.47 48.1989 100.615C47.9827 100.723 47.7666 100.868 47.5504 100.977C47.4424 101.049 47.2983 101.122 47.1902 101.194C46.9741 101.303 46.7219 101.448 46.5058 101.556C45.7853 101.918 45.0288 102.28 44.2723 102.57C44.0922 102.642 43.9481 102.715 43.768 102.787C43.5879 102.86 43.4438 102.932 43.2637 102.968C42.9035 103.113 42.5072 103.222 42.147 103.367C41.9308 103.439 41.6787 103.512 41.4625 103.584C41.2464 103.656 40.9942 103.729 40.7781 103.765C40.3818 103.874 39.9856 103.982 39.5533 104.055C39.5173 104.055 39.5173 104.055 39.4813 104.055C39.3732 104.091 39.3012 104.091 39.1931 104.127C39.013 104.163 38.8329 104.2 38.6527 104.236C38.4006 104.272 38.1484 104.344 37.8963 104.381C37.6801 104.417 37.428 104.453 37.2118 104.489C37.0317 104.526 36.8156 104.562 36.6354 104.562C36.5274 104.562 36.3833 104.598 36.2752 104.598C35.8429 104.634 35.4467 104.67 35.0144 104.707C34.7983 104.743 34.5461 104.743 34.33 104.743C34.0418 104.743 33.7536 104.779 33.4654 104.779C33.3573 104.779 33.2493 104.779 33.1772 104.779H32.817C31.9164 104.779 31.0159 104.743 30.1513 104.67C21.5418 103.91 14.013 99.6007 9.2219 93.2999C8.39337 92.2135 7.63689 91.0547 6.98847 89.896C6.70029 89.389 6.44813 88.882 6.23199 88.3751C4.57493 84.8625 3.67435 80.9879 3.67435 76.896C3.67435 65.5979 10.6628 55.8932 20.7493 51.5116C21.866 51.0408 22.9827 50.6063 24.1715 50.2804C26.9092 49.4475 29.8271 49.013 32.853 49.013C37.464 49.013 41.8588 50.0269 45.7493 51.8737C46.83 52.3807 47.9107 52.96 48.9193 53.6119C56.8444 58.6091 62.0677 67.155 62.0677 76.9322C62.0677 77.1857 62.0677 77.4391 62.0677 77.6926C61.8156 77.8013 61.8156 77.9099 61.7795 77.9823Z" fill="#50555A"/>
<path d="M32.997 104.852C32.997 104.924 32.9609 104.96 32.9609 105.033L32.997 104.852Z" fill="#FF7D08"/>
<path d="M33.3589 105.104L32.5664 104.923L32.6024 104.742L33.3949 104.923L33.3589 105.104Z" fill="#050505"/>
<g opacity="0.78">
<path opacity="0.78" d="M61.817 76.9299C61.817 77.1834 61.817 77.4368 61.817 77.6903C61.817 77.799 61.817 77.8714 61.817 77.98C61.817 78.2335 61.817 78.4508 61.781 78.7043C61.781 78.9577 61.7449 79.2112 61.7089 79.4647C61.7089 79.5371 61.7089 79.6096 61.6729 79.682C61.6729 79.8992 61.6369 80.1165 61.6009 80.3338C61.5648 80.6235 61.5288 80.9132 61.4568 81.2029C61.4568 81.3115 61.4207 81.3839 61.4207 81.4926C61.3847 81.7098 61.3487 81.9271 61.3127 82.1444C61.2766 82.3978 61.2046 82.6151 61.1686 82.8686C61.1326 82.941 61.1326 83.0135 61.0965 83.0859C61.0605 83.2669 61.0245 83.4118 60.9885 83.5928C60.9164 83.9187 60.8083 84.2446 60.7363 84.5706C60.7003 84.7154 60.6643 84.824 60.6282 84.9689C60.5922 85.0775 60.5562 85.1862 60.5202 85.2948C60.4841 85.4034 60.4481 85.5483 60.4121 85.6569C60.3761 85.8018 60.34 85.9466 60.268 86.0552C60.232 86.1277 60.232 86.2001 60.196 86.2725C60.1239 86.4174 60.0879 86.5622 60.0158 86.7433C59.9798 86.8519 59.9078 86.9967 59.8717 87.1416C59.6916 87.5761 59.5115 87.9744 59.3314 88.409C59.2594 88.5538 59.1873 88.7349 59.1153 88.8797C59.0432 89.0608 58.9351 89.2419 58.8631 89.4229C58.7911 89.5678 58.719 89.6764 58.647 89.8213C58.5749 89.9299 58.5029 90.0385 58.4668 90.1834C58.2507 90.6179 57.9985 91.0162 57.7464 91.4146C57.6383 91.5956 57.5302 91.7767 57.3862 91.9577L57.3501 91.994C57.2781 92.1388 57.17 92.2474 57.098 92.3561C56.9899 92.5009 56.8818 92.682 56.7738 92.8268C56.7738 92.8268 56.7738 92.8268 56.7738 92.863C56.6657 93.0441 56.5216 93.1889 56.4135 93.37C56.3415 93.4424 56.2694 93.5511 56.2334 93.6235C55.8732 94.058 55.513 94.4926 55.1527 94.9271C55.0086 95.0719 54.8645 95.2168 54.7204 95.3979C54.6844 95.4341 54.6484 95.4703 54.6124 95.5065C54.4683 95.6513 54.3242 95.7962 54.1801 95.9772C53.964 96.2307 53.7118 96.448 53.4596 96.6653C53.2795 96.8463 53.0634 97.0274 52.8472 97.2084C52.6671 97.3895 52.451 97.5343 52.2709 97.7154C52.2349 97.7516 52.1628 97.824 52.1268 97.8602C51.9467 98.0051 51.8026 98.1499 51.6225 98.2948C51.6225 98.2948 51.5864 98.331 51.5504 98.331C51.3343 98.5121 51.1181 98.6569 50.902 98.838C50.2896 99.3087 49.6412 99.7433 48.9568 100.178C48.7046 100.323 48.4885 100.467 48.2363 100.612C48.0202 100.721 47.804 100.866 47.5879 100.974C47.4798 101.047 47.3357 101.119 47.2277 101.192C46.2911 101.699 45.3184 102.169 44.3098 102.568C44.1297 102.64 43.9856 102.713 43.8055 102.785C43.6253 102.857 43.4813 102.93 43.3011 102.966C42.9409 103.111 42.5447 103.22 42.1844 103.364C41.9683 103.437 41.7161 103.509 41.5 103.582C41.2838 103.654 41.0317 103.727 40.8156 103.763C40.4193 103.871 40.023 103.98 39.5908 104.052C39.5547 104.052 39.5547 104.052 39.5187 104.052C39.4107 104.089 39.3386 104.089 39.2305 104.125C39.0504 104.161 38.8703 104.197 38.6902 104.234C38.438 104.27 38.1859 104.342 37.9337 104.378C37.7176 104.415 37.4654 104.451 37.2493 104.487C37.0692 104.523 36.853 104.559 36.6729 104.559C36.5648 104.559 36.4207 104.596 36.3127 104.596C35.8804 104.632 35.4841 104.668 35.0519 104.704C34.8357 104.74 34.5836 104.74 34.3674 104.74C34.0792 104.74 33.7911 104.777 33.5029 104.777C33.3948 104.777 33.2867 104.777 33.2147 104.777H32.8545C31.9539 104.777 31.0533 104.74 30.1888 104.668C21.5792 103.908 14.0504 99.5984 9.25936 93.2976C8.43082 92.2112 7.67434 91.0524 7.02593 89.8937C4.90057 86.019 3.67578 81.6012 3.67578 76.9299C3.67578 65.6318 10.6643 55.9271 20.7507 51.5455C21.8674 51.0747 22.9841 50.6402 24.1729 50.3143C26.9107 49.4814 29.8285 49.0469 32.8545 49.0469C37.4654 49.0469 41.8602 50.0608 45.7507 51.9076C46.8314 52.4146 47.9121 52.9939 48.9207 53.6458C56.5936 58.6068 61.817 67.1889 61.817 76.9299Z" fill="white"/>
</g>
<path d="M102.719 58.4484C113.203 58.4484 121.703 49.9044 121.703 39.3648C121.703 28.8253 113.203 20.2812 102.719 20.2812C92.2339 20.2812 83.7344 28.8253 83.7344 39.3648C83.7344 49.9044 92.2339 58.4484 102.719 58.4484Z" fill="#FFAD41"/>
<path d="M98.9327 53.0881C97.4197 53.0881 95.8707 52.907 94.3578 52.5087C89.8189 51.3861 85.8923 48.5978 83.2627 44.7232C80.2367 40.2691 79.2641 34.6925 80.5609 29.4418C81.9658 23.7928 85.7843 19.1577 91.0436 16.7315C94.9702 14.9209 99.2929 14.5226 103.508 15.5728C107.722 16.6229 111.325 19.0129 113.954 22.453C117.485 27.0881 118.709 32.9544 117.304 38.6034C116.008 43.8541 112.549 48.3081 107.794 50.8429C105.057 52.3276 102.031 53.0881 98.9327 53.0881ZM98.8967 15.3917C96.267 15.3917 93.6733 15.9711 91.1877 17.0936C86.0004 19.4836 82.254 24.0101 80.8851 29.5505C79.6243 34.6925 80.597 40.1605 83.5508 44.5421C86.1085 48.3443 89.999 51.0602 94.4298 52.1828C98.8607 53.3053 103.544 52.7259 107.614 50.5532C112.261 48.0546 115.683 43.7092 116.944 38.5672C118.313 33.0268 117.124 27.2329 113.666 22.7065C111.072 19.3026 107.542 16.985 103.4 15.9349C101.923 15.5728 100.41 15.3917 98.8967 15.3917Z" fill="#050505"/>
<path d="M106.033 24.4808C104.484 24.4808 102.935 24.2998 101.458 23.9014C98.5401 23.1772 95.8023 21.7287 93.5689 19.7733C92.6323 18.9404 91.7678 18.0351 91.0113 17.0212L90.8672 16.8402L91.0833 16.7315C95.0098 14.9209 99.3326 14.5226 103.547 15.5728C107.762 16.6229 111.364 19.0129 113.994 22.453L114.138 22.634L113.922 22.7427C112.805 23.2496 111.58 23.6842 110.392 23.9739C108.951 24.336 107.51 24.4808 106.033 24.4808ZM91.4075 16.985C92.128 17.8903 92.9205 18.7232 93.7851 19.4836C95.9825 21.439 98.6842 22.8151 101.53 23.5393C104.412 24.2636 107.438 24.2636 110.284 23.6117C111.4 23.3583 112.481 22.9599 113.562 22.4892C111.004 19.1939 107.51 16.9126 103.439 15.8987C99.3686 14.9209 95.226 15.2831 91.4075 16.985Z" fill="#050505"/>
<path d="M98.9344 53.0911C97.4214 53.0911 95.8724 52.91 94.3594 52.5117C89.8205 51.3891 85.894 48.6008 83.2643 44.7262L83.1562 44.5451L83.3364 44.4365C84.5612 43.7847 85.894 43.2415 87.2269 42.8794C90.3248 42.0103 93.639 41.9741 96.773 42.7707C99.907 43.5674 102.825 45.1607 105.166 47.3696C106.175 48.3111 107.076 49.3975 107.868 50.5562L107.976 50.7373L107.796 50.8459C105.058 52.3306 102.032 53.0911 98.9344 53.0911ZM83.6966 44.7262C86.2542 48.456 90.0727 51.0994 94.4675 52.1858C98.8623 53.2721 103.473 52.7289 107.472 50.6649C106.715 49.5785 105.887 48.6008 104.914 47.6955C102.609 45.5228 99.7629 43.9657 96.7009 43.2053C93.6029 42.4448 90.3609 42.481 87.3349 43.3139C86.0741 43.6398 84.8493 44.1106 83.6966 44.7262Z" fill="#050505"/>
<path d="M80.7822 29.3517L80.6953 29.7031L117.089 38.7917L117.176 38.4403L80.7822 29.3517Z" fill="#050505"/>
<path d="M96.2324 52.7654C95.62 52.7654 95.0076 52.6929 94.3952 52.5481C88.0912 50.9548 84.9932 41.3949 87.5148 31.2194C90.0364 21.0439 97.205 14.0188 103.545 15.6122C109.849 17.2055 112.947 26.7654 110.425 36.9409C109.201 41.8656 106.895 46.1748 103.869 49.1442C101.42 51.498 98.754 52.7654 96.2324 52.7654ZM101.672 15.7208C96.0162 15.7208 90.0724 22.2389 87.839 31.2918C85.3534 41.2863 88.3433 50.6651 94.4672 52.186C97.4211 52.9102 100.663 51.7514 103.617 48.8545C106.571 45.9576 108.876 41.6846 110.065 36.8322L110.245 36.8684L110.065 36.8322C112.551 26.8378 109.561 17.459 103.437 15.9381C102.861 15.7932 102.284 15.7208 101.672 15.7208Z" fill="#050505"/>
<path d="M103.299 15.7243L94.2578 52.3086L94.6074 52.3959L103.649 15.8116L103.299 15.7243Z" fill="#050505"/>
<path d="M124.601 90.1836H114.695L109.184 75.8438L119.522 78.0165L124.601 90.1836Z" fill="#D8923D"/>
<path d="M136.094 82.5066L124.603 90.1835L119.523 78.0164L127.845 69.1445L136.094 82.5066Z" fill="#FFAD41"/>
<path d="M136.851 83.412L135.447 84.3535L124.784 91.3424L114.013 91.1613L109.582 80.0805L108.285 76.8939L109.186 75.8438L114.697 90.1836H124.604L136.095 82.5067L136.851 83.412Z" fill="#F56C00"/>
<path d="M137.572 86.9985L126.693 91.3439L124.964 91.9595L113.472 93.6252L108.285 80.589L109.582 80.082L114.013 91.1628L124.784 91.3439L135.447 84.355L137.572 86.9985Z" fill="#FF9001"/>
<path d="M48.8622 12.3114L56.7872 6.98828L58.4803 25.6011L32.5437 33.7849L31.8233 40.81L28.9414 25.6011L48.8622 12.3114Z" fill="#FF9001"/>
<path d="M27.2522 20.8579L27 29.585L30.6744 25.3482L50.9193 17.7075L50.6671 0L27.2522 13.4708V20.8579Z" fill="#F56C00"/>
<path d="M44.7144 6.24573L31.6484 13.9141L31.8301 14.2268L44.8961 6.55845L44.7144 6.24573Z" fill="#050505"/>
<path d="M38.7539 14.2585L32.2734 17.3398L32.4275 17.6672L38.9079 14.5859L38.7539 14.2585Z" fill="#050505"/>
<path d="M33.9742 129.772C33.3257 130.026 32.5692 129.664 32.3891 128.976C32.245 128.505 32.209 128.107 32.209 127.817C32.209 127.346 32.4612 126.622 32.9655 125.644C33.0015 125.608 33.0015 125.536 33.0375 125.499C33.4338 124.341 33.686 123.508 33.8301 122.892C33.9741 122.277 33.9021 121.661 33.6499 120.973C33.3257 120.176 32.8935 119.633 32.2811 119.38C31.7047 119.126 30.9842 119.126 30.1917 119.452C29.5073 119.706 29.003 120.14 28.6427 120.683C28.4266 121.009 28.3546 121.371 28.3546 121.77C28.3906 122.313 28.0664 122.784 27.5981 122.965L26.4093 123.435L26.3373 123.363C25.8329 122.132 25.905 121.009 26.4813 119.923C27.0937 118.836 28.0664 118.04 29.4352 117.497C30.9122 116.917 32.245 116.845 33.3618 117.279C34.4785 117.714 35.307 118.619 35.8113 119.995C36.1715 120.973 36.2796 121.987 36.0275 123.001C35.8113 124.015 35.4151 125.137 34.8747 126.332C34.6226 126.912 34.5145 127.382 34.5505 127.745C34.5505 127.889 34.5865 128.07 34.6586 128.288C34.8387 128.94 34.5505 129.555 33.9742 129.772ZM35.7753 134.444L35.6672 134.48C35.0548 134.733 34.3704 134.407 34.1182 133.792L34.0822 133.647C33.8301 133.031 34.1543 132.343 34.7667 132.09L34.8747 132.054C35.4871 131.8 36.1716 132.126 36.4237 132.742L36.4597 132.887C36.7119 133.502 36.4237 134.19 35.7753 134.444Z" fill="#FFAD41"/>
<path d="M82.9741 72.7724C82.3257 73.0259 81.5692 72.6638 81.3891 71.9757C81.245 71.505 81.209 71.1066 81.209 70.817C81.209 70.3462 81.4612 69.622 81.9655 68.6443C82.0015 68.608 82.0015 68.5356 82.0375 68.4994C82.4338 67.3406 82.686 66.5078 82.83 65.8922C82.9741 65.2766 82.9021 64.661 82.6499 63.9729C82.3257 63.1763 81.8934 62.6331 81.2811 62.3796C80.7047 62.1261 79.9842 62.1261 79.1917 62.4521C78.5073 62.7055 78.003 63.1401 77.6427 63.6832C77.4266 64.0092 77.3545 64.3713 77.3545 64.7696C77.3906 65.3128 77.0664 65.7835 76.5981 65.9646L75.4093 66.4353L75.3373 66.3629C74.8329 65.1317 74.905 64.0092 75.4814 62.9228C76.0937 61.8365 77.0664 61.0398 78.4352 60.4966C79.9122 59.9172 81.245 59.8448 82.3617 60.2793C83.4785 60.7139 84.307 61.6192 84.8113 62.9952C85.1715 63.9729 85.2796 64.9869 85.0274 66.0008C84.8113 67.0147 84.4151 68.1373 83.8747 69.3323C83.6225 69.9117 83.5145 70.3824 83.5505 70.7445C83.5505 70.8894 83.5865 71.0704 83.6586 71.2877C83.8387 71.9395 83.5505 72.5551 82.9741 72.7724ZM84.8113 77.4437L84.7032 77.4799C84.0909 77.7334 83.4064 77.4075 83.1542 76.7919L83.1182 76.647C82.8661 76.0314 83.1903 75.3434 83.8027 75.0899L83.9107 75.0537C84.5231 74.8002 85.2076 75.1261 85.4597 75.7417L85.4957 75.8866C85.7119 76.5022 85.4237 77.1902 84.8113 77.4437Z" fill="#FF9001"/>
</svg>
