<svg width="225" height="167" viewBox="0 0 225 167" fill="none" xmlns="http://www.w3.org/2000/svg">
<g clip-path="url(#clip0)">
<g clip-path="url(#clip1)">
<path d="M135.018 12.2972C122.682 9.69401 109.868 8.43579 97.3146 9.23845C86.1998 9.95433 73.6031 11.8851 64.6459 18.8053C60.3743 22.1027 55.2964 28.025 53.9016 33.2531C53.9016 33.2531 46.5571 60.7605 31.8682 66.6611C17.1792 72.5618 6.9798 173.154 118.324 163.327C118.324 163.327 183.727 160.746 187.649 86.5975C188.608 68.6786 188.064 48.9809 176.665 34.0124C167.926 22.5366 155.7 17.4386 141.643 13.8592C139.485 13.2951 137.262 12.7745 135.018 12.2972Z" fill="#EAEEF0"/>
</g>
<path d="M123.34 55.2797C123.994 58.8966 127.607 80.3962 114.544 80.2279C113.334 80.2111 112.124 86.3851 117.388 89.2113C121.247 91.2805 122.359 91.1123 122.359 91.1123C120.92 94.6282 114.691 98.9517 107.562 98.9517C100.434 98.9517 96.494 94.3423 95.137 90.5235C98.7011 89.901 103.933 87.3272 103.769 83.1887C103.622 79.0503 103.917 71.0931 100.14 64.8687C96.7065 59.2162 103.917 50.0478 110.734 49.274C117.585 48.5001 122.048 48.1132 123.34 55.2797Z" fill="#FFAD41"/>
<path d="M114.691 80.5813C114.642 80.5813 114.593 80.5813 114.544 80.5813C113.219 80.5644 112.026 80.1439 111.356 79.7569C111.192 79.6728 111.143 79.4541 111.225 79.3027C111.306 79.1345 111.519 79.084 111.666 79.1681C112.271 79.5214 113.35 79.8915 114.544 79.9083C116.326 79.9252 117.879 79.5382 119.154 78.7307C119.301 78.6298 119.514 78.6803 119.612 78.8485C119.71 78.9999 119.661 79.2186 119.498 79.3195C118.157 80.1439 116.538 80.5813 114.691 80.5813Z" fill="#FF9001"/>
<path d="M103.214 71.9679C102.641 72.439 97.7038 70.0165 96.6247 62.0593C95.5457 54.1021 99.633 51.5955 102.429 50.9394C104.669 50.4179 105.355 44.6982 109.246 44.0421C113.465 43.3187 115.377 47.0366 117.879 46.8515C121.803 46.5655 123.291 42.3766 126.511 44.0085C130.157 45.859 131.269 54.6236 123.323 55.2629C119.072 55.6162 112.124 52.0498 109.034 56.7265C107.154 59.5864 108.658 61.6051 107.039 63.0687C105.421 64.5323 102.952 60.1247 101.726 62.4967C100.516 64.8687 105.486 70.067 103.214 71.9679Z" fill="#50555A"/>
<path d="M84.7878 153.777C84.0521 157.276 83.6433 160.607 83.2019 167C85.4418 167 126.021 167 129.209 167C128.931 161.465 128.408 157.344 127.77 153.777C126.25 153.777 84.7878 153.777 84.7878 153.777Z" fill="#50555A"/>
<path d="M45.1897 98.5985C43.8 99.8938 42.8517 101.946 42.0996 103.595C41.511 104.89 39.8925 105.462 38.7153 106.017C36.4591 104.789 34.4154 103.713 33.5326 103.342C31.6851 102.552 29.7558 102.299 32.5352 104.974C30.8676 104.352 29.4779 103.864 28.7912 103.662C26.813 103.107 24.8674 103.141 28.219 105.546C26.2244 105.277 24.5404 105.058 23.7556 105.025C21.5321 104.924 19.4721 105.479 24.7693 107.464C22.9545 107.649 21.4667 107.834 20.7964 107.969C18.3767 108.457 16.3167 109.685 24.3769 110.29C31.8159 110.845 36.034 112.511 38.3883 113.991C38.6499 113.924 45.0098 109.062 45.0098 109.062C44.176 108.103 44.3395 104.907 45.9417 101.038C47.4622 97.3704 46.3014 97.5555 45.1897 98.5985Z" fill="#FFAD41"/>
<path d="M172.944 117.726C177.571 115.034 180.285 113.352 183.767 110.677C185.925 109.012 188.426 104.957 189.571 103.225C188.688 97.9087 181.494 101.677 179.271 104.688C175.821 106.69 174.857 108.187 173.647 107.296C171.505 105.748 174.464 100.23 173.222 98.548C171.456 99.3555 170.818 104.015 168.791 106.387C166.764 108.759 168.072 111.283 167.385 112.881L172.944 117.726Z" fill="#FFAD41"/>
<path d="M83.4635 94.0563C78.3789 96.2096 75.7466 101.055 72.9345 109.483C70.1224 117.911 64.9233 129.552 64.9233 129.552C62.9451 127.685 47.8219 111.148 46.187 108.238C45.4349 108.625 36.6716 115.253 36.6716 115.253C38.797 118.449 63.0759 148.646 66.5746 148.882C70.057 149.117 85.6707 124.321 85.6707 124.321L83.4635 94.0563Z" fill="#D35500"/>
<path d="M129.765 94.6283C134.686 97.1854 136.942 102.215 139.117 110.829C141.291 119.442 145.624 131.453 145.624 131.453C147.733 129.738 164.033 114.429 165.881 111.67C166.6 112.124 174.84 119.408 174.84 119.408C172.486 122.436 146.033 150.631 142.55 150.598C139.051 150.564 125.318 124.607 125.318 124.607L129.765 94.6283Z" fill="#D35500"/>
<path d="M130.844 95.4022C129.34 93.9554 119.825 89.5142 117.47 88.8076C114.56 92.8283 110.947 93.1815 108.331 93.1815C105.715 93.1815 102.118 92.8283 99.1916 88.8076C96.8373 89.5142 84.2483 93.0806 82.7441 94.5274C80.259 96.8994 84.1011 146.409 84.5589 153.777C90.6409 153.777 121.835 153.777 127.917 153.777C128.392 146.409 133.329 97.791 130.844 95.4022Z" fill="#F56C00"/>
<path d="M128.359 149.874H84.2973C84.1992 149.874 84.1338 149.807 84.1338 149.706C84.1338 149.605 84.1992 149.538 84.2973 149.538H128.375C128.473 149.538 128.539 149.605 128.539 149.706C128.522 149.79 128.457 149.874 128.359 149.874Z" fill="#50555A"/>
<path d="M127.754 153.946C127.689 153.946 127.64 153.912 127.607 153.861L125.596 150.059L123.585 153.861C123.52 153.962 123.356 153.962 123.291 153.861L121.28 150.059L119.269 153.861C119.203 153.962 119.04 153.962 118.974 153.861L116.963 150.059L114.952 153.861C114.887 153.962 114.724 153.962 114.658 153.861L112.647 150.059L110.636 153.861C110.571 153.962 110.407 153.962 110.342 153.861L108.331 150.059L106.32 153.861C106.255 153.962 106.091 153.962 106.026 153.861L104.015 150.059L102.004 153.861C101.971 153.912 101.922 153.946 101.857 153.946C101.791 153.946 101.742 153.912 101.709 153.861L99.6822 150.059L97.6712 153.861C97.6385 153.912 97.5894 153.946 97.524 153.946C97.4586 153.946 97.4096 153.912 97.3769 153.861L95.3659 150.059L93.3549 153.861C93.3222 153.912 93.2732 153.946 93.2078 153.946C93.1424 153.946 93.0934 153.912 93.0607 153.861L91.0497 150.059L89.0387 153.861C89.006 153.912 88.957 153.946 88.8916 153.946C88.8262 153.946 88.7771 153.912 88.7444 153.861L86.7335 150.059L84.7225 153.861C84.6734 153.946 84.5753 153.979 84.4936 153.929C84.4118 153.878 84.3791 153.777 84.4282 153.693L86.5863 149.622C86.619 149.572 86.6681 149.538 86.7335 149.538C86.7989 149.538 86.8479 149.572 86.8806 149.622L88.8916 153.424L90.9025 149.622C90.9352 149.572 90.9843 149.538 91.0497 149.538C91.1151 149.538 91.1641 149.572 91.1968 149.622L93.2078 153.424L95.2188 149.622C95.2515 149.572 95.3005 149.538 95.3659 149.538C95.4313 149.538 95.4804 149.572 95.5131 149.622L97.524 153.424L99.535 149.622C99.5677 149.572 99.6168 149.538 99.6822 149.538C99.7475 149.538 99.7966 149.572 99.8293 149.622L101.84 153.424L103.851 149.622C103.917 149.521 104.08 149.521 104.146 149.622L106.156 153.424L108.167 149.622C108.233 149.521 108.396 149.521 108.462 149.622L110.473 153.424L112.484 149.622C112.549 149.521 112.713 149.521 112.778 149.622L114.789 153.424L116.8 149.622C116.865 149.521 117.029 149.521 117.094 149.622L119.105 153.424L121.116 149.622C121.182 149.521 121.345 149.521 121.41 149.622L123.438 153.424L125.449 149.622C125.514 149.521 125.678 149.521 125.743 149.622L127.901 153.693C127.95 153.777 127.918 153.878 127.836 153.929C127.803 153.946 127.787 153.946 127.754 153.946Z" fill="#50555A"/>
<path d="M127.934 154.114C127.917 154.114 127.901 154.114 127.901 154.114C127.721 154.097 127.59 153.929 127.623 153.744C128.457 146.661 129.389 132.799 130.157 121.679C130.484 116.868 130.762 112.696 130.991 109.903C131.008 109.718 131.155 109.584 131.351 109.601C131.531 109.617 131.661 109.786 131.645 109.971C131.433 112.763 131.138 116.935 130.811 121.747C130.059 132.883 129.111 146.745 128.277 153.845C128.244 153.979 128.097 154.114 127.934 154.114Z" fill="#50555A"/>
<path d="M84.7486 154.012C84.5851 154.012 84.438 153.877 84.4217 153.692C83.457 140.049 82.115 116.037 81.9352 108.836C81.9352 108.651 82.066 108.5 82.2622 108.5C82.442 108.5 82.5892 108.635 82.5892 108.836C82.769 116.037 84.111 140.032 85.0756 153.675C85.092 153.86 84.9612 154.028 84.7813 154.028C84.7813 154.521 84.765 154.012 84.7486 154.012Z" fill="#50555A"/>
<path d="M108.331 93.3497C105.339 93.3497 101.906 92.8282 99.0609 88.9085C99.0118 88.8413 99.0282 88.7235 99.0936 88.673C99.159 88.6226 99.2734 88.6394 99.3225 88.7067C102.069 92.4918 105.421 93.0133 108.331 93.0133C111.241 93.0133 114.576 92.5086 117.339 88.7067C117.389 88.6394 117.503 88.6226 117.568 88.673C117.634 88.7235 117.65 88.8413 117.601 88.9085C114.756 92.8282 111.323 93.3497 108.331 93.3497Z" fill="#50555A"/>
<path d="M108.331 98.262C102.658 98.262 98.4559 96.2432 92.8154 90.8095C92.75 90.7422 92.75 90.6413 92.8154 90.574C92.8808 90.5067 92.9789 90.5067 93.0443 90.574C98.6194 95.9404 102.772 97.9424 108.347 97.9424C114.119 97.9424 118.517 95.7722 122.588 90.9104C122.653 90.8431 122.751 90.8263 122.817 90.8936C122.882 90.9609 122.898 91.0618 122.833 91.1291C118.68 96.0582 114.217 98.262 108.331 98.262Z" fill="#50555A"/>
<path d="M108.56 98.262C108.478 98.262 108.429 98.2116 108.396 98.1443L107.056 93.4843L103.393 97.5386C103.344 97.5891 103.263 97.6059 103.197 97.5723C103.132 97.5386 103.099 97.4714 103.116 97.3872L103.917 92.9292L99.2734 95.7891C99.208 95.8227 99.1262 95.8227 99.0772 95.7722C99.0282 95.7218 99.0118 95.6377 99.0445 95.5704L101.088 91.3815L95.3005 92.9628C95.2188 92.9797 95.1533 92.946 95.1206 92.8787C95.088 92.8114 95.1043 92.7273 95.1533 92.6769L99.2897 88.9422C99.3551 88.8749 99.4532 88.8917 99.5186 88.959C99.584 89.0263 99.5677 89.1272 99.5023 89.1945L95.8891 92.4413L101.366 90.9441C101.432 90.9273 101.497 90.9441 101.53 90.9946C101.562 91.045 101.579 91.1123 101.546 91.1796L99.6004 95.1834L104.064 92.4413C104.113 92.4077 104.195 92.4077 104.244 92.4413C104.293 92.475 104.325 92.5423 104.309 92.6096L103.541 96.8657L107.007 93.0133C107.039 92.9628 107.105 92.946 107.17 92.9628C107.219 92.9797 107.268 93.0133 107.285 93.0806L108.576 97.5891L110.571 92.946C110.587 92.8955 110.653 92.8451 110.702 92.8451C110.767 92.8451 110.816 92.8619 110.849 92.9124L113.595 96.8657L113.971 91.8357C113.971 91.7684 114.004 91.7179 114.07 91.7011C114.119 91.6675 114.184 91.6843 114.233 91.718L118.108 94.5778L116.538 89.7497C116.522 89.6824 116.538 89.6319 116.571 89.5815C116.62 89.531 116.669 89.5142 116.735 89.531L122.375 91.2133C122.457 91.2469 122.506 91.331 122.49 91.4151C122.457 91.4993 122.375 91.5497 122.293 91.5329L116.947 89.9347L118.566 94.9479C118.582 95.0152 118.566 95.0993 118.5 95.133C118.435 95.1834 118.369 95.1834 118.304 95.133L114.266 92.1385L113.873 97.3199C113.873 97.3872 113.824 97.4545 113.759 97.4714C113.694 97.4882 113.628 97.4713 113.579 97.4041L110.783 93.3666L108.723 98.1611C108.691 98.2284 108.625 98.262 108.56 98.262Z" fill="#50555A"/>
<path d="M36.6716 115.404C36.6226 115.404 36.5735 115.388 36.5408 115.337C36.4918 115.27 36.5081 115.152 36.5735 115.102L46.0889 108.087C46.1543 108.036 46.2687 108.053 46.3178 108.12C46.3668 108.187 46.3505 108.305 46.2851 108.356L36.7697 115.371C36.737 115.404 36.7043 115.404 36.6716 115.404Z" fill="#50555A"/>
<path d="M42.4103 122.806C42.3612 122.806 42.3122 122.79 42.2795 122.739C42.2304 122.672 42.2468 122.554 42.3122 122.504L51.7621 115.118C51.8275 115.068 51.942 115.085 51.991 115.152C52.0401 115.219 52.0237 115.337 51.9583 115.388L42.5084 122.773C42.4757 122.79 42.443 122.806 42.4103 122.806Z" fill="#50555A"/>
<path d="M44.1269 121.461C44.0779 121.461 44.0452 121.444 44.0125 121.41L37.3746 114.765C37.3092 114.698 37.3092 114.597 37.3746 114.53C37.44 114.462 37.5381 114.462 37.6035 114.53L43.5383 120.485L39.827 112.915C39.7943 112.847 39.8107 112.763 39.8761 112.713C39.9415 112.662 40.0232 112.662 40.0886 112.713L46.6284 118.281L42.7699 110.745C42.7372 110.677 42.7536 110.593 42.8189 110.543C42.8843 110.492 42.9661 110.492 43.0315 110.543L49.3587 116.111L45.5493 108.675C45.5002 108.591 45.5329 108.49 45.6147 108.44C45.6964 108.389 45.7945 108.423 45.8436 108.507L50.0454 116.7C50.0781 116.767 50.0617 116.851 49.9963 116.902C49.9309 116.952 49.8492 116.952 49.7838 116.902L43.4566 111.333L47.2987 118.853C47.3314 118.92 47.315 119.005 47.2496 119.055C47.1842 119.105 47.1025 119.105 47.0371 119.055L40.4646 113.47L44.2577 121.208C44.2904 121.276 44.274 121.377 44.2086 121.427C44.1923 121.461 44.1596 121.461 44.1269 121.461Z" fill="#50555A"/>
<path d="M174.84 119.576C174.807 119.576 174.758 119.56 174.742 119.543L165.783 111.804C165.717 111.737 165.701 111.636 165.766 111.569C165.832 111.502 165.93 111.485 165.995 111.552L174.955 119.29C175.02 119.358 175.036 119.459 174.971 119.526C174.938 119.56 174.889 119.576 174.84 119.576Z" fill="#50555A"/>
<path d="M168.578 126.491C168.546 126.491 168.497 126.474 168.464 126.44L159.586 118.332C159.521 118.264 159.504 118.163 159.57 118.096C159.635 118.029 159.733 118.029 159.799 118.079L168.676 126.188C168.742 126.255 168.758 126.356 168.693 126.423C168.676 126.474 168.627 126.491 168.578 126.491Z" fill="#50555A"/>
<path d="M166.976 125.027C166.943 125.027 166.894 125.01 166.862 124.993C166.796 124.943 166.78 124.842 166.829 124.775L171.194 117.356L164.229 122.42C164.164 122.47 164.082 122.453 164.017 122.403C163.968 122.352 163.951 122.251 163.984 122.184L168.366 115.001L161.63 120.064C161.564 120.115 161.483 120.115 161.417 120.048C161.352 119.997 161.352 119.896 161.385 119.829L166.175 111.989C166.224 111.905 166.322 111.889 166.404 111.939C166.486 111.989 166.502 112.09 166.453 112.175L162.12 119.274L168.84 114.21C168.905 114.16 168.987 114.16 169.052 114.227C169.118 114.277 169.118 114.378 169.085 114.446L164.687 121.663L171.619 116.633C171.685 116.582 171.766 116.599 171.832 116.649C171.881 116.7 171.897 116.784 171.865 116.851L167.614 124.102L173.974 118.634C174.039 118.567 174.153 118.584 174.203 118.651C174.268 118.719 174.252 118.836 174.186 118.887L167.074 124.993C167.058 125.01 167.009 125.027 166.976 125.027Z" fill="#50555A"/>
<path d="M95.8727 105.344L91.9816 111.468L95.7092 117.692L99.584 111.569L95.8727 105.344Z" fill="#50555A"/>
<path d="M103.475 105.445L99.584 111.569L103.312 117.793L107.186 111.67L103.475 105.445Z" fill="#50555A"/>
<path d="M111.078 105.563L107.186 111.67L110.914 117.911L114.789 111.788L111.078 105.563Z" fill="#50555A"/>
<path d="M118.68 105.664L114.789 111.788L118.516 118.012L122.391 111.888L118.68 105.664Z" fill="#50555A"/>
<path d="M95.7092 117.692L91.818 123.799L95.5457 130.04L99.4204 123.917L95.7092 117.692Z" fill="#50555A"/>
<path d="M103.312 117.793L99.4205 123.917L103.148 130.141L107.023 124.018L103.312 117.793Z" fill="#50555A"/>
<path d="M110.914 117.911L107.023 124.018L110.75 130.242L114.625 124.135L110.914 117.911Z" fill="#50555A"/>
<path d="M118.517 118.012L114.625 124.136L118.353 130.36L122.228 124.236L118.517 118.012Z" fill="#50555A"/>
<path d="M95.5457 130.04L91.6545 136.147L95.3658 142.371L99.257 136.265L95.5457 130.04Z" fill="#50555A"/>
<path d="M103.148 130.141L99.257 136.265L102.968 142.489L106.859 136.366L103.148 130.141Z" fill="#50555A"/>
<path d="M110.751 130.242L106.859 136.366L110.571 142.59L114.462 136.483L110.751 130.242Z" fill="#50555A"/>
<path d="M118.353 130.36L114.462 136.483L118.173 142.708L122.064 136.584L118.353 130.36Z" fill="#50555A"/>
<path d="M42.2631 81.8262C42.1323 80.9009 41.5437 80.1775 40.7753 79.8916C41.4292 79.3869 41.8053 78.5289 41.6745 77.6037C41.4946 76.2915 40.3665 75.3662 39.1567 75.5513L18.9162 78.4953C17.7063 78.6803 16.8725 79.8747 17.0523 81.1869C17.1831 82.1122 17.7717 82.8355 18.5401 83.1384C17.8862 83.643 17.5101 84.501 17.6409 85.4263C17.7717 86.3515 18.3603 87.0749 19.1287 87.3777C18.4747 87.8824 18.0987 88.7403 18.2295 89.6656C18.4093 90.9778 19.5375 91.903 20.7473 91.718L40.9878 88.774C42.1977 88.6058 43.0315 87.3945 42.8516 86.0655C42.7208 85.1403 42.1323 84.4169 41.3638 84.1309C42.0178 83.6094 42.3939 82.7514 42.2631 81.8262Z" fill="#50555A"/>
<path d="M30.8676 90.2376L20.7473 91.718C20.7473 91.718 22.9708 95.3685 23.5267 95.6209C24.0826 95.8732 24.4096 95.8396 25.2434 95.705C26.0936 95.5872 31.4888 94.7965 31.4888 94.7965C31.4888 94.7965 36.8841 94.0059 37.7343 93.8881C38.5845 93.7703 38.9115 93.7199 39.3692 93.3161C39.827 92.9124 40.9878 88.774 40.9878 88.774L30.8676 90.2376Z" fill="#9BA5AE"/>
<path d="M20.6819 83.1384C20.5184 83.1384 20.3876 83.0206 20.3549 82.8524C20.3222 82.6673 20.453 82.4991 20.6328 82.4655L38.5844 79.8411C38.7643 79.8243 38.9278 79.942 38.9605 80.1271C38.9932 80.3121 38.8624 80.4804 38.6825 80.514L20.7309 83.1384C20.7146 83.1384 20.6982 83.1384 20.6819 83.1384Z" fill="#FF9001"/>
<path d="M21.2705 87.3777C21.107 87.3777 20.9762 87.26 20.9435 87.0918C20.9108 86.9067 21.0416 86.7385 21.2214 86.7048L39.173 84.0805C39.3529 84.0468 39.5164 84.1814 39.5491 84.3664C39.5818 84.5515 39.451 84.7197 39.2711 84.7534L21.3195 87.3777C21.3032 87.3777 21.2868 87.3777 21.2705 87.3777Z" fill="#FF9001"/>
<path d="M49.5876 43.4365C47.6583 29.4231 35.053 19.6659 21.4176 21.651C7.79857 23.6361 -1.68406 36.6065 0.245162 50.6199C1.11168 56.9452 4.16901 62.4127 8.50159 66.3155C8.55064 66.366 8.79588 66.5511 8.86128 66.6015C15.3193 71.7493 18.6709 76.6616 18.9161 78.4784L29.0364 76.998L39.1567 75.5176C38.9114 73.7008 40.8243 68.0483 45.6147 61.2687C45.6637 61.1846 45.8109 60.9491 45.8436 60.9154C48.999 55.9191 50.4704 49.7956 49.5876 43.4365Z" fill="#FFD03E"/>
<path d="M20.2242 78.2934C19.1451 74.9625 15.6464 70.8409 10.5944 66.6857L9.82598 65.9959C5.54244 62.2108 2.7467 56.9453 1.96193 51.1919C0.163499 38.1037 9.04121 25.9408 21.7774 24.0903C34.4972 22.2398 46.3178 31.3746 48.1162 44.4796C48.901 50.233 47.6421 56.0873 44.552 60.9491L43.9962 61.8239C40.2522 67.2745 38.045 72.4895 37.8651 75.7195L20.2242 78.2934Z" fill="#FCBA06"/>
<path d="M34.8732 26.0922C39.8107 30.0624 43.3421 35.9167 44.274 42.7973C45.1242 48.9881 43.1296 55.3639 39.8107 60.5958L39.2057 61.5379C35.1838 67.3922 32.8131 72.9942 32.6169 76.4765L37.8487 75.7195C38.0286 72.4895 40.2357 67.2576 43.9797 61.8239L44.5356 60.9491C47.6257 56.0873 48.8846 50.233 48.0998 44.4796C46.9553 36.1354 41.7726 29.4063 34.8732 26.0922Z" fill="#E19100"/>
<path d="M3.51513 37.9859C2.82846 40.2065 3.22084 42.2926 4.38165 42.6795C5.54245 43.0496 7.03025 41.5692 7.71692 39.3486C8.40359 37.128 8.01121 35.0419 6.8504 34.655C5.6896 34.2849 4.2018 35.7821 3.51513 37.9859Z" fill="white"/>
<path d="M25.6357 58.1733L24.573 58.3247C24.2624 56.3733 24.1643 54.8929 24.246 53.8835C24.3278 52.8741 24.7038 51.461 25.3741 49.6273C26.0445 47.7936 26.4532 46.3301 26.584 45.2534C26.7311 44.1767 26.6984 42.8814 26.4859 41.3673C26.1589 39.0121 25.4722 37.3467 24.4259 36.371C23.3795 35.3952 22.2514 34.9915 21.0252 35.1597C20.0933 35.2943 19.3576 35.6644 18.7853 36.27C18.3603 36.7242 18.1804 37.1785 18.2295 37.599C18.2622 37.885 18.4911 38.3056 18.8998 38.8607C19.8317 40.1056 20.3549 41.2159 20.4857 42.1748C20.6001 43.0328 20.4203 43.8066 19.9135 44.4796C19.423 45.1525 18.7363 45.5394 17.8861 45.674C16.9215 45.8086 16.0714 45.5899 15.3193 44.9842C14.5672 44.3786 14.1094 43.5038 13.9623 42.3599C13.668 40.2739 14.3056 38.3224 15.8425 36.4887C17.3793 34.655 19.7173 33.5111 22.8563 33.0569C26.1916 32.569 28.8402 33.0232 30.8021 34.4027C32.7641 35.7822 33.9085 37.6327 34.2355 39.9374C34.4644 41.6197 34.2355 43.2347 33.5325 44.7824C32.8295 46.3301 31.3253 48.1637 29.0037 50.2666C27.4505 51.6797 26.4532 52.891 26.0445 53.8667C25.6357 54.8424 25.5049 56.2892 25.6357 58.1733Z" fill="#FFDD4D"/>
<path d="M25.881 62.0762C27.0254 61.908 28.0718 62.1771 28.9874 62.9005C29.9029 63.6071 30.4588 64.566 30.6059 65.7436C30.7694 66.9212 30.5078 67.9978 29.8048 68.9567C29.1182 69.9156 28.1862 70.4708 27.0418 70.639C25.8973 70.8073 24.851 70.5213 23.9354 69.8147C23.0198 69.0913 22.464 68.1324 22.3005 66.9548C22.137 65.7772 22.3986 64.7006 23.1016 63.7585C23.821 62.7996 24.7365 62.2444 25.881 62.0762Z" fill="#FFDD4D"/>
<g clip-path="url(#clip2)">
<path d="M15.9782 133.002L7.98413 140.997L15.9793 148.991L23.9733 140.996L15.9782 133.002Z" fill="#FFAD41"/>
</g>
<path d="M194.154 82.022C194.301 81.0295 193.909 80.1042 193.222 79.5659C194.04 79.2631 194.694 78.5061 194.841 77.5135C195.053 76.1172 194.17 74.805 192.879 74.6032L171.314 71.1377C170.022 70.9358 168.796 71.8947 168.584 73.291C168.436 74.2835 168.829 75.2088 169.516 75.7471C168.698 76.0499 168.044 76.807 167.897 77.7995C167.75 78.792 168.142 79.7173 168.829 80.2556C168.011 80.5584 167.357 81.3155 167.21 82.308C166.998 83.7043 167.864 85.0165 169.172 85.2184L190.737 88.6839C192.029 88.8857 193.255 87.9268 193.467 86.5305C193.614 85.5548 193.222 84.6127 192.535 84.0744C193.353 83.7716 194.007 83.0146 194.154 82.022Z" fill="#50555A"/>
<path d="M179.963 86.9511L169.188 85.2183C169.188 85.2183 170.349 89.6595 170.84 90.0969C171.33 90.5343 171.674 90.6016 172.573 90.7362C173.472 90.8876 179.227 91.8129 179.227 91.8129C179.227 91.8129 184.982 92.7381 185.881 92.8895C186.78 93.0409 187.124 93.0914 187.729 92.8222C188.317 92.5531 190.753 88.7006 190.753 88.7006L179.963 86.9511Z" fill="#9BA5AE"/>
<path d="M190.933 79.5323C190.917 79.5323 190.9 79.5323 190.884 79.5323L171.755 76.4537C171.575 76.42 171.461 76.2518 171.477 76.0668C171.51 75.8817 171.674 75.7639 171.853 75.7808L190.982 78.8593C191.162 78.893 191.277 79.0612 191.26 79.2463C191.227 79.4145 191.097 79.5323 190.933 79.5323Z" fill="#FF9001"/>
<path d="M190.247 84.0407C190.23 84.0407 190.214 84.0407 190.197 84.0407L171.085 80.9622C170.905 80.9285 170.791 80.7603 170.807 80.5752C170.84 80.3902 171.003 80.2724 171.183 80.2893L190.296 83.3678C190.475 83.4015 190.59 83.5697 190.573 83.7548C190.541 83.923 190.41 84.0407 190.247 84.0407Z" fill="#FF9001"/>
<path d="M213.234 45.1633C215.506 30.2246 205.582 16.2281 191.064 13.9065C176.546 11.5681 162.943 21.7796 160.687 36.7182C159.657 43.4642 161.128 50.0083 164.365 55.3747C164.398 55.442 164.594 55.7112 164.643 55.7785C169.679 63.0964 171.625 69.2031 171.33 71.1209L182.105 72.8536L192.879 74.5864C193.173 72.6518 196.852 67.4872 203.784 62.1039C203.866 62.0366 204.094 61.8515 204.127 61.8179C208.836 57.7299 212.204 51.9429 213.234 45.1633Z" fill="#FFD03E"/>
<path d="M172.72 71.3564C172.622 67.6049 170.3 62.2889 166.393 56.4177L165.804 55.4757C162.583 50.227 161.308 43.9689 162.24 37.8286C164.366 23.8824 177.118 14.3103 190.672 16.4972C204.225 18.6842 213.528 31.7892 211.403 45.7521C210.471 51.8924 207.413 57.4608 202.787 61.4309L201.953 62.1543C196.476 66.5114 192.65 71.1377 191.489 74.3845L172.72 71.3564Z" fill="#FCBA06"/>
<path d="M203.441 22.7385C207.299 28.3741 209.114 35.4902 208.002 42.8081C207.005 49.4026 203.032 55.2738 198.062 59.5468L197.162 60.3206C191.293 65.0142 187.173 69.9769 185.93 73.476L191.506 74.3677C192.666 71.1209 196.492 66.4946 201.969 62.1375L202.803 61.4141C207.43 57.4271 210.487 51.8587 211.419 45.7352C212.743 36.8696 209.49 28.3405 203.441 22.7385Z" fill="#E19100"/>
<path d="M167.832 24.8582C166.475 26.8938 166.229 29.1649 167.292 29.9219C168.355 30.6789 170.333 29.6359 171.69 27.5835C173.047 25.548 173.292 23.2769 172.229 22.5198C171.167 21.7796 169.189 22.8227 167.832 24.8582Z" fill="white"/>
<path d="M104.25 13H96.75L93 19.5L96.75 26H104.25L108 19.5L104.25 13Z" fill="#50555A"/>
<path d="M185.816 52.4139L184.573 52.2121C184.77 49.9746 184.753 47.2325 184.492 43.9857L183.985 37.408C183.674 33.4715 183.642 30.6789 183.903 29.0302C184.132 27.533 184.753 26.4059 185.751 25.632C186.748 24.8582 187.958 24.589 189.347 24.8077C190.704 25.0264 191.751 25.6657 192.519 26.7255C193.271 27.7854 193.549 29.0302 193.337 30.4434C193.108 31.9238 192.225 34.5986 190.672 38.4678L188.219 44.5577C187.32 46.7447 186.535 49.3522 185.816 52.4139ZM184.59 56.4851C185.849 56.6869 186.862 57.3262 187.614 58.386C188.367 59.4459 188.644 60.6403 188.448 61.9525C188.252 63.2478 187.631 64.2908 186.601 65.0647C185.571 65.8385 184.41 66.1245 183.151 65.9227C181.892 65.7208 180.878 65.0815 180.126 64.0217C179.374 62.9618 179.096 61.7842 179.293 60.4721C179.489 59.1767 180.094 58.1337 181.124 57.343C182.154 56.5692 183.315 56.2664 184.59 56.4851Z" fill="#FFDD4D"/>
<path d="M191.816 9.31388C191.783 9.31388 191.751 9.31388 191.718 9.31388C191.358 9.26342 191.113 8.91014 191.179 8.54003L192.388 0.566025C192.437 0.195924 192.781 -0.0564182 193.14 0.010873C193.5 0.0613414 193.745 0.41462 193.68 0.784722L192.47 8.75873C192.405 9.07836 192.127 9.31388 191.816 9.31388Z" fill="#FFDD4D"/>
<path d="M178.099 10.2223C177.821 10.2223 177.559 10.0372 177.478 9.73444L175.303 1.97912C175.205 1.62584 175.401 1.25574 175.745 1.13798C176.088 1.03705 176.448 1.23892 176.562 1.5922L178.737 9.34751C178.835 9.70079 178.638 10.0709 178.295 10.1887C178.213 10.2223 178.148 10.2223 178.099 10.2223Z" fill="#FFDD4D"/>
<path d="M166.033 17.0187C165.853 17.0187 165.673 16.9346 165.543 16.7832L160.376 10.6933C160.131 10.4073 160.164 9.98676 160.442 9.75124C160.72 9.49889 161.128 9.53254 161.357 9.81853L166.524 15.9084C166.769 16.1944 166.736 16.6149 166.458 16.8505C166.344 16.9682 166.18 17.0187 166.033 17.0187Z" fill="#FFDD4D"/>
<path d="M157.891 28.4246C157.809 28.4246 157.711 28.4077 157.63 28.3741L150.452 25.0937C150.125 24.9422 149.978 24.5385 150.125 24.202C150.272 23.8656 150.665 23.7142 150.992 23.8656L158.169 27.1292C158.496 27.2806 158.643 27.6844 158.496 28.0208C158.382 28.2732 158.136 28.4246 157.891 28.4246Z" fill="#FFDD4D"/>
<path d="M147.346 42.4547C146.986 42.4547 146.692 42.1688 146.692 41.7987C146.692 41.4286 146.97 41.1257 147.33 41.1089L155.177 40.9575C155.521 40.9575 155.831 41.2435 155.848 41.6136C155.848 41.9837 155.57 42.2865 155.21 42.3033L147.346 42.4547C147.362 42.4547 147.346 42.4547 147.346 42.4547Z" fill="#FFDD4D"/>
<path d="M151.401 59.5973C151.155 59.5973 150.926 59.4627 150.812 59.2272C150.648 58.8907 150.779 58.487 151.106 58.3188L158.153 54.7691C158.48 54.6009 158.872 54.7355 159.036 55.0719C159.199 55.4084 159.068 55.8122 158.741 55.9804L151.695 59.53C151.597 59.5805 151.499 59.5973 151.401 59.5973Z" fill="#FFDD4D"/>
<path d="M204.699 14.5121C204.569 14.5121 204.454 14.4785 204.34 14.3944C204.045 14.1925 203.964 13.7719 204.16 13.4523L208.542 6.75682C208.738 6.45401 209.146 6.36989 209.457 6.57176C209.751 6.77364 209.833 7.19421 209.637 7.51384L205.255 14.2093C205.108 14.4112 204.912 14.5121 204.699 14.5121Z" fill="#FFDD4D"/>
<path d="M214.166 24.7572C213.937 24.7572 213.724 24.6395 213.61 24.4376C213.43 24.1179 213.528 23.6974 213.839 23.5123L220.558 19.3403C220.869 19.1552 221.261 19.2562 221.457 19.5758C221.637 19.8954 221.539 20.316 221.229 20.501L214.509 24.6731C214.395 24.7404 214.28 24.7572 214.166 24.7572Z" fill="#FFDD4D"/>
<path d="M218.531 38.1818C218.204 38.1818 217.91 37.9295 217.877 37.5762C217.844 37.2061 218.106 36.8696 218.466 36.836L226.264 35.978C226.624 35.9444 226.951 36.2135 226.984 36.5837C227.016 36.9538 226.755 37.2902 226.395 37.3239L218.596 38.1818C218.58 38.1818 218.564 38.1818 218.531 38.1818Z" fill="#FFDD4D"/>
<path d="M224.417 54.8532C224.351 54.8532 224.27 54.8364 224.204 54.8196L216.782 52.212C216.438 52.0943 216.258 51.7074 216.373 51.3541C216.487 51.0008 216.863 50.8157 217.207 50.9335L224.629 53.541C224.973 53.6588 225.153 54.0457 225.038 54.399C224.94 54.6682 224.695 54.8532 224.417 54.8532Z" fill="#FFDD4D"/>
<path d="M215.474 69.8928C215.31 69.8928 215.147 69.8255 215.016 69.7078L209.359 64.1058C209.097 63.8535 209.097 63.4161 209.343 63.1469C209.588 62.8777 210.013 62.8777 210.275 63.1301L215.931 68.7321C216.193 68.9844 216.193 69.4218 215.948 69.6909C215.817 69.8255 215.637 69.8928 215.474 69.8928Z" fill="#FFDD4D"/>
<path d="M196.343 147L205 132.186L188 132L196.343 147Z" fill="#F56C00"/>
</g>
<defs>
<clipPath id="clip0">
<rect width="225" height="167" fill="white"/>
</clipPath>
<clipPath id="clip1">
<rect width="165" height="155" fill="white" transform="translate(23 9)"/>
</clipPath>
<clipPath id="clip2">
<rect width="16" height="16" fill="white" transform="translate(8 133)"/>
</clipPath>
</defs>
</svg>
