<svg width="513" height="377" viewBox="0 0 513 377" fill="none" xmlns="http://www.w3.org/2000/svg">
<g clip-path="url(#clip0)">
<path d="M47.5282 163.388C46.4289 148.963 40.2063 145.665 38.52 124.571C37.2417 108.599 36.0404 93.5753 44.2726 82.0659C54.9746 67.0989 69.1932 75.4642 92.6737 60.2385C97.0709 57.3879 100.344 54.6492 102.998 51.9404C117.211 37.4336 123.757 28.0161 130.077 20.9195C143.532 5.80821 163.603 2.71631 176.013 0.803463C217.615 -5.60669 226.272 28.2475 271.923 33.9039C326.957 40.722 360.022 -2.82572 396.003 17.6733C410.01 25.6531 417.974 36.068 417.974 36.068C429.705 51.4131 428.919 65.2308 439.363 77.0213C444.26 82.5485 457.046 93.7519 457.051 93.7544C457.088 93.7842 457.033 93.7395 457.051 93.7544C462.754 98.3313 478.049 116.721 481.82 142.105C487.199 178.333 462.425 183.298 465.917 218.443C468.807 247.516 487.259 258.782 480.76 283.85C480.76 283.85 477.716 295.596 468.046 306.573C437.699 341.024 350.964 317.373 258.271 320.639C142.211 324.726 97.0634 348.529 57.0513 313.11C38.8931 297.036 22.0232 268.557 22.0083 238.76C21.9934 209.13 50.0949 197.038 47.5282 163.388Z" fill="#FFCC66"/>
<path d="M124.571 267.632C123.195 268.973 120.845 267.425 112.088 265.209C107.972 264.162 105.5 263.737 104.244 263.334C109.36 270.983 113.864 279.01 117.786 287.342C117.92 287.611 118.042 287.867 118.164 288.133C118.895 289.693 119.614 291.253 120.295 292.822H118.348C117.569 290.984 116.754 289.156 115.901 287.342C112.075 279.156 107.668 271.239 102.687 263.687C102.321 264.809 101.005 266.769 100.165 270.313C98.7646 276.293 100.627 278.778 98.777 280.619C96.2203 283.176 88.9008 282.129 87.3538 278.524C85.9785 275.321 89.6793 271.338 91.9947 268.841C95.3448 265.224 99.9484 262.458 101.896 262.508C101.592 262.045 101.286 261.582 100.958 261.12C100.411 260.316 99.8614 259.5 99.2893 258.697C99.0953 258.428 98.9113 258.162 98.7173 257.906C98.3642 257.381 97.9861 256.859 97.6081 256.346C96.0611 254.177 94.4545 252.046 92.7981 249.964C92.3951 249.451 91.9947 248.941 91.5794 248.429C91.9574 249.173 92.323 249.988 92.6264 250.852C93.7954 254.031 94.3425 257.891 93.0294 261.523C92.3603 263.386 90.8731 266.065 88.9257 267.565C87.891 268.368 86.7221 268.843 85.4786 268.674C82.7751 268.321 80.3627 265.07 80.594 262.329C80.8128 259.685 83.3099 259.234 85.4164 255.983C89.0451 250.357 86.3665 244.302 87.62 243.974C87.6697 243.949 87.7543 243.974 87.8264 243.986C87.8139 243.986 87.8139 243.974 87.8015 243.974C87.7891 243.924 87.7518 243.889 87.717 243.852C86.2197 242.123 84.6976 240.442 83.1382 238.773C82.9069 240.27 80.7382 243.305 80.5442 248.406C80.3627 252.986 81.932 254.836 80.4348 257.249C79.2659 259.112 76.8061 260.466 75.003 260.088C74.8563 260.05 74.6996 260.003 74.5528 259.941C73.0307 259.319 72.4214 257.224 72.2622 254.971C72.1155 252.802 72.3592 250.476 72.5905 249.16C72.7721 248.125 73.0407 246.663 73.7222 245.081C73.7222 245.081 73.7222 245.081 73.7222 245.068C74.0505 244.337 74.4534 243.583 75.0005 242.827C75.1473 242.596 75.3288 242.377 75.5128 242.146C77.4727 239.733 80.5417 237.76 82.1509 237.735C82.0663 237.626 81.9693 237.529 81.8574 237.432C80.5666 236.069 79.2509 234.716 77.9104 233.412C77.7288 233.231 77.5572 233.059 77.3757 232.877C77.1195 232.621 76.8509 232.365 76.5848 232.121C76.5002 232.024 76.4032 231.94 76.3037 231.852C75.866 231.427 75.4382 231.012 75.0005 230.611C73.7595 229.417 72.4911 228.248 71.2251 227.104C71.2127 227.092 71.2127 227.092 71.2003 227.079C71.5907 228.358 71.7723 230.502 71.9911 233.046C72.4537 238.516 72.6602 241.28 70.9814 242.536C70.566 242.84 70.0562 243.061 69.519 243.17C67.9969 243.524 66.1813 243.121 65.2313 242.061C63.7689 240.442 64.6965 237.7 66.1316 233.474C66.4002 232.683 66.9847 230.989 67.6786 229.395C68.2506 228.091 68.8972 226.86 69.5165 226.263C69.6632 226.129 69.7975 226.019 69.9318 225.96C69.7975 225.838 69.6508 225.716 69.5165 225.594C68.9072 225.059 68.3103 224.534 67.7009 224.01C67.5791 223.913 67.4572 223.803 67.3353 223.706C67.0319 223.437 66.7136 223.171 66.3977 222.915C64.6816 221.452 62.9382 220.04 61.1599 218.664C61.1475 218.652 61.1475 218.652 61.135 218.639C61.5504 219.833 61.1848 222.452 60.6973 225.888C60.0407 230.517 59.6751 232.855 58.0909 234.012C56.9219 234.852 55.3377 235.181 53.8404 235.071C51.99 234.962 50.259 234.193 49.6746 232.977C48.8464 231.27 50.5028 229.042 53.828 224.597C55.1909 222.768 56.8249 220.602 58.2252 219.249C58.9812 218.505 59.6876 218.007 60.2347 217.945C60.2223 217.945 60.2223 217.933 60.2098 217.933C59.5756 217.445 58.9315 216.945 58.2973 216.47C58.1257 216.336 57.9566 216.214 57.7974 216.092C56.1534 214.886 54.5095 213.692 52.8282 212.535C52.8282 212.535 52.8282 212.535 52.8158 212.523C52.8779 212.876 52.8531 213.448 52.7312 214.532C52.3059 218.502 52.097 220.477 51.0624 222.243C49.6994 224.557 46.7025 227.482 44.8397 226.763C42.855 225.985 42.3551 221.062 44.0115 217.567C45.7276 213.963 49.784 211.709 51.7563 211.781C51.7563 211.781 51.7438 211.781 51.7438 211.769C49.6248 210.319 47.481 208.906 45.2899 207.53C45.2774 207.518 45.2774 207.518 45.2774 207.518C45.1431 208.565 43.9369 210.538 41.9049 213.804C38.8732 218.676 37.3138 221.137 35.2421 221.855C32.3322 222.865 28.1663 222.087 26.9352 219.577C25.9976 217.639 27.1416 215.351 27.3505 214.973C28.5443 212.694 30.5539 212.269 36.8984 209.674C40.8927 208.055 42.952 207.055 44.0463 206.764C43.6434 206.508 43.2306 206.252 42.8152 206.008C40.2461 204.436 37.652 202.951 35.0083 201.513C34.9958 201.501 34.9958 201.501 34.9834 201.488C35.5679 203.923 30.9643 208.906 25.826 211.306C20.919 213.597 12.6245 214.901 9.93353 210.781C8.58055 208.722 8.78947 205.543 10.227 203.498C10.8836 202.548 12.4082 200.976 24.2691 200.379C26.8506 200.244 28.9323 200.147 30.5415 200.147C31.3572 200.147 32.0387 200.172 32.6232 200.232C31.2602 199.501 29.9073 198.807 28.5319 198.125C28.4822 198.1 28.4225 198.053 28.41 198.016C28.3976 198.003 28.3976 198.003 28.3976 198.003C26.4602 199.697 16.487 199.879 8.44874 195.215C6.53618 194.093 0.59454 190.635 0.0324602 185.081C-0.161532 183.059 0.263759 179.952 2.00471 179.223C3.38007 178.639 5.0489 179.735 6.38944 180.661C12.5649 184.899 17.0466 188.847 19.1904 190.613C25.5002 195.802 28.9099 196.327 28.7383 197.483C28.7383 197.483 28.7383 197.483 28.7508 197.483C28.7756 197.483 28.8105 197.496 28.8353 197.508C30.1759 198.165 31.4915 198.824 32.8171 199.518C32.8296 199.518 32.8545 199.531 32.8669 199.543C30.7479 197.508 28.4946 192.819 27.7883 188.203C27.3132 185.096 26.5099 179.798 29.8103 177.106C34.0483 173.624 42.5988 176.559 43.8772 180.492C44.7178 183.099 41.8303 184.487 38.5797 192.514C36.3389 198.018 36.5105 200.309 35.1077 200.578C35.0232 200.59 34.9361 200.578 34.8516 200.578C34.864 200.59 34.8764 200.59 34.8764 200.59C37.555 202.016 40.2112 203.501 42.8053 205.048C43.2306 205.304 43.6459 205.548 44.0712 205.816C44.0836 205.829 44.1085 205.829 44.1209 205.841C42.3924 203.856 41.6736 197.802 41.8428 193.795C41.9273 191.613 42.1586 185.927 44.6308 185.22C46.7249 184.623 49.8064 187.743 51.0126 190.834C53.644 197.643 48.0779 206.804 45.2028 206.498C45.2152 206.51 45.2152 206.51 45.2277 206.51C46.2872 207.145 47.3467 207.814 48.3937 208.483C49.503 209.202 50.6097 209.921 51.7065 210.652C51.7786 210.702 51.8408 210.749 51.8881 210.786C51.9005 210.786 51.9005 210.786 51.9005 210.799C51.0474 208.473 52.7163 201.506 57.4169 197.936C57.6233 197.765 57.8546 197.595 58.0859 197.449C58.5012 197.18 62.6049 194.561 64.6866 196.158C66.4151 197.473 65.9401 201.006 65.0398 203.15C64.0176 205.573 61.9583 207.01 58.2202 208.995C57.2328 209.508 56.1261 210.067 54.895 210.689C53.9076 211.189 53.348 211.433 52.9824 211.518C53.0197 211.542 53.0421 211.567 53.067 211.577C54.6139 212.637 56.1484 213.697 57.6581 214.806C57.8645 214.965 58.0834 215.122 58.2923 215.281C58.9613 215.769 59.6204 216.256 60.277 216.756H60.2894C60.4486 215.697 63.1396 213.978 66.1465 209.264C68.0342 206.316 68.4371 204.709 69.509 204.088C69.6433 204.003 69.7901 203.941 69.9468 203.894C69.9841 203.881 70.0313 203.869 70.0811 203.856C71.6877 203.478 73.8316 204.647 74.9881 206.316C75.4382 206.951 75.7541 207.657 75.8411 208.364C75.963 209.398 75.6098 210.373 74.9881 211.251C74.4757 211.97 73.7943 212.639 73.0407 213.212C71.8593 214.149 70.5188 214.893 69.509 215.403C68.9619 215.672 68.5092 215.878 68.2307 216C65.9774 217.01 63.0426 217.791 61.436 217.632C62.58 218.485 63.7017 219.373 64.8209 220.263V220.276C65.9053 221.142 66.9648 222.005 68.0118 222.883C68.0367 222.908 68.0715 222.945 68.1088 222.967C68.1088 222.967 68.1088 222.967 68.1212 222.98C68.4247 222.821 68.9121 222.689 69.509 222.517C71.0187 222.114 73.2347 221.542 74.8786 219.995C74.916 219.97 74.9508 219.935 74.9881 219.898C75.391 219.507 75.7541 219.07 76.06 218.545C77.6443 215.866 76.4853 213.406 77.898 212.709C78.5794 212.368 79.6141 212.562 80.6387 213.1C82.0763 213.866 83.464 215.353 83.7575 217.07C84.3669 220.639 79.9697 223.306 79.2634 223.709C79.1042 223.806 78.9351 223.89 78.7759 223.965C77.8756 224.427 76.938 224.743 76.0103 224.927C75.6695 225 75.3288 225.049 74.9881 225.099C73.2347 225.306 71.541 225.124 70.2502 224.796C71.8568 226.171 73.4287 227.584 74.9881 229.047C75.585 229.571 76.1694 230.131 76.7539 230.678C76.8161 230.728 76.8633 230.788 76.9255 230.838C76.938 230.85 76.9628 230.875 76.9753 230.887C77.5473 231.422 78.1193 231.972 78.6913 232.532C79.0818 232.91 79.4698 233.3 79.8727 233.676C79.5444 229.972 85.7671 217.781 92.4772 218.219C93.8178 218.303 95.2056 218.9 96.2899 219.741C97.3867 220.594 98.1527 221.714 98.2622 222.848C98.3716 224.151 97.5807 225.417 96.2277 226.636C93.6835 228.927 89.152 231.069 84.9986 233.019C82.9517 233.982 81.6385 234.591 80.87 234.676L80.8825 234.688C83.0388 236.87 85.1577 239.086 87.2021 241.352C87.5304 239.123 91.1964 234.007 95.6781 231.706C97.6628 230.683 99.7942 230.196 101.876 230.756C106.32 231.949 109.598 237.601 108.355 239.817C107.295 241.693 103.57 240.024 94.3251 241.292C94.2878 241.292 94.253 241.305 94.2157 241.305C90.8308 241.78 89.0525 242.315 88.1273 242.402C88.5054 242.805 88.8585 243.218 89.2117 243.621C89.3211 243.742 89.4305 243.852 89.54 243.986C90.7462 245.387 91.94 246.8 93.1089 248.225C94.5465 249.991 95.9591 251.782 97.3221 253.608C97.7473 251.135 102.56 246.812 108.076 245.606C109.198 245.362 114.871 244.108 116.602 246.897C117.955 249.078 116.346 252.829 114.058 254.68C111.817 256.471 108.967 256.252 103.266 255.824C101.05 255.652 99.5157 255.533 98.5656 255.264C98.8591 255.667 99.1376 256.055 99.4311 256.446C99.5778 256.652 99.7246 256.859 99.8813 257.068C100.063 257.324 100.247 257.58 100.416 257.834C101.438 259.234 102.438 260.672 103.413 262.11C104.485 260.844 109.723 259.675 112.633 259.212C117.627 258.421 120.962 257.884 123.227 260.053C125.411 262.09 126.093 266.147 124.571 267.632Z" fill="#FFCC66"/>
<path d="M126.463 187.208C124.563 184.718 121.183 184.718 116.132 184.718C113.195 184.718 107.835 185.059 106.574 186.143C105.704 184.283 104.806 182.434 103.876 180.604C103.54 179.932 103.179 179.273 102.834 178.606C103.739 179.027 105.244 179.385 107.417 179.902C112.978 181.223 115.759 181.885 118.249 180.462C120.805 179.002 122.979 175.542 121.984 173.179C120.711 170.156 114.913 170.497 113.769 170.564C108.129 170.895 102.692 174.415 101.894 176.793C99.6228 172.522 97.178 168.346 94.5691 164.274C95.4968 164.338 97.3298 164.082 100.762 164.149C110.173 164.331 113.608 166.594 114.953 164.895C116.528 162.905 114.177 156.806 109.974 154.936C103.53 152.068 94.7357 160.035 93.813 163.114C92.1367 160.54 90.4107 157.995 88.6101 155.508C89.3835 155.545 90.7738 155.152 92.9525 154.518C99.685 152.563 107.375 150.329 107.641 146.55C107.8 144.287 105.286 141.665 102.662 141.073C96.0763 139.586 87.9883 150.724 87.7769 154.393C85.1829 150.864 82.4645 147.429 79.6441 144.08C81.8775 145.046 85.449 145.71 88.7518 144.434C89.5079 144.14 94.2706 142.192 94.2284 138.583C94.1936 135.588 90.8658 132.81 89.1249 133.355C87.6227 133.825 88.3763 136.432 86.3866 138.832C83.7951 141.959 79.2512 141.496 77.8534 141.956C77.8236 141.921 77.7962 141.887 77.7664 141.852C75.916 139.727 74.0034 137.66 72.0635 135.621C73.613 136.041 76.6572 135.735 79.0597 135.081C80.629 134.653 87.6177 132.748 87.7744 128.73C87.8739 126.121 85.066 123.211 82.7953 123.377C81.1986 123.494 80.7683 125.064 78.0648 128.109C74.3317 132.315 71.3845 133.581 71.0936 134.603C69.0044 132.442 66.8655 130.327 64.6769 128.268C65.0499 128.245 65.6444 128.094 66.7213 127.75C73.021 125.731 76.1697 124.721 77.9256 121.9C79.1542 119.922 80.1689 116.497 78.6717 114.928C76.8661 113.037 72.4018 114.975 71.9491 115.176C66.2438 117.723 63.2244 124.915 63.7592 127.42C61.8068 125.604 59.8196 123.825 57.7951 122.094C60.5807 122.865 67.5345 114.676 65.995 107.525C65.2962 104.281 62.7395 100.727 60.5807 100.988C58.0165 101.299 56.9023 106.876 56.472 109.017C55.6886 112.938 55.4424 119.002 56.8227 121.251C54.1068 118.962 51.3238 116.753 48.4885 114.619C48.5805 114.634 48.6725 114.661 48.7621 114.659C50.1847 114.619 50.3812 112.326 53.4477 107.236C57.917 99.8213 60.991 98.9059 60.5658 96.1996C59.9241 92.1177 51.9455 87.8766 47.2052 90.6426C43.5317 92.7868 43.4944 98.1522 43.4721 101.294C43.4397 105.98 44.9469 110.992 46.7401 113.323C45.5139 112.42 44.2878 111.522 43.0418 110.647C43.0144 110.627 42.9821 110.637 42.9523 110.627C43.3576 109.507 40.0648 108.483 34.6031 102.321C32.7602 100.242 28.9599 95.6449 23.5232 90.4934C22.3369 89.3666 20.8595 88.0159 19.4145 88.3766C17.5816 88.8342 16.6713 91.8316 16.5519 93.8539C16.2261 99.4283 21.5559 103.781 23.2745 105.184C30.487 111.072 40.403 112.443 42.5543 111.057C42.5792 111.112 42.5966 111.169 42.6463 111.204C43.8924 112.092 45.121 113.007 46.3471 113.925C44.6509 113.48 41.9276 113.179 38.085 112.766C26.2789 111.5 24.5305 112.808 23.7296 113.639C21.9862 115.445 21.2898 118.547 22.2971 120.79C24.3141 125.285 32.7105 125.293 37.9085 123.798C43.3502 122.236 48.675 118.057 48.496 115.559C51.2616 117.691 53.9775 119.89 56.6212 122.169C55.4797 122.293 53.2985 122.947 49.1053 123.932C42.425 125.497 40.3781 125.606 38.8361 127.668C38.58 128.009 37.0852 130.081 37.7169 132.151C38.5327 134.822 42.522 136.245 45.5587 135.7C47.7125 135.312 49.6375 133.133 53.4005 128.79C55.9 125.905 57.3997 124.146 57.7106 123.134C59.648 124.83 61.5506 126.564 63.4184 128.335C61.471 127.972 57.1361 129.556 54.8927 132.832C52.7066 136.029 52.4255 140.966 54.271 142.046C55.9895 143.051 59.4117 140.63 61.1179 138.561C62.4137 136.986 62.9359 135.063 63.9805 131.215C64.269 130.156 64.376 129.586 64.3784 129.24C66.582 131.36 68.7259 133.536 70.8225 135.757C69.2631 135.71 66.01 138.867 63.4806 141.322C59.4988 145.19 57.5091 147.125 58.0687 148.951C58.78 151.274 63.3488 152.739 66.2189 151.282C67.9623 150.396 68.6861 148.142 70.0614 143.673C71.0687 140.399 71.8322 137.887 71.6407 136.628C73.4513 138.568 75.2345 140.533 76.9606 142.548C77.7042 143.419 78.4255 144.309 79.1542 145.192C77.5824 145.677 75.0082 150.55 74.2347 152.015C72.1531 155.963 70.8051 158.523 71.9939 160.356C73.0484 161.98 75.8439 162.649 77.5948 161.726C79.4526 160.749 79.6889 157.99 80.0844 152.513C80.2684 149.971 80.4201 147.824 80.246 146.511C83.4494 150.461 86.4886 154.543 89.3686 158.734C87.7644 158.518 84.4367 159.988 82.1362 162.05C79.6242 164.298 78.6941 166.933 78.1519 168.525C77.2764 171.099 75.63 177.785 78.4006 179.482C80.0694 180.504 83.0639 179.544 84.6258 177.738C86.4836 175.591 85.2226 173.514 86.1205 169.022C87.1178 164.025 89.7193 161.373 90.1918 159.928C91.5025 161.866 92.7859 163.818 94.0195 165.803C93.9448 165.778 93.8677 165.741 93.8031 165.749C92.5222 165.88 94.2184 172.278 89.7516 177.265C87.1626 180.156 84.6183 180.208 83.9915 182.775C83.3399 185.447 85.2003 189.044 87.8216 189.82C91.2911 190.844 94.9297 186.583 96.3946 183.932C98.7673 179.639 98.24 174.512 97.0114 170.796C98.9862 174.216 100.851 177.701 102.587 181.248C103.421 182.919 104.224 184.603 105.007 186.297C103.095 185.947 98.1057 187.957 94.2259 191.004C91.5498 193.106 87.272 196.466 88.1276 199.844C89.0901 203.65 96.1509 205.831 99.0807 203.705C101.192 202.172 99.7397 199.434 102.068 193.745C103.441 190.392 105.045 188.653 105.589 187.606C111.009 199.598 115.15 212.157 117.96 225.005C121.313 240.133 122.753 255.667 122.402 271.137C122.387 271.746 122.867 272.254 123.476 272.271C124.086 272.286 124.593 271.806 124.611 271.197V271.184C124.839 255.533 123.253 239.852 119.746 224.609C116.846 211.843 112.635 199.381 107.186 187.489C108.352 188.088 110.728 188.887 114.642 190.568C122.947 194.138 125.026 196.036 126.593 194.926C128.326 193.698 128.281 189.591 126.463 187.208Z" fill="#FFCC66"/>
<path d="M486.51 198.712C485.401 199.503 484.294 200.307 483.185 201.147C484.891 200.71 487.607 200.404 491.455 199.991C503.268 198.725 505.009 200.041 505.812 200.869C507.553 202.672 508.247 205.777 507.25 208.018C505.228 212.513 496.837 212.513 491.636 211.028C486.276 209.493 481.041 205.423 481.041 202.916V202.794C479.397 204.048 477.778 205.339 476.169 206.667C475.072 207.568 473.988 208.47 472.918 209.396C474.062 209.518 476.244 210.174 480.432 211.162C487.117 212.722 489.164 212.831 490.711 214.888C490.967 215.229 492.452 217.311 491.83 219.37C491.014 222.049 487.02 223.475 483.986 222.928C481.83 222.537 479.907 220.358 476.142 216.01C473.62 213.112 472.122 211.356 471.831 210.346C471.819 210.346 471.819 210.358 471.807 210.358C469.869 212.052 467.959 213.794 466.094 215.56C466.094 215.56 466.081 215.56 466.081 215.572C468.006 215.182 472.391 216.766 474.642 220.055C476.833 223.258 477.114 228.191 475.264 229.276C473.548 230.275 470.125 227.863 468.419 225.793C467.116 224.209 466.604 222.286 465.557 218.448C465.276 217.388 465.154 216.816 465.154 216.475C463.813 217.741 462.5 219.045 461.219 220.361C460.354 221.214 459.525 222.079 458.71 222.967L458.697 222.98C460.244 222.92 463.507 226.087 466.054 228.547C470.036 232.42 472.021 234.357 471.461 236.183C470.755 238.496 466.188 239.959 463.313 238.509C461.572 237.621 460.841 235.367 459.466 230.897C458.772 228.631 458.187 226.731 457.969 225.368C457.859 224.746 457.834 224.236 457.896 223.845C457.884 223.845 457.884 223.858 457.872 223.87C456.044 225.796 454.303 227.768 452.574 229.79L452.537 229.828C451.806 230.681 451.087 231.544 450.38 232.422C451.965 232.922 454.521 237.783 455.3 239.243C457.369 243.19 458.722 245.76 457.541 247.586C456.481 249.205 453.693 249.877 451.94 248.961C450.077 247.974 449.846 245.223 449.443 239.74C449.261 237.205 449.114 235.051 449.284 233.736C449.284 233.748 449.284 233.748 449.271 233.748C447.553 235.867 445.886 238.024 444.265 240.203C444.083 240.447 443.887 240.69 443.718 240.947C443.633 241.056 443.546 241.166 443.474 241.287C442.342 242.797 441.27 244.332 440.198 245.879C440.173 245.904 440.161 245.939 440.139 245.964C440.163 245.964 440.188 245.951 440.211 245.964C441.002 245.867 442.195 246.17 443.474 246.755C444.802 247.352 446.239 248.24 447.396 249.277C449.905 251.531 450.831 254.162 451.378 255.757C452.256 258.326 453.9 265.015 451.122 266.707C449.453 267.729 446.468 266.769 444.899 264.965C443.096 262.883 444.242 260.849 443.474 256.598C443.461 256.488 443.436 256.379 443.414 256.257C442.78 253.053 441.477 250.812 440.504 249.24C439.945 248.339 439.504 247.668 439.335 247.145L439.323 247.158C438.873 247.814 438.435 248.486 437.995 249.155C437.776 249.484 437.557 249.812 437.348 250.143C437.154 250.459 436.935 250.777 436.726 251.105C436.386 251.653 436.032 252.202 435.704 252.75C435.632 252.834 435.582 252.921 435.545 253.006C435.545 253.018 435.533 253.018 435.533 253.031C435.595 253.006 435.667 252.968 435.727 252.981C436.786 253.09 435.799 257.513 437.992 261.861C438.442 262.762 439.027 263.652 439.783 264.493C440.561 265.371 441.342 265.99 442.061 266.49C442.561 266.843 443.036 267.137 443.474 267.428C444.474 268.11 445.24 268.769 445.543 270.01C446.031 272.02 445.093 274.555 443.474 276.015C443.315 276.174 443.146 276.308 442.961 276.43C442.571 276.711 442.146 276.918 441.708 277.052C440.454 277.418 439.174 277.102 437.992 276.405C435.886 275.199 434.07 272.848 433.133 271.167C430.757 266.866 431.295 261.739 432.511 258.013C431.464 259.864 430.417 261.704 429.417 263.592C428.564 265.212 427.748 266.833 426.932 268.478C426.104 270.147 425.301 271.841 424.52 273.532C426.432 273.179 431.414 275.189 435.299 278.233C436.115 278.88 437.077 279.634 437.99 280.475C440.096 282.388 441.996 284.726 441.4 287.076C440.437 290.877 433.374 293.056 430.439 290.937C429.355 290.146 429.208 289.024 429.001 287.342C428.82 285.783 428.576 283.713 427.455 280.972C426.079 277.622 424.482 275.88 423.935 274.833C423.57 275.589 423.241 276.343 422.926 277.087C421.451 280.46 420.075 283.882 418.797 287.342C418.14 289.158 417.506 290.984 416.897 292.825H415.143C415.765 290.987 416.409 289.158 417.093 287.342C418.688 283.079 420.431 278.865 422.319 274.736C421.137 275.333 418.762 276.124 414.89 277.793C414.474 277.965 414.086 278.146 413.708 278.306C406.377 281.547 404.429 283.213 402.929 282.154C401.201 280.922 401.236 276.818 403.064 274.43C404.964 271.945 408.336 271.945 413.39 271.945C413.89 271.945 414.462 271.958 415.071 271.97C418.043 272.08 421.916 272.47 422.95 273.37V273.358C423.828 271.495 424.716 269.654 425.641 267.828C425.982 267.159 426.31 266.513 426.651 265.856C425.751 266.259 424.251 266.612 422.107 267.134C419.488 267.744 417.491 268.219 415.847 268.401C413.997 268.607 412.597 268.438 411.269 267.694C408.712 266.232 406.543 262.774 407.543 260.411C408.809 257.391 414.606 257.719 415.75 257.792C416.529 257.841 417.31 257.951 418.076 258.108C422.801 259.07 426.917 261.956 427.624 264.003C427.783 263.687 427.939 263.381 428.111 263.077C430.23 259.13 432.508 255.269 434.943 251.493C434.006 251.566 432.177 251.312 428.755 251.372C424.517 251.456 421.486 251.956 419.317 252.334C416.673 252.797 415.31 253.053 414.566 252.128C412.995 250.13 415.345 244.029 419.548 242.163C420.217 241.86 420.923 241.675 421.642 241.603C427.743 240.922 434.844 247.561 435.697 250.324C436.062 249.765 436.44 249.205 436.806 248.655C437.196 248.071 437.597 247.474 437.987 246.889C438.656 245.914 439.328 244.941 440.022 243.979C440.315 243.566 440.606 243.15 440.912 242.748C440.912 242.748 440.912 242.735 440.925 242.735C440.656 242.748 440.315 242.71 439.902 242.626C439.39 242.529 438.758 242.369 437.99 242.163C437.565 242.041 437.089 241.894 436.577 241.748C431.195 240.176 425.201 238.447 422.888 235.877C422.291 235.23 421.938 234.536 421.888 233.783C421.791 232.308 422.801 230.688 424.251 229.581C425.03 228.972 425.932 228.509 426.858 228.303C430.683 227.437 434.993 230.813 437.99 234.514C438.477 235.111 438.915 235.708 439.33 236.305C440.743 238.387 441.656 240.375 441.743 241.578C441.743 241.578 441.743 241.578 441.755 241.578C442.084 241.128 442.412 240.69 442.73 240.25C442.877 240.056 443.024 239.872 443.18 239.678C443.277 239.556 443.374 239.422 443.471 239.3C445.506 236.584 447.637 233.93 449.816 231.333C448.197 232.027 445.869 232.551 443.471 232.295C442.583 232.211 441.668 232.002 440.78 231.661C440.512 231.552 439.721 231.236 438.82 230.698C438.552 230.539 438.273 230.37 437.992 230.164C436.629 229.188 435.276 227.728 435.301 225.803C435.326 223.952 436.592 222.199 437.967 221.249C437.98 221.236 437.992 221.236 437.992 221.236C438.845 220.639 439.746 220.37 440.405 220.579C441.902 221.055 441.161 223.661 443.146 226.062C443.243 226.184 443.352 226.305 443.474 226.415C446.093 229.144 450.331 228.741 451.671 229.181H451.684C451.709 229.144 451.733 229.109 451.768 229.072C453.596 226.965 455.494 224.883 457.431 222.86C455.872 223.263 452.853 222.957 450.477 222.313C449.381 222.02 445.692 221.01 443.474 219.072C442.499 218.219 441.805 217.184 441.758 215.965C441.708 214.602 442.439 213.177 443.474 212.13C444.436 211.167 445.655 210.535 446.737 210.607C448.331 210.729 448.771 212.301 451.462 215.346C454.422 218.659 456.869 220.144 457.916 221.132C458.197 221.388 458.366 221.607 458.441 221.813C459.232 220.985 460.025 220.181 460.841 219.378C462.157 218.062 463.485 216.784 464.835 215.505C464.457 215.468 463.873 215.323 462.813 214.98C460.876 214.358 459.232 213.836 457.844 213.324C454.703 212.167 452.828 211.082 451.609 209.132C450.378 207.147 449.368 203.724 450.865 202.152C452.669 200.264 457.138 202.202 457.588 202.409C457.638 202.433 457.685 202.458 457.735 202.481C463.313 205.063 466.273 212.092 465.785 214.612C467.723 212.809 469.695 211.043 471.717 209.339C471.73 209.326 471.73 209.326 471.73 209.326C468.941 210.082 461.998 201.896 463.545 194.76C464.238 191.509 466.795 187.964 468.951 188.218C471.521 188.521 472.63 194.101 473.068 196.245C473.846 200.192 474.09 206.294 472.69 208.51C472.714 208.498 472.727 208.485 472.739 208.461C473.58 207.742 474.455 207.035 475.308 206.329C477.171 204.806 479.084 203.321 481.009 201.871C481.021 201.859 481.021 201.859 481.034 201.846C480.949 201.859 480.862 201.896 480.778 201.884C479.352 201.846 479.158 199.558 476.089 194.466C471.62 187.049 468.539 186.136 468.964 183.432C469.611 179.352 477.587 175.101 482.324 177.877C486.003 180.022 486.038 185.38 486.063 188.524C486.087 193.2 484.59 198.207 482.8 200.545C482.812 200.533 482.837 200.521 482.849 200.508C483.934 199.692 485.018 198.914 486.112 198.133C486.247 198.048 486.356 197.961 486.49 197.876C486.515 197.864 486.553 197.839 486.575 197.827C486.234 196.717 489.51 195.67 494.929 189.544C496.767 187.474 500.58 182.87 506.011 177.716C507.193 176.594 508.668 175.243 510.115 175.609C511.953 176.059 512.856 179.056 512.978 181.079C513.306 186.658 507.971 191.006 506.255 192.407C500.726 196.926 493.613 198.789 489.619 198.789C488.425 198.789 487.513 198.618 487 198.302C486.963 198.352 486.928 198.411 486.878 198.436C486.764 198.518 486.642 198.603 486.51 198.712Z" fill="#FFCC66"/>
<path d="M467.427 111.062C469.581 112.448 479.494 111.077 486.707 105.189C488.425 103.786 493.755 99.4357 493.429 93.8589C493.31 91.8366 492.4 88.8392 490.567 88.3815C489.122 88.0208 487.647 89.3715 486.458 90.4983C481.024 95.6498 477.224 100.247 475.378 102.326C469.916 108.488 466.626 109.515 467.029 110.632C466.999 110.642 466.967 110.632 466.939 110.652C465.693 111.525 464.467 112.425 463.241 113.328C465.034 111 466.542 105.985 466.509 101.299C466.487 98.1572 466.449 92.7917 462.776 90.6476C458.036 87.8815 450.057 92.1226 449.415 96.2045C448.99 98.9109 452.064 99.8262 456.533 107.241C459.603 112.333 459.797 114.627 461.219 114.664C461.309 114.666 461.401 114.639 461.493 114.624C458.657 116.761 455.874 118.967 453.159 121.258C454.539 119.009 454.293 112.945 453.509 109.025C453.081 106.883 451.965 101.304 449.401 100.995C447.242 100.734 444.683 104.289 443.986 107.532C442.447 114.684 449.401 122.872 452.186 122.101C450.159 123.833 448.174 125.614 446.222 127.427C446.757 124.922 443.737 117.731 438.032 115.184C437.582 114.982 433.115 113.045 431.31 114.935C429.812 116.505 430.827 119.93 432.056 121.907C433.809 124.731 436.96 125.74 443.26 127.758C444.334 128.104 444.929 128.253 445.304 128.275C443.116 130.335 440.979 132.449 438.888 134.611C438.597 133.588 435.649 132.322 431.916 128.116C429.213 125.071 428.78 123.502 427.186 123.385C424.915 123.218 422.107 126.129 422.207 128.738C422.361 132.755 429.35 134.66 430.922 135.088C433.324 135.743 436.368 136.048 437.918 135.628C435.975 137.668 434.063 139.735 432.212 141.859C432.182 141.894 432.155 141.929 432.125 141.964C430.73 141.503 426.184 141.966 423.592 138.839C421.602 136.439 422.356 133.832 420.854 133.362C419.113 132.817 415.785 135.596 415.75 138.591C415.708 142.202 420.471 144.15 421.227 144.441C424.53 145.717 428.101 145.053 430.335 144.088C427.512 147.434 424.796 150.871 422.199 154.401C421.99 150.732 413.902 139.596 407.317 141.081C404.693 141.673 402.178 144.297 402.338 146.558C402.604 150.336 410.294 152.57 417.026 154.525C419.205 155.16 420.595 155.55 421.369 155.513C419.568 158.003 417.842 160.545 416.166 163.119C415.243 160.04 406.449 152.07 400.005 154.941C395.801 156.811 393.449 162.91 395.026 164.9C396.369 166.597 399.806 164.333 409.217 164.154C412.649 164.089 414.482 164.346 415.41 164.279C412.801 168.35 410.356 172.527 408.085 176.798C407.287 174.42 401.85 170.9 396.209 170.569C395.063 170.502 389.268 170.161 387.995 173.184C386.997 175.547 389.173 179.007 391.73 180.467C394.217 181.89 397 181.228 402.561 179.907C404.735 179.39 406.24 179.032 407.145 178.611C406.802 179.278 406.439 179.937 406.103 180.609C405.17 182.439 404.275 184.288 403.404 186.148C402.146 185.064 396.786 184.723 393.847 184.723C388.793 184.723 385.415 184.723 383.515 187.213C381.697 189.593 381.655 193.703 383.391 194.931C384.958 196.041 387.037 194.143 395.341 190.573C399.256 188.892 401.631 188.091 402.798 187.494C397.348 199.386 393.138 211.848 390.238 224.614C386.729 239.857 385.144 255.538 385.373 271.189V271.201C385.388 271.811 385.898 272.293 386.507 272.276C387.117 272.261 387.599 271.751 387.582 271.142C387.229 255.672 388.671 240.138 392.021 225.01C394.829 212.162 398.972 199.603 404.392 187.611C404.937 188.658 406.541 190.397 407.914 193.75C410.244 199.439 408.789 202.177 410.901 203.71C413.83 205.836 420.891 203.655 421.856 199.849C422.712 196.471 418.431 193.111 415.758 191.009C411.878 187.962 406.891 185.952 404.976 186.302C405.757 184.608 406.563 182.924 407.396 181.253C409.132 177.706 410.998 174.221 412.972 170.801C411.746 174.517 411.216 179.646 413.589 183.937C415.054 186.588 418.695 190.849 422.162 189.825C424.783 189.051 426.644 185.452 425.992 182.78C425.365 180.213 422.821 180.161 420.232 177.27C415.763 172.286 417.461 165.885 416.181 165.754C416.116 165.746 416.036 165.786 415.964 165.811C417.198 163.826 418.484 161.871 419.792 159.933C420.264 161.378 422.866 164.032 423.863 169.027C424.761 173.517 423.5 175.596 425.358 177.743C426.92 179.546 429.914 180.507 431.583 179.487C434.354 177.79 432.707 171.107 431.832 168.53C431.29 166.94 430.359 164.306 427.848 162.055C425.547 159.993 422.217 158.523 420.615 158.739C423.495 154.548 426.534 150.466 429.738 146.516C429.564 147.829 429.715 149.976 429.899 152.518C430.295 157.995 430.531 160.751 432.389 161.731C434.142 162.654 436.938 161.985 437.99 160.361C439.179 158.528 437.831 155.965 435.749 152.02C434.975 150.553 432.404 145.682 430.83 145.197C431.558 144.314 432.279 143.424 433.023 142.553C434.749 140.538 436.532 138.573 438.343 136.633C438.151 137.889 438.915 140.401 439.922 143.677C441.298 148.147 442.021 150.401 443.765 151.287C446.635 152.742 451.204 151.279 451.915 148.956C452.475 147.13 450.485 145.195 446.503 141.327C443.974 138.869 440.721 135.715 439.161 135.762C441.26 133.541 443.404 131.362 445.608 129.245C445.61 129.594 445.717 130.161 446.006 131.22C447.05 135.068 447.573 136.991 448.868 138.566C450.572 140.635 453.997 143.058 455.715 142.051C457.558 140.971 457.28 136.034 455.093 132.837C452.853 129.561 448.518 127.977 446.568 128.34C448.436 126.569 450.338 124.833 452.278 123.139C452.587 124.151 454.089 125.91 456.588 128.795C460.351 133.138 462.276 135.317 464.43 135.705C467.467 136.252 471.456 134.83 472.272 132.156C472.903 130.089 471.406 128.014 471.153 127.673C469.611 125.611 467.561 125.504 460.883 123.937C456.69 122.955 454.509 122.298 453.367 122.173C456.014 119.895 458.73 117.699 461.495 115.564C461.316 118.062 466.641 122.241 472.083 123.803C477.281 125.295 485.677 125.29 487.694 120.795C488.699 118.554 488.003 115.45 486.262 113.644C485.461 112.813 483.712 111.507 471.906 112.771C468.064 113.184 465.34 113.485 463.644 113.93C464.87 113.012 466.096 112.097 467.345 111.209C467.387 111.174 467.405 111.114 467.427 111.062Z" fill="#FFCC66"/>
<path d="M439.609 39.3141C436.336 43.1896 442.892 54.4303 449.346 60.9549C455.34 67.0143 465.967 73.7752 469.902 70.6933C473.861 67.5914 470.852 54.6766 463.41 46.8884C455.86 38.9883 442.872 35.4486 439.609 39.3141Z" fill="#FFCC66"/>
<path d="M82.0861 36.6749C77.2388 33.0532 59.1229 44.7964 60.4485 50.7414C61.2941 54.5323 70.6132 58.5097 77.7586 53.9876C85.0433 49.3783 85.2074 39.0082 82.0861 36.6749Z" fill="#FFCC66"/>
<path d="M22.0082 148.6C17.5737 148.727 11.2541 159.169 15.5169 164.831C18.7178 169.079 26.8182 169.223 29.5814 165.913C33.5706 161.127 26.9674 148.458 22.0082 148.6Z" fill="#FFCC66"/>
<path d="M485.045 242.735C482.178 239.302 491.504 221.104 502.355 222.176C506.088 222.544 510.801 225.276 511.01 228.669C511.488 236.434 488.306 246.64 485.045 242.735Z" fill="#FFCC66"/>
<path d="M94.4915 40.9608C92.6908 39.3439 93.9319 31.7149 98.819 30.6827C101.948 30.021 105.668 32.2547 105.85 34.4686C106.156 38.1624 96.71 42.9507 94.4915 40.9608Z" fill="#FFCC66"/>
<path d="M299.171 367.446C284.1 367.219 223.818 367.219 208.744 367.446C209.462 357.785 210.179 348.126 210.9 338.465C211.514 330.221 212.129 321.975 212.74 313.732H295.175C295.787 321.975 296.401 330.221 297.015 338.465C297.736 348.126 298.453 357.785 299.171 367.446Z" fill="#9BA5AE"/>
<path d="M297.015 338.464H210.899C211.514 330.221 212.128 321.975 212.74 313.732H295.174C295.786 321.975 296.4 330.221 297.015 338.464Z" fill="#4E5358"/>
<path d="M196.258 361.7H311.659C315.524 361.7 318.658 364.834 318.658 368.699V370.003C318.658 373.868 315.524 377.003 311.659 377.003H196.258C192.393 377.003 189.26 373.868 189.26 370.003V368.699C189.26 364.834 192.393 361.7 196.258 361.7Z" fill="#9BA5AE"/>
<path d="M430.869 325.99H77.0475C70.3175 325.99 64.8608 320.532 64.8608 313.801V271.01H443.056V313.801C443.056 320.535 437.599 325.99 430.869 325.99Z" fill="#9BA5AE"/>
<path d="M74.2023 55.3234H433.715C438.873 55.3234 443.056 59.5072 443.056 64.6662V273.455C443.056 278.614 438.873 282.798 433.715 282.798H74.2023C69.0441 282.798 64.8608 278.614 64.8608 273.455V64.6662C64.8608 59.5048 69.0416 55.3234 74.2023 55.3234Z" fill="#9BA5AE"/>
<path d="M430.817 71.3748H77.1021V282.798H430.817V71.3748Z" fill="white"/>
<path d="M281.809 129.409C281.809 138.295 277.677 146.22 271.231 151.359C266.438 155.177 260.37 157.463 253.762 157.463C247.357 157.463 241.451 155.314 236.73 151.699C230.03 146.575 225.71 138.499 225.71 129.409C225.71 113.915 238.27 101.359 253.762 101.359C269.249 101.359 281.809 113.915 281.809 129.409Z" fill="#9BA5AE"/>
<path d="M271.962 144.697C271.154 143.421 270.137 142.675 269.117 142.145C267.535 141.332 265.874 140.747 264.232 140.324C263.329 140.096 262.432 139.919 261.551 139.78C261.193 139.606 260.633 139.387 259.91 139.327C259.313 139.277 258.813 139.354 258.467 139.436C258.679 138.053 258.887 136.673 259.099 135.29C259.258 135.195 259.427 135.111 259.576 135.009C262.422 133.101 263.727 129.964 264.416 126.653C264.951 126.362 265.481 125.828 265.712 125.591C267.858 123.402 268.067 119.803 266.973 119.355C266.518 119.169 265.844 119.534 265.242 120.017C265.595 115.845 265.811 112.559 263.869 109.958C261.981 107.425 258.97 106.993 253.592 106.09C248.959 105.311 243.341 108.562 243.699 114.328C243.943 118.238 243.818 118.818 243.895 119.82C243.366 119.442 242.813 119.196 242.423 119.358C241.329 119.805 241.538 123.405 243.684 125.594C243.92 125.835 244.465 126.385 245.01 126.671C245.882 130.753 247.228 134.153 250.14 135.767C250.352 135.884 250.573 135.964 250.792 136.056C250.894 137.22 250.996 138.384 251.098 139.546C251.095 139.546 251.093 139.546 251.09 139.546C250.673 139.459 250.063 139.387 249.342 139.486C248.884 139.548 248.496 139.665 248.193 139.78C247.066 139.887 246.052 140.011 245.154 140.175C242.903 140.598 241.281 141.29 239.869 142.645C237.785 144.653 235.564 148.533 236.678 151.555C236.693 151.6 236.713 151.647 236.733 151.692C241.237 155.14 246.818 157.254 252.881 157.441C253.175 157.45 253.471 157.455 253.767 157.455C254.829 157.455 255.826 157.396 256.734 157.299C258.95 157.07 260.668 156.627 261.678 156.324C267.055 154.732 270.786 151.799 272.86 149.856C273.004 149.003 273.265 146.762 271.962 144.697Z" fill="#4E5358"/>
<path d="M253.762 157.963C247.434 157.963 241.441 155.933 236.427 152.095C229.299 146.645 225.212 138.374 225.212 129.409C225.212 113.669 238.018 100.861 253.762 100.861C269.5 100.861 282.306 113.669 282.306 129.409C282.306 138.15 278.384 146.294 271.542 151.749C266.438 155.814 260.29 157.963 253.762 157.963ZM253.762 101.856C238.568 101.856 226.207 114.216 226.207 129.409C226.207 138.063 230.152 146.043 237.031 151.304C241.871 155.008 247.656 156.965 253.762 156.965C260.061 156.965 265.996 154.891 270.92 150.968C277.523 145.702 281.308 137.844 281.308 129.407C281.311 114.216 268.953 101.856 253.762 101.856Z" fill="#D1E6F2"/>
<path d="M268.978 247.041H238.541C233.44 247.041 229.306 242.907 229.306 237.805C229.306 232.703 233.44 228.569 238.541 228.569H268.978C274.079 228.569 278.212 232.703 278.212 237.805C278.212 242.904 274.079 247.041 268.978 247.041Z" fill="#4E5358"/>
<path d="M295.997 186.613H211.524C207.022 186.613 203.374 182.964 203.374 178.462C203.374 173.96 207.022 170.311 211.524 170.311H295.997C300.499 170.311 304.148 173.96 304.148 178.462C304.148 182.964 300.499 186.613 295.997 186.613Z" fill="#9BA5AE"/>
<path d="M291.18 180.686H216.341C215.113 180.686 214.118 179.691 214.118 178.462C214.118 177.233 215.113 176.238 216.341 176.238H291.182C292.411 176.238 293.406 177.233 293.406 178.462C293.403 179.691 292.408 180.686 291.18 180.686Z" fill="#4E5358"/>
<path d="M295.997 215.517H211.524C207.022 215.517 203.374 211.868 203.374 207.366C203.374 202.864 207.022 199.215 211.524 199.215H295.997C300.499 199.215 304.148 202.864 304.148 207.366C304.148 211.868 300.499 215.517 295.997 215.517Z" fill="#9BA5AE"/>
<path d="M214.488 207.364C214.488 206.135 215.483 205.14 216.712 205.14C217.94 205.14 218.935 206.135 218.935 207.364C218.935 208.592 217.94 209.587 216.712 209.587C215.483 209.587 214.488 208.592 214.488 207.364Z" fill="#4E5358"/>
<path d="M221.156 207.364C221.156 206.135 222.151 205.14 223.38 205.14C224.608 205.14 225.603 206.135 225.603 207.364C225.603 208.592 224.608 209.587 223.38 209.587C222.151 209.587 221.156 208.592 221.156 207.364Z" fill="#4E5358"/>
<path d="M227.827 207.364C227.827 206.135 228.821 205.14 230.05 205.14C231.279 205.14 232.274 206.135 232.274 207.364C232.274 208.592 231.279 209.587 230.05 209.587C228.821 209.587 227.827 208.592 227.827 207.364Z" fill="#4E5358"/>
<path d="M234.495 207.364C234.495 206.135 235.489 205.14 236.718 205.14C237.947 205.14 238.942 206.135 238.942 207.364C238.942 208.592 237.947 209.587 236.718 209.587C235.489 209.587 234.495 208.592 234.495 207.364Z" fill="#4E5358"/>
<path d="M241.162 207.364C241.162 206.135 242.157 205.14 243.386 205.14C244.614 205.14 245.609 206.135 245.609 207.364C245.609 208.592 244.614 209.587 243.386 209.587C242.159 209.587 241.162 208.592 241.162 207.364Z" fill="#4E5358"/>
<path d="M247.833 207.364C247.833 206.135 248.827 205.14 250.056 205.14C251.285 205.14 252.279 206.135 252.279 207.364C252.279 208.592 251.285 209.587 250.056 209.587C248.827 209.587 247.833 208.592 247.833 207.364Z" fill="#4E5358"/>
<path d="M254.5 207.364C254.5 206.135 255.495 205.14 256.724 205.14C257.953 205.14 258.947 206.135 258.947 207.364C258.947 208.592 257.953 209.587 256.724 209.587C255.495 209.587 254.5 208.592 254.5 207.364Z" fill="#4E5358"/>
<path d="M261.171 207.364C261.171 206.135 262.166 205.14 263.394 205.14C264.623 205.14 265.618 206.135 265.618 207.364C265.618 208.592 264.623 209.587 263.394 209.587C262.166 209.587 261.171 208.592 261.171 207.364Z" fill="#4E5358"/>
<path d="M267.838 207.364C267.838 206.135 268.833 205.14 270.062 205.14C271.29 205.14 272.285 206.135 272.285 207.364C272.285 208.592 271.29 209.587 270.062 209.587C268.833 209.587 267.838 208.592 267.838 207.364Z" fill="#4E5358"/>
<path d="M445.588 223.283C439.863 217.517 435.776 213.035 434.453 211.306C433.732 210.366 433.063 209.455 433.063 209.455C432.193 208.269 431.553 207.334 429.203 204.095C424.314 197.354 421.287 192.934 419.688 189.986C419.407 189.454 419.155 188.966 418.966 188.529C418.872 188.325 418.795 188.136 418.715 187.949C418.073 186.35 418.088 185.394 418.606 184.75C419.076 184.171 419.939 183.887 421.05 183.857C421.506 183.842 422.023 183.857 422.555 183.937C424.06 184.108 425.831 184.596 427.666 185.3C428.027 185.442 428.402 185.598 428.763 185.755C428.763 185.755 431.67 187.026 434.234 188.718C438.199 191.337 443.506 199.662 447.409 205.54C448.605 207.341 452.965 213.699 452.965 213.699C454.691 215.828 457.553 220.057 457.327 225.42C457.242 227.397 456.782 229.198 455.193 232.89C451.997 240.315 448.495 245.61 447.724 246.76C444.325 251.844 440.062 257.99 434.923 264.898C434.448 264.744 433.404 264.478 432.111 264.739C430.825 264.998 429.969 265.642 429.591 265.965C433.556 255.821 437.388 245.476 441.325 235.021C443.133 230.211 444.578 226.166 445.588 223.283Z" fill="#8DC0DF"/>
<path d="M416.539 188.593C415.375 195.658 408.548 207.137 408.548 207.137C403.166 216.137 401.584 219.736 396.513 225.415C392.111 230.345 390.39 230.892 389.044 230.751C384.809 230.303 382.409 222.811 380.508 216.881C379.083 212.428 377.522 205.928 377.308 197.675C379.086 197.319 380.864 196.964 382.642 196.608C385.132 203.722 387.622 210.834 390.111 217.948C394.951 205.346 397.269 199.61 398.465 196.799C398.495 196.73 398.537 196.63 398.592 196.501C400.94 191.123 401.868 189.18 404.021 187.26C405.205 186.223 406.678 185.285 408.18 184.556C408.212 184.541 408.244 184.521 408.279 184.506C408.481 184.399 408.695 184.302 408.908 184.208C409.272 184.049 409.622 183.899 409.985 183.78C410.242 183.695 410.498 183.608 410.744 183.534C411.373 183.352 412.035 183.278 412.686 183.268C412.696 183.268 412.696 183.268 412.709 183.268C413.497 183.332 414.288 183.375 415.076 183.427C415.3 183.534 415.504 183.661 415.696 183.822C416.72 184.72 416.889 186.459 416.539 188.593Z" fill="#8DC0DF"/>
<path d="M434.772 206.573C434.655 208.152 434.568 209.719 434.451 211.299C433.352 227.858 432.242 244.439 431.143 261C418.81 259.806 406.489 258.6 394.165 257.416C395.456 246.277 396.737 235.148 398.037 224.029C398.09 217.639 398.144 211.256 398.197 204.876C398.336 202.08 398.463 199.297 398.592 196.501C400.94 191.123 401.868 189.18 404.021 187.26C404.608 186.738 405.26 186.258 405.974 185.797C406.314 185.574 406.658 185.36 407.018 185.168C407.22 185.051 407.434 184.934 407.648 184.827C407.861 184.71 408.063 184.603 408.277 184.506C408.478 184.399 408.692 184.302 408.906 184.208C409.334 184.016 409.759 183.855 410.187 183.705C410.294 183.663 410.411 183.631 410.518 183.598C411.221 183.375 411.968 183.278 412.704 183.268C413.492 183.332 414.283 183.385 415.071 183.427C417.066 183.566 419.051 183.705 421.045 183.832V183.855L421.953 185.36L423.309 187.578L424.077 188.837L434.772 206.573Z" fill="#8DC0DF"/>
<path d="M424.766 170.435C424.405 174.432 424.06 178.415 423.699 182.412C423.652 182.914 423.605 183.432 423.557 183.932C423.557 184.011 423.542 184.089 423.542 184.168C423.495 184.31 423.323 184.78 422.963 185.36C422.478 186.19 421.6 187.24 420.157 187.805C420.125 187.82 419.968 187.884 419.717 187.947C419.028 188.151 417.633 188.402 416.223 187.914C415.549 187.678 415.046 187.32 414.89 187.208C414.372 186.847 413.917 186.534 413.666 185.939C413.447 185.454 413.447 184.999 413.447 184.387C413.447 183.932 413.509 183.556 413.542 183.32C413.542 183.32 413.542 183.305 413.557 183.258C413.589 183.069 413.681 182.521 413.808 181.738C414.201 179.26 414.92 174.48 414.937 172.301L424.766 170.435Z" fill="#F2CE99"/>
<path d="M416.581 145.334C412.806 146.822 410.861 149.647 409.958 150.996C406.576 156.053 407.006 161.503 407.275 164.905C407.673 169.925 408.061 174.843 411.304 176.987C416.726 180.571 428.915 175.606 432.713 166.435C435.655 159.333 433.804 149.182 427.127 145.643C422.354 143.113 416.845 145.23 416.581 145.334Z" fill="#FFDEA9"/>
<path d="M383.235 361.618C381.621 363.839 378.885 366.836 374.784 367.968C369.703 369.369 365.868 366.981 364.358 368.971C363.022 370.732 364.179 375.1 366.942 376.522C368.273 377.206 373.073 376.97 374.493 376.92C379.925 376.724 384.976 376.139 389.594 375.331C390.214 373.07 390.768 369.98 390.569 366.334C390.482 364.734 390.263 363.287 389.992 362.018L383.235 361.618Z" fill="#001725"/>
<path d="M423.968 362.538C422.68 363.553 422.197 364.732 421.384 366.712C420.178 369.655 418.912 372.741 420.392 374.861C421.421 376.336 423.297 376.642 424.565 376.848C425.092 376.933 429.472 377.647 431.519 375.06C432.454 373.876 432.355 372.003 432.116 368.304C431.862 364.376 431.71 362.394 430.527 361.548C428.718 360.252 425.707 361.17 423.968 362.538Z" fill="#001725"/>
<path d="M394.23 250.722C389.156 288.514 384.085 326.303 379.011 364.095C382.918 364.132 386.826 364.167 390.735 364.205C397.741 331.858 404.748 299.509 411.754 267.159C414.701 299.785 417.648 332.407 420.595 365.033C424.833 364.864 429.071 364.695 433.307 364.525C432.934 326.582 432.563 288.638 432.19 250.695C426.925 251.446 420.896 251.991 414.233 252.046C406.732 252.108 400.002 251.538 394.23 250.722Z" fill="#4E5358"/>
<path d="M429.201 162.886C428.055 159.468 426.381 157.935 425.033 157.169C422.016 155.458 420.215 157.363 414.256 155.916C411.739 155.304 410.429 154.565 409.118 155.316C407.688 156.137 407.27 158.13 407.148 159.736C405.994 158.918 404.193 157.396 402.908 154.936C401.649 152.525 400.132 147.762 402.211 145.232C403.477 143.692 405.121 144.148 411.252 143.742C421.481 143.063 422.655 141.511 427.246 142.849C429.251 143.434 433.061 144.543 435.128 147.899C436.613 150.309 436.18 153.926 434.996 161.231C433.2 172.313 431.41 174.129 430.261 175.009C428.107 176.659 425.612 177.009 423.948 177.059C423.956 176.815 423.978 176.445 424.035 176.002C424.476 172.584 426.378 170.905 427.644 168.087C428.161 166.933 428.813 165.196 429.201 162.886Z" fill="#001725"/>
<path d="M425.557 166.793C426.923 164.9 429.589 163.552 430.524 164.308C431.511 165.107 430.75 168.393 428.736 170.072C427.522 171.082 425.465 171.835 424.662 171.064C423.824 170.263 424.637 168.069 425.557 166.793Z" fill="#FFDEA9"/>
<path d="M427.666 185.297C426.771 186.011 425.532 186.728 424.082 187.302C423.826 187.399 423.58 187.494 423.314 187.581C422.195 187.976 420.956 188.275 419.688 188.444C419.454 188.476 419.218 188.509 418.974 188.529C418.238 188.613 417.469 188.636 416.713 188.603C416.661 188.603 416.596 188.593 416.541 188.593C412.808 188.402 409.17 186.822 407.026 185.168C407.227 185.051 407.441 184.934 407.655 184.827C407.869 184.71 408.07 184.603 408.284 184.506C408.486 184.399 408.7 184.302 408.914 184.208C409.277 184.049 409.627 183.899 409.99 183.78C410.055 183.748 410.13 183.728 410.192 183.705C410.257 183.673 410.331 183.653 410.393 183.631C410.436 183.621 410.478 183.598 410.52 183.598C410.595 183.576 410.669 183.556 410.744 183.534C411.373 183.352 412.035 183.278 412.686 183.268C412.696 183.268 412.696 183.268 412.709 183.268C412.9 183.258 413.104 183.258 413.306 183.258C416.121 183.332 422.555 183.536 422.555 183.929C424.06 184.101 425.831 184.593 427.666 185.297Z" fill="#F2CE99"/>
<path d="M425.03 157.172C425.741 158.028 426.691 159.433 426.947 161.296C427.345 164.184 425.915 166.992 426.485 167.258C426.641 167.331 426.865 167.176 427.082 166.992C428.452 165.816 431.061 161.943 429.084 159.162C427.82 157.386 425.5 157.199 425.03 157.172Z" fill="#001725"/>
<path d="M463.052 233.193C454.703 225.201 442.134 224.378 432.897 230.517C432.767 230.36 432.65 230.198 432.501 230.054L387.254 186.748L375.577 175.571L369.252 169.517C368.183 168.492 366.79 168 365.41 168.02C364.029 168.059 362.661 168.614 361.637 169.684C359.58 171.835 359.655 175.243 361.803 177.303L352.027 187.521C350.741 188.864 350.788 190.996 352.131 192.282C353.474 193.568 355.606 193.521 356.891 192.178L357.834 191.193C357.946 191.892 358.267 192.561 358.816 193.088C360.159 194.374 362.291 194.327 363.577 192.984L359.851 196.876C358.565 198.22 358.612 200.351 359.956 201.637C361.299 202.923 363.43 202.876 364.716 201.533L365.646 200.56C364.36 201.904 364.407 204.035 365.75 205.321C367.093 206.607 369.225 206.56 370.511 205.217L371.953 203.707C373.279 204.545 375.055 204.364 376.181 203.185L382.235 196.859L425.05 237.837C425.199 237.982 425.368 238.088 425.53 238.21C419.802 247.712 421.18 260.234 429.529 268.224C439.201 277.482 454.549 277.144 463.806 267.47C473.063 257.799 472.727 242.451 463.052 233.193ZM458.235 262.14C451.928 268.734 441.457 268.963 434.864 262.655C428.271 256.346 428.042 245.874 434.349 239.28C440.656 232.686 451.127 232.457 457.72 238.765C464.311 245.076 464.542 255.548 458.235 262.14Z" fill="#FF9001"/>
<path d="M432.787 258.493C429.357 258.461 427.669 263.219 427.452 263.829C427.189 264.57 426.03 267.838 427.452 269.164C429.136 270.731 433.874 269.047 435.988 265.963C436.448 265.294 437.602 263.61 437.055 261.694C436.518 259.816 434.568 258.51 432.787 258.493Z" fill="#FFDEA9"/>
<path d="M385.876 194.414C384.57 192.158 379.551 191.77 377.31 194.474C375.577 196.566 375.626 200.356 377.738 201.784C379.85 203.212 382.993 201.583 384.523 199.824C385.649 198.526 386.836 196.076 385.876 194.414Z" fill="#FFDEA9"/>
<path d="M87.777 249.593C66.9875 249.593 50.1475 265.846 50.1475 285.905V312.548H62.1277V285.905H62.1078C62.1078 272.224 73.5981 261.145 87.777 261.145C101.941 261.145 113.431 272.224 113.431 285.905H113.411V312.548H125.392V285.905C125.392 265.846 108.554 249.593 87.777 249.593Z" fill="#4E5358"/>
<path d="M43.6285 296.902H131.91C136.951 296.902 141.035 300.989 141.035 306.028V367.871C141.035 372.913 136.949 376.998 131.91 376.998H43.6285C38.5872 376.998 34.5034 372.911 34.5034 367.871V306.028C34.5034 300.989 38.5897 296.902 43.6285 296.902Z" fill="#FF9001"/>
<path d="M98.9461 331.363C98.9461 325.293 94.0266 320.373 87.9581 320.373C81.8897 320.373 76.9702 325.293 76.9702 331.363C76.9702 335.39 79.1414 338.9 82.3722 340.815V350.551C82.3722 353.638 84.8742 356.14 87.9606 356.14C91.0471 356.14 93.5491 353.638 93.5491 350.551V340.815C96.7723 338.9 98.9461 335.39 98.9461 331.363Z" fill="#494E53"/>
</g>
<defs>
<clipPath id="clip0">
<rect width="513" height="377" fill="white"/>
</clipPath>
</defs>
</svg>
