<svg width="477" height="274" viewBox="0 0 477 274" fill="none" xmlns="http://www.w3.org/2000/svg">
<g clip-path="url(#clip0)">
<path opacity="0.9" d="M354.759 66.3412C379.218 123.324 380.282 199.895 301.963 233.434C223.644 266.974 78.0752 268.47 53.6167 211.487C29.1581 154.504 89.7408 49.6267 168.203 16.0487C246.522 -17.491 330.444 9.32031 354.759 66.3412Z" fill="#D9D9D9"/>
<path d="M476.846 167.565C477.778 210.387 464.894 274.621 309.671 274C205.051 273.535 142.496 245.452 142.496 167.565C142.496 89.6784 197.445 0 280.024 0C362.602 0 475.294 89.6784 476.846 167.565Z" fill="#FFA025"/>
<path d="M214.052 237.072C204.428 237.072 196.512 244.83 196.512 254.605C196.512 264.224 204.273 272.137 214.052 272.137H287.007V237.227H214.052V237.072Z" fill="url(#paint0_linear)"/>
<path d="M283.434 272.137C281.261 266.706 280.02 260.811 280.02 254.605C280.02 248.398 281.261 242.503 283.434 237.072H419.875C417.702 242.503 416.46 248.398 416.46 254.605C416.46 260.811 417.702 266.706 419.875 272.137H283.434Z" fill="url(#paint1_linear)"/>
<path d="M425.308 235.211H265.273V238.935H425.308V235.211Z" fill="#F56C00"/>
<path d="M425.308 270.275H265.273V273.999H425.308V270.275Z" fill="#F56C00"/>
<path d="M295.543 273.999H214.051C203.341 273.999 194.648 265.311 194.648 254.605C194.648 243.899 203.341 235.211 214.051 235.211H295.543V238.935H214.051C205.359 238.935 198.374 245.916 198.374 254.605C198.374 263.294 205.359 270.275 214.051 270.275H295.543V273.999Z" fill="#F56C00"/>
<path d="M222.124 185.406C209.085 185.406 198.375 195.957 198.375 209.145C198.375 222.177 208.93 232.883 222.124 232.883H296.01V185.406H222.124Z" fill="url(#paint2_linear)"/>
<path d="M272.88 232.729C269.931 225.437 268.379 217.369 268.379 208.99C268.379 200.612 269.931 192.544 272.88 185.252H388.211C385.262 192.544 383.71 200.612 383.71 208.99C383.71 217.369 385.262 225.437 388.211 232.729H272.88Z" fill="url(#paint3_linear)"/>
<path d="M296.009 235.211H222.123C207.688 235.211 195.891 223.42 195.891 208.99C195.891 194.561 207.688 182.77 222.123 182.77H296.009V187.89H222.123C210.482 187.89 200.858 197.354 200.858 209.146C200.858 220.782 210.326 230.401 222.123 230.401H296.009V235.211Z" fill="#4D5068"/>
<path d="M395.352 182.77H291.508V187.89H395.352V182.77Z" fill="#717386"/>
<path d="M395.352 230.246H291.508V235.366H395.352V230.246Z" fill="#717386"/>
<path d="M260.62 226.367L251.928 222.488L243.391 226.367V209.766H260.62V226.367Z" fill="#FF5722"/>
<path d="M215.607 145.531C205.983 145.531 198.066 153.289 198.066 163.064C198.066 172.683 205.828 180.596 215.607 180.596H288.561V145.531H215.607Z" fill="url(#paint4_linear)"/>
<path d="M284.989 180.596C282.816 175.165 281.574 169.27 281.574 163.064C281.574 156.857 282.816 150.962 284.989 145.531H366.636C364.463 150.962 363.221 156.857 363.221 163.064C363.221 169.27 364.463 175.165 366.636 180.596H284.989Z" fill="url(#paint5_linear)"/>
<path d="M372.069 143.67H266.828V147.394H372.069V143.67Z" fill="#FF794E"/>
<path d="M372.069 178.734H266.828V182.458H372.069V178.734Z" fill="#FF794E"/>
<path d="M297.098 182.458H215.606C204.896 182.458 196.203 173.77 196.203 163.064C196.203 152.358 204.896 143.67 215.606 143.67H297.098V147.394H215.606C206.913 147.394 199.928 154.375 199.928 163.064C199.928 171.753 206.913 178.734 215.606 178.734H297.098V182.458Z" fill="#FF5722"/>
<path d="M159.416 214.267L133.493 202.01L131.32 212.405L153.362 227.455L159.416 214.267Z" fill="#FFCEBD"/>
<path d="M101.362 250.107L89.4102 252.589L97.637 229.006L107.726 232.419L101.362 250.107Z" fill="#FFCEBD"/>
<path d="M148.083 228.231L122.782 186.65C120.919 183.702 117.814 181.84 114.244 181.84C109.743 181.84 105.862 184.788 104.621 189.132L90.9609 243.901L104.931 244.522C104.931 244.522 114.244 220.938 116.107 213.801L123.868 248.866L155.689 244.677L148.083 228.231Z" fill="#50555A"/>
<path d="M33.9939 262.674H15.3672V272.604H33.9939V262.674Z" fill="#FFCEBD"/>
<path opacity="0.15" d="M33.9939 270.586H15.3672V272.448H33.9939V270.586Z" fill="#525D7A"/>
<g opacity="0.2">
<path opacity="0.2" d="M143.738 236.143L135.666 238.47L124.646 239.091L121.852 239.246L124.025 248.865L155.845 244.676L150.413 233.04L149.947 232.885L143.738 236.143Z" fill="#231F20"/>
</g>
<path d="M137.06 242.815L128.833 245.142L117.812 245.763L85.526 251.348C84.129 251.348 82.5768 251.503 81.1798 251.814L27.4727 260.347V274.001L71.4007 273.69L81.9559 272.449L89.5618 270.432L94.8394 271.053L138.457 273.225H155.066C163.758 273.225 170.743 266.243 170.743 257.554L143.424 239.557L137.06 242.815Z" fill="#50555A"/>
<path opacity="0.2" d="M154.914 269.811H138.46L94.6871 267.639L89.4095 267.018L81.8036 269.035L71.2484 270.276L27.3203 270.586V274L71.2484 273.689L81.8036 272.448L89.4095 270.431L94.6871 271.052L138.305 273.224H154.914C163.606 273.224 170.591 266.242 170.591 257.554L170.281 257.398C168.884 264.535 162.519 269.811 154.914 269.811Z" fill="#231F20"/>
<path d="M182.543 171.753L165.934 176.563C165.934 176.563 169.194 163.996 161.277 159.341L177.421 154.531L179.128 162.134L182.543 171.753Z" fill="#FFCEBD"/>
<path d="M180.523 166.014L190.923 178.736C194.648 183.391 196.821 189.131 196.821 195.182L196.976 204.647L196.045 239.401L194.958 261.898C184.714 266.398 173.693 263.295 166.397 259.881C160.654 257.244 154.445 255.537 148.081 255.071C142.959 254.606 137.526 253.21 136.129 248.865L144.977 239.556C146.839 237.694 148.392 235.522 149.633 233.195C152.117 228.695 151.341 226.834 151.806 219.231C151.806 218.3 151.962 218.3 151.962 217.369L149.323 213.025C146.529 208.37 146.839 202.63 150.099 198.285C152.893 194.407 156.463 190.993 156.618 190.838C161.12 184.942 162.982 183.236 166.242 175.478L180.523 166.014Z" fill="white"/>
<path d="M180.524 166.014L190.924 178.736C194.649 183.391 196.822 189.131 196.822 195.182L196.977 204.647L196.046 239.401L194.959 261.898C185.336 266.242 175.091 263.605 167.795 260.502C167.33 260.347 166.088 252.279 166.088 252.279C166.088 252.279 164.38 259.261 163.294 259.261C158.327 259.571 146.064 261.743 140.942 261.433C135.819 260.967 165.001 219.231 167.485 174.547L169.813 172.996L180.524 166.014Z" fill="#F56C00"/>
<path d="M171.832 195.338L176.178 217.525L168.883 266.553H178.196L190.148 228.075L191.235 219.542L185.336 190.684L171.832 195.338Z" fill="#FFCEBD"/>
<path d="M168.572 191.148L173.849 214.732L191.234 211.629L186.577 188.045C185.957 183.236 181.61 179.667 176.643 180.133C171.21 180.598 167.485 185.718 168.572 191.148Z" fill="white"/>
<path d="M168.881 265.932L166.553 267.949H158.481C156.929 267.949 148.702 268.569 148.702 268.569C146.529 269.345 144.977 270.897 144.977 273.224H155.532L171.675 273.379C174.003 273.379 175.711 272.293 177.108 270.276L177.418 269.81C177.729 269.345 178.039 268.88 178.039 268.259L178.35 265.932H168.881Z" fill="#FFCEBD"/>
<path opacity="0.15" d="M176.799 265.932C176.799 266.707 176.489 267.173 176.178 267.638L175.868 268.104C174.471 270.121 172.919 271.207 170.435 271.207L154.292 271.052H145.289C144.978 271.672 144.668 272.448 144.668 273.224H155.223L171.366 273.379C173.695 273.379 175.402 272.293 176.799 270.276L177.11 269.81C177.42 269.345 177.73 268.88 177.73 268.259L178.041 265.932H176.799Z" fill="#525D7A"/>
<path d="M17.5394 273.535V262.209L12.2618 257.554V260.347C12.2618 254.296 8.84687 245.452 3.41406 242.814V273.69H17.5394V273.535Z" fill="#FF9001"/>
<path d="M12.2618 260.501V260.19C12.2618 254.14 8.84686 245.296 3.41406 242.658V247.158C8.84686 249.795 10.2439 265 12.2618 260.501Z" fill="#FF794E"/>
<path d="M0 274.001V240.953H2.17312C2.79401 240.953 3.4149 241.574 3.4149 242.194V274.001H0Z" fill="#4D5068"/>
<path d="M142.338 216.127C141.562 216.592 140.631 216.282 140.165 215.661L122.935 187.424C122.469 186.648 122.78 185.717 123.401 185.251C124.177 184.786 125.108 185.096 125.574 185.717L142.804 213.955C143.269 214.73 142.959 215.661 142.338 216.127Z" fill="#4D5068"/>
<path d="M174.469 162.754L160.81 166.013C156.308 167.099 151.807 164.306 150.72 159.807L150.255 157.634L147.771 157.479C149.168 155.307 149.013 148.946 149.013 148.946L147.616 147.084L146.219 140.878L168.105 135.758L174.469 162.754Z" fill="#FFCEBD"/>
<path d="M196.358 193.475C196.203 190.683 195.427 188.355 195.427 185.563C195.427 182.304 194.961 179.201 194.03 176.098C193.254 173.771 192.167 171.444 191.702 169.116C191.081 165.703 191.857 162.29 192.012 158.876C192.167 155.463 191.702 151.739 189.218 149.412C188.287 148.636 187.2 147.86 186.735 146.774C186.114 145.378 186.579 143.826 186.735 142.275C187.511 134.983 181.147 130.173 174.472 129.552C173.385 129.397 172.299 129.552 171.212 129.242C168.884 128.777 166.866 127.38 164.693 126.294C162.054 124.898 158.95 124.277 156.001 124.743C153.051 125.363 150.257 127.38 149.326 130.173C149.171 130.638 149.015 131.259 148.705 131.725C148.084 132.811 146.532 132.966 145.445 133.431C143.893 134.052 142.496 135.138 141.875 136.689C141.254 138.241 141.565 140.258 142.962 141.189C144.204 142.275 146.532 141.965 147.308 140.568L148.86 140.258C151.189 139.637 153.983 140.568 155.38 142.43C157.087 144.602 157.087 147.86 159.26 149.722C161.589 151.894 165.314 151.119 168.108 152.825C170.436 154.222 171.523 157.014 172.144 159.807C172.92 163.221 173.23 166.634 172.92 170.047C172.765 171.444 172.765 172.84 173.23 173.926C174.472 176.253 177.732 176.564 179.439 178.426C180.991 180.132 180.991 182.615 180.371 184.787C179.905 186.959 178.973 189.131 178.818 191.303C178.663 194.717 180.526 197.82 183.009 200.147C185.338 202.164 187.976 203.25 190.615 204.957C191.081 205.267 196.669 208.525 196.669 206.974C196.669 202.629 196.669 198.13 196.358 193.475Z" fill="#4D5068"/>
<path d="M137.062 142.894V168.184C137.062 169.891 135.665 171.287 133.957 171.287H128.369V172.683V176.873C128.369 177.493 127.593 177.803 127.128 177.338L119.056 171.442H96.3935C94.6861 171.442 93.2891 170.046 93.2891 168.339V142.894C93.2891 141.187 94.6861 139.791 96.3935 139.791H133.957C135.665 139.791 137.062 141.187 137.062 142.894Z" fill="white"/>
<path d="M121.541 163.219H117.815V161.513C116.729 162.754 115.487 163.375 114.09 163.375C112.538 163.375 111.296 162.909 110.365 162.133C109.278 161.202 108.812 160.116 108.812 158.72C108.812 157.324 109.278 156.237 110.365 155.462C111.451 154.686 112.848 154.376 114.711 154.376H117.66V154.221C117.66 152.669 116.884 151.893 115.332 151.893C114.711 151.893 113.935 152.048 113.159 152.359C112.383 152.669 111.762 152.979 111.296 153.445L109.589 150.962C111.451 149.566 113.624 148.945 115.953 148.945C117.66 148.945 119.057 149.411 120.144 150.187C121.23 151.117 121.696 152.359 121.696 154.221V163.219H121.541ZM117.505 157.789V157.168H115.021C113.469 157.168 112.693 157.634 112.693 158.565C112.693 159.03 112.848 159.496 113.314 159.806C113.624 160.116 114.245 160.271 114.866 160.271C115.642 160.271 116.108 160.116 116.729 159.651C117.35 159.03 117.505 158.565 117.505 157.789Z" fill="#4D5068"/>
<path d="M292.128 110.623L296.63 109.537L307.651 111.399L313.704 116.984L312.307 121.949C310.6 121.484 309.513 119.622 310.134 117.76L310.289 117.45L308.272 115.743L308.892 118.071L307.34 122.57C305.633 122.104 304.546 120.088 305.167 118.381L305.477 117.295L304.701 116.054L303.304 115.588L293.06 118.226L291.042 117.605L290.266 116.364L292.128 110.623Z" fill="#FFCEBD"/>
<path d="M345.649 206.372L357.797 201.637L353.455 190.506L341.306 195.241L345.649 206.372Z" fill="#FFCEBD"/>
<path d="M360.428 189.752L377.037 193.631L384.333 193.01C385.885 192.855 387.437 193.786 388.058 195.337L388.834 197.354L348.321 213.18L345.372 211.008L340.715 199.061L342.733 198.596L347.234 201.544L352.822 199.371L360.428 189.752Z" fill="#4D5068"/>
<path d="M386.814 193.941C387.28 194.407 387.746 194.872 388.056 195.493L388.832 197.51L348.319 213.336L345.37 211.163L343.973 207.44L346.922 209.612L386.814 193.941Z" fill="white"/>
<path d="M363.688 194.406L363.223 193.475L368.345 191.613L370.052 191.924L363.688 194.406Z" fill="white"/>
<path d="M360.117 192.388L364.619 190.682L366.326 191.147L360.583 193.319L360.117 192.388Z" fill="white"/>
<path d="M366.791 195.337L366.48 194.406L371.758 192.389L373.465 192.854L366.791 195.337Z" fill="white"/>
<path d="M325.966 137L356.39 191.614L339.936 197.665L311.996 159.032L325.966 137Z" fill="#50555A"/>
<path d="M278.942 198.154L291.211 202.564L295.256 191.323L282.986 186.912L278.942 198.154Z" fill="#FFCEBD"/>
<path d="M300.976 195.183L310.91 208.991L316.809 213.336C318.051 214.266 318.672 215.973 318.051 217.525L317.275 219.542L276.296 204.802L275.52 201.078L279.866 188.977L281.573 189.907L283.125 195.028L288.713 197.045L300.976 195.183Z" fill="#4D5068"/>
<path d="M318.206 215.662C318.361 216.282 318.361 216.903 318.051 217.523L317.275 219.54L276.296 204.801L275.52 201.077L276.917 197.354L277.693 201.077L318.206 215.662Z" fill="white"/>
<path d="M300.355 200.923L300.666 199.992L305.633 201.854L306.72 203.25L300.355 200.923Z" fill="white"/>
<path d="M298.959 197.199L303.46 198.751L304.547 200.147L298.648 198.13L298.959 197.199Z" fill="white"/>
<path d="M302.062 203.716L302.373 202.785L307.806 204.647L308.737 206.199L302.062 203.716Z" fill="white"/>
<path opacity="0.2" d="M329.071 142.43L316.187 164.772L311.996 159.032L325.966 137L329.071 142.43Z" fill="#231F20"/>
<path d="M239.508 119.002V129.242C239.508 139.483 247.89 147.861 258.135 147.861H296.475C298.803 147.861 300.355 150.343 299.269 152.515L280.952 187.89L296.785 193.01L325.967 142.43C330.003 135.449 324.88 126.76 316.809 126.76L275.52 121.019L273.191 117.296V113.262L239.508 119.002Z" fill="#50555A"/>
<path d="M264.033 30.875C264.033 29.4786 264.188 28.0822 264.654 26.841C264.964 26.2204 265.274 25.7549 265.43 25.1343C266.051 23.2725 265.74 21.2555 266.516 19.5488C267.603 17.3767 269.621 14.2736 272.259 14.1184C272.57 14.1184 273.036 14.1184 273.346 13.9633C273.501 13.8081 273.812 13.653 273.967 13.4978C275.209 12.4118 278.624 10.0845 280.331 11.1705C280.642 11.3257 280.797 11.636 281.107 11.7911C282.039 12.2566 283.28 11.7911 284.212 11.636C285.453 11.4808 286.85 12.2566 287.471 13.3427C287.937 13.9633 287.782 14.2736 288.713 14.4287C289.489 14.4287 290.11 14.4287 290.886 14.4287C291.973 14.4287 293.059 14.8942 293.991 15.67C294.612 16.2906 295.077 17.0663 295.388 17.8421C295.698 18.4627 296.009 19.0833 296.63 19.2385C297.095 19.3936 297.561 19.3936 297.871 19.5488C298.337 19.7039 298.803 20.1694 299.113 20.6349C300.665 22.9622 303.459 24.6688 303.615 27.7719C303.77 28.858 303.304 29.944 302.373 30.4095C301.597 30.7198 300.821 30.5646 300.044 30.2543C300.51 30.5646 300.976 31.0301 300.976 31.6507C300.976 32.5816 299.889 33.0471 299.113 33.3574C298.182 33.8229 296.94 33.6677 295.853 33.3574C294.456 32.8919 293.059 32.1162 291.662 32.1162C291.197 32.1162 290.886 32.2713 290.421 32.2713C287.471 32.8919 284.988 34.2883 282.194 35.5295C279.245 36.6156 276.295 37.7017 273.346 38.6326C272.104 38.9429 271.018 39.4084 269.776 39.4084C269 39.4084 268.379 39.4084 267.603 39.4084C266.671 39.5635 265.43 40.3393 264.498 40.1841C263.722 40.1841 263.101 38.7878 262.791 38.012C262.48 36.9259 262.48 35.6847 262.48 34.5986C262.48 33.8229 262.636 33.0471 262.791 32.4265C263.567 31.961 264.033 31.6507 264.033 30.875Z" fill="#50555A"/>
<path d="M258.137 44.5289L271.486 60.3545C271.486 60.3545 271.486 48.2526 277.074 47.9422L266.364 36.4609L258.137 44.5289Z" fill="#FFCEBD"/>
<path d="M297.873 30.1001C297.097 32.5825 296.32 34.9098 295.234 37.082C294.613 38.6335 294.458 44.3741 292.129 46.236C291.974 46.3911 289.18 44.219 289.18 44.3741C289.025 44.6845 287.162 46.3911 285.455 48.0978C283.592 49.9597 280.643 50.1148 278.47 48.7184C273.192 45.3051 264.189 39.4093 263.879 39.7196L276.918 19.3945L297.873 30.1001Z" fill="#FFCEBD"/>
<path d="M263.724 39.5626C263.413 39.0972 263.724 38.4766 263.724 38.0111C264.034 36.3044 264.655 34.5977 265.121 32.8911C265.742 31.0292 266.207 29.1674 267.139 27.4607C268.225 24.9783 269.933 22.4958 272.106 20.7891C273.503 19.7031 274.9 18.9273 276.452 18.1515C277.073 17.8412 277.694 17.5309 278.47 17.2206C280.022 16.9103 281.575 17.2206 283.127 17.6861C284.369 17.9964 285.455 18.3067 286.542 18.9273C288.094 19.8582 289.18 21.4097 290.888 22.1855C293.061 22.9613 295.389 23.2716 297.563 23.8922C299.58 24.5128 299.736 26.8401 299.58 28.7019C299.58 29.6328 299.27 30.5638 298.804 31.3395C298.494 31.9601 297.873 32.8911 297.252 33.2014C297.252 33.0462 297.097 32.8911 297.097 32.8911L296.631 32.7359C294.458 32.4256 292.751 30.7189 290.733 30.0983C288.404 29.4777 285.766 30.4086 284.058 32.1153C283.127 33.0462 282.351 34.2874 281.885 35.5287C281.575 36.1493 281.419 36.7699 281.264 37.5456C281.264 37.7008 281.264 38.4766 281.109 38.4766C280.954 38.6317 280.333 38.4766 280.178 38.4766C279.867 38.4766 279.557 38.3214 279.246 38.0111C278.936 37.7008 279.091 37.2353 279.091 36.7699C279.401 34.7529 279.867 32.4256 279.246 30.4086C278.781 28.7019 276.763 28.2365 275.21 28.7019C274.59 28.8571 273.969 29.3225 273.658 29.9431C273.348 30.7189 273.503 31.4947 273.813 32.2704C274.434 33.6668 274.9 35.0632 275.521 36.6147C275.676 36.925 275.676 37.2353 275.521 37.3905C275.366 37.5456 275.21 37.7008 275.055 37.8559C274.59 38.1662 274.124 38.4766 273.503 38.4766C272.572 38.6317 271.33 38.7869 270.399 38.6317C269.933 38.6317 269.622 38.4766 269.157 38.4766C269.001 38.4766 268.691 38.4766 268.536 38.3214C268.07 38.1663 267.915 38.0111 267.604 38.3214C267.294 38.6317 267.139 38.942 267.139 39.4075C267.139 39.7178 267.294 40.1832 267.294 40.4935V40.6487H267.139C266.673 40.6487 266.207 40.8038 265.587 40.8038C264.5 40.4935 264.034 40.1832 263.724 39.5626C263.724 39.7178 263.724 39.5626 263.724 39.5626Z" fill="#50555A"/>
<path d="M258.135 44.5293L245.407 51.356C244.01 52.1318 242.768 53.373 242.147 54.7694L237.49 64.2337C235.472 68.2677 234.541 72.9223 234.851 77.4217C235.472 85.9551 235.783 94.4885 236.093 103.022C236.404 109.383 236.714 115.589 237.025 121.951C237.18 124.278 237.335 126.605 237.335 128.932C237.335 129.708 237.025 132.191 237.49 132.966C237.49 133.122 237.49 133.277 237.49 133.432C250.374 143.672 264.189 118.382 276.762 120.865C276.917 120.865 276.762 114.969 276.762 114.038C276.762 112.952 276.762 111.866 276.762 110.78C276.606 109.073 276.451 107.366 276.296 105.815C276.141 102.246 275.986 98.8328 275.83 95.2643C275.83 94.3334 275.986 93.4024 276.141 92.3164C276.141 91.5406 276.141 90.92 276.296 90.1442C276.762 88.5927 276.606 86.7309 276.451 85.1793C276.296 84.2484 276.141 83.1624 276.141 82.2314C276.296 81.4557 276.296 80.5248 276.296 79.749C276.296 77.732 275.986 75.8702 275.675 74.0083C275.52 72.612 275.52 71.0604 275.365 69.6641C275.209 68.2677 274.744 66.7162 274.433 65.4749C273.502 62.527 272.26 59.7343 270.087 57.5621C270.553 57.407 258.135 44.5293 258.135 44.5293Z" fill="#F56C00"/>
<path opacity="0.2" d="M246.027 110.468C242.613 110.002 240.129 107.055 240.284 103.486L243.699 60.3535H261.705L257.98 99.9175L276.451 106.434C276.606 107.83 276.762 109.227 276.762 110.623C276.917 111.709 276.762 112.795 276.762 113.881C276.762 114.192 276.762 115.588 276.762 117.139L246.027 110.468Z" fill="#231F20"/>
<path d="M261.861 58.493L258.136 98.057L292.13 110.004L291.198 118.382L246.184 108.452C242.769 107.987 240.285 105.039 240.44 101.47L243.855 58.3379H261.861V58.493Z" fill="#F56C00"/>
<path d="M322.554 124.432C323.175 124.897 324.106 124.742 324.572 124.122L344.906 96.5044C345.372 95.8838 345.216 94.9529 344.595 94.4874C343.975 94.022 343.043 94.1771 342.578 94.7977L322.243 122.57C321.778 123.191 321.933 123.966 322.554 124.432Z" fill="#545671"/>
<path d="M279.091 122.106L325.347 127.691C326.434 127.846 327.365 127.071 327.52 125.984C327.675 124.898 326.899 123.967 325.813 123.812L279.556 118.227C278.47 118.072 277.538 118.847 277.383 119.933C277.228 121.02 278.004 121.95 279.091 122.106Z" fill="#545671"/>
<path d="M277.538 119.312C277.849 119.933 278.47 120.399 279.246 120.399L325.502 125.984C326.434 126.139 327.21 125.674 327.52 125.053C327.675 125.363 327.675 125.674 327.675 125.829C327.52 126.915 326.589 127.691 325.502 127.536L279.246 121.95C278.159 121.795 277.383 120.864 277.538 119.778C277.383 119.623 277.383 119.468 277.538 119.312Z" fill="#3F4155"/>
<path d="M290.378 120.637L290.211 122.023L293.909 122.47L294.077 121.084L290.378 120.637Z" fill="#F5F7F9"/>
<path d="M286.121 119.989L285.953 121.375L289.652 121.821L289.819 120.435L286.121 119.989Z" fill="#F5F7F9"/>
<path d="M316.796 123.78L316.629 125.166L320.327 125.612L320.495 124.226L316.796 123.78Z" fill="#F5F7F9"/>
<path d="M270.555 57.407L268.071 63.4579L258.137 44.5293L270.555 57.407Z" fill="#4D5068"/>
<path d="M270.555 57.4056L272.107 62.2153L272.262 53.9922L270.555 57.4056Z" fill="#4D5068"/>
<path d="M319.293 40.3397V63.1471C319.293 66.095 321.621 68.4223 324.571 68.4223H326.899V73.6975V80.6794C326.899 81.3 327.52 81.4552 327.985 80.9897L341.179 68.2672H356.702C359.651 68.2672 361.979 65.9399 361.979 62.992V40.3397C361.979 37.3917 359.651 35.0645 356.702 35.0645H324.571C321.621 35.0645 319.293 37.3917 319.293 40.3397Z" fill="white"/>
<path d="M346.301 51.8214C346.301 53.0626 345.99 54.1486 345.369 55.0796C344.748 56.0105 343.972 56.7862 342.886 57.2517C343.041 57.4069 343.196 57.562 343.351 57.7172C343.507 57.8723 343.817 57.8723 343.972 57.8723C344.283 57.8723 344.438 57.8723 344.593 57.7172C344.748 57.7172 345.059 57.562 345.059 57.4069C345.369 57.0966 345.525 56.9414 345.68 56.7862L347.077 58.3378C346.145 59.4238 344.904 59.8893 343.507 59.8893C342.886 59.8893 342.11 59.7342 341.489 59.2687C340.868 58.9584 340.402 58.3378 339.936 57.7172C338.229 57.7172 336.677 57.0965 335.59 56.0105C334.348 54.9244 333.883 53.3729 333.883 51.6662C333.883 49.9595 334.504 48.5631 335.59 47.3219C336.832 46.2358 338.229 45.6152 339.936 45.6152C341.644 45.6152 343.196 46.2358 344.283 47.3219C345.68 48.7183 346.301 50.1147 346.301 51.8214ZM343.662 51.8214C343.662 50.7353 343.351 49.9595 342.731 49.1838C342.11 48.408 341.178 48.0977 340.247 48.0977C339.316 48.0977 338.384 48.408 337.763 49.1838C337.142 49.9595 336.832 50.8904 336.832 51.8214C336.832 52.9074 337.142 53.6832 337.763 54.4589C338.384 55.2347 339.316 55.545 340.247 55.545C341.178 55.545 342.11 55.2347 342.731 54.4589C343.196 53.8383 343.662 52.9074 343.662 51.8214Z" fill="#4D5068"/>
</g>
<defs>
<linearGradient id="paint0_linear" x1="196.585" y1="254.619" x2="287.106" y2="254.619" gradientUnits="userSpaceOnUse">
<stop stop-color="#FFE1D7"/>
<stop offset="0.1358" stop-color="#FFEBE4"/>
<stop offset="0.3308" stop-color="white"/>
</linearGradient>
<linearGradient id="paint1_linear" x1="349.908" y1="238.055" x2="350.224" y2="272.167" gradientUnits="userSpaceOnUse">
<stop offset="0.2624" stop-color="#FFE1D7"/>
<stop offset="1" stop-color="white"/>
</linearGradient>
<linearGradient id="paint2_linear" x1="198.449" y1="209.061" x2="296.042" y2="209.061" gradientUnits="userSpaceOnUse">
<stop stop-color="#FFE1D7"/>
<stop offset="0.1358" stop-color="#FFEBE4"/>
<stop offset="0.3308" stop-color="white"/>
</linearGradient>
<linearGradient id="paint3_linear" x1="328.139" y1="186.908" x2="328.562" y2="232.532" gradientUnits="userSpaceOnUse">
<stop offset="0.2624" stop-color="#FFE1D7"/>
<stop offset="1" stop-color="white"/>
</linearGradient>
<linearGradient id="paint4_linear" x1="198.14" y1="163.053" x2="288.661" y2="163.053" gradientUnits="userSpaceOnUse">
<stop stop-color="#FFE1D7"/>
<stop offset="0.1358" stop-color="#FFEBE4"/>
<stop offset="0.3308" stop-color="white"/>
</linearGradient>
<linearGradient id="paint5_linear" x1="324.122" y1="146.72" x2="324.434" y2="180.356" gradientUnits="userSpaceOnUse">
<stop offset="0.2624" stop-color="#FFE1D7"/>
<stop offset="1" stop-color="white"/>
</linearGradient>
<clipPath id="clip0">
<rect width="477" height="274" fill="white"/>
</clipPath>
</defs>
</svg>
