<svg width="16" height="16" viewBox="0 0 16 16" fill="none" xmlns="http://www.w3.org/2000/svg">
<path fill-rule="evenodd" clip-rule="evenodd" d="M15.9532 7.40192C15.7551 3.12594 12.025 -0.184438 7.62195 0.00798099C3.21886 0.2004 -0.189921 3.82275 0.00821823 8.09873C-0.0262302 9.42962 0.303924 10.7455 0.964918 11.9118C1.13388 12.2198 1.16278 12.5823 1.04464 12.9119L0.240749 15.3443C0.196294 15.4624 0.228121 15.5948 0.321807 15.6816C0.415493 15.7684 0.553228 15.793 0.672593 15.7443L2.8916 14.9055C3.26874 14.7522 3.69757 14.776 4.05426 14.9701C6.65543 16.4221 9.87578 16.333 12.3876 14.7395C14.8994 13.146 16.2773 10.3179 15.9532 7.42128V7.40192ZM8.74474 10.8279C8.74474 11.1842 8.44729 11.4731 8.08037 11.4731C7.71345 11.4731 7.416 11.1842 7.416 10.8279V7.60193C7.416 7.2456 7.71345 6.95674 8.08037 6.95674C8.44729 6.95674 8.74474 7.2456 8.74474 7.60193V10.8279ZM8.08037 6.31154C7.71345 6.31154 7.416 6.02268 7.416 5.66635C7.416 5.31002 7.71345 5.02115 8.08037 5.02115C8.44729 5.02115 8.74474 5.31002 8.74474 5.66635C8.74474 6.02268 8.44729 6.31154 8.08037 6.31154Z" fill="#FF9100"/>
</svg>
