<svg width="1440" height="190" viewBox="0 0 1440 190" fill="none" xmlns="http://www.w3.org/2000/svg">
<mask id="mask0" mask-type="alpha" maskUnits="userSpaceOnUse" x="0" y="0" width="1440" height="190">
<rect width="1440" height="190" fill="#C4C4C4"/>
</mask>
<g mask="url(#mask0)">
<path d="M812.298 177.358C846.394 156.867 887.403 160.993 904.717 186.724L957.605 265.02C968.058 280.439 992.71 282.907 1013.19 270.601L1299.73 97.3123C1334.43 76.36 1376.21 80.9048 1393.1 107.581C1393.14 107.652 1393.19 107.723 1393.19 107.723L1587.19 416.528C1603.84 443.046 1589.62 481.35 1555.29 502.278L1114.93 771.441C1106.36 776.691 1096.76 780.301 1087.19 781.929L982.56 799.245L644.242 855.175C617.97 859.474 594.379 850.772 583.004 832.666L377.407 505.398C360.614 478.667 375.211 440.14 409.863 419.315L812.298 177.358Z" fill="url(#paint0_linear)"/>
<path d="M493.693 148.259C466.072 129.587 431.518 128.972 415.818 146.924L367.875 201.529C358.402 212.28 337.631 211.901 321.044 200.688L88.9689 42.9525C60.8637 23.8759 25.6419 23.5081 10.2568 42.2162C10.216 42.2662 10.1752 42.3162 10.1752 42.3162L-166.686 259.018C-181.874 277.627 -171.727 308.005 -143.929 327.03L212.586 571.602C219.526 576.371 227.404 579.989 235.348 582.099L322.218 604.806L603.113 678.178C624.928 683.843 645.098 679.392 655.468 666.686L842.904 437.028C858.214 418.27 847.767 387.688 819.696 368.712L493.693 148.259Z" fill="url(#paint1_linear)"/>
<path d="M1498.46 127.173C1470.84 108.501 1436.28 107.886 1420.58 125.838L1372.64 180.443C1363.17 191.194 1342.4 190.815 1325.81 179.602L1093.73 21.8665C1065.63 2.78996 1030.41 2.42212 1015.02 21.1302C1014.98 21.1802 1014.94 21.2302 1014.94 21.2302L838.079 237.932C822.892 256.541 833.038 286.919 860.837 305.944L1217.35 550.516C1224.29 555.285 1232.17 558.903 1240.11 561.013L1326.98 583.72L1607.88 657.093C1629.69 662.757 1649.86 658.306 1660.23 645.6L1847.67 415.943C1862.98 397.184 1852.53 366.602 1824.46 347.627L1498.46 127.173Z" fill="url(#paint2_linear)"/>
<path d="M289.591 113.694C323.687 93.2029 364.696 97.3288 382.01 123.06L434.898 201.356C445.351 216.775 470.003 219.243 490.479 206.937L777.022 33.6482C811.722 12.696 853.505 17.2407 870.391 43.9168C870.436 43.9881 870.48 44.0594 870.48 44.0594L1064.48 352.864C1081.14 379.382 1066.91 417.686 1032.58 438.613L592.227 707.777C583.655 713.027 574.053 716.637 564.482 718.265L459.853 735.581L121.535 791.51C95.2631 795.81 71.6722 787.108 60.2974 769.001L-145.3 441.734C-162.093 415.003 -147.496 376.476 -112.844 355.651L289.591 113.694Z" fill="url(#paint3_linear)"/>
</g>
<defs>
<linearGradient id="paint0_linear" x1="1286.5" y1="51.7271" x2="1443.99" y2="184.934" gradientUnits="userSpaceOnUse">
<stop stop-color="#80858E"/>
<stop offset="0.546875" stop-color="#51555B"/>
</linearGradient>
<linearGradient id="paint1_linear" x1="256.001" y1="-3.97995" x2="490.433" y2="550.662" gradientUnits="userSpaceOnUse">
<stop stop-color="#FA9A2B"/>
<stop offset="0.217975" stop-color="#F36D21"/>
</linearGradient>
<linearGradient id="paint2_linear" x1="1714.08" y1="579.62" x2="1020.92" y2="13.8982" gradientUnits="userSpaceOnUse">
<stop offset="0.927083" stop-color="#F36D21"/>
<stop offset="1" stop-color="#FA9A2B"/>
</linearGradient>
<linearGradient id="paint3_linear" x1="671" y1="-50.2354" x2="884.417" y2="674.81" gradientUnits="userSpaceOnUse">
<stop stop-color="#AEB6C2"/>
<stop offset="0.269099" stop-color="#51555B"/>
</linearGradient>
</defs>
</svg>
