<svg width="70" height="50" viewBox="0 0 70 50" fill="none" xmlns="http://www.w3.org/2000/svg">
<g clip-path="url(#clip0)">
<path fill-rule="evenodd" clip-rule="evenodd" d="M63.5415 33.4825C60.2081 33.4825 57.5432 31.1072 55.3123 27.7658L44.2707 11.2287C44.1344 11.0233 44.0429 10.8829 43.8564 10.8829C43.6761 10.8829 43.5566 11.0019 43.4375 11.2287L35.1041 27.0516C33.1302 30.7994 30.9374 33.687 25.8333 33.687C21.5624 33.687 18.6949 31.022 16.1458 26.8476L0 0.407906H12.2916L25.6249 22.8659C25.7344 23.0504 25.8652 23.1584 26.0112 23.1604C26.1775 23.1626 26.318 23.0225 26.4583 22.764L35.4165 6.22681C37.3388 2.67834 39.4792 0 43.8541 0C48.5416 0 50.3515 2.34951 52.9165 6.22681L59.0623 15.5164C59.2028 15.7284 59.3538 15.8399 59.4828 15.8399C59.6487 15.8399 59.7911 15.6961 59.7911 15.3871V0.407906H69.9996V25.9286C70 31.0326 67.8124 33.4825 63.5415 33.4825Z" fill="#0070BA"/>
<path fill-rule="evenodd" clip-rule="evenodd" d="M63.0443 49.9417C62.1336 49.9417 61.4056 49.2915 60.796 48.377L57.7792 43.8508C57.7421 43.795 57.717 43.7562 57.6656 43.7562C57.6142 43.7562 57.5837 43.7887 57.5511 43.8508L55.2743 48.1815C54.735 49.2077 54.1358 49.9976 52.7413 49.9976C51.5744 49.9976 50.7909 49.2681 50.0945 48.1256L45.6836 40.8891H49.0418L52.6848 47.0359C52.7147 47.0865 52.7505 47.1159 52.7903 47.1165C52.8358 47.1172 52.8743 47.0788 52.9125 47.0081L55.3601 42.4817C55.8852 41.5105 56.4701 40.7773 57.6654 40.7773C58.9461 40.7773 59.4406 41.4205 60.1414 42.4817L61.8206 45.0243C61.859 45.0823 61.9001 45.1126 61.9356 45.1126C61.981 45.1126 62.0198 45.0733 62.0198 44.9887V40.8891H64.809V47.8744C64.809 49.2711 64.2113 49.9417 63.0443 49.9417Z" fill="#0070BA"/>
<path d="M11.091 47.1088C11.1276 47.0917 11.1675 47.0825 11.208 47.0816C11.2435 47.0823 11.2781 47.0921 11.3084 47.1102C11.3387 47.1283 11.3636 47.1539 11.3805 47.1844L12.3477 48.5813C12.3754 48.6071 12.3967 48.6388 12.41 48.6739C12.4234 48.7089 12.4284 48.7466 12.4248 48.7839C12.3941 48.8573 12.3386 48.9181 12.2677 48.9562C11.9268 49.1884 11.5562 49.3755 11.1654 49.5124C10.7025 49.6721 10.2144 49.7499 9.7238 49.7422C9.11613 49.7463 8.51417 49.6269 7.95581 49.3915C6.8689 48.9376 6.00338 48.088 5.54089 47.0212C5.30508 46.4724 5.18359 45.8828 5.18359 45.2872C5.18359 44.6917 5.30508 44.1021 5.54089 43.5533C6.00335 42.4914 6.86979 41.6485 7.95581 41.2041C8.51517 40.9726 9.11674 40.8553 9.7238 40.8595C9.979 40.8585 10.2338 40.8797 10.4852 40.9229C10.7163 40.963 10.9439 41.0206 11.166 41.0953C11.3737 41.1653 11.5755 41.251 11.7696 41.3518C11.9511 41.4462 12.1261 41.5522 12.2933 41.6693C12.3207 41.6868 12.3443 41.7094 12.3628 41.7359C12.3813 41.7623 12.3944 41.7921 12.4011 41.8235C12.4124 41.8765 12.4024 41.9317 12.3734 41.9777L11.3436 43.423C11.3263 43.4493 11.3026 43.4708 11.2746 43.4856C11.2465 43.5004 11.2152 43.508 11.1834 43.5077C11.1083 43.5058 11.0363 43.4779 10.9801 43.4291C10.8031 43.2871 10.6034 43.1747 10.3892 43.0965C10.1749 43.0253 9.94992 42.9905 9.7238 42.9937C9.41059 42.9907 9.10015 43.0515 8.81208 43.1722C8.54042 43.286 8.2944 43.4514 8.0882 43.659C7.88259 43.8681 7.72048 44.1145 7.61092 44.3845C7.49409 44.671 7.4353 44.9772 7.43785 45.2858C7.43552 45.5962 7.49409 45.9041 7.61036 46.1927C7.71927 46.4658 7.88139 46.7153 8.08763 46.9275C8.29928 47.143 8.55347 47.314 8.83468 47.4299C9.1159 47.5459 9.41823 47.6043 9.72323 47.6017C9.95981 47.6044 10.1945 47.5602 10.4132 47.4717C10.6053 47.3942 10.789 47.2979 10.9615 47.1844C11.002 47.155 11.0453 47.1296 11.091 47.1088Z" fill="#0070BA"/>
<path d="M13.1902 43.5762C13.4177 43.0485 13.7472 42.569 14.1605 42.1643C14.5743 41.7611 15.0624 41.4389 15.5989 41.215C16.1563 40.9854 16.7548 40.8672 17.3593 40.8672C17.9637 40.8672 18.5622 40.9854 19.1196 41.215C20.2049 41.6634 21.0684 42.5109 21.5253 43.5762C21.7591 44.1234 21.8795 44.7108 21.8795 45.3041C21.8795 45.8974 21.7591 46.4848 21.5253 47.032C21.067 48.0956 20.2038 48.9417 19.1196 49.3902C18.5621 49.6197 17.9637 49.7379 17.3593 49.7379C16.7548 49.7379 16.1564 49.6197 15.5989 49.3902C15.0624 49.1662 14.5743 48.844 14.1605 48.4409C13.7477 48.0369 13.4183 47.5585 13.1902 47.032C12.9564 46.4848 12.8359 45.8974 12.8359 45.3041C12.8359 44.7108 12.9564 44.1234 13.1902 43.5762ZM15.2786 46.2036C15.3855 46.4746 15.5445 46.7229 15.7468 46.9352C15.9481 47.1443 16.19 47.3119 16.4583 47.428C16.743 47.5477 17.0495 47.6094 17.3593 47.6094C17.669 47.6094 17.9755 47.5477 18.2602 47.428C18.5296 47.3106 18.7725 47.1419 18.975 46.9317C19.1775 46.7216 19.3355 46.4741 19.4399 46.2036C19.6617 45.6237 19.6617 44.9845 19.4399 44.4046C19.3335 44.1333 19.1745 43.8848 18.9717 43.6729C18.6522 43.3517 18.2412 43.1328 17.7927 43.0449C17.3441 42.957 16.879 43.0041 16.4583 43.1801C16.1893 43.2949 15.9471 43.4626 15.7468 43.6729C15.5454 43.8859 15.3866 44.1341 15.2786 44.4046C15.0527 44.9838 15.0527 45.6244 15.2786 46.2036Z" fill="#0070BA"/>
<path d="M25.538 44.337V49.3619C25.538 49.5312 25.4415 49.6158 25.2485 49.6158H23.597C23.5618 49.6208 23.526 49.6176 23.4923 49.6066C23.4586 49.5955 23.428 49.577 23.4029 49.5523C23.3778 49.5277 23.3589 49.4977 23.3477 49.4646C23.3365 49.4315 23.3332 49.3964 23.3382 49.3619V41.2528C23.3374 41.1868 23.3603 41.1225 23.4029 41.0714C23.4268 41.0444 23.4568 41.0233 23.4905 41.0096C23.5242 40.996 23.5606 40.9902 23.597 40.9928H25.5128C25.5962 40.992 25.6779 41.0162 25.7469 41.0623C25.821 41.1129 25.8838 41.1777 25.9318 41.2528L28.8949 45.9572V41.2531C28.894 41.1871 28.917 41.1228 28.9597 41.0718C28.9846 41.0444 29.0156 41.023 29.0503 41.0093C29.085 40.9957 29.1225 40.9901 29.1598 40.9931H30.8047C30.8747 40.9962 30.9418 41.0216 30.9956 41.0656C31.0264 41.0866 31.0516 41.1146 31.0688 41.1473C31.086 41.18 31.0947 41.2163 31.0943 41.2531V49.3622C31.0943 49.5315 30.9977 49.6162 30.8047 49.6162H29.0735C28.9859 49.6157 28.9 49.5918 28.8252 49.547C28.7503 49.5023 28.6892 49.4384 28.6485 49.3622L25.538 44.337Z" fill="#0070BA"/>
<path d="M32.3191 41.2541C32.3136 41.2193 32.3165 41.1836 32.3274 41.1501C32.3384 41.1165 32.3571 41.0859 32.3822 41.0606C32.4073 41.0354 32.4381 41.0163 32.472 41.0047C32.5059 40.9932 32.5422 40.9895 32.5778 40.9941H38.997C39.0326 40.9895 39.0688 40.9932 39.1028 41.0047C39.1367 41.0163 39.1674 41.0354 39.1925 41.0606C39.2177 41.0859 39.2364 41.1165 39.2474 41.1501C39.2584 41.1836 39.2612 41.2193 39.2557 41.2541V42.7234C39.2612 42.7583 39.2584 42.7939 39.2474 42.8275C39.2365 42.8611 39.2177 42.8917 39.1926 42.917C39.1675 42.9422 39.1367 42.9614 39.1028 42.9729C39.0688 42.9844 39.0326 42.988 38.997 42.9834H36.8963V49.3629C36.9009 49.3978 36.8972 49.4334 36.8854 49.4667C36.8737 49.5 36.8542 49.5302 36.8285 49.5548C36.8028 49.5795 36.7716 49.5979 36.7374 49.6087C36.7032 49.6194 36.6669 49.6222 36.6314 49.6168H34.925C34.8898 49.6218 34.854 49.6186 34.8203 49.6076C34.7866 49.5965 34.756 49.578 34.7309 49.5533C34.7058 49.5287 34.6869 49.4986 34.6757 49.4656C34.6644 49.4325 34.6612 49.3974 34.6662 49.3629V42.9834H32.5778C32.5422 42.988 32.5059 42.9844 32.472 42.9728C32.4381 42.9613 32.4073 42.9422 32.3822 42.9169C32.3571 42.8917 32.3384 42.8611 32.3274 42.8275C32.3165 42.7939 32.3136 42.7583 32.3191 42.7234V41.2541Z" fill="#0070BA"/>
<path d="M42.7848 43.7194L41.8546 46.3558H43.7397L42.7848 43.7194ZM41.7129 41.2523C41.7359 41.1757 41.784 41.1087 41.8498 41.0617C41.9155 41.0147 41.9952 40.9903 42.0766 40.9923H43.5243C43.6047 40.9911 43.6832 41.0159 43.7478 41.0629C43.8124 41.1099 43.8594 41.1765 43.8816 41.2523L47.1097 49.3614C47.1795 49.5307 47.124 49.6154 46.9434 49.6154H45.182C45.1025 49.6198 45.0238 49.5969 44.9597 49.5505C44.8956 49.5041 44.85 49.4373 44.8308 49.3614L44.418 48.2246H41.1893L40.7888 49.3614C40.7687 49.4379 40.722 49.5052 40.6568 49.5516C40.5916 49.5979 40.5119 49.6205 40.4315 49.6154H38.6696C38.493 49.6154 38.4376 49.5307 38.5033 49.3614L41.7129 41.2523Z" fill="#0070BA"/>
</g>
<defs>
<clipPath id="clip0">
<rect width="70" height="50" fill="white"/>
</clipPath>
</defs>
</svg>
