<svg width="100" height="40" viewBox="0 0 100 40" fill="none" xmlns="http://www.w3.org/2000/svg">
<path fill-rule="evenodd" clip-rule="evenodd" d="M43.1076 2.89121C38.1247 2.36066 32.9952 4.18812 29.4779 7.75463C28.921 8.37361 29.0089 9.40524 29.5952 9.99474C30.1521 10.6727 31.2659 10.7611 31.9107 10.1421C34.1677 7.902 37.1867 6.48719 40.3523 6.28086C49.937 5.48503 50.9922 14.0328 59.3459 13.2075C61.8666 12.9717 64.2994 11.7927 65.9995 9.93579C66.8495 8.93364 65.9995 7.28302 64.7684 7.1946C64.2408 7.13565 63.7132 7.37145 63.3615 7.75463C61.9546 9.16944 59.9321 9.96527 57.9096 9.81789C53.3664 9.55261 50.787 3.68704 43.1076 2.89121Z" fill="#FF9001"/>
<path fill-rule="evenodd" clip-rule="evenodd" d="M60.0784 19.4556C49.1454 20.6641 46.9178 12.1163 40.9677 12.5584C39.209 12.6468 37.509 13.4427 36.2779 14.7101C35.6624 15.3586 34.5192 15.2996 33.933 14.6217C33.3175 14.0322 33.2295 12.9711 33.8451 12.3521C36.0141 10.0825 39.2676 8.87402 42.4039 9.16877C48.8523 9.81723 49.8782 15.5354 57.3525 16.0954C61.1923 16.4197 65.0906 14.9459 67.8166 12.2342C68.4321 11.5563 69.6045 11.6447 70.1907 12.3521C70.8063 12.9416 70.8649 14.0027 70.2787 14.5922C67.5234 17.3334 63.8596 19.0724 60.0784 19.4556Z" fill="white"/>
<path fill-rule="evenodd" clip-rule="evenodd" d="M58.8474 7.28206C56.8249 7.63576 54.7732 5.95567 54.7145 3.89241C54.5387 1.88809 56.2973 -0.0277984 58.3198 0.00167682C60.1371 -0.0572736 61.8078 1.44596 61.9543 3.27343C62.2181 5.15984 60.7526 7.07573 58.8474 7.28206Z" fill="#FF9001"/>
<path fill-rule="evenodd" clip-rule="evenodd" d="M41.8764 15.0629C39.8539 14.7092 37.8022 16.3893 37.7435 18.4526C37.5677 20.4569 39.3263 22.3728 41.3488 22.3433C43.1661 22.4022 44.8368 20.899 44.9833 19.0715C45.2471 17.1851 43.7816 15.2987 41.8764 15.0629Z" fill="white"/>
<path fill-rule="evenodd" clip-rule="evenodd" d="M4.59269 30.213C1.51504 30.213 0.577088 31.9226 0.137423 35.0175C-0.302242 38.1419 0.196045 39.9988 3.36163 39.9988C4.09441 39.9988 4.79787 39.9104 5.53065 39.7335L5.73582 38.3187C5.03236 38.4661 4.27027 38.6135 3.56681 38.6135C1.66159 38.6135 1.3978 37.6113 1.74953 35.1059C2.10126 32.5121 2.71679 31.6278 4.70994 31.6278C5.32547 31.6278 5.97031 31.7163 6.64446 31.8931L6.84964 30.5373C6.08755 30.3309 5.35478 30.213 4.59269 30.213ZM11.3049 30.213C14.5291 30.213 15.0274 31.9815 14.5877 35.0764C14.1481 38.2008 13.2394 39.9693 10.0738 39.9693C6.84964 39.9693 6.35135 38.1419 6.79102 34.988C7.23068 31.9521 8.13932 30.213 11.3049 30.213ZM11.2463 31.5984C9.34107 31.5984 8.75486 32.5121 8.40312 35.0764C8.05139 37.5524 8.28588 38.584 10.1325 38.584C12.0377 38.584 12.6532 37.5524 13.0049 34.988C13.3274 32.5416 13.0929 31.5984 11.2463 31.5984ZM21.8276 30.3899L20.8017 37.7587L18.1637 30.3899H16.2292L14.9102 39.8514H16.4343L17.4309 32.63L20.0103 39.8514H22.0034L23.3224 30.3899H21.8276ZM29.976 31.6868H25.8725L25.4914 34.3101H29.3605L29.1846 35.607H25.3156L24.9052 38.4956H29.0088L28.8329 39.7925H24.7293H23.1759L24.4949 30.3309H25.7552H30.1226L29.976 31.6868ZM38.1538 30.3899H36.3951L33.9037 33.7501L32.3502 30.3899H30.6502L32.8485 35.0175L29.1553 39.8514H30.914L33.5813 36.2849L35.2813 39.8514H36.9813L34.6658 35.0764L38.1538 30.3899ZM42.0521 28.7098C42.1987 28.6508 42.2573 28.7393 42.5211 28.9456C42.697 29.093 43.1367 29.4762 43.6936 29.2993C44.1918 29.1519 44.6315 28.6214 44.8074 27.7076H43.8694C43.7522 28.0908 43.6642 28.2677 43.5177 28.3266C43.3711 28.3856 43.2246 28.2677 43.0487 28.0908C42.8729 27.9434 42.4332 27.5603 41.8763 27.7371C41.378 27.8845 40.9383 28.415 40.7625 29.3288H41.7004C41.8177 28.9161 41.9349 28.7393 42.0521 28.7098ZM43.6642 39.822L43.2539 37.405H39.8831L38.7693 39.822H37.0986L41.5832 30.3604H42.0228H43.0194H43.4298L45.2764 39.822H43.6642ZM40.4987 36.1081H43.0487L42.3453 32.011L40.4987 36.1081ZM50.6403 30.213C47.4747 30.213 46.566 31.9521 46.1557 35.0175C45.716 38.1713 46.2143 39.9988 49.4385 39.9988C52.6041 39.9988 53.5127 38.2008 53.9524 35.1059C54.3628 32.011 53.8645 30.213 50.6403 30.213ZM50.5816 31.5984C52.4282 31.5984 52.6627 32.5416 52.311 35.0175C51.9593 37.5818 51.3437 38.6135 49.4385 38.6135C47.5919 38.6135 47.3574 37.5818 47.7092 35.1059C48.0902 32.5416 48.6764 31.5984 50.5816 31.5984Z" fill="#FF9001"/>
<path fill-rule="evenodd" clip-rule="evenodd" d="M60.5181 30.2129C57.4405 30.2129 56.5025 31.9225 56.0628 35.0174C55.6232 38.1417 56.1215 39.9987 59.287 39.9987C60.0198 39.9987 60.7233 39.9102 61.4561 39.7334L61.6612 38.3186C60.9578 38.466 60.1957 38.6133 59.4922 38.6133C57.587 38.6133 57.3232 37.6112 57.6749 35.1058C58.0267 32.512 58.6422 31.6277 60.6354 31.6277C61.2509 31.6277 61.8957 31.7161 62.5699 31.893L62.7751 30.5371C61.9837 30.3308 61.2509 30.2129 60.5181 30.2129ZM67.201 30.2129C70.4252 30.2129 70.9235 31.9814 70.4839 35.0763C70.0442 38.2007 69.1355 39.9692 65.97 39.9692C62.7457 39.9692 62.2475 38.1417 62.6871 34.9879C63.1268 31.9519 64.0354 30.2129 67.201 30.2129ZM67.1424 31.5982C65.2372 31.5982 64.651 32.512 64.2992 35.0763C63.9475 37.5522 64.182 38.5839 66.0286 38.5839C67.9338 38.5839 68.5493 37.5522 68.9011 34.9879C69.2528 32.5414 68.989 31.5982 67.1424 31.5982ZM77.7237 30.3897L76.6978 37.7586L74.0598 30.3897H72.1253L70.8063 39.8513H72.3011L73.2977 32.6299L75.8771 39.8513H77.8702L79.1892 30.3897H77.7237ZM83.2048 30.2129C84.0548 30.2129 84.9928 30.3308 85.7256 30.4782L85.5497 31.8046C84.8756 31.6572 83.9376 31.5688 83.2341 31.5688C81.71 31.5688 81.3289 32.0698 81.1824 32.9541C81.0944 33.6615 81.2703 33.7794 82.6186 34.3099C84.4945 34.9879 85.4325 35.3416 85.1394 37.228C84.8462 39.3207 83.4979 39.9987 81.4169 39.9987C80.4203 39.9987 79.541 39.8513 78.6616 39.645L78.8375 38.3186C79.7754 38.5249 80.6548 38.6428 81.3582 38.6428C82.7359 38.6428 83.3807 38.2596 83.5273 37.1396C83.6445 36.3437 83.3514 36.1669 82.091 35.6953C80.0979 34.9584 79.3065 34.7226 79.5703 32.9246C79.8634 31.2445 80.7427 30.2129 83.2048 30.2129ZM92.5844 31.6867L92.7602 30.3897H88.3929H87.1325L85.8135 39.8513H87.367H91.4705L91.6464 38.5544H87.5429L87.9532 35.6658H91.8223L91.9981 34.3689H88.1291L88.5101 31.7456H92.5844V31.6867ZM99.8242 35.8721L99.7949 36.0195C99.4431 38.7018 98.7983 39.9987 96.0724 39.9987C92.8482 39.9987 92.3206 38.2007 92.7895 34.9879C93.2292 31.9225 94.1378 30.2129 97.3034 30.2129C98.1534 30.2129 99.0328 30.3308 99.8828 30.5076L99.7069 31.8635C98.8862 31.6867 98.0948 31.5982 97.4207 31.5982C95.3103 31.5982 94.7534 32.3941 94.3723 35.0468C94.0206 37.5522 94.2258 38.6133 96.131 38.6133C97.7431 38.6133 98.0362 37.9354 98.3 36.1079L98.3293 35.8721H96.7172L96.8931 34.6342H100L99.8242 35.8721Z" fill="white"/>
</svg>
