<?xml version="1.0" encoding="utf-8"?>
<!-- Generator: Adobe Illustrator 25.2.3, SVG Export Plug-In . SVG Version: 6.00 Build 0)  -->
<svg version="1.1" xmlns="http://www.w3.org/2000/svg" xmlns:xlink="http://www.w3.org/1999/xlink" x="0px" y="0px"
	 viewBox="0 0 859.5 787.5" style="enable-background:new 0 0 859.5 787.5;" xml:space="preserve">
<style type="text/css">
	.st0{fill:#C66C00;}
	.st1{fill:#995002;}
	.st2{fill:#FF9100;}
	.st3{enable-background:new    ;}
	.st4{clip-path:url(#SVGID_2_);}
	.st5{fill:#FFFFFF;}
	.st6{clip-path:url(#SVGID_4_);}
	.st7{fill:#FFC2B0;}
	.st8{fill:#1F3B82;}
	.st9{fill:#4C555B;}
	.st10{fill:#F09A82;}
	.st11{fill:#97CBFF;}
	.st12{fill:#45446C;}
	.st13{fill:#DBEDFF;}
	.st14{fill:#2C4482;}
	.st15{fill:#FF5C97;}
	.st16{opacity:0.4;fill:#A8C4E5;}
	.st17{fill:#9EBBDE;}
	.st18{fill:#21DED5;}
	.st19{fill:#C6D2F2;}
	.st20{fill:#6F9ED9;}
	.st21{fill:#8585FF;}
	.st22{fill:#DBEFFF;}
	.st23{fill:#BAD4F5;}
	.st24{fill:#D0E7F4;}
	.st25{opacity:0.43;fill:#FFFFFF;}
	.st26{fill:#86ABD9;}
	.st27{fill:#303030;}
	.st28{fill:none;stroke:#FFFFFF;stroke-width:2.8622;stroke-linecap:round;stroke-linejoin:round;stroke-miterlimit:10;}
	.st29{fill:#98C1F5;}
	.st30{fill:#A8C4E5;}
	.st31{fill:#E1EAF4;}
	.st32{fill:none;stroke:#FFFFFF;stroke-width:3.0903;stroke-linecap:round;stroke-linejoin:round;stroke-miterlimit:10;}
	.st33{fill:#8FB6EB;}
	.st34{fill:#AEC7E6;}
	.st35{fill:#3B2AD1;}
	.st36{fill:none;stroke:#FFFFFF;stroke-width:0.1067;stroke-miterlimit:10;}
	.st37{fill:#FAF3F3;}
	.st38{fill:#E1EBED;}
	.st39{fill:#306AC7;}
	.st40{fill:#2C1F9C;}
	.st41{fill:#473CA6;}
	.st42{fill:none;stroke:#FFFFFF;stroke-width:0.7933;stroke-miterlimit:10;}
</style>
<g id="background">
</g>
<g id="image">
	<g>
		<polygon class="st0" points="192.67,216.44 257.78,178.61 310.79,209.21 245.68,247.05 		"/>
	</g>
	<g>
		<polygon class="st0" points="299.74,329.26 364.85,291.42 364.65,360.52 299.54,398.36 		"/>
	</g>
	<g>
		<polygon class="st1" points="226.08,172.9 291.19,135.06 257.78,178.61 192.67,216.44 		"/>
	</g>
	<g>
		<polygon class="st0" points="328.77,295.02 393.87,257.18 393.73,308.09 328.62,345.93 		"/>
	</g>
	<g>
		<polygon class="st2" points="299.88,278.34 364.99,240.51 393.87,257.18 328.77,295.02 		"/>
	</g>
	<g class="st3">
		<defs>
			<path id="SVGID_1_" class="st3" d="M246.79,136.13L311.9,98.3c-6.38,12.26-13.54,24.51-20.71,36.77l-65.11,37.84
				C233.25,160.64,240.42,148.39,246.79,136.13z"/>
		</defs>
		<use xlink:href="#SVGID_1_"  style="overflow:visible;fill:#995002;"/>
		<clipPath id="SVGID_2_">
			<use xlink:href="#SVGID_1_"  style="overflow:visible;"/>
		</clipPath>
		<g class="st4">
			<path class="st0" d="M246.79,136.13L311.9,98.3c-6.38,12.26-13.54,24.51-20.71,36.77l-65.11,37.84
				C233.25,160.64,240.42,148.39,246.79,136.13"/>
		</g>
	</g>
	<g>
		<g>
			<polygon class="st0" points="300.36,109.68 365.47,71.85 364.99,240.51 299.88,278.34 			"/>
		</g>
	</g>
	<g>
		<g>
			<polygon class="st2" points="229.15,68.57 294.26,30.74 365.47,71.85 300.36,109.68 			"/>
		</g>
	</g>
	<g>
		<g>
			<path class="st5" d="M305.86,274.85l28.88,16.68l-0.14,50.91l-5.98,3.49l-22.91-20.17l-0.2,69.1l-5.98,3.49l-48.22-34.79
				l0.2-69.1l-108.79-62.81l0.13-45.91l86.3-117.17l5.98-3.49l71.21,41.11L305.86,274.85z M251.79,196.74
				c0.05-18.64,1.72-45.46,2.56-63.18l-1.58-0.91c-6.38,12.26-13.54,24.51-20.71,36.77l-33.41,43.55l53.01,30.6L251.79,196.74"/>
		</g>
	</g>
	<path class="st1" d="M462.5,437c0.36-0.16,0.71-0.33,1.06-0.52l69.03-37.84c-0.35,0.19-0.7,0.37-1.06,0.52
		c-0.12,0.05-0.24,0.09-0.37,0.14c-0.24,0.1-0.48,0.2-0.72,0.28c-0.33,0.11-0.66,0.21-1,0.3c-0.09,0.02-0.18,0.04-0.27,0.06
		c-0.24,0.06-0.48,0.11-0.72,0.15c-0.36,0.06-0.72,0.11-1.08,0.15c-0.06,0.01-0.13,0.02-0.19,0.02c-0.4,0.04-0.81,0.05-1.22,0.06
		c-0.22,0-0.44-0.01-0.66-0.02c-0.16-0.01-0.33,0-0.49-0.01c-0.38-0.02-0.75-0.06-1.14-0.11c-0.08-0.01-0.16-0.03-0.24-0.04
		c-0.3-0.04-0.61-0.09-0.91-0.15c-0.12-0.02-0.24-0.05-0.35-0.07c-0.26-0.05-0.53-0.11-0.79-0.17c-0.14-0.04-0.29-0.08-0.44-0.11
		c-0.24-0.06-0.48-0.13-0.73-0.2c-0.16-0.05-0.31-0.1-0.47-0.15c-0.24-0.08-0.47-0.15-0.71-0.24c-0.17-0.06-0.33-0.12-0.5-0.18
		c-0.24-0.09-0.48-0.18-0.72-0.28c-0.16-0.06-0.32-0.13-0.49-0.19c-0.23-0.1-0.46-0.2-0.7-0.3c-0.19-0.08-0.38-0.17-0.57-0.25
		c-0.22-0.1-0.44-0.21-0.65-0.31c-0.22-0.11-0.43-0.21-0.65-0.32c-0.39-0.2-0.77-0.4-1.16-0.61c-0.17-0.09-0.34-0.19-0.51-0.28
		c-0.3-0.17-0.6-0.34-0.9-0.52c-0.11-0.06-0.22-0.13-0.33-0.19c-0.39-0.23-0.77-0.47-1.16-0.72c-0.05-0.03-0.09-0.06-0.14-0.09
		c-0.33-0.21-0.65-0.43-0.97-0.65c-0.12-0.08-0.23-0.16-0.35-0.24c-0.26-0.18-0.52-0.37-0.78-0.56c-0.12-0.08-0.23-0.17-0.35-0.26
		c-0.3-0.23-0.6-0.46-0.9-0.7c-0.05-0.04-0.11-0.08-0.17-0.13c-0.35-0.28-0.69-0.56-1.03-0.85c-0.1-0.08-0.2-0.17-0.3-0.25
		c-0.25-0.21-0.49-0.43-0.74-0.65c-0.13-0.11-0.25-0.23-0.38-0.34c-0.19-0.18-0.38-0.36-0.58-0.54c-0.13-0.12-0.26-0.25-0.39-0.37
		c-0.19-0.18-0.37-0.36-0.56-0.55c-0.13-0.13-0.25-0.25-0.38-0.38c-0.2-0.2-0.39-0.4-0.58-0.61c-0.11-0.12-0.23-0.24-0.34-0.36
		c-0.23-0.25-0.46-0.5-0.69-0.76c-0.08-0.08-0.15-0.17-0.23-0.25c-0.3-0.34-0.6-0.69-0.9-1.05c-0.05-0.06-0.1-0.12-0.15-0.18
		c-0.28-0.34-0.56-0.69-0.84-1.04c-0.08-0.1-0.15-0.19-0.22-0.29c-0.53-0.69-1.06-1.4-1.58-2.13c-0.07-0.1-0.14-0.2-0.21-0.29
		c-0.38-0.55-0.77-1.12-1.14-1.7c-0.08-0.12-0.16-0.24-0.23-0.37c-0.23-0.37-0.47-0.74-0.7-1.12c-0.1-0.16-0.19-0.32-0.29-0.48
		c-0.25-0.41-0.49-0.83-0.73-1.25c-0.06-0.1-0.12-0.21-0.18-0.31c-0.29-0.52-0.58-1.05-0.87-1.58c-0.07-0.14-0.15-0.28-0.22-0.42
		c-0.22-0.41-0.43-0.83-0.64-1.25c-0.09-0.19-0.19-0.38-0.28-0.57c-0.18-0.36-0.36-0.73-0.53-1.1c-0.09-0.19-0.18-0.38-0.27-0.57
		c-0.21-0.45-0.41-0.9-0.62-1.36c-0.05-0.12-0.1-0.23-0.15-0.34c-0.26-0.6-0.52-1.2-0.77-1.82c-0.06-0.15-0.12-0.3-0.18-0.45
		c-0.23-0.55-0.45-1.12-0.67-1.69c-0.07-0.19-0.15-0.38-0.22-0.57c-0.27-0.71-0.54-1.43-0.8-2.17c-0.02-0.05-0.03-0.1-0.05-0.15
		c-0.31-0.88-0.62-1.78-0.92-2.7c-0.04-0.14-0.09-0.27-0.13-0.4c-0.3-0.94-0.6-1.91-0.89-2.9c-0.07-0.24-0.14-0.48-0.21-0.72
		c-0.1-0.33-0.19-0.66-0.28-0.99c-0.09-0.32-0.18-0.65-0.27-0.97c-0.09-0.34-0.18-0.67-0.27-1.01c-0.09-0.32-0.17-0.65-0.26-0.97
		c-0.11-0.41-0.21-0.82-0.31-1.23c-0.08-0.31-0.16-0.62-0.23-0.93c-0.1-0.42-0.2-0.85-0.31-1.28c-0.07-0.31-0.15-0.62-0.22-0.93
		c-0.13-0.58-0.26-1.18-0.39-1.78c-0.04-0.21-0.09-0.41-0.14-0.62c-0.17-0.81-0.34-1.62-0.51-2.45c-0.03-0.15-0.06-0.3-0.09-0.45
		c-0.15-0.75-0.29-1.51-0.43-2.28c-0.05-0.29-0.11-0.59-0.16-0.89c-0.12-0.66-0.24-1.33-0.35-2c-0.05-0.29-0.1-0.57-0.14-0.86
		c-0.17-1.04-0.34-2.1-0.5-3.17c-0.03-0.17-0.05-0.34-0.08-0.51c-0.14-0.94-0.27-1.89-0.4-2.85c-0.04-0.28-0.08-0.56-0.11-0.84
		c-0.16-1.24-0.32-2.49-0.47-3.77c-0.02-0.21-0.05-0.43-0.07-0.64c-0.14-1.21-0.27-2.44-0.4-3.69c-0.02-0.19-0.04-0.38-0.06-0.58
		c-0.04-0.37-0.07-0.74-0.11-1.12c-0.05-0.54-0.11-1.09-0.16-1.64c-0.04-0.4-0.07-0.8-0.11-1.2c-0.05-0.53-0.09-1.07-0.14-1.61
		c-0.03-0.42-0.07-0.84-0.1-1.27c-0.04-0.53-0.08-1.07-0.12-1.61c-0.03-0.44-0.06-0.88-0.09-1.32c-0.04-0.51-0.07-1.02-0.1-1.54
		c-0.04-0.65-0.08-1.31-0.12-1.97c-0.03-0.44-0.05-0.87-0.08-1.31c-0.04-0.71-0.08-1.43-0.11-2.15c-0.02-0.4-0.04-0.79-0.06-1.2
		c-0.04-0.89-0.08-1.79-0.12-2.69c-0.01-0.25-0.02-0.49-0.03-0.74c-0.05-1.15-0.09-2.32-0.12-3.5c-0.01-0.23-0.01-0.47-0.02-0.7
		c-0.03-1.04-0.06-2.09-0.08-3.14c-0.01-0.43-0.02-0.86-0.03-1.3c-0.02-0.89-0.03-1.78-0.05-2.68c-0.01-0.47-0.01-0.94-0.02-1.41
		c-0.01-0.93-0.02-1.86-0.03-2.8c0-0.42-0.01-0.84-0.01-1.27c-0.01-1.36-0.01-2.73,0-4.13c0-1,0.01-1.96,0.02-2.94
		c0.01-0.81,0.01-1.61,0.02-2.4c0.01-0.76,0.02-1.51,0.04-2.26c0.01-0.77,0.03-1.55,0.04-2.31c0.02-0.74,0.04-1.46,0.06-2.18
		c0.02-0.75,0.04-1.49,0.06-2.23c0.02-0.7,0.05-1.39,0.07-2.08c0.03-0.72,0.05-1.44,0.08-2.15c0.04-0.84,0.07-1.66,0.12-2.48
		c0.02-0.42,0.04-0.85,0.06-1.26c0.06-1.15,0.13-2.27,0.2-3.38c0.01-0.09,0.01-0.19,0.02-0.28c0.08-1.19,0.16-2.36,0.25-3.51
		c0.03-0.36,0.06-0.71,0.09-1.07c0.06-0.8,0.13-1.59,0.2-2.37c0.03-0.31,0.06-0.62,0.08-0.92c0.07-0.79,0.15-1.57,0.23-2.33
		c0.03-0.28,0.06-0.57,0.09-0.84c0.11-1,0.22-1.99,0.33-2.95c0.01-0.1,0.02-0.19,0.04-0.29c0.11-0.88,0.22-1.73,0.33-2.58
		c0.03-0.23,0.06-0.45,0.09-0.68c0.12-0.83,0.23-1.64,0.36-2.44c0.01-0.08,0.02-0.16,0.04-0.24c0.13-0.86,0.27-1.69,0.41-2.51
		c0.04-0.2,0.07-0.4,0.11-0.61c0.14-0.81,0.29-1.6,0.44-2.37c0-0.02,0.01-0.03,0.01-0.04c0.15-0.77,0.31-1.52,0.47-2.26
		c0.03-0.15,0.06-0.3,0.1-0.44c0.15-0.69,0.31-1.37,0.47-2.03c0.18-0.76,0.37-1.5,0.57-2.22c0.02-0.09,0.05-0.19,0.07-0.28
		c0.22-0.8,0.45-1.58,0.68-2.33c0.08-0.25,0.16-0.48,0.23-0.73c0.15-0.48,0.31-0.96,0.47-1.42c0.09-0.27,0.19-0.53,0.29-0.8
		c0.15-0.41,0.3-0.82,0.45-1.21c0.1-0.26,0.21-0.52,0.31-0.78c0.16-0.38,0.31-0.76,0.47-1.13c0.11-0.25,0.21-0.49,0.32-0.73
		c0.16-0.36,0.33-0.71,0.5-1.05c0.1-0.21,0.21-0.43,0.32-0.64c0.26-0.51,0.53-1.01,0.8-1.48c0.04-0.07,0.08-0.14,0.12-0.21
		c0.31-0.53,0.63-1.04,0.96-1.52c0.19-0.28,0.37-0.54,0.56-0.81c0.06-0.09,0.13-0.18,0.19-0.27c0.27-0.35,0.53-0.69,0.81-1.02
		c0.06-0.08,0.13-0.15,0.2-0.22c0.21-0.24,0.42-0.48,0.63-0.7c0.1-0.1,0.2-0.2,0.3-0.3c0.18-0.18,0.37-0.37,0.55-0.54
		c0.11-0.1,0.22-0.2,0.33-0.29c0.18-0.16,0.37-0.32,0.56-0.47c0.11-0.09,0.22-0.17,0.33-0.26c0.2-0.15,0.41-0.3,0.61-0.44
		c0.09-0.06,0.19-0.13,0.28-0.19c0.3-0.2,0.6-0.38,0.91-0.55l0,0c0,0,0,0,0,0l-69.03,37.84c-0.31,0.17-0.61,0.35-0.91,0.55
		c-0.1,0.06-0.19,0.13-0.29,0.2c-0.2,0.14-0.41,0.28-0.61,0.44c-0.11,0.08-0.22,0.17-0.33,0.26c-0.19,0.15-0.37,0.3-0.55,0.46
		c-0.11,0.1-0.22,0.2-0.33,0.3c-0.19,0.17-0.37,0.35-0.55,0.53c-0.1,0.1-0.2,0.2-0.3,0.31c-0.21,0.22-0.42,0.46-0.63,0.7
		c-0.07,0.08-0.13,0.15-0.2,0.22c-0.27,0.32-0.54,0.66-0.8,1.02c-0.07,0.09-0.13,0.18-0.2,0.28c-0.16,0.22-0.32,0.44-0.48,0.67
		c-0.03,0.04-0.05,0.09-0.08,0.13c-0.32,0.48-0.64,0.99-0.96,1.52c-0.04,0.07-0.08,0.14-0.12,0.21c-0.27,0.47-0.54,0.97-0.8,1.48
		c-0.04,0.07-0.07,0.13-0.11,0.2c-0.07,0.14-0.14,0.29-0.2,0.43c-0.17,0.34-0.33,0.69-0.5,1.05c-0.11,0.24-0.21,0.48-0.32,0.72
		c-0.16,0.37-0.32,0.75-0.47,1.14c-0.06,0.16-0.13,0.3-0.19,0.46c-0.04,0.1-0.08,0.21-0.12,0.32c-0.15,0.39-0.3,0.8-0.45,1.21
		c-0.1,0.27-0.19,0.53-0.29,0.8c-0.16,0.46-0.31,0.94-0.47,1.42c-0.07,0.2-0.13,0.39-0.2,0.6c-0.01,0.04-0.02,0.09-0.04,0.13
		c-0.23,0.75-0.46,1.53-0.68,2.33c-0.02,0.08-0.04,0.17-0.07,0.26c-0.2,0.73-0.39,1.47-0.57,2.24c-0.02,0.06-0.03,0.12-0.05,0.18
		c-0.14,0.6-0.28,1.21-0.42,1.84c-0.03,0.15-0.06,0.29-0.1,0.44c-0.16,0.74-0.32,1.48-0.47,2.25c0,0.02-0.01,0.04-0.01,0.06
		c-0.11,0.54-0.21,1.09-0.31,1.65c-0.04,0.23-0.08,0.47-0.12,0.71c-0.04,0.2-0.07,0.41-0.11,0.61c-0.14,0.82-0.28,1.66-0.41,2.51
		c-0.01,0.08-0.02,0.16-0.04,0.23c-0.12,0.8-0.24,1.61-0.36,2.44c-0.03,0.22-0.06,0.45-0.09,0.67c-0.03,0.2-0.05,0.39-0.08,0.59
		c-0.09,0.65-0.17,1.32-0.25,1.99c-0.01,0.1-0.02,0.19-0.04,0.29c-0.12,0.96-0.22,1.94-0.33,2.94c-0.03,0.28-0.06,0.57-0.09,0.86
		c-0.08,0.76-0.15,1.53-0.22,2.31c-0.03,0.31-0.06,0.62-0.09,0.94c-0.02,0.19-0.04,0.38-0.05,0.57c-0.05,0.58-0.1,1.19-0.14,1.78
		c-0.03,0.36-0.06,0.71-0.09,1.08c-0.09,1.15-0.17,2.32-0.25,3.51c0,0.07-0.01,0.15-0.01,0.22c-0.07,1.13-0.14,2.27-0.2,3.44
		c-0.02,0.41-0.04,0.83-0.06,1.25c-0.03,0.63-0.06,1.25-0.09,1.89c-0.01,0.2-0.01,0.4-0.02,0.6c-0.03,0.71-0.06,1.43-0.08,2.15
		c-0.03,0.69-0.05,1.38-0.07,2.08c-0.02,0.73-0.04,1.48-0.06,2.23c-0.02,0.72-0.04,1.44-0.06,2.18c-0.02,0.76-0.03,1.54-0.04,2.31
		c-0.01,0.75-0.03,1.5-0.04,2.26c-0.01,0.79-0.02,1.6-0.02,2.4c0,0.58-0.01,1.15-0.02,1.74c0,0.4,0,0.8,0,1.2c0,1.39,0,2.77,0,4.13
		c0,0.43,0.01,0.85,0.01,1.27c0.01,0.94,0.01,1.88,0.03,2.8c0.01,0.47,0.01,0.94,0.02,1.41c0.01,0.9,0.03,1.79,0.05,2.68
		c0.01,0.43,0.02,0.87,0.03,1.3c0.02,1.06,0.05,2.11,0.08,3.14c0.01,0.2,0.01,0.4,0.02,0.59c0,0.04,0,0.07,0,0.11
		c0.04,1.18,0.08,2.34,0.12,3.49c0.01,0.27,0.02,0.54,0.04,0.81c0.04,0.88,0.07,1.75,0.12,2.61c0.02,0.42,0.04,0.82,0.06,1.24
		c0.04,0.71,0.07,1.41,0.11,2.11c0.03,0.45,0.05,0.9,0.08,1.34c0.04,0.65,0.08,1.3,0.12,1.93c0.01,0.18,0.02,0.37,0.03,0.55
		c0.02,0.34,0.05,0.68,0.07,1.02c0.03,0.43,0.06,0.86,0.09,1.29c0.04,0.55,0.08,1.09,0.12,1.63c0.03,0.42,0.07,0.84,0.1,1.25
		c0.04,0.54,0.09,1.08,0.14,1.61c0.04,0.4,0.07,0.8,0.11,1.2c0.05,0.55,0.1,1.09,0.16,1.64c0.04,0.37,0.07,0.75,0.11,1.12
		c0.01,0.07,0.01,0.14,0.02,0.21c0.01,0.13,0.03,0.25,0.04,0.37c0.13,1.24,0.26,2.47,0.4,3.68c0.03,0.22,0.05,0.44,0.08,0.66
		c0.15,1.27,0.31,2.53,0.47,3.76c0.02,0.12,0.03,0.24,0.04,0.35c0.02,0.17,0.05,0.32,0.07,0.49c0.13,0.96,0.26,1.9,0.4,2.84
		c0.03,0.18,0.05,0.36,0.08,0.53c0.16,1.07,0.33,2.13,0.5,3.17c0.02,0.1,0.03,0.2,0.05,0.3c0.03,0.19,0.07,0.37,0.1,0.56
		c0.11,0.67,0.23,1.34,0.35,2c0.05,0.3,0.11,0.59,0.16,0.89c0.14,0.77,0.29,1.53,0.43,2.28c0.02,0.12,0.05,0.25,0.07,0.37
		c0.01,0.03,0.01,0.05,0.02,0.08c0.17,0.83,0.33,1.65,0.51,2.45c0.04,0.21,0.09,0.41,0.14,0.62c0.13,0.6,0.26,1.19,0.39,1.78
		c0.02,0.09,0.04,0.18,0.06,0.26c0.05,0.23,0.11,0.44,0.16,0.67c0.1,0.43,0.2,0.85,0.3,1.28c0.08,0.32,0.16,0.63,0.23,0.95
		c0.1,0.41,0.21,0.82,0.31,1.22c0.04,0.14,0.07,0.28,0.11,0.42c0.05,0.19,0.1,0.37,0.15,0.55c0.09,0.34,0.18,0.67,0.27,1.01
		c0.09,0.33,0.18,0.66,0.27,0.99c0.09,0.33,0.19,0.66,0.28,0.98c0.04,0.15,0.08,0.3,0.13,0.44c0.03,0.1,0.06,0.18,0.09,0.28
		c0.29,0.99,0.59,1.95,0.89,2.9c0.01,0.05,0.03,0.09,0.04,0.14c0.03,0.09,0.06,0.18,0.09,0.27c0.3,0.92,0.6,1.82,0.91,2.7
		c0.01,0.04,0.02,0.07,0.04,0.11c0,0.01,0.01,0.02,0.01,0.04c0.26,0.74,0.53,1.46,0.8,2.17c0.03,0.08,0.06,0.16,0.09,0.24
		c0.04,0.11,0.09,0.22,0.13,0.33c0.22,0.57,0.44,1.13,0.67,1.68c0.04,0.1,0.08,0.21,0.13,0.32c0.02,0.05,0.04,0.09,0.06,0.13
		c0.26,0.62,0.51,1.22,0.77,1.82c0.01,0.02,0.01,0.03,0.02,0.05c0.04,0.1,0.09,0.19,0.13,0.29c0.2,0.46,0.41,0.92,0.62,1.37
		c0.03,0.06,0.06,0.13,0.08,0.19c0.06,0.13,0.12,0.25,0.18,0.38c0.18,0.37,0.35,0.74,0.53,1.1c0.05,0.1,0.1,0.2,0.15,0.3
		c0.05,0.09,0.09,0.18,0.14,0.27c0.21,0.42,0.43,0.84,0.64,1.25c0.05,0.1,0.11,0.21,0.16,0.31c0.02,0.04,0.04,0.07,0.06,0.11
		c0.29,0.54,0.58,1.07,0.87,1.59c0.01,0.02,0.02,0.05,0.04,0.07c0.05,0.08,0.1,0.16,0.14,0.24c0.24,0.42,0.49,0.84,0.73,1.25
		c0.1,0.16,0.19,0.32,0.29,0.48c0.23,0.38,0.46,0.75,0.7,1.12c0.06,0.09,0.11,0.19,0.17,0.28c0.02,0.03,0.04,0.06,0.06,0.09
		c0.38,0.58,0.76,1.15,1.14,1.7c0.04,0.05,0.07,0.11,0.11,0.16c0.03,0.05,0.07,0.09,0.1,0.13c0.52,0.74,1.04,1.45,1.58,2.13
		c0.03,0.04,0.06,0.09,0.1,0.13c0.04,0.05,0.08,0.1,0.13,0.16c0.28,0.35,0.56,0.7,0.84,1.05c0.04,0.05,0.08,0.1,0.12,0.15
		c0.01,0.01,0.02,0.02,0.03,0.03c0.3,0.36,0.6,0.71,0.9,1.05c0.01,0.01,0.02,0.02,0.02,0.03c0.07,0.08,0.14,0.15,0.2,0.22
		c0.23,0.26,0.46,0.51,0.69,0.76c0.02,0.03,0.05,0.06,0.07,0.08c0.09,0.1,0.18,0.19,0.27,0.28c0.19,0.2,0.39,0.41,0.58,0.61
		c0.04,0.04,0.08,0.09,0.12,0.13c0.08,0.09,0.17,0.17,0.25,0.25c0.19,0.19,0.37,0.37,0.56,0.55c0.06,0.06,0.11,0.11,0.17,0.17
		c0.07,0.07,0.15,0.14,0.22,0.2c0.19,0.18,0.38,0.36,0.57,0.54c0.07,0.07,0.14,0.14,0.22,0.2c0.05,0.05,0.11,0.09,0.16,0.14
		c0.25,0.22,0.49,0.44,0.74,0.65c0.07,0.06,0.15,0.13,0.22,0.19c0.02,0.02,0.05,0.04,0.07,0.06c0.34,0.29,0.69,0.57,1.03,0.85
		c0.01,0.01,0.02,0.01,0.02,0.02c0.04,0.04,0.09,0.07,0.13,0.1c0.3,0.24,0.61,0.47,0.91,0.7c0.04,0.03,0.08,0.07,0.13,0.1
		c0.07,0.05,0.14,0.1,0.22,0.15c0.26,0.19,0.52,0.38,0.79,0.56c0.07,0.05,0.14,0.1,0.21,0.15c0.05,0.03,0.09,0.06,0.14,0.09
		c0.32,0.22,0.65,0.44,0.97,0.65c0.04,0.03,0.08,0.05,0.12,0.08c0.01,0,0.01,0.01,0.02,0.01c0.38,0.25,0.77,0.49,1.16,0.72
		c0.04,0.02,0.08,0.05,0.12,0.07c0.07,0.04,0.14,0.08,0.21,0.12c0.3,0.18,0.6,0.35,0.9,0.52c0.07,0.04,0.13,0.08,0.2,0.12
		c0.1,0.06,0.2,0.11,0.3,0.17c0.34,0.18,0.68,0.36,1.01,0.54c0.05,0.02,0.1,0.05,0.14,0.07c0.22,0.11,0.44,0.22,0.66,0.32
		c0.17,0.08,0.34,0.17,0.51,0.25c0.05,0.02,0.1,0.04,0.15,0.06c0.19,0.09,0.38,0.17,0.57,0.25c0.17,0.08,0.35,0.16,0.52,0.23
		c0.06,0.03,0.12,0.05,0.18,0.07c0.16,0.07,0.32,0.13,0.49,0.2c0.16,0.06,0.32,0.13,0.47,0.19c0.08,0.03,0.17,0.06,0.25,0.09
		c0.17,0.06,0.33,0.12,0.5,0.18c0.13,0.04,0.25,0.09,0.38,0.13c0.11,0.04,0.22,0.07,0.33,0.1c0.16,0.05,0.31,0.1,0.47,0.15
		c0.09,0.03,0.19,0.06,0.28,0.09c0.15,0.04,0.3,0.08,0.44,0.12c0.15,0.04,0.29,0.08,0.44,0.11c0.06,0.01,0.12,0.03,0.18,0.05
		c0.21,0.05,0.41,0.09,0.61,0.13c0.12,0.02,0.24,0.05,0.35,0.07c0.03,0,0.05,0.01,0.08,0.02c0.28,0.05,0.56,0.09,0.83,0.13
		c0.08,0.01,0.16,0.03,0.24,0.04c0.01,0,0.01,0,0.02,0c0.36,0.05,0.73,0.08,1.08,0.1c0.01,0,0.02,0,0.03,0
		c0.16,0.01,0.33,0.01,0.49,0.01c0.21,0.01,0.42,0.02,0.63,0.02c0.01,0,0.02,0,0.04,0c0.41,0,0.82-0.02,1.22-0.06
		c0.01,0,0.02,0,0.03,0c0.06-0.01,0.11-0.02,0.16-0.02c0.36-0.04,0.72-0.09,1.08-0.15c0.04-0.01,0.09-0.01,0.14-0.02
		c0.2-0.04,0.39-0.09,0.59-0.13c0.09-0.02,0.18-0.04,0.26-0.06c0.32-0.08,0.64-0.18,0.96-0.28c0.01,0,0.02-0.01,0.04-0.01
		c0.24-0.08,0.48-0.18,0.72-0.28C462.25,437.09,462.38,437.05,462.5,437z"/>
	<path class="st0" d="M597.66,343.63c-0.01-0.53-0.01-1.07-0.02-1.6c-0.02-1.52-0.06-3.04-0.1-4.54c-0.01-0.3-0.01-0.6-0.02-0.89
		c0-0.12-0.01-0.23-0.01-0.35c-0.06-1.84-0.13-3.67-0.21-5.49c-0.02-0.42-0.04-0.84-0.06-1.26c-0.07-1.45-0.15-2.9-0.24-4.34
		c-0.02-0.29-0.03-0.59-0.05-0.88c-0.02-0.24-0.04-0.48-0.05-0.72c-0.09-1.38-0.19-2.74-0.29-4.11c-0.03-0.35-0.05-0.7-0.08-1.04
		c-0.13-1.69-0.28-3.37-0.44-5.04c-0.01-0.11-0.02-0.22-0.03-0.34c-0.03-0.36-0.07-0.71-0.11-1.07c-0.11-1.14-0.23-2.28-0.35-3.41
		c-0.06-0.57-0.13-1.14-0.19-1.7c-0.12-1.06-0.25-2.12-0.38-3.17c-0.04-0.34-0.08-0.68-0.12-1.02c-0.03-0.22-0.06-0.43-0.09-0.65
		c-0.13-1.03-0.27-2.05-0.41-3.06c-0.07-0.49-0.13-0.99-0.2-1.48c-0.21-1.46-0.43-2.92-0.65-4.37c-0.01-0.03-0.01-0.07-0.02-0.1
		c0,0,0-0.01,0-0.01c-0.23-1.43-0.46-2.85-0.7-4.27c-0.08-0.47-0.17-0.93-0.25-1.4c-0.17-0.95-0.33-1.89-0.51-2.83
		c-0.02-0.13-0.05-0.27-0.07-0.4c-0.08-0.45-0.18-0.9-0.26-1.35c-0.15-0.78-0.3-1.55-0.45-2.32c-0.12-0.6-0.25-1.2-0.37-1.79
		c-0.16-0.75-0.31-1.5-0.47-2.25c-0.05-0.21-0.09-0.43-0.14-0.65c-0.04-0.17-0.08-0.33-0.12-0.5c-0.52-2.36-1.06-4.69-1.63-7
		c-0.03-0.14-0.06-0.28-0.1-0.42c-0.04-0.17-0.09-0.34-0.14-0.52c-0.53-2.13-1.09-4.25-1.66-6.34c-0.03-0.13-0.07-0.26-0.1-0.38
		c-0.05-0.18-0.11-0.35-0.16-0.53c-0.56-2.01-1.14-4.01-1.74-5.98c-0.02-0.08-0.05-0.17-0.07-0.25c-0.05-0.17-0.11-0.34-0.16-0.51
		c-0.58-1.88-1.17-3.74-1.79-5.58c-0.02-0.05-0.03-0.11-0.05-0.16c-0.01-0.02-0.01-0.03-0.02-0.05c-0.57-1.69-1.15-3.36-1.75-5.02
		c-0.07-0.19-0.13-0.39-0.2-0.58c-0.06-0.16-0.12-0.32-0.18-0.49c-0.57-1.55-1.14-3.09-1.73-4.62c-0.02-0.05-0.04-0.11-0.06-0.17
		c-0.07-0.17-0.14-0.34-0.21-0.52c-0.49-1.26-0.99-2.5-1.5-3.73c-0.09-0.21-0.17-0.42-0.25-0.63c-0.07-0.17-0.15-0.33-0.22-0.5
		c-0.56-1.34-1.13-2.67-1.71-3.99c-0.01-0.03-0.02-0.06-0.04-0.09c0,0,0-0.01-0.01-0.01c-0.6-1.37-1.22-2.72-1.85-4.06
		c-0.07-0.16-0.15-0.33-0.22-0.49c-0.09-0.19-0.19-0.38-0.28-0.57c-0.59-1.25-1.19-2.5-1.8-3.72c-0.06-0.12-0.12-0.25-0.18-0.38
		c-0.02-0.03-0.04-0.07-0.05-0.1c-0.74-1.47-1.49-2.92-2.25-4.36c-0.09-0.16-0.17-0.33-0.25-0.49c-0.1-0.19-0.21-0.38-0.32-0.58
		c-0.41-0.76-0.82-1.51-1.24-2.26c-0.2-0.37-0.41-0.74-0.61-1.1c-0.54-0.96-1.09-1.92-1.64-2.86c-0.07-0.12-0.14-0.24-0.21-0.36
		c-0.01-0.01-0.01-0.02-0.02-0.04c-0.96-1.62-1.93-3.22-2.92-4.8c-0.12-0.18-0.23-0.37-0.35-0.55c-0.95-1.5-1.92-2.98-2.91-4.44
		c-0.09-0.13-0.18-0.27-0.27-0.4c-0.11-0.16-0.22-0.32-0.33-0.48c-0.33-0.48-0.66-0.96-0.99-1.43c-0.3-0.43-0.59-0.85-0.89-1.27
		c-0.33-0.47-0.67-0.94-1.01-1.4c-0.21-0.29-0.41-0.58-0.62-0.86c-0.06-0.09-0.13-0.17-0.19-0.25c-0.97-1.32-1.96-2.62-2.96-3.9
		c-0.09-0.11-0.17-0.23-0.26-0.34c-0.12-0.15-0.25-0.3-0.37-0.45c-0.71-0.89-1.42-1.78-2.15-2.65c-0.11-0.13-0.21-0.26-0.31-0.39
		c-0.03-0.04-0.07-0.08-0.1-0.11c-0.84-1.01-1.7-2.01-2.56-2.99c-0.08-0.09-0.16-0.18-0.23-0.27c-0.14-0.16-0.29-0.32-0.43-0.48
		c-0.68-0.77-1.38-1.54-2.07-2.29c-0.15-0.16-0.29-0.32-0.43-0.48c-0.08-0.08-0.16-0.17-0.24-0.25c-0.88-0.94-1.76-1.87-2.66-2.78
		c-0.04-0.04-0.07-0.07-0.11-0.11c-0.1-0.1-0.21-0.2-0.31-0.3c-0.85-0.86-1.72-1.71-2.58-2.55c-0.14-0.13-0.27-0.27-0.4-0.4
		c-0.09-0.09-0.19-0.18-0.28-0.26c-0.98-0.93-1.96-1.85-2.96-2.75c-0.05-0.04-0.09-0.08-0.14-0.13c-0.11-0.1-0.23-0.2-0.34-0.3
		c-0.93-0.83-1.87-1.65-2.82-2.46c-0.13-0.11-0.27-0.24-0.4-0.35c-0.07-0.06-0.15-0.12-0.22-0.18c-1.05-0.88-2.11-1.75-3.18-2.6
		c-0.08-0.07-0.17-0.14-0.25-0.2c-0.14-0.11-0.28-0.21-0.42-0.32c-1-0.78-2-1.55-3.01-2.3c-0.1-0.07-0.19-0.15-0.29-0.22
		c-0.03-0.02-0.07-0.05-0.1-0.07c-1.1-0.81-2.21-1.59-3.33-2.36c-0.12-0.08-0.24-0.17-0.36-0.26c-0.13-0.09-0.27-0.18-0.4-0.27
		c-1.14-0.77-2.28-1.53-3.43-2.27c-0.01-0.01-0.03-0.02-0.04-0.03c-0.05-0.03-0.11-0.07-0.16-0.1c-1.11-0.7-2.23-1.38-3.35-2.05
		c-0.15-0.09-0.29-0.18-0.44-0.27c-0.31-0.18-0.61-0.36-0.92-0.54c-0.89-0.51-1.77-1-2.65-1.48c-0.11-0.06-0.21-0.12-0.32-0.18
		c-0.22-0.12-0.43-0.23-0.65-0.34c-0.29-0.16-0.59-0.31-0.88-0.47c-0.37-0.2-0.75-0.39-1.12-0.58c-0.29-0.15-0.58-0.29-0.86-0.44
		c-0.1-0.05-0.2-0.1-0.29-0.15c-0.1-0.05-0.2-0.09-0.3-0.14c-1.09-0.54-2.18-1.05-3.26-1.54c-0.01-0.01-0.02-0.01-0.04-0.02
		c-0.04-0.02-0.08-0.03-0.11-0.05c-1.03-0.46-2.06-0.89-3.08-1.31c-0.09-0.04-0.19-0.08-0.28-0.12c-0.05-0.02-0.09-0.03-0.14-0.05
		c-0.99-0.4-1.98-0.76-2.96-1.11c-0.1-0.03-0.19-0.08-0.29-0.11c-0.09-0.03-0.18-0.06-0.27-0.09c-0.96-0.34-1.92-0.65-2.87-0.94
		c-0.05-0.02-0.1-0.04-0.15-0.05c-0.1-0.03-0.19-0.05-0.28-0.08c-0.97-0.29-1.94-0.56-2.89-0.8c-0.03-0.01-0.06-0.02-0.08-0.02
		c-0.01,0-0.02,0-0.02-0.01c-1-0.25-1.99-0.47-2.97-0.66c-0.09-0.02-0.19-0.04-0.28-0.06c-0.09-0.02-0.17-0.03-0.26-0.05
		c-0.23-0.04-0.46-0.08-0.7-0.12c-0.35-0.06-0.69-0.12-1.04-0.18c-0.24-0.04-0.48-0.07-0.71-0.11c-0.17-0.03-0.35-0.06-0.52-0.08
		c-0.15-0.02-0.3-0.03-0.44-0.05c-0.28-0.04-0.56-0.07-0.84-0.1c-0.31-0.03-0.61-0.06-0.91-0.09c-0.28-0.03-0.56-0.05-0.83-0.07
		c-0.14-0.01-0.28-0.03-0.42-0.04c-0.16-0.01-0.32-0.01-0.47-0.02c-0.29-0.02-0.57-0.03-0.85-0.04c-0.29-0.01-0.58-0.02-0.87-0.03
		c-0.28-0.01-0.56-0.01-0.84-0.01c-0.13,0-0.26-0.01-0.38-0.01c-0.14,0-0.27,0.01-0.4,0.01c-0.38,0-0.75,0.01-1.13,0.03
		c-0.24,0.01-0.48,0.02-0.72,0.03c-0.38,0.02-0.77,0.05-1.15,0.08c-0.16,0.01-0.32,0.02-0.48,0.03c-0.06,0.01-0.11,0.01-0.17,0.02
		c-0.65,0.06-1.3,0.14-1.94,0.23c-0.09,0.01-0.17,0.03-0.26,0.04c-0.56,0.08-1.11,0.18-1.66,0.29c-0.08,0.02-0.16,0.03-0.24,0.04
		c-0.09,0.02-0.17,0.04-0.26,0.06c-0.79,0.17-1.57,0.35-2.34,0.56c-0.04,0.01-0.08,0.03-0.13,0.04c-0.75,0.21-1.49,0.45-2.22,0.7
		c-0.08,0.03-0.17,0.05-0.25,0.08c-0.07,0.02-0.13,0.05-0.2,0.07c-0.3,0.11-0.6,0.23-0.89,0.34c-0.22,0.09-0.44,0.17-0.65,0.26
		c-0.31,0.13-0.61,0.26-0.92,0.4c-0.2,0.09-0.4,0.18-0.6,0.27c-0.34,0.16-0.67,0.32-1,0.49c-0.17,0.08-0.33,0.16-0.5,0.25
		c-0.49,0.26-0.98,0.53-1.47,0.81l-65.11,37.84c0.48-0.28,0.97-0.55,1.47-0.81c0.16-0.09,0.33-0.16,0.5-0.25
		c0.33-0.17,0.66-0.33,1-0.49c0.2-0.09,0.4-0.18,0.6-0.27c0.3-0.14,0.61-0.27,0.92-0.4c0.22-0.09,0.44-0.17,0.66-0.26
		c0.3-0.12,0.59-0.23,0.89-0.34c0.15-0.05,0.3-0.1,0.45-0.15c0.73-0.25,1.47-0.49,2.21-0.7c0.04-0.01,0.08-0.03,0.13-0.04
		c0.77-0.21,1.55-0.4,2.34-0.56c0.17-0.04,0.33-0.07,0.5-0.1c0.55-0.11,1.1-0.2,1.66-0.29c0.09-0.01,0.17-0.03,0.26-0.04
		c0.64-0.09,1.29-0.17,1.94-0.23c0.21-0.02,0.43-0.04,0.65-0.05c0.38-0.03,0.76-0.06,1.15-0.08c0.24-0.01,0.48-0.02,0.72-0.03
		c0.37-0.01,0.75-0.02,1.13-0.03c0.26,0,0.52-0.01,0.78,0c0.28,0,0.56,0.01,0.84,0.01c0.29,0.01,0.58,0.01,0.87,0.03
		c0.28,0.01,0.57,0.03,0.85,0.04c0.3,0.02,0.59,0.04,0.89,0.06c0.28,0.02,0.55,0.04,0.83,0.07c0.3,0.03,0.61,0.06,0.91,0.09
		c0.28,0.03,0.56,0.06,0.84,0.1c0.32,0.04,0.64,0.08,0.97,0.13c0.24,0.03,0.48,0.07,0.71,0.11c0.34,0.05,0.69,0.11,1.03,0.18
		c0.23,0.04,0.46,0.08,0.7,0.12c0.18,0.03,0.36,0.07,0.54,0.11c0.98,0.2,1.97,0.41,2.97,0.66c0.04,0.01,0.07,0.02,0.11,0.03
		c0.96,0.24,1.92,0.51,2.89,0.8c0.15,0.04,0.29,0.08,0.44,0.13c0.95,0.29,1.9,0.6,2.87,0.94c0.19,0.06,0.37,0.13,0.56,0.2
		c0.98,0.35,1.96,0.72,2.96,1.11c0.14,0.06,0.28,0.11,0.42,0.17c1.02,0.41,2.04,0.84,3.07,1.31c0.05,0.02,0.1,0.04,0.16,0.07
		c1.08,0.48,2.16,1,3.25,1.54c0.2,0.1,0.4,0.19,0.6,0.29c0.28,0.14,0.57,0.29,0.85,0.43c0.38,0.19,0.75,0.38,1.13,0.58
		c0.29,0.15,0.58,0.31,0.87,0.46c0.33,0.17,0.65,0.35,0.98,0.53c0.88,0.48,1.76,0.97,2.65,1.48c0.46,0.26,0.91,0.54,1.36,0.8
		c1.12,0.67,2.24,1.35,3.34,2.05c0.07,0.05,0.14,0.09,0.21,0.13c1.15,0.73,2.3,1.49,3.43,2.27c0.26,0.17,0.51,0.35,0.76,0.52
		c1.12,0.77,2.23,1.56,3.33,2.36c0.13,0.1,0.26,0.2,0.4,0.3c1.01,0.75,2.01,1.51,3.01,2.29c0.22,0.18,0.45,0.35,0.67,0.53
		c1.07,0.85,2.13,1.71,3.18,2.59c0.21,0.18,0.42,0.36,0.63,0.53c0.94,0.8,1.88,1.62,2.81,2.45c0.16,0.14,0.32,0.28,0.48,0.43
		c1,0.9,1.98,1.82,2.96,2.75c0.23,0.22,0.46,0.44,0.69,0.67c0.87,0.84,1.73,1.69,2.58,2.55c0.14,0.14,0.28,0.27,0.41,0.41
		c0.89,0.91,1.78,1.84,2.66,2.78c0.22,0.24,0.45,0.48,0.67,0.73c0.7,0.76,1.39,1.52,2.07,2.29c0.22,0.25,0.45,0.5,0.67,0.76
		c0.86,0.98,1.71,1.98,2.56,2.99c0.14,0.16,0.27,0.33,0.41,0.5c0.72,0.87,1.44,1.76,2.15,2.66c0.21,0.26,0.42,0.53,0.63,0.79
		c1,1.28,1.99,2.58,2.96,3.9c0.27,0.37,0.54,0.74,0.81,1.11c0.34,0.47,0.68,0.93,1.01,1.41c0.3,0.42,0.6,0.85,0.89,1.27
		c0.33,0.48,0.66,0.95,0.99,1.43c0.2,0.29,0.4,0.59,0.6,0.89c0.98,1.46,1.96,2.94,2.91,4.44c0.12,0.18,0.23,0.37,0.35,0.56
		c0.99,1.58,1.97,3.17,2.92,4.8c0.08,0.13,0.15,0.27,0.23,0.4c0.55,0.95,1.1,1.9,1.64,2.86c0.21,0.37,0.41,0.74,0.61,1.1
		c0.41,0.75,0.83,1.5,1.23,2.26c0.19,0.35,0.38,0.71,0.57,1.07c0.76,1.44,1.51,2.89,2.25,4.36c0.08,0.16,0.16,0.32,0.23,0.48
		c0.61,1.23,1.21,2.47,1.8,3.72c0.17,0.35,0.33,0.7,0.5,1.06c0.63,1.34,1.25,2.7,1.85,4.07c0.01,0.03,0.02,0.06,0.04,0.08
		c0.58,1.32,1.15,2.66,1.71,4c0.16,0.37,0.31,0.75,0.47,1.13c0.51,1.24,1.01,2.48,1.5,3.74c0.09,0.23,0.18,0.45,0.27,0.68
		c0.59,1.52,1.17,3.06,1.73,4.62c0.13,0.36,0.26,0.71,0.39,1.07c0.59,1.66,1.18,3.33,1.75,5.02c0.02,0.07,0.05,0.14,0.07,0.21
		c0.61,1.84,1.21,3.7,1.79,5.58c0.08,0.25,0.16,0.5,0.23,0.75c0.6,1.97,1.18,3.97,1.74,5.98c0.09,0.31,0.17,0.61,0.26,0.92
		c0.58,2.09,1.13,4.21,1.66,6.34c0.08,0.31,0.15,0.62,0.23,0.93c0.57,2.31,1.11,4.65,1.63,7.01c0.08,0.38,0.17,0.76,0.25,1.14
		c0.16,0.75,0.32,1.5,0.47,2.25c0.12,0.6,0.25,1.19,0.37,1.79c0.15,0.77,0.3,1.55,0.45,2.32c0.11,0.58,0.23,1.16,0.34,1.75
		c0.18,0.95,0.34,1.9,0.51,2.85c0.08,0.46,0.17,0.92,0.25,1.38c0.24,1.42,0.48,2.84,0.71,4.28c0,0.02,0.01,0.04,0.01,0.06
		c0.23,1.46,0.45,2.94,0.66,4.41c0.07,0.49,0.13,0.98,0.2,1.46c0.14,1.03,0.28,2.05,0.41,3.09c0.07,0.55,0.14,1.1,0.21,1.66
		c0.13,1.06,0.26,2.12,0.38,3.18c0.06,0.57,0.13,1.13,0.19,1.7c0.12,1.13,0.24,2.27,0.35,3.41c0.05,0.47,0.1,0.94,0.14,1.41
		c0.16,1.67,0.3,3.35,0.44,5.04c0.03,0.34,0.05,0.69,0.08,1.04c0.1,1.37,0.2,2.74,0.29,4.11c0.03,0.53,0.07,1.06,0.1,1.59
		c0.09,1.44,0.17,2.89,0.24,4.34c0.02,0.42,0.04,0.83,0.06,1.25c0.08,1.82,0.15,3.65,0.21,5.49c0.01,0.41,0.02,0.83,0.03,1.24
		c0.04,1.51,0.07,3.03,0.1,4.55c0.01,0.53,0.02,1.06,0.02,1.59c0.02,1.9,0.04,3.81,0.03,5.73c0,1.68-0.02,3.33-0.05,4.98
		c-0.01,0.34-0.01,0.67-0.02,1.01c-0.03,1.4-0.06,2.79-0.1,4.16c-0.01,0.2-0.01,0.41-0.02,0.61c-0.05,1.52-0.11,3.01-0.17,4.49
		c-0.01,0.32-0.03,0.64-0.04,0.95c-0.07,1.47-0.15,2.94-0.24,4.38c-0.01,0.12-0.02,0.23-0.02,0.35c-0.09,1.37-0.18,2.72-0.28,4.05
		c-0.02,0.27-0.04,0.55-0.06,0.82c-0.05,0.62-0.11,1.23-0.16,1.84c-0.1,1.19-0.21,2.38-0.33,3.54c-0.06,0.63-0.13,1.26-0.2,1.88
		c-0.12,1.08-0.24,2.15-0.36,3.2c-0.07,0.62-0.15,1.24-0.23,1.85c-0.13,1.04-0.28,2.07-0.42,3.08c-0.08,0.56-0.16,1.12-0.24,1.67
		c-0.18,1.21-0.37,2.39-0.57,3.56c-0.06,0.33-0.11,0.68-0.17,1.01c-0.26,1.49-0.53,2.95-0.82,4.39c-0.07,0.38-0.16,0.74-0.23,1.11
		c-0.22,1.05-0.44,2.1-0.67,3.12c-0.11,0.5-0.23,0.98-0.34,1.47c-0.21,0.9-0.43,1.79-0.65,2.66c-0.13,0.51-0.26,1.02-0.4,1.52
		c-0.22,0.84-0.45,1.67-0.68,2.49c-0.17,0.61-0.34,1.22-0.52,1.82c-0.06,0.21-0.13,0.42-0.19,0.63c-0.3,0.99-0.61,1.96-0.93,2.91
		c-0.06,0.17-0.11,0.33-0.17,0.49c-0.3,0.9-0.61,1.78-0.93,2.65c-0.04,0.11-0.08,0.23-0.12,0.34c-0.34,0.92-0.69,1.83-1.05,2.72
		c-0.09,0.22-0.17,0.43-0.26,0.64c-0.32,0.79-0.65,1.57-0.99,2.33c-0.05,0.11-0.1,0.23-0.15,0.34c-0.37,0.83-0.75,1.64-1.13,2.43
		c-0.13,0.28-0.27,0.55-0.41,0.82c-0.29,0.57-0.57,1.14-0.87,1.7c-0.14,0.27-0.29,0.55-0.43,0.82c-0.32,0.6-0.65,1.18-0.99,1.76
		c-0.11,0.19-0.22,0.39-0.33,0.58c-0.44,0.75-0.89,1.47-1.34,2.18c-0.54,0.84-1.1,1.66-1.66,2.46c-0.11,0.16-0.23,0.31-0.35,0.47
		c-0.45,0.63-0.91,1.24-1.38,1.84c-0.21,0.26-0.42,0.52-0.63,0.77c-0.38,0.47-0.77,0.93-1.16,1.38c-0.24,0.27-0.49,0.54-0.73,0.81
		c-0.37,0.41-0.75,0.81-1.13,1.2c-0.26,0.26-0.52,0.52-0.78,0.77c-0.38,0.37-0.77,0.74-1.16,1.09c-0.26,0.24-0.53,0.48-0.8,0.71
		c-0.41,0.35-0.82,0.69-1.23,1.02c-0.26,0.21-0.52,0.42-0.78,0.62c-0.46,0.35-0.92,0.68-1.39,1.01c-0.23,0.16-0.45,0.33-0.68,0.48
		c-0.7,0.47-1.41,0.92-2.12,1.33l65.11-37.84c0.72-0.42,1.43-0.86,2.12-1.33c0.23-0.15,0.45-0.32,0.68-0.48
		c0.47-0.33,0.93-0.66,1.39-1.01c0.26-0.2,0.52-0.41,0.78-0.62c0.41-0.33,0.83-0.67,1.23-1.02c0.27-0.23,0.53-0.47,0.8-0.71
		c0.39-0.36,0.78-0.72,1.16-1.09c0.26-0.25,0.52-0.51,0.78-0.77c0.38-0.39,0.76-0.79,1.13-1.2c0.24-0.27,0.49-0.53,0.73-0.81
		c0.39-0.45,0.78-0.91,1.16-1.38c0.21-0.26,0.43-0.51,0.64-0.78c0.47-0.59,0.93-1.21,1.38-1.83c0.11-0.16,0.23-0.31,0.35-0.47
		c0.56-0.79,1.12-1.61,1.66-2.46c0.02-0.03,0.04-0.06,0.06-0.1c0.43-0.68,0.86-1.38,1.28-2.09c0.11-0.19,0.22-0.39,0.33-0.58
		c0.33-0.58,0.66-1.16,0.99-1.76c0.15-0.27,0.29-0.54,0.43-0.82c0.29-0.56,0.58-1.12,0.87-1.7c0.14-0.27,0.27-0.54,0.4-0.82
		c0.07-0.14,0.14-0.28,0.21-0.42c0.31-0.66,0.62-1.33,0.93-2.01c0.05-0.11,0.1-0.23,0.15-0.34c0.34-0.76,0.67-1.54,0.99-2.33
		c0.09-0.21,0.17-0.42,0.26-0.64c0.34-0.84,0.67-1.69,0.99-2.56c0.02-0.05,0.04-0.11,0.06-0.16c0.04-0.11,0.08-0.23,0.12-0.34
		c0.32-0.87,0.63-1.75,0.93-2.65c0.06-0.17,0.11-0.33,0.17-0.49c0.32-0.95,0.63-1.93,0.93-2.92c0.06-0.21,0.13-0.41,0.19-0.62
		c0.09-0.31,0.19-0.61,0.28-0.93c0.09-0.29,0.16-0.6,0.25-0.89c0.23-0.82,0.46-1.64,0.68-2.48c0.13-0.5,0.27-1.01,0.4-1.52
		c0.22-0.87,0.43-1.76,0.65-2.66c0.08-0.34,0.17-0.67,0.25-1.02c0.03-0.15,0.06-0.31,0.1-0.46c0.23-1.02,0.45-2.07,0.67-3.12
		c0.08-0.37,0.16-0.73,0.23-1.11c0.28-1.44,0.56-2.9,0.82-4.39c0.01-0.05,0.02-0.09,0.02-0.13c0.05-0.29,0.09-0.59,0.14-0.87
		c0.2-1.17,0.39-2.36,0.57-3.56c0.08-0.55,0.16-1.11,0.24-1.67c0.15-1.02,0.29-2.04,0.42-3.08c0.03-0.27,0.07-0.53,0.11-0.8
		c0.04-0.35,0.08-0.71,0.12-1.06c0.13-1.06,0.25-2.12,0.36-3.2c0.07-0.63,0.13-1.25,0.2-1.88c0.12-1.17,0.22-2.35,0.33-3.54
		c0.04-0.42,0.08-0.83,0.11-1.25c0.02-0.2,0.03-0.39,0.05-0.59c0.02-0.27,0.04-0.54,0.06-0.82c0.1-1.34,0.2-2.69,0.28-4.06
		c0.01-0.11,0.02-0.22,0.02-0.33c0.09-1.44,0.17-2.91,0.24-4.38c0.02-0.31,0.03-0.63,0.04-0.94c0.01-0.32,0.03-0.63,0.04-0.95
		c0.05-1.17,0.09-2.36,0.13-3.55c0.01-0.2,0.01-0.41,0.02-0.61c0.04-1.37,0.07-2.76,0.1-4.16c0.01-0.34,0.01-0.67,0.02-1.01
		c0.02-1.37,0.04-2.76,0.04-4.16c0-0.27,0-0.54,0-0.82C597.7,347.44,597.68,345.53,597.66,343.63z"/>
	<g>
		<g>
			<path class="st5" d="M451.24,181.57c53.8,31.06,89.66,102.31,89.39,200.5c-0.28,98.19-36.43,130.14-90.23,99.08
				c-53.81-31.07-89.66-104.58-89.38-202.78C361.29,180.18,397.43,150.5,451.24,181.57z M450.54,429.32
				c19.78,11.42,34.87-0.36,35.1-79c0.22-79.1-14.76-105.51-34.54-116.93c-19.38-11.19-34.87-2.37-35.09,76.73
				C415.78,388.76,431.15,418.13,450.54,429.32"/>
		</g>
	</g>
	<g>
		<polygon class="st0" points="610.45,457.65 675.56,419.81 728.57,450.42 663.46,488.25 		"/>
	</g>
	<g>
		<polygon class="st0" points="717.51,570.46 782.62,532.62 782.42,601.72 717.32,639.56 		"/>
	</g>
	<g>
		<polygon class="st1" points="643.86,414.1 708.97,376.27 675.56,419.81 610.45,457.65 		"/>
	</g>
	<g>
		<polygon class="st0" points="746.54,536.22 811.65,498.38 811.5,549.3 746.4,587.13 		"/>
	</g>
	<g>
		<polygon class="st2" points="717.66,519.54 782.77,481.71 811.65,498.38 746.54,536.22 		"/>
	</g>
	<g class="st3">
		<defs>
			<path id="SVGID_3_" class="st3" d="M664.57,377.34l65.11-37.84c-6.38,12.26-13.54,24.51-20.71,36.76l-65.11,37.84
				C651.03,401.85,658.19,389.59,664.57,377.34z"/>
		</defs>
		<clipPath id="SVGID_4_">
			<use xlink:href="#SVGID_3_"  style="overflow:visible;"/>
		</clipPath>
		<g class="st6">
			<path class="st1" d="M664.57,377.34l65.11-37.84c-6.38,12.26-13.54,24.51-20.71,36.76l-65.11,37.84
				C651.03,401.85,658.19,389.59,664.57,377.34"/>
		</g>
	</g>
	<g>
		<polygon class="st0" points="718.14,350.89 783.24,313.05 782.77,481.71 717.66,519.54 		"/>
	</g>
	<g>
		<polygon class="st2" points="646.93,309.78 712.03,271.94 783.24,313.05 718.14,350.89 		"/>
	</g>
	<g>
		<g>
			<g>
				<path class="st5" d="M724.8,514.89l28.88,16.68l-0.14,50.91l-7.14,4.66l-21.74-21.33l-0.2,69.61l-7.14,4.15l-47.06-35.95
					l0.2-69.1L561.66,471.7l0.13-45.91l85.13-116.01l7.58-4.4l70.77,40.86L724.8,514.89z M670.73,436.77
					c0.05-18.64,1.72-45.46,2.56-63.18l-1.58-0.91c-6.38,12.26-13.54,24.51-20.71,36.76l-33.41,43.55l53.01,30.6L670.73,436.77"/>
			</g>
		</g>
	</g>
	<path class="st2" d="M443.2,186.69c53.8,31.06,89.66,102.31,89.39,200.5c-0.28,98.19-36.43,130.14-90.23,99.08
		c-53.81-31.07-89.66-104.58-89.38-202.78C353.25,185.3,389.39,155.62,443.2,186.69z M442.5,434.45c19.78,11.42,34.87-0.36,35.1-79
		c0.22-79.1-14.76-105.51-34.54-116.93c-19.39-11.19-34.87-2.37-35.09,76.73C407.74,393.88,423.11,423.25,442.5,434.45"/>
	<g>
		<g>
			<path class="st2" d="M717.66,519.54l28.88,16.68l-0.14,50.91l-28.88-16.68l-0.2,69.1l-54.2-31.29l0.2-69.1l-108.79-62.81
				l0.13-45.91l92.28-120.67l71.21,41.11L717.66,519.54z M663.59,441.43c0.05-18.64,1.72-45.46,2.56-63.18l-1.58-0.91
				c-6.38,12.26-13.54,24.51-20.71,36.76l-33.41,43.55l53.01,30.6L663.59,441.43"/>
		</g>
	</g>
	<path class="st2" d="M299.88,278.34l28.88,16.68l-0.14,50.91l-28.88-16.68l-0.2,69.1l-54.2-31.29l0.2-69.1l-108.79-62.81
		l0.13-45.91l92.28-120.67l71.21,41.11L299.88,278.34z M245.82,200.23c0.05-18.64,1.72-45.46,2.56-63.18l-1.58-0.91
		c-6.38,12.26-13.54,24.51-20.71,36.77l-33.41,43.55l53.01,30.6L245.82,200.23"/>
	<g>
		<g>
			<g>
				<path class="st2" d="M723.08,225.17c-3.86,7.71-10.15,23.05-18.37,25.97c-11.38,4.04-23.27-9.64-32.39-16.52
					c-4.08-3.08-0.08-10.07,4.06-6.95c7.38,5.57,16.73,10.45,26.08,6.96c6.25-2.33,10.76-7.7,13.68-13.52
					C718.45,216.48,725.39,220.55,723.08,225.17L723.08,225.17z"/>
			</g>
		</g>
		<path class="st7" d="M671.61,232.54l-3.46-2.11c-1.8-1.09-2.37-3.46-1.28-5.26l0,0c1.09-1.8,3.46-2.37,5.26-1.28l3.46,2.11
			c1.8,1.09,2.37,3.46,1.28,5.26l0,0C675.78,233.06,673.41,233.63,671.61,232.54z"/>
		<path class="st8" d="M691.56,210.76c3.92-2.63,3.62-6.93,3.62-6.93l0.03-0.02l-0.17-1.37c-4.44,1.06-7.14,4.98-7.14,4.98
			S687.64,213.39,691.56,210.76z M688.65,207.67c0,0,2.17-3.1,5.57-3.87l0.07,1.07c0,0,0.22,3.2-2.7,5.15
			C688.67,211.98,688.65,207.67,688.65,207.67z"/>
		<path class="st9" d="M668.5,291.02c1.16-10.91,5.6-18.49,18.46-19.45c0.81-0.06,1.62,0.08,2.38,0.37l44.85,13.34
			c0,0,9.8,24.33-14.25,31.7c-12.17,3.73-35.8-8.61-46.55-15.63C669.94,299.11,668.06,295.11,668.5,291.02z"/>
		<path class="st7" d="M694.14,213.05c3.26,6.14,10.78,7.03,13.99,1.88c3.22-5.14,3.18-14.29-0.08-20.44
			c-3.26-6.14-8.52-6.96-11.73-1.81C693.1,197.83,690.87,206.91,694.14,213.05z"/>
		<path class="st7" d="M714,228.57l0.67-0.3c2.26-1.03,3.26-3.72,2.23-5.98l-5.81-12.72c-1.03-2.26-3.72-3.26-5.98-2.23l-0.67,0.3
			c-2.26,1.03-3.26,3.72-2.23,5.98l3.78,13.05C707.03,228.92,711.74,229.6,714,228.57z"/>
		<path class="st9" d="M715.8,209.45c0,0,1.77,4.36-6.05,6.48c-6.26,1.69-6.8-10.16-13.3-9.86c-7.15,0.34-10.21-7.93-8.18-11.78
			c2.03-3.85,9.27-7.18,15.3-5.91C709.59,189.63,721.54,188.95,715.8,209.45z"/>
		<path class="st2" d="M734.18,285.29c-1.03-10.52-5.15-10.83-4.11-24.56c0.28-3.67,0.37-7.35,0.33-11.02
			c-0.22-20.05-1.85-33.67-13.18-30.41l-3.57,0.95c-1.71,0.46-3.38,1.1-4.95,1.91c-16.69,8.6-25.03,8.94-21.91,27.38
			c0.67,18.27,8.98,14.34,5.5,32.49C692.29,303.77,734.2,298.87,734.18,285.29z"/>
		<path class="st1" d="M689.33,262.99l9.1-19.84c0.71,11.36-0.23,21.54-5.45,28.63L689.33,262.99z"/>
		<path class="st10" d="M703.53,218.16l0.36-1.79c0,0-1,1.53-3.47,1.73C700.43,218.1,702.02,218.61,703.53,218.16z"/>
		<path class="st9" d="M702.27,210.1c0,0,4.25,4.46,4.87,10c0.77,6.85,5.17,11.04,10.96,7.31c2.88-1.85,5.37-3.94,5.18-6.01
			c-1.6-17.61-7.4-27.57-7.4-27.57L702.27,210.1z"/>
		<path class="st2" d="M698.43,239.65c0,0-2.04,42.3-24.39,28.62c-13.96-8.55-12.54-33.16-12.54-33.16l6.16-0.96
			c0,0,6.73,26.55,13.79,22.6c7.06-3.95,5.29-23.04,8.78-24.51S698.43,239.65,698.43,239.65z"/>
		<path class="st7" d="M665.89,240.19L665.89,240.19c1.89-0.65,2.91-2.73,2.26-4.62l-2.79-8.12c-0.65-1.89-2.73-2.91-4.62-2.26h0
			c-1.89,0.65-2.91,2.73-2.26,4.62l2.79,8.12C661.92,239.83,664,240.84,665.89,240.19z"/>
		<g>
			<path class="st11" d="M665.99,239.81l8.72-6.5c0.52-0.38,0.68-1.22,0.35-1.89l-8.55-17.34c-0.33-0.66-1.01-0.89-1.53-0.51
				l-8.67,6.32c-0.52,0.38-0.68,1.22-0.35,1.89l8.5,17.26c0.21,0.44,0.43,0.49,0.88,0.6L665.99,239.81z"/>
			<path class="st11" d="M664.98,222.28c0,0,10.4,9.81,10.07,9.14l-8.55-17.94l-0.82-0.08c-0.24-0.04-0.49,0.01-0.71,0.17
				l-8.67,6.32c-0.25,0.19-0.42,0.48-0.49,0.81L664.98,222.28z"/>
			<path class="st8" d="M666.88,239.71l8.64-6.32c0.52-0.38,0.65-1.22,0.32-1.88l-8.55-17.34c-0.33-0.66-1-0.89-1.52-0.52
				l-8.64,6.32c-0.52,0.38-0.64,1.22-0.32,1.88l8.55,17.34C665.7,239.85,666.36,240.09,666.88,239.71z"/>
			<path class="st12" d="M657.17,223.23l0.49,0.99c0.03,0.07-0.01,0.11-0.09,0.09l0.01-0.01c-0.08-0.02-0.14-0.1-0.18-0.17
				l-0.49-0.99c-0.03-0.07-0.03-0.1,0.05-0.08l0,0.01C657.06,223.09,657.13,223.16,657.17,223.23z"/>
			<path class="st12" d="M658.02,224.96l0.49,0.99c0.03,0.07,0,0.11-0.09,0.09l0.01-0.01c-0.08-0.02-0.14-0.1-0.18-0.17l-0.49-0.99
				c-0.03-0.07-0.03-0.1,0.05-0.08l0,0.01C657.91,224.82,657.99,224.89,658.02,224.96z"/>
			<path class="st13" d="M665.52,236.85l8.51-6.21l-7.49-15.29l-8.46,6.17l7.56,14.89C665.71,236.54,665.4,236.94,665.52,236.85z"/>
			<path class="st5" d="M660.46,218.94l2.67-1.95c0.09-0.07,0.12-0.22,0.06-0.34l0,0c-0.06-0.12-0.18-0.16-0.28-0.09l-2.67,1.95
				c-0.09,0.07-0.12,0.22-0.06,0.34l0,0C660.24,218.97,660.37,219.01,660.46,218.94z"/>
		</g>
		<path class="st8" d="M688.09,208.35l9.98-1.55c0.36-0.06,0.6-0.39,0.55-0.75l0,0c-0.06-0.36-0.39-0.6-0.75-0.55l-9.98,1.55
			c-0.36,0.06-0.6,0.39-0.55,0.75l0,0C687.4,208.16,687.74,208.41,688.09,208.35z"/>
		<path class="st7" d="M697.17,209.62c0.79,1.49,2.65,2.06,4.14,1.27c1.49-0.79,2.06-2.65,1.27-4.14c-0.79-1.49-2.65-2.06-4.14-1.27
			S696.38,208.13,697.17,209.62z"/>
		<g>
			<g>
				<path class="st14" d="M661.39,226.32c1.17,2,3.69,2.49,5.62,1.1c1.93-1.39,2.55-4.14,1.38-6.14c-1.17-2-3.69-2.49-5.62-1.1
					C660.84,221.57,660.22,224.32,661.39,226.32z M662.55,225.49c-0.79-1.34-0.37-3.19,0.92-4.12c1.3-0.93,2.98-0.6,3.77,0.74
					c0.78,1.34,0.37,3.19-0.92,4.12C665.02,227.17,663.33,226.83,662.55,225.49z"/>
				<path class="st15" d="M661.39,226.32c-0.72-1.22-0.76-2.73-0.25-4.03l1.22,0.53c-0.33,0.87-0.3,1.86,0.18,2.68
					c0.65,1.11,1.92,1.53,3.07,1.11l0.4,1.36C664.29,228.61,662.37,227.99,661.39,226.32z"/>
				<path class="st5" d="M665.62,219.42l-0.21,1.45c-0.64-0.09-1.33,0.07-1.94,0.51c-0.55,0.39-0.94,0.95-1.14,1.56l-1.27-0.38
					c0.31-0.93,0.89-1.78,1.72-2.37C663.66,219.54,664.67,219.3,665.62,219.42z"/>
			</g>
			<path class="st5" d="M666.77,231.34l3.73-2.68c0.24-0.18,0.3-0.56,0.13-0.86l0,0c-0.17-0.29-0.51-0.39-0.76-0.22l-3.73,2.68
				c-0.24,0.18-0.3,0.56-0.13,0.86l0,0C666.19,231.42,666.53,231.52,666.77,231.34z"/>
			<path class="st5" d="M667.91,233.17l3.73-2.68c0.24-0.18,0.3-0.56,0.13-0.86l0,0c-0.17-0.29-0.51-0.39-0.76-0.22l-3.73,2.68
				c-0.24,0.18-0.3,0.56-0.13,0.86l0,0C667.33,233.25,667.67,233.35,667.91,233.17z"/>
		</g>
		<path class="st7" d="M662.53,237.28l-1.04-2.17c0.84-0.02,1.81,3.4,1.79,2.7l-0.03-9.66c-0.02-0.69-0.72-1.24-1.56-1.22l0,0
			c-0.84,0.02-1.51,0.61-1.49,1.3l0.13,4.77C660.36,233.69,661.7,237.3,662.53,237.28z"/>
	</g>
	<g>
		<path class="st7" d="M141.63,423.05c0,0-4.76,13.57,7.97,22.73c0,0,5.69,1.38,5.55-5.64c-0.14-7.01-0.26-16.93-0.26-16.93
			L141.63,423.05z"/>
		<g>
			
				<ellipse transform="matrix(0.9491 -0.3151 0.3151 0.9491 -98.9424 52.9889)" class="st16" cx="114.42" cy="332.51" rx="34.39" ry="52.57"/>
			<polygon class="st2" points="181.87,414.36 174.64,428.87 143.88,382.43 151.11,367.92 			"/>
			<g>
				<g>
					<path class="st2" d="M172.38,391.93c6.85-0.97,10.3,3.45,7.71,9.86c-2.59,6.41-10.23,12.4-17.08,13.37
						c-6.85,0.97-10.3-3.45-7.71-9.86C157.89,398.88,165.53,392.89,172.38,391.93z"/>
					<polygon class="st2" points="193.15,467.82 155.78,413.17 180.31,394.95 217.96,449.91 					"/>
					<path class="st2" d="M210.14,447.11c6.85-0.97,10.3,3.45,7.71,9.86c-2.59,6.41-10.23,12.4-17.08,13.37
						c-6.85,0.97-10.3-3.45-7.71-9.86C195.65,454.06,203.29,448.08,210.14,447.11z"/>
					<polygon class="st2" points="217.82,503.51 180.45,448.86 204.98,430.64 242.63,485.6 					"/>
					
						<ellipse transform="matrix(0.7874 -0.6165 0.6165 0.7874 -255.855 246.9844)" class="st2" cx="230.13" cy="494.41" rx="15.33" ry="8.85"/>
				</g>
			</g>
			<path class="st5" d="M114.37,305.69l-11.79,31.36c-0.61,1.61-2.41,1.57-4.04-0.08l0,0c-1.62-1.66-2.45-4.31-1.84-5.92
				l11.79-31.36c0.61-1.61,2.41-1.57,4.04,0.08v0C114.15,301.43,114.97,304.08,114.37,305.69z"/>
			<path class="st5" d="M124.93,319.65l-11.79,31.36c-0.61,1.61-2.41,1.57-4.04-0.08l0,0c-1.62-1.66-2.45-4.31-1.84-5.92
				l11.79-31.36c0.61-1.61,2.41-1.57,4.04,0.08h0C124.71,315.39,125.53,318.04,124.93,319.65z"/>
			<path class="st1" d="M126.85,282.12c-23.87-11.37-44.61,2.04-46.33,29.96c-1.72,27.92,16.24,59.78,40.11,71.15
				c23.87,11.37,44.61-2.04,46.33-29.96C168.68,325.34,150.72,293.49,126.85,282.12z M160.45,350.16
				c-1.46,23.72-19.08,35.11-39.35,25.45c-20.27-9.66-35.53-36.72-34.07-60.44c1.46-23.72,19.08-35.11,39.35-25.45
				C146.66,299.39,161.91,326.45,160.45,350.16z"/>
			<path class="st0" d="M168.33,337.16c-0.07-0.61-0.13-1.21-0.22-1.82c-0.01-0.11-0.03-0.22-0.05-0.32
				c-0.04-0.29-0.09-0.58-0.13-0.87c-0.05-0.35-0.1-0.7-0.16-1.05c-0.03-0.2-0.07-0.39-0.11-0.58c-0.05-0.31-0.11-0.63-0.17-0.94
				c-0.05-0.24-0.08-0.48-0.13-0.72c-0.06-0.29-0.12-0.58-0.19-0.87c-0.07-0.31-0.13-0.62-0.2-0.94c-0.03-0.15-0.06-0.31-0.1-0.46
				c-0.09-0.41-0.2-0.82-0.3-1.23c-0.07-0.27-0.13-0.53-0.2-0.8c-0.02-0.07-0.04-0.15-0.06-0.22c-0.19-0.73-0.39-1.46-0.61-2.19
				c0-0.01-0.01-0.02-0.01-0.03c-0.02-0.07-0.04-0.13-0.06-0.2c-0.19-0.65-0.39-1.29-0.59-1.93c-0.03-0.1-0.07-0.2-0.1-0.3
				c-0.08-0.24-0.16-0.48-0.25-0.73c-0.12-0.35-0.23-0.69-0.35-1.04c-0.08-0.22-0.16-0.44-0.24-0.66c-0.1-0.27-0.19-0.53-0.29-0.8
				c-0.07-0.19-0.14-0.39-0.21-0.59c-0.15-0.39-0.31-0.77-0.46-1.16c-0.08-0.21-0.16-0.41-0.24-0.62c-0.03-0.07-0.06-0.15-0.09-0.22
				c-0.28-0.68-0.56-1.35-0.86-2.02c-0.01-0.03-0.03-0.06-0.04-0.09c-0.08-0.19-0.18-0.38-0.26-0.57c-0.23-0.51-0.46-1.03-0.7-1.54
				c-0.04-0.08-0.08-0.16-0.12-0.24c-0.2-0.42-0.41-0.83-0.62-1.25c-0.17-0.33-0.32-0.67-0.5-1c-0.03-0.06-0.07-0.12-0.1-0.18
				c-0.56-1.07-1.13-2.13-1.73-3.18c-0.05-0.09-0.1-0.18-0.15-0.27c-0.15-0.27-0.32-0.52-0.47-0.79c-0.25-0.43-0.51-0.86-0.77-1.28
				c-0.23-0.38-0.47-0.75-0.7-1.12c-0.27-0.42-0.53-0.83-0.8-1.25c-0.09-0.14-0.17-0.28-0.26-0.41c-0.22-0.32-0.44-0.64-0.66-0.96
				c-0.15-0.22-0.3-0.44-0.45-0.66c-0.48-0.68-0.97-1.36-1.47-2.03c0-0.01-0.01-0.01-0.01-0.02l0,0c0-0.01-0.01-0.01-0.01-0.02
				c-0.57-0.76-1.15-1.5-1.75-2.24c-0.03-0.03-0.05-0.07-0.08-0.1c-0.43-0.53-0.88-1.06-1.32-1.58c-0.09-0.1-0.18-0.21-0.27-0.32
				c-0.01-0.01-0.01-0.01-0.02-0.02c-0.53-0.61-1.07-1.21-1.61-1.8c-0.03-0.03-0.05-0.06-0.08-0.09c-0.17-0.18-0.34-0.35-0.51-0.53
				c-0.35-0.37-0.69-0.73-1.04-1.09c-0.07-0.07-0.13-0.13-0.2-0.2c-0.24-0.24-0.48-0.47-0.72-0.71c-0.27-0.26-0.53-0.53-0.8-0.78
				c-0.1-0.09-0.2-0.18-0.3-0.28c-0.26-0.25-0.53-0.49-0.79-0.73c-0.23-0.21-0.45-0.42-0.68-0.63c-0.13-0.12-0.26-0.22-0.39-0.34
				c-0.29-0.25-0.57-0.49-0.86-0.74c-0.2-0.17-0.4-0.35-0.6-0.51c-0.16-0.13-0.32-0.25-0.48-0.38c-0.29-0.23-0.58-0.46-0.88-0.69
				c-0.18-0.14-0.35-0.28-0.53-0.42c-0.19-0.15-0.39-0.28-0.58-0.43c-0.29-0.21-0.58-0.42-0.86-0.63c-0.15-0.11-0.3-0.22-0.45-0.33
				c-0.24-0.17-0.49-0.33-0.74-0.5c-0.27-0.18-0.54-0.37-0.81-0.55c-0.11-0.07-0.22-0.15-0.33-0.22c-0.33-0.21-0.67-0.41-1-0.62
				c-0.23-0.14-0.46-0.29-0.69-0.42c-0.06-0.04-0.12-0.07-0.18-0.11c-0.6-0.36-1.21-0.7-1.83-1.03c-0.01,0-0.01-0.01-0.02-0.01
				c-0.04-0.02-0.09-0.05-0.14-0.07c-0.55-0.3-1.11-0.58-1.67-0.86c-0.14-0.07-0.28-0.14-0.42-0.2c-0.46-0.22-0.92-0.43-1.38-0.63
				c-0.17-0.08-0.35-0.14-0.52-0.22c-0.24-0.1-0.47-0.2-0.71-0.29c-0.18-0.07-0.37-0.16-0.55-0.23c-0.29-0.11-0.58-0.21-0.88-0.32
				c-0.21-0.08-0.42-0.16-0.63-0.23c-0.09-0.03-0.17-0.07-0.26-0.09c-0.58-0.2-1.16-0.38-1.74-0.55c0,0-0.01,0-0.01,0
				c-0.59-0.17-1.18-0.33-1.76-0.47c-0.08-0.02-0.15-0.03-0.23-0.05c-0.21-0.05-0.42-0.09-0.63-0.14c-0.3-0.07-0.6-0.14-0.9-0.2
				c-0.15-0.03-0.29-0.05-0.44-0.07c-0.26-0.05-0.52-0.09-0.78-0.13c-0.2-0.03-0.4-0.07-0.6-0.1c-0.21-0.03-0.41-0.04-0.62-0.07
				c-0.26-0.03-0.52-0.06-0.78-0.09c-0.14-0.01-0.27-0.03-0.41-0.05c-0.24-0.02-0.48-0.02-0.72-0.04c-0.3-0.02-0.6-0.04-0.9-0.05
				c-0.1,0-0.21-0.01-0.32-0.02c-0.25-0.01-0.49,0.01-0.74,0.01c-0.32,0-0.64,0-0.96,0.01c-0.09,0-0.19,0-0.28,0
				c-0.22,0.01-0.43,0.04-0.64,0.05c-0.38,0.02-0.76,0.05-1.13,0.09c-0.11,0.01-0.21,0.01-0.32,0.02c-0.42,0.05-0.83,0.1-1.24,0.17
				c-0.05,0.01-0.1,0.02-0.16,0.03c-0.31,0.05-0.62,0.1-0.93,0.16c-0.2,0.04-0.39,0.09-0.58,0.13c-0.15,0.03-0.29,0.06-0.44,0.1
				c-0.53,0.13-1.06,0.26-1.58,0.42c-0.02,0-0.03,0.01-0.05,0.02c-0.14,0.04-0.28,0.1-0.42,0.14c-0.43,0.14-0.86,0.28-1.29,0.44
				c-0.21,0.08-0.41,0.17-0.61,0.25c-0.27,0.11-0.54,0.21-0.81,0.33c-0.07,0.03-0.13,0.07-0.2,0.1c-0.41,0.19-0.81,0.39-1.21,0.6
				c-0.19,0.1-0.39,0.19-0.59,0.3c-0.59,0.32-1.16,0.67-1.72,1.04l-9.18,6.03c0.56-0.37,1.14-0.71,1.72-1.04
				c0.19-0.11,0.39-0.2,0.58-0.3c0.4-0.21,0.8-0.41,1.21-0.6c0.33-0.15,0.67-0.29,1.01-0.43c0.2-0.08,0.41-0.17,0.61-0.25
				c0.42-0.16,0.85-0.3,1.29-0.44c0.14-0.05,0.28-0.1,0.42-0.14c0.53-0.16,1.08-0.3,1.63-0.43c0.15-0.03,0.29-0.07,0.44-0.1
				c0.5-0.11,1-0.21,1.51-0.29c0.05-0.01,0.1-0.02,0.16-0.03c0.51-0.08,1.03-0.14,1.56-0.19c0.38-0.04,0.76-0.06,1.14-0.09
				c0.31-0.02,0.61-0.04,0.92-0.05c0.32-0.01,0.64-0.01,0.96-0.01c0.35,0,0.7,0,1.05,0.01c0.3,0.01,0.6,0.03,0.9,0.05
				c0.38,0.02,0.76,0.05,1.14,0.09c0.26,0.03,0.52,0.06,0.77,0.09c0.41,0.05,0.81,0.11,1.22,0.17c0.26,0.04,0.52,0.08,0.78,0.13
				c0.44,0.08,0.89,0.17,1.34,0.27c0.21,0.05,0.42,0.09,0.64,0.14c0.66,0.16,1.32,0.33,1.99,0.52c0,0,0,0,0.01,0c0,0,0,0,0,0
				c0.66,0.19,1.33,0.41,2,0.65c0.21,0.07,0.42,0.15,0.63,0.23c0.47,0.17,0.95,0.36,1.43,0.55c0.23,0.1,0.47,0.19,0.71,0.29
				c0.63,0.27,1.26,0.54,1.9,0.85c0.71,0.34,1.41,0.7,2.11,1.07c0.04,0.02,0.08,0.04,0.13,0.07c0.68,0.37,1.35,0.75,2.02,1.15
				c0.23,0.14,0.45,0.28,0.68,0.42c0.45,0.27,0.89,0.55,1.33,0.84c0.27,0.18,0.54,0.36,0.81,0.54c0.4,0.27,0.79,0.54,1.19,0.82
				c0.29,0.21,0.58,0.42,0.86,0.63c0.37,0.28,0.75,0.56,1.12,0.85c0.29,0.23,0.59,0.46,0.88,0.69c0.36,0.29,0.72,0.59,1.08,0.89
				c0.29,0.24,0.58,0.49,0.86,0.74c0.36,0.32,0.72,0.64,1.08,0.96c0.27,0.24,0.53,0.48,0.8,0.73c0.37,0.35,0.73,0.7,1.09,1.06
				c0.24,0.24,0.49,0.47,0.72,0.71c0.42,0.42,0.83,0.85,1.24,1.29c0.17,0.18,0.34,0.35,0.51,0.53c0.58,0.62,1.15,1.26,1.71,1.91
				c0.09,0.1,0.17,0.21,0.26,0.31c0.47,0.55,0.94,1.11,1.4,1.68c0.59,0.73,1.17,1.47,1.73,2.22c0.01,0.01,0.02,0.03,0.03,0.04
				c0,0,0,0,0,0.01c0.5,0.67,0.99,1.35,1.48,2.04c0.15,0.22,0.3,0.44,0.45,0.66c0.31,0.45,0.62,0.91,0.93,1.37
				c0.27,0.41,0.54,0.83,0.8,1.24c0.24,0.37,0.47,0.74,0.7,1.12c0.26,0.42,0.51,0.85,0.76,1.28c0.21,0.35,0.42,0.7,0.62,1.06
				c0.6,1.05,1.18,2.11,1.73,3.18c0.2,0.39,0.4,0.79,0.59,1.18c0.21,0.42,0.42,0.83,0.62,1.25c0.28,0.59,0.55,1.18,0.82,1.77
				c0.09,0.2,0.18,0.39,0.27,0.58c0.34,0.77,0.67,1.54,0.98,2.32c0.08,0.21,0.16,0.41,0.24,0.62c0.23,0.58,0.46,1.16,0.67,1.75
				c0.1,0.27,0.2,0.53,0.29,0.8c0.2,0.56,0.4,1.13,0.59,1.69c0.08,0.24,0.17,0.48,0.24,0.73c0.24,0.75,0.48,1.5,0.7,2.25
				c0.02,0.06,0.04,0.12,0.06,0.18c0.24,0.81,0.46,1.63,0.67,2.45c0.07,0.27,0.13,0.53,0.2,0.8c0.14,0.56,0.27,1.12,0.4,1.69
				c0.07,0.31,0.14,0.63,0.2,0.94c0.11,0.53,0.22,1.05,0.32,1.58c0.06,0.31,0.12,0.63,0.17,0.94c0.1,0.55,0.18,1.09,0.27,1.64
				c0.04,0.29,0.09,0.57,0.13,0.86c0.1,0.72,0.19,1.43,0.27,2.15c0.01,0.1,0.03,0.21,0.04,0.31c0.09,0.82,0.15,1.64,0.21,2.45
				c0.02,0.23,0.02,0.46,0.04,0.7c0.03,0.59,0.06,1.17,0.08,1.76c0.01,0.28,0.01,0.56,0.02,0.85c0.01,0.55,0.01,1.11,0.01,1.66
				c0,0.27,0,0.54-0.01,0.8c-0.02,0.79-0.05,1.57-0.09,2.36c-0.05,0.82-0.12,1.63-0.2,2.42c-0.02,0.23-0.05,0.45-0.08,0.67
				c-0.06,0.55-0.13,1.09-0.21,1.62c-0.05,0.31-0.1,0.61-0.15,0.92c-0.08,0.45-0.15,0.9-0.24,1.35c-0.06,0.33-0.13,0.65-0.2,0.97
				c-0.09,0.41-0.18,0.82-0.28,1.22c-0.09,0.36-0.18,0.72-0.28,1.07c-0.1,0.36-0.2,0.72-0.31,1.08c-0.12,0.42-0.25,0.83-0.39,1.24
				c-0.11,0.32-0.21,0.64-0.32,0.95c-0.18,0.49-0.36,0.97-0.55,1.45c-0.12,0.3-0.24,0.6-0.36,0.89c-0.06,0.15-0.13,0.29-0.19,0.44
				c-0.22,0.5-0.45,0.98-0.69,1.46c-0.05,0.09-0.09,0.19-0.14,0.28c-0.3,0.6-0.62,1.18-0.95,1.74c0,0,0,0.01-0.01,0.01
				c-0.33,0.56-0.67,1.11-1.03,1.64c-0.07,0.11-0.15,0.21-0.22,0.32c-0.27,0.4-0.55,0.78-0.83,1.16c-0.11,0.15-0.23,0.3-0.35,0.45
				c-0.27,0.34-0.54,0.68-0.82,1.01c-0.11,0.13-0.21,0.25-0.32,0.38c-0.38,0.44-0.78,0.86-1.18,1.27c-0.06,0.06-0.12,0.11-0.17,0.17
				c-0.35,0.35-0.71,0.69-1.08,1.01c-0.13,0.12-0.27,0.23-0.4,0.35c-0.31,0.27-0.63,0.53-0.96,0.78c-0.13,0.1-0.27,0.21-0.4,0.31
				c-0.45,0.34-0.91,0.67-1.38,0.97l9.18-6.03c0.47-0.31,0.92-0.64,1.38-0.97c0.14-0.1,0.27-0.21,0.4-0.31
				c0.32-0.25,0.64-0.51,0.96-0.78c0.14-0.12,0.27-0.23,0.4-0.35c0.37-0.33,0.73-0.66,1.08-1.01c0.06-0.06,0.12-0.11,0.17-0.17
				c0.4-0.41,0.8-0.83,1.18-1.27c0.11-0.12,0.21-0.25,0.32-0.38c0.28-0.33,0.56-0.66,0.82-1.01c0.12-0.15,0.23-0.3,0.35-0.45
				c0.28-0.38,0.56-0.77,0.83-1.16c0.07-0.11,0.15-0.21,0.22-0.32c0.02-0.03,0.04-0.06,0.07-0.09c0.33-0.5,0.65-1.02,0.96-1.55
				c0,0,0-0.01,0.01-0.01c0.31-0.53,0.61-1.07,0.89-1.63c0.02-0.04,0.04-0.08,0.06-0.11c0.05-0.09,0.09-0.19,0.14-0.28
				c0.24-0.48,0.47-0.96,0.69-1.46c0.06-0.15,0.13-0.29,0.19-0.44c0.05-0.11,0.1-0.21,0.14-0.32c0.08-0.18,0.14-0.38,0.22-0.57
				c0.19-0.48,0.38-0.96,0.55-1.45c0.05-0.13,0.1-0.25,0.15-0.38c0.06-0.18,0.12-0.38,0.18-0.57c0.14-0.41,0.27-0.82,0.39-1.24
				c0.05-0.17,0.11-0.33,0.16-0.51c0.05-0.19,0.1-0.38,0.15-0.57c0.1-0.36,0.19-0.71,0.28-1.08c0.05-0.19,0.1-0.36,0.14-0.55
				c0.05-0.22,0.09-0.45,0.14-0.67c0.07-0.32,0.14-0.65,0.2-0.97c0.03-0.17,0.07-0.33,0.1-0.5c0.05-0.28,0.09-0.57,0.14-0.85
				c0.05-0.31,0.1-0.61,0.15-0.92c0.02-0.12,0.04-0.24,0.06-0.37c0.06-0.41,0.1-0.83,0.15-1.25c0.03-0.22,0.06-0.44,0.08-0.67
				c0.01-0.06,0.01-0.11,0.02-0.16c0.07-0.7,0.13-1.41,0.18-2.13c0-0.04,0.01-0.08,0.01-0.13c0.04-0.66,0.07-1.32,0.09-1.98
				c0-0.12,0-0.25,0-0.37c0.01-0.27,0.01-0.53,0.01-0.8c0-0.31,0.01-0.63,0.01-0.94c0-0.24-0.01-0.48-0.02-0.72
				c0-0.28-0.01-0.56-0.02-0.84c-0.01-0.19-0.01-0.37-0.01-0.55c-0.02-0.4-0.04-0.8-0.07-1.2c-0.01-0.23-0.02-0.46-0.04-0.69
				c-0.01-0.08-0.01-0.15-0.01-0.23c-0.05-0.72-0.11-1.45-0.19-2.17c0-0.02,0-0.03-0.01-0.05
				C168.36,337.37,168.34,337.27,168.33,337.16z"/>
			<path class="st2" d="M120.07,281.37c-11.62-5.54-23.04-5.63-32.15-0.26c-9.83,5.79-15.74,17.04-16.64,31.68
				c-1.76,28.52,16.67,61.18,41.08,72.81c7.12,3.39,14.16,4.74,20.64,4.04c4.1-0.44,7.98-1.7,11.51-3.78
				c9.83-5.79,15.74-17.04,16.65-31.68C162.91,325.66,144.48,293,120.07,281.37z M151.21,350.87c-0.7,11.34-5.16,19.99-12.58,24.36
				c-6.8,4.01-15.43,3.88-24.32-0.35c-19.66-9.37-34.51-35.74-33.09-58.78c0.7-11.34,5.16-19.99,12.58-24.36
				c2.59-1.53,5.46-2.46,8.5-2.78c4.93-0.53,10.33,0.52,15.82,3.14C137.79,301.46,152.63,327.83,151.21,350.87z"/>
		</g>
		<path class="st17" d="M161.55,406.81l-9.33,24.31c-1.28,1.87-18.75-7.58-17.16-10.46c0.28-0.51,10.52-29.9,20.79-34.41
			C164.19,382.58,166.4,395.75,161.55,406.81z"/>
		<path class="st7" d="M178.36,391.87l-0.7-0.06c-2.35-0.21-4.1-2.31-3.89-4.66l1.2-13.26c0.21-2.35,2.31-4.1,4.66-3.89l0.7,0.06
			c2.35,0.21,4.1,2.31,3.89,4.66l0.72,12.91C184.73,389.98,180.71,392.08,178.36,391.87z"/>
		<path class="st7" d="M177.69,375.35c2.61,5.85,7.39,6.92,10.67,2.4c3.28-4.52,3.81-12.93,1.2-18.78
			c-2.61-5.85-7.39-6.92-10.67-2.4C175.62,361.1,175.08,369.5,177.69,375.35z"/>
		<path class="st18" d="M177.2,359.52c0,0,1.9,11.73-7.31,14.81c0,0-10.83-5.59-3.63-17.3c6.34-10.33,17.64-3.24,17.64-3.24
			L177.2,359.52z"/>
		<path class="st18" d="M190.54,361.81c0,0-3.3-4.03-9.78-3.31l3.14-4.7C183.9,353.79,188.86,352.68,190.54,361.81z"/>
		<path class="st9" d="M172.64,366.68c2.03-3.02,6.82-3.04,13.77-0.72c6.31,0.09,6.85-7.16,6.85-7.16c0.82-3.89-1.81-5.5-5.69-6.32
			l-10.12-2.13c-5.73-1.24-10.99,3.67-11.81,7.56l-0.23,0.64C164.59,362.44,168.75,365.86,172.64,366.68z"/>
		
			<ellipse transform="matrix(9.555454e-03 -1 1 9.555454e-03 -391.8641 737.3599)" class="st16" cx="176.29" cy="566.49" rx="13.92" ry="28.03"/>
		<path class="st9" d="M202.46,566.08l-11.42,9.03c-2.88,1.81-4.71,0.46-7.06-0.11c-1.06-0.26-1.77-1.24-1.74-2.32l0.07-2.34
			c-0.01-3.38,3.15-5.29,5.33-6.26l11.59-5.98C201.42,557.12,208.39,560.96,202.46,566.08z"/>
		<path class="st9" d="M163.14,550.39l2.74,14.3c0.84,7.47-11.09,8.39-11.5,0.3l0.19-15.42
			C154.71,547.17,161.34,542.77,163.14,550.39z"/>
		<path class="st19" d="M191.83,567.64c-0.07,3.46-8.47,3.29-8.4-0.16l0.21-11.23l8.4,0.16L191.83,567.64z"/>
		<path class="st19" d="M164.38,560.01c-0.09,3.45-8.5,3.23-8.4-0.23l0.31-11.23l8.4,0.23L164.38,560.01z"/>
		<path class="st9" d="M165.59,556.85c-3.36,2.27-8.8,2.07-10.54-0.73c-1.03-41.16-7.03-68.81-5.65-103.94l26.32-7.03
			C169.9,487.21,168.4,524.26,165.59,556.85z"/>
		<path class="st9" d="M192.94,561.44c-2.76,3.64-8.77,3.5-10.47,0.77L167.9,450.92l30.33,0.83L192.94,561.44z"/>
		<path class="st17" d="M148.42,449.28c2.5-11.87,3.6-25.35,2.08-41.87c0.62-22.79,3.77-22.74,19.07-23.25l3.56-0.13
			c4.37-0.16,8.71,0.82,12.59,2.83c13.31,6.93,19.81,8.64,16.63,24.76l-4.13,40.12C197.67,472.44,146.65,473.58,148.42,449.28z"/>
		<polygon class="st20" points="190.74,418.25 197.37,449.48 198.18,452.52 199.69,437.6 		"/>
		<path class="st9" d="M169.09,377.97c2.61,5.85,9.46,7.13,12.74,2.6c3.28-4.52,7.82-13.55,5.2-19.4
			c-2.61-5.85-18.89-5.98-22.17-1.45C161.59,364.25,166.48,372.13,169.09,377.97z"/>
		<path class="st7" d="M202.28,437.25c0,0,2.52,14.16,18.11,15.88c0,0,5.63-1.6,2.07-7.64c-3.57-6.04-8.55-14.61-8.55-14.61
			L202.28,437.25z"/>
		<path class="st17" d="M189.54,413.16l7.99,24.79c1.18,1.94,19.14-6.54,17.7-9.51c-0.25-0.52-8.87-30.43-18.88-35.5
			C188.22,388.82,185.29,401.85,189.54,413.16z"/>
	</g>
	<g>
		
			<ellipse transform="matrix(0.0216 -0.9998 0.9998 0.0216 -242.842 1231.3668)" class="st16" cx="507.69" cy="739.75" rx="17.68" ry="35.59"/>
		<path class="st7" d="M450.85,566.86l8.99,18.6c2.05,4.25,7.46,5.58,11.26,2.78l25.29-18.66l-16.85-0.9l-8.63,7.47
			c-1.33,1.15-3.35,0.92-4.39-0.5l-8.43-11.54L450.85,566.86z"/>
		<path class="st9" d="M520.48,746.56l8.27-13.51c1.26-1.21,4.47-2.38,6.78-2.63c1.04-0.11,2.01,0.54,2.33,1.54l0.7,2.14
			c1.11,3.06,0.94,3.58-0.72,5.17l-9.86,9.46c-1.66,1.59-4.58,2.44-6.5,1.89l-0.54-0.16C519.03,749.91,518.82,748.15,520.48,746.56z
			"/>
		<g>
			<path class="st21" d="M436.24,548.63c0.88,2.96,0.35,5.72-1.18,6.18c-1.52,0.45-3.47-1.58-4.35-4.54
				c-0.88-2.96-0.35-5.72,1.18-6.18C433.42,543.64,435.37,545.67,436.24,548.63z"/>
			<path class="st2" d="M451.02,572.58l0.41,0.11c2.26,0.63,4.6-0.7,5.22-2.96l5.4-19.48c0.63-2.26-0.7-4.6-2.96-5.22l-0.41-0.11
				c-2.26-0.63-4.6,0.7-5.22,2.96l-5.4,19.48C447.43,569.61,448.76,571.95,451.02,572.58z"/>
			<path class="st7" d="M447.54,568.33l0.08,0.02c2.8,0.64,5.61-1.12,6.25-3.92l1.61-7.05c0.64-2.8-1.12-5.61-3.92-6.25l-0.08-0.02
				c-2.8-0.64-5.61,1.12-6.25,3.92l-1.61,7.05C442.98,564.87,444.75,567.69,447.54,568.33z"/>
			<path class="st7" d="M457.68,563.05l1.36,0.31c1.03,0.24,2.07-0.42,2.31-1.45l0.36-1.56c0.24-1.03-0.42-2.07-1.45-2.31
				l-1.36-0.31c-1.03-0.24-2.07,0.42-2.31,1.45l-0.36,1.56C456,561.77,456.65,562.81,457.68,563.05z"/>
			<path class="st2" d="M458.88,542.18c0.21-0.09,6.41-1.61,6.65-1.63c0.75-0.34,1.71-0.17,2.7,0.6c1.93,1.49,3.23,4.66,2.9,7.07
				c-0.21,1.52-1,2.38-2.05,2.44c-0.21,0.09-6.41,1.61-6.65,1.63c-0.75,0.34-1.71,0.17-2.7-0.6c-1.93-1.49-3.23-4.66-2.9-7.07
				C457.04,543.1,457.84,542.24,458.88,542.18z"/>
			<path class="st2" d="M450.45,542.01c0.31-0.14,9.49-2.38,9.84-2.4c1.11-0.5,2.53-0.25,4,0.89c2.85,2.21,4.77,6.89,4.29,10.46
				c-0.3,2.24-1.48,3.52-3.03,3.6c-0.31,0.14-9.49,2.38-9.84,2.4c-1.11,0.5-2.53,0.25-4-0.89c-2.85-2.21-4.77-6.89-4.29-10.46
				C447.73,543.37,448.91,542.1,450.45,542.01z"/>
			<path class="st22" d="M450.45,541.96l-23.6-3.65l9.39,34.27l22.07-16.72C458.93,549.06,455.9,541.75,450.45,541.96z"/>
			<path class="st23" d="M430.64,552.13l5.44,18.43c0,0,22.31-15.72,22.31-16.22c0.03-2.66-0.48-5.32-1.46-7.48L430.64,552.13z"/>
			
				<ellipse transform="matrix(0.9681 -0.2506 0.2506 0.9681 -125.2698 126.1928)" class="st2" cx="432.84" cy="554.94" rx="10.45" ry="18.1"/>
			<path class="st2" d="M419.79,545.22c-2.18,7.87,0.69,18.96,6.42,24.79c5.72,5.82,12.13,4.16,14.31-3.7
				c2.18-7.87-0.69-18.96-6.42-24.79C428.37,535.69,421.97,537.35,419.79,545.22z"/>
			<path class="st5" d="M421.65,545.46c-2.02,7.3,0.64,17.59,5.95,22.98c5.31,5.4,11.25,3.86,13.27-3.43
				c2.02-7.3-0.64-17.59-5.95-22.98C429.61,536.63,423.67,538.16,421.65,545.46z"/>
			<path class="st22" d="M440.12,550.81c-1.43-4.38-3.99-7.55-5.19-8.76c-5.31-5.4-11.25-3.86-13.27,3.43
				c-0.58,2.09-1.04,4.48-0.29,9.83C425.92,547.61,433.54,547.73,440.12,550.81z"/>
			<path class="st24" d="M438.12,549.38c-1.22-1.16-2.33-1.58-3.43-1.5l0.04,0l-0.17,0.08c-0.05,0.01-0.16,0.05-0.21,0.06
				l-4.12,0.49c-0.16,0.02-0.37-0.29-0.52-0.28l0.84-0.06l0.04,0.58c0.02,0.24-2.26,1.38-2.68,2.87c-0.88,3.18,0.07,7.8,2.61,10.21
				c1.82,1.72,3.12,1.51,3.12,1.51s0.53-0.06,0.65-0.09l7.16-1.57C441.46,561.68,440.66,551.8,438.12,549.38z"/>
			<path class="st2" d="M437.54,545.42c-0.05,0.01-6.8,2.21-6.8,2.21c-0.15,0.02-0.26,0.55-0.4,0.56l0.21-0.01l0.19-0.54
				c-0.3,0.16-2.1,1-2.51,2.48c-0.88,3.18,0.26,7.61,2.57,9.96c1.09,1.11,1.2,1.61,3.22,1.34l0-0.01c0,0,7.51-2.01,7.77-2.13
				C441.73,556.22,441.06,550.78,437.54,545.42z"/>
			<polygon class="st5" points="452.05,542.85 437.68,540.69 441,545 453.3,545.02 			"/>
			<polygon class="st25" points="464.2,541.86 455.95,544.05 454.35,542.44 462.72,540.35 			"/>
		</g>
		<path class="st26" d="M537.54,732.42c0.35,3.31-7.69,4.16-8.04,0.86l-1.15-10.74l8.04-0.86L537.54,732.42z"/>
		<path class="st9" d="M472.43,731.56l12.79-9.33c1.62-0.64,5.04-0.49,7.27,0.15c1,0.29,1.65,1.27,1.57,2.31l-0.17,2.25
			c-0.14,3.25-0.49,3.67-2.64,4.51l-12.72,4.99c-2.14,0.84-5.17,0.51-6.73-0.73l-0.44-0.35C469.81,734.1,470.29,732.4,472.43,731.56
			z"/>
		<path class="st26" d="M493.42,722.78c-0.13,3.32-8.21,3-8.08-0.32l0.42-10.8l8.08,0.32L493.42,722.78z"/>
		<path class="st23" d="M493.81,719.59c-3.38,2.15-8.61,1.89-10.11-0.82c-2.88-32.96-2.41-66.37,1.15-100.19l25.8-6.47
			C502.38,652.56,493.69,688.3,493.81,719.59z"/>
		<path class="st23" d="M537.66,725.55c-2.02,4-7.77,4.64-9.85,2.13l-32.44-109.44l29.02-3.09L537.66,725.55z"/>
		<path class="st26" d="M504.29,643.58l-1.85,10.16l-4.72-21.9c1.24,0.38,2.58,0.68,3.98,0.93L504.29,643.58z"/>
		<path class="st7" d="M520.52,588.31c6.19,8.84,12.14,17.89,13.26,31.18c0.66,1.68,1.28,23.84,1.28,23.84l7.55,1.24
			c0,0,0.08-30.42-0.28-32.08l-7.14-32.41L520.52,588.31z"/>
		<path class="st7" d="M538.91,640.85l-1.03,0.11c-1.9,0.21-3.28,1.93-3.08,3.82l0.42,3.89c0.2,1.9,1.93,3.28,3.82,3.08l1.03-0.11
			c1.9-0.2,3.28-1.93,3.08-3.82l-0.42-3.89C542.53,642.03,540.81,640.64,538.91,640.85z"/>
		<path class="st2" d="M489.18,554.6l-16.09,16.32c-0.5,7.63,2.18,12.44,6.4,15.89l18.68-14.21l-5.78-11.92L489.18,554.6z"/>
		<path class="st2" d="M481.64,617.05c0.75-12.69,1.47-24.47,0.52-40.39c1.3-21.9,10.05-29.51,23.54-23.66l5.61,1.85
			c16.12,9.95,24.6,10,20.58,27.45l-5.2,38.45C525.52,640.63,479.2,640.37,481.64,617.05z"/>
		<polygon class="st2" points="520.52,588.31 525.93,618.54 526.62,621.49 528.53,607.19 		"/>
		<path class="st9" d="M501.13,551.89c0,0,1.49,2.57,2.48,3.11s15.14-5.13,14.19-16.66c-0.6-7.3-14.45-5.99-14.45-5.99
			L501.13,551.89z"/>
		<path class="st7" d="M506.89,562.63l-0.67,0.07c-2.26,0.25-4.31-1.4-4.56-3.66l-1.4-12.73c-0.25-2.26,1.4-4.31,3.66-4.56
			l0.67-0.07c2.26-0.25,4.31,1.4,4.56,3.66l3.14,12.04C512.54,559.64,509.15,562.39,506.89,562.63z"/>
		<path class="st2" d="M519.52,583.38l6.93,24.08c1.07,1.9,18.6-5.71,17.31-8.6c-0.23-0.51-7.6-29.53-17.07-34.71
			C518.99,559.94,515.78,572.37,519.52,583.38z"/>
		<path class="st10" d="M501.02,553.19c0,0,5.41,0.44,9.25-4.54c0,0-3.88,7.72-8.86,8.1L501.02,553.19z"/>
		<path class="st7" d="M504.16,548.33c-2.98,5.4-7.64,6.04-10.42,1.44c-2.78-4.6-2.62-12.7,0.36-18.1c2.98-5.4,7.64-6.04,10.42-1.44
			C507.3,534.83,507.14,542.94,504.16,548.33z"/>
		<path class="st7" d="M510.67,547.89c-2.98,5.4-13.35,7.6-16.12,3c-2.78-4.6,1.09-14.24,4.06-19.63c2.98-5.4,7.64-6.04,10.42-1.44
			C511.8,534.42,513.64,542.5,510.67,547.89z"/>
		<path class="st9" d="M505.91,533.19c0,0-2.77,11.09,5.82,14.79c0,0,10.83-4.48,4.87-16.3c-5.25-10.41-16.65-4.52-16.65-4.52
			L505.91,533.19z"/>
		<path class="st9" d="M491.91,539.07c0,0,1.83-4.67,7.97-5.93l-4.26-3.37C495.61,529.76,490.73,530.22,491.91,539.07z"/>
		<path class="st9" d="M509.7,540.42c-1.61-2.89-5.8-3.41-12.02-2.05c-0.95,0.21-1.94,0.23-2.86-0.09c-4.3-1.49-4.25-7.07-4.25-7.07
			c-0.47-3.79,2.17-5.13,5.96-5.6l9.88-1.23c5.59-0.73,10.24,4.4,10.71,8.2l0.17,0.64C517.77,537.01,513.49,539.95,509.7,540.42z"/>
		<path class="st7" d="M512.78,547.77c-0.72,1.31-2.37,1.79-3.69,1.07c-1.31-0.72-1.79-2.37-1.07-3.69
			c0.72-1.31,2.37-1.79,3.69-1.07C513.02,544.8,513.5,546.46,512.78,547.77z"/>
	</g>
	<g>
		<path class="st16" d="M428.73,184.56c-0.92,5.85,1.44,39.62,2.03,47.76c0.07,0.97,0.56,1.86,1.34,2.42v4.37
			c-0.07,0.03-0.15,0.07-0.21,0.1l-11.09,11.27c-1.98,1.18-2.17,2.93-0.43,3.9l0.49,0.28c1.74,0.97,4.77,0.81,6.75-0.37l11.73-6.98
			c1.98-1.18,2.26-1.65,1.87-4.87l-0.2-2.24c-0.05-0.62-0.37-1.18-0.83-1.55v-4.35c0.34-0.49,0.63-1.09,0.85-1.84
			c1.89-6.39,1.5-26.62,5.05-35.74c-0.46,6.82,2.81,36.74,3.68,44.43c0.11,0.95,0.62,1.78,1.37,2.31l0.78,6.24
			c-0.06,0.04-0.14,0.08-0.2,0.13l-9.61,12.56c-1.81,1.41-1.79,3.18,0.05,3.93l0.52,0.21c1.84,0.75,4.84,0.21,6.65-1.2l10.77-8.38
			c1.81-1.41,2.04-1.91,1.25-5.07l-0.47-2.2c-0.13-0.61-0.51-1.12-1.01-1.44l-0.67-5.32c0.35-0.5,0.65-1.1,0.87-1.88
			c1.87-6.81,0.33-29.81,5.14-36.58c0.48-0.68,1.11-1.37,1.88-2.09l-36.47-20.95C429.56,182.56,428.87,183.63,428.73,184.56z"/>
		<path class="st16" d="M467.08,202.37c0,0,19.21-10.5,14.39-22.75c-4.82-12.25-24.71,16.81-24.71,16.81L467.08,202.37z"/>
		<path class="st9" d="M448.33,184.84c1.69,0,35.51,12.19,35.48-15.82c-0.03-28.01-43.17,3.97-43.17,3.97L448.33,184.84z"/>
		<path class="st27" d="M409.39,245.5l11.09-11.27c1.5-0.89,4.88-1.3,7.19-1.03c1.04,0.12,1.83,0.98,1.92,2.02l0.2,2.24
			c0.39,3.23,0.11,3.7-1.86,4.87l-11.73,6.98c-1.98,1.18-5.01,1.34-6.75,0.37l-0.49-0.28C407.22,248.43,407.42,246.67,409.39,245.5z
			"/>
		<path class="st19" d="M428.77,234.66c0,3.32-8.08,3.32-8.08,0v-10.79h8.08V234.66z"/>
		<path class="st27" d="M430.7,257.41l9.61-12.56c1.37-1.07,4.68-1.9,7.01-1.91c1.04-0.01,1.94,0.74,2.16,1.76l0.47,2.2
			c0.79,3.15,0.57,3.65-1.25,5.07l-10.77,8.38c-1.81,1.41-4.81,1.95-6.65,1.2l-0.52-0.21C428.91,260.59,428.89,258.82,430.7,257.41z
			"/>
		<path class="st19" d="M448.59,244.26c0.41,3.29-7.6,4.3-8.01,1l-1.34-10.71l8.01-1L448.59,244.26z"/>
		<path class="st9" d="M446.74,159.28c0,0-25,12.8-26.05,19.45c-0.92,5.85-1.93,40.47-1.34,48.6c0.08,1.16,0.77,2.21,1.83,2.71
			c2.48,1.18,6.95,2.47,8.44-2.58c2.11-7.12,1.38-31.44,6.42-38.4c5.04-6.96,30.05-16.78,30.05-16.78L446.74,159.28z"/>
		<path class="st9" d="M463.52,170.89c0,0-27.97,13.95-28.79,20.29c-0.72,5.53,2.74,37.06,3.63,44.99c0.14,1.22,0.94,2.25,2.08,2.7
			c2.55,1.01,6.93,1.94,8.23-2.8c1.87-6.81,0.33-29.81,5.14-36.58c2.61-3.67,9.33-7.82,20.8-13.24c5.24-2.48,9-12.78,2.63-13.6
			L463.52,170.89z"/>
		<path class="st7" d="M439.26,120.44l-5.33,20.45c-0.46,2.43-1.29,5.98-1.88,10.14c-0.93,6.46,0.93,13.5,4.89,18.36
			c0,0,1.9-10.01,3.78-14.73c3.31-8.27,6.02-18.02,6.01-18.35C446.7,135.78,439.26,120.44,439.26,120.44z"/>
		<path class="st23" d="M447.17,106.55l-12.55,21.56c1.72,6.85,5.43,10.34,10.12,12.18l3.99-26.64L447.17,106.55z"/>
		<path class="st28" d="M437.48,125.5c0,0,2.02,5.96,13.27,9.81"/>
		<path class="st23" d="M443.4,158.29c1.93-10.61,1.51-17.08-0.24-31.72c0-20.27,6.17-27.81,18.95-23.15l5.28,1.4
			c15.41,8.3,23.24,7.89,20.49,24.2l-2.7,35.76C485.17,183.18,442.42,179.93,443.4,158.29z"/>
		<path class="st9" d="M460.11,103.56c0,0,2.02,1.86,3.04,2.07c1.02,0.21,11.98-8.64,8.01-18.57c-2.51-6.29-14.39-1.36-14.39-1.36
			L460.11,103.56z"/>
		<path class="st7" d="M463.73,112.23l-0.61,0.1c-2.07,0.35-4.05-1.05-4.4-3.12l-1.98-11.67c-0.35-2.07,1.05-4.05,3.12-4.4l0.61-0.1
			c2.07-0.35,4.05,1.05,4.4,3.12l3.55,10.94C468.78,109.16,465.8,111.88,463.73,112.23z"/>
		<path class="st10" d="M458.07,105.4c0,0,5.01,0.11,8.28-4.7c0,0-3.16,7.33-7.73,7.96L458.07,105.4z"/>
		
			<ellipse transform="matrix(0.9796 -0.201 0.201 0.9796 -9.5263 93.3949)" class="st7" cx="455.12" cy="93.61" rx="6.75" ry="11.9"/>
		<path class="st7" d="M467.45,97.44c-1.16,5.58-6.87,7.98-10.57,4.67c-3.7-3.31-5.76-10.51-4.6-16.09c1.16-5.58,5.11-7.41,8.81-4.1
			C464.79,85.23,468.61,91.86,467.45,97.44z"/>
		<path class="st9" d="M459.25,85.75c0,0,0.57,10.55,9.16,11.48c0,0,8.35-6.9-0.13-15.72c-7.47-7.77-15.93,0.53-15.93,0.53
			L459.25,85.75z"/>
		<path class="st18" d="M448.1,90.27c0,0,2.11-4.13,7.87-4.73l-3.61-3.49C452.35,82.04,447.83,82.02,448.1,90.27z"/>
		<path class="st9" d="M464.57,91.1c-2.34-2.24-6.5-1.35-12.1,1.98c-5.47,1.27-7.31-4.92-7.31-4.92c-1.45-3.22,0.53-5.12,3.75-6.57
			l8.39-3.77c4.74-2.16,10.24,1.11,11.69,4.33l0.32,0.52C470.76,85.9,467.79,89.66,464.57,91.1z"/>
		<path class="st7" d="M469.03,98.69c-0.28,1.36-1.61,2.23-2.97,1.94c-1.36-0.28-2.23-1.61-1.94-2.97c0.28-1.36,1.61-2.23,2.97-1.94
			C468.44,96.01,469.31,97.34,469.03,98.69z"/>
		<path class="st5" d="M458.07,105.4c0,0-4.24,5.91,1.74,8.46c9.47,4.03,12.41-6.69,10.93-7.31l-2.99-1.54c0,0,2.06,2.95-0.95,5.48
			c-2.23,1.87-6.23,2.28-7.94-0.66L458.07,105.4z"/>
		<polygon class="st29" points="474.18,126.56 474.18,161.28 480.59,157.52 		"/>
		<g>
			<path class="st30" d="M467.28,174.77l-2.96-1.04l-0.35-0.35l-0.22-0.4l-22.31-11.6c-0.27-0.14-0.71-0.12-0.99,0.04l-8.52,5
				l-0.02-0.14l-1.61,0.64l0.07,0.66h0.01c0.03,0.06,0.09,0.12,0.18,0.17l23.22,12.07c0.03,0.02,0.05,0.05,0.06,0.09
				c0.49,1.78,1.3,3.37,2.81,2.45l9.43-5.56C466.84,176.39,467.28,175.63,467.28,174.77L467.28,174.77z"/>
			<path class="st31" d="M454.73,181.67l-26.74-13.9c-0.31-0.16-0.3-0.44,0.01-0.63l11.36-6.66c0.32-0.19,0.83-0.21,1.14-0.05
				l26.74,13.9c0.31,0.16,0.3,0.44-0.01,0.63l-11.36,6.66C455.55,181.81,455.04,181.83,454.73,181.67z"/>
			<path class="st30" d="M455.48,172.71l-6.47-3.37c-0.07-0.04-0.07-0.11,0-0.15l2.75-1.61c0.08-0.04,0.2-0.05,0.28-0.01l6.47,3.37
				c0.07,0.04,0.07,0.11,0,0.15l-2.75,1.61C455.68,172.75,455.56,172.75,455.48,172.71z"/>
			<path class="st5" d="M452.39,166.02c-0.17-0.63-0.77-1.38-1.34-1.68l-26.52-13.59c-0.24-0.12-0.43-0.14-0.56-0.08l0,0l0,0
				c-0.05,0.02-0.09,0.05-0.12,0.1l-0.74,0.83l0.75-0.06l3.98,14.69c0.17,0.63,0.77,1.38,1.34,1.68l25.08,12.85l0.85,0.82l0.12,0.2
				c0.49,0.1,1.55-0.68,1.55-0.68L452.39,166.02z"/>
			<path class="st27" d="M454.89,182.38c0,0-27.7-14.63-27.87-15.27L423,152.26c-0.17-0.63,0.15-0.91,0.72-0.62l26.52,13.59
				c0.57,0.29,1.17,1.04,1.34,1.68l4.02,14.86C455.79,182.4,455.46,182.67,454.89,182.38z"/>
			<path class="st5" d="M440.02,168c0.21,0.79-0.52,0.97-1.63,0.39c-1.11-0.57-2.19-1.67-2.41-2.46c-0.21-0.79,0.52-0.97,1.63-0.39
				S439.81,167.21,440.02,168z"/>
		</g>
		<path class="st7" d="M475.23,126.56l3.51,31.12c0.14,1.67-25.45,9.87-25.45,9.87l2.15,9.02l26.17-6.7
			c6.92-2.9,6.74-8.19,6.66-12.54l-0.48-26.96L475.23,126.56z"/>
		<path class="st23" d="M474.45,129.97l2.21,23.05c0.65,1.91,17.87-2.03,17.19-4.88c-0.12-0.5-1.89-28.12-9.62-34.43
			C477.95,108.59,472.92,119.34,474.45,129.97z"/>
		<path class="st28" d="M476.61,146.91c0,0,7.13,1.85,15.97-4.65"/>
	</g>
	<g>
		<path class="st16" d="M407.7,457.65l-8.58-10.52l-96.68,57.58c-2.47,1.38-3.46,4.19-2.2,6.25c1.26,2.06,4.31,2.62,6.78,1.25
			L407.7,457.65z"/>
		<path class="st16" d="M436.67,482.66l-83.51,51.52c-2.47,1.38-3.46,4.19-2.2,6.25c1.26,2.06,4.31,2.62,6.78,1.25l89.61-53.43
			L436.67,482.66z"/>
		<path class="st9" d="M418.11,296.8l-0.42-0.24c-1.48-0.84-3.2,0.36-3.82,2.67l-7.78,29.1l-46.37-26.44l7.78-29.1
			c0.62-2.31-0.09-4.9-1.57-5.74l-0.42-0.24c-1.48-0.84-3.2,0.36-3.82,2.67l-8.42,31.47l0,0l-0.82,3.06v0l-10.08,37.68l0,0
			l-0.6,2.26l-10.29,38.49l0,0l-0.04,0.15l-11.25,42.08l-0.42,1.57v0l-10.08,37.68v0l-0.82,3.06l0,0l-10.55,39.43
			c-0.62,2.31,0.09,4.9,1.57,5.74l0.42,0.24c1.48,0.84,3.2-0.36,3.82-2.67l9.91-37.06l46.37,26.44l-9.91,37.06
			c-0.62,2.31,0.09,4.9,1.57,5.74l0.42,0.24c1.48,0.84,3.2-0.36,3.82-2.67l63.37-236.95C420.3,300.23,419.6,297.64,418.11,296.8z
			 M404.01,336.14l-8.81,32.94l-46.37-26.44l8.81-32.94L404.01,336.14z M384.3,409.82l-46.37-26.44l8.81-32.94l46.37,26.44
			L384.3,409.82z M373.4,450.57l-46.37-26.44l8.81-32.94l46.37,26.44L373.4,450.57z M316.13,464.87l8.81-32.94l46.37,26.44
			l-8.81,32.94L316.13,464.87z"/>
	</g>
	<g>
		
			<ellipse transform="matrix(0.9993 -0.0383 0.0383 0.9993 -24.9092 25.5772)" class="st16" cx="655.32" cy="663.13" rx="25.65" ry="13.32"/>
		<path class="st9" d="M635.87,657.69l8.85-14.05c1.29-1.31,4.46-2.8,6.7-3.29c1.01-0.22,1.9,0.31,2.14,1.24l0.53,2.01
			c0.87,2.86,0.67,3.39-1.03,5.12L642.96,659c-1.7,1.73-4.58,2.87-6.38,2.54l-0.51-0.09C634.26,661.11,634.17,659.42,635.87,657.69z
			"/>
		<path class="st19" d="M652.44,640.5c0.55,3.06-7.14,5.79-7.69,2.73l-1.8-9.94l7.69-2.73L652.44,640.5z"/>
		<path class="st9" d="M652.6,635.1c-3.4,2.23-9.02,4.08-10.23,1.48c-5.95-34.12-3.28-67.78,7.76-99.22l23.96-6.59
			C659.64,568.77,653.81,604.78,652.6,635.1z"/>
		<polygon class="st9" points="667.83,561.75 666.28,573.1 663.02,550.41 666.8,551.18 		"/>
		<path class="st9" d="M646.86,664.35l12.76-9.09c1.58-0.61,4.81-0.41,6.89,0.27c0.93,0.31,1.48,1.29,1.34,2.32l-0.31,2.24
			c-0.35,3.23-0.71,3.65-2.8,4.45l-12.4,4.76c-2.09,0.8-4.94,0.43-6.34-0.84l-0.4-0.36C644.2,666.84,644.77,665.15,646.86,664.35z"
			/>
		<path class="st19" d="M667.31,656.21c-0.69,3.27-8.2,1.93-7.51-1.33l2.24-10.61l7.51,1.33L667.31,656.21z"/>
		<path class="st9" d="M670.77,648.23c-3.21,3.5-8.78,3.05-9.88,0.23l5.93-111.95l28.09,2.38L670.77,648.23z"/>
		<g>
			<path class="st7" d="M650.13,485.25l-6.13,17.6c-1.01,3.83-5.24,5.47-8.32,3.24l-6.71-4.85l-0.6,9.52l9.75,7.11
				c3.62,2.64,8.59,1.36,10.68-2.75c3.67-7.22,8.6-16.96,8.6-17.24C657.39,497.45,650.13,485.25,650.13,485.25z"/>
			<path class="st23" d="M653.68,474.82l-10.8,21.59c1.76,7.51,5.58,11.33,10.4,13.35l4.1-29.2L653.68,474.82z"/>
			<path class="st32" d="M644.36,490.45c0,0,3.53,9.62,15.1,13.84"/>
			<path class="st23" d="M650.13,534.18v-39.51c0-22.22,7.87-30.45,21-25.34l5.42,1.54c15.84,9.1,23.89,8.65,21.06,26.53l-2.77,39.2
				C694.84,556.78,649.12,557.91,650.13,534.18z"/>
			<polygon class="st33" points="687.16,504.17 693.99,534.42 694.81,537.36 695.81,522.78 			"/>
			<path class="st9" d="M671.32,468.65c0,0,2.5,1.6,3.61,1.6c1.11,0,9.93-10.05,3.65-20.15c-3.98-6.4-14.62-0.5-14.62-0.5
				L671.32,468.65z"/>
			<path class="st7" d="M695.56,482.77c0,0,11.39,15.1,14.57,46.92c0.87,8.75-6.62,15.79-14.63,13.68l-21.12-5.89l0.05-5.6
				c0,0,26.73,7.49,24.72-1.78C696.88,519.66,679.02,491.25,695.56,482.77z"/>
			
				<ellipse transform="matrix(0.9339 -0.3575 0.3575 0.9339 -120.1279 267.6812)" class="st7" cx="663.96" cy="458.76" rx="7.24" ry="13.37"/>
			<path class="st7" d="M677.62,460.16c0,6.46-5.41,10.45-9.99,7.63c-4.57-2.82-8.28-10.33-8.28-16.79c0-6.46,3.71-9.41,8.28-6.59
				C672.21,447.23,677.62,453.71,677.62,460.16z"/>
			<path class="st7" d="M672.8,479.01l-0.63,0.11c-2.13,0.39-4.16-1.16-4.53-3.43l-2.04-12.79c-0.36-2.27,1.08-4.44,3.21-4.83
				l0.63-0.11c2.13-0.39,4.16,1.16,4.53,3.43l3.65,11.99C677.98,475.64,674.92,478.62,672.8,479.01z"/>
			<path class="st34" d="M640.36,516.98l-9.4-3.27c-0.58-0.15-1.15-0.86-1.27-1.6l-3.12-19.25c-0.12-0.74,0.26-1.21,0.84-1.07
				l9.71,2.43c0.58,0.15,1.15,0.86,1.27,1.6l3.11,19.16c0.08,0.48-0.12,0.83-0.39,1.1L640.36,516.98z"/>
			<path class="st23" d="M632.09,499.78c0,0-2.28,13.05-2.4,12.32l-3.93-19.03l1.04-1.16c0.15-0.13,0.36-0.18,0.6-0.12l9.71,2.43
				c0.28,0.07,0.56,0.28,0.79,0.56L632.09,499.78z"/>
			<g>
				<g>
					<path class="st5" d="M639.69,517.18l-9.69-2.44c-0.58-0.15-1.13-0.87-1.25-1.6l-3.12-19.25c-0.12-0.74,0.24-1.21,0.83-1.06
						l9.69,2.44c0.58,0.15,1.12,0.87,1.24,1.6l3.12,19.25C640.63,516.85,640.27,517.32,639.69,517.18z"/>
				</g>
			</g>
			<path class="st35" d="M639.14,517.04l-9.4-2.36c-0.56-0.14-1.09-0.84-1.21-1.55l-3.03-18.67c-0.12-0.71,0.24-1.17,0.8-1.03
				l9.39,2.37c0.56,0.14,1.09,0.84,1.21,1.56l3.03,18.67C640.05,516.73,639.71,517.19,639.14,517.04z"/>
			<g>
				<path class="st36" d="M637.3,509.76"/>
			</g>
			<path class="st7" d="M629.25,510.38L629.25,510.38c-1.5,0.28-2.94-0.79-3.2-2.38l-0.78-4.68c-0.27-1.59,0.74-3.13,2.23-3.42l0,0
				c1.5-0.28,2.94,0.79,3.2,2.38l0.78,4.68C631.75,508.56,630.74,510.1,629.25,510.38z"/>
			<path class="st7" d="M678.58,462.55c0,1.57-1.19,2.84-2.66,2.84c-1.47,0-2.66-1.27-2.66-2.84c0-1.57,1.19-2.84,2.66-2.84
				C677.39,459.71,678.58,460.98,678.58,462.55z"/>
			<path class="st9" d="M663.09,449.61c0,0,1.08,14.98,15.49,10.1c0,0,7.18-9.59-3.54-17.41c-9.46-6.89-16.46,4.28-16.46,4.28
				L663.09,449.61z"/>
			<path class="st23" d="M685.93,499.23l7.92,23.94c1.12,1.86,17.32-6.88,15.94-9.74c-0.24-0.5-8.87-29.41-18.14-34.08
				C684.12,475.56,681.77,488.33,685.93,499.23z"/>
			<path class="st9" d="M655.93,456.68c0,0,1.3-5.07,7.16-7.07l-4.52-3.04C658.57,446.57,653.86,447.6,655.93,456.68z"/>
			<g>
				<g>
					<path class="st37" d="M670.8,541.06c-3.3,2.03-8.66,2.02-11.98-0.02c-3.32-2.04-3.34-5.35-0.04-7.38
						c3.3-2.03,8.66-2.02,11.98,0.02C674.08,535.73,674.09,539.03,670.8,541.06z"/>
				</g>
			</g>
			<g>
				<g>
					<rect x="656.31" y="522.86" class="st37" width="16.95" height="14.5"/>
				</g>
			</g>
			<g>
				<g>
					<path class="st38" d="M668.27,522.78v14.5h0c0.01,1.34-0.81,2.68-2.46,3.7c-0.99,0.61-2.17,1.03-3.43,1.28
						c2.91,0.56,6.2,0.14,8.49-1.28c1.66-1.02,2.48-2.36,2.46-3.7h0l-0.07-14.32L668.27,522.78z"/>
				</g>
			</g>
			<g>
				<g>
					<path class="st5" d="M670.8,526.56c-3.3,2.03-8.66,2.02-11.98-0.02s-3.34-5.35-0.04-7.38c3.3-2.03,8.66-2.02,11.98,0.02
						C674.08,521.22,674.09,524.53,670.8,526.56z"/>
				</g>
			</g>
			<path class="st39" d="M669.8,525.83c-2.73,1.68-7.16,1.67-9.9-0.02c-2.74-1.69-2.76-4.42-0.03-6.1c2.73-1.68,7.16-1.67,9.9,0.02
				C672.51,521.42,672.52,524.15,669.8,525.83z"/>
			<path class="st40" d="M669.76,522.36c-2.74-1.69-7.18-1.7-9.9-0.02c-0.81,0.5-1.37,1.09-1.7,1.72c0.33,0.64,0.9,1.24,1.73,1.75
				c2.74,1.69,7.18,1.7,9.9,0.02c0.81-0.5,1.37-1.09,1.7-1.72C671.16,523.47,670.59,522.87,669.76,522.36z"/>
			<path class="st41" d="M659.86,525.83c-0.81-0.5-1.37-1.09-1.7-1.72c0.19-0.37,0.46-0.72,0.81-1.05c2.37-0.42,5.02-0.06,6.88,1.08
				c0.81,0.5,1.37,1.09,1.7,1.72c0.15,0.28,0.26,0.55,0.3,0.81c-0.41,0.11-0.78,0.19-1.11,0.24
				C664.37,527.34,661.72,526.98,659.86,525.83z"/>
			<g>
				<path class="st35" d="M670.05,529.52c0.96,0.54,2.42,1.01,2.75,2.25c0.28,1.04,0.08,2.52,0.07,3.6c0,0.54-0.06,1.11-0.02,1.64
					c0,0.2-0.01,0.41-0.01,0.61c0.36,0.48,0.37,0.61,0.02,0.41c-0.41,0.06-1.41-0.72-1.79-0.93c-1.24-0.69-2.34,1.31-1.1,2
					c0.91,0.5,2.2,1.49,3.28,1.36c1.53-0.18,1.74-1.82,1.77-3.14c0.05-2.02,0.31-4.44-0.12-6.42c-0.4-1.84-2.36-2.6-3.76-3.38
					C669.91,526.83,668.82,528.83,670.05,529.52L670.05,529.52z"/>
			</g>
			<path class="st7" d="M674.37,537.49l-0.6-0.03c-1.1-0.06-1.96-1.07-1.9-2.25l0.12-2.41c0.06-1.17,1.01-2.09,2.11-2.02l0.6,0.03
				c1.1,0.06,1.96,1.07,1.9,2.25l-0.12,2.41C676.42,536.64,675.47,537.55,674.37,537.49z"/>
			<path class="st42" d="M682.23,513.63c0,1.22-0.95,2.21-2.1,2.16c-2.94-0.12-5.71-1.69-5.71-4.97v-11.25
				c0-0.72,0.83-1.09,1.3-0.57c1.7,1.93,3.68,2.82,5.84,3.01c0.39,0.03,0.68,0.39,0.68,0.8V513.63z"/>
			<path class="st42" d="M674.42,500.69c1.35,2.98,4.28,4.28,7.82,4.93"/>
			<path class="st40" d="M638.54,500.02L638.54,500.02c-0.14,0.03-0.28-0.08-0.31-0.23l-0.25-1.46c-0.03-0.15,0.07-0.3,0.22-0.33
				l0,0c0.14-0.03,0.28,0.08,0.31,0.23l0.25,1.46C638.78,499.85,638.68,500,638.54,500.02z"/>
			<path class="st40" d="M638.94,502.41L638.94,502.41c-0.14,0.03-0.28-0.08-0.31-0.23l-0.25-1.46c-0.03-0.15,0.07-0.3,0.22-0.33
				l0,0c0.14-0.03,0.28,0.08,0.31,0.23l0.25,1.46C639.18,502.23,639.09,502.38,638.94,502.41z"/>
			<g>
				<g>
					<path class="st5" d="M635.5,500.08L635.5,500.08c-0.32-0.1-0.64-0.51-0.71-0.9l-0.35-2.09c-0.07-0.4,0.14-0.64,0.47-0.54l0,0
						c0.32,0.1,0.64,0.51,0.71,0.9l0.35,2.09C636.03,499.94,635.82,500.18,635.5,500.08z"/>
				</g>
			</g>
			<path class="st40" d="M635.37,497.54c0,0.26-0.18,0.4-0.39,0.31c-0.22-0.09-0.39-0.38-0.39-0.64s0.18-0.4,0.39-0.31
				C635.19,496.99,635.37,497.28,635.37,497.54z"/>
			<path class="st32" d="M691.63,516.45c0,0,8.93-0.09,16.14-9.34"/>
			<path class="st10" d="M666.97,471.04c0,0,5.15,0.12,8.51-5.15c0,0-3.24,8.04-7.94,8.73L666.97,471.04z"/>
		</g>
	</g>
</g>
</svg>
