<svg id="Layer_1" data-name="Layer 1" xmlns="http://www.w3.org/2000/svg" viewBox="0 0 362.8 357.62"><defs><style>.cls-1{fill:#4d565c;}.cls-2{fill:#f28f1a;}.cls-3{fill:#c56c14;}</style></defs><path class="cls-1" d="M99.38,225a119.39,119.39,0,0,0,.61,12.18l.12.67a78.35,78.35,0,0,1,22.7-2.59,90.8,90.8,0,0,1,14.27,1.32,86.85,86.85,0,0,1-.77-11.58c0-48.26,39.71-87.38,88.7-87.38a90.86,90.86,0,0,1,14,1.09,90.61,90.61,0,0,1,7.42-52.91l-3.13-10.44a151.16,151.16,0,0,0-36.57,0l-8.59,28.73a128.51,128.51,0,0,0-23.52,7.52L150.48,93.34a154,154,0,0,0-29.54,21.19l10.21,28.24a123.74,123.74,0,0,0-14.53,19.68l-30.45-.82a149.73,149.73,0,0,0-11.31,34.24L100,212.81A119.59,119.59,0,0,0,99.38,225Z" transform="translate(-43.6 -46.19)"/><path class="cls-1" d="M350.67,225c0-4.13-.23-8.18-.62-12.19l1.66-1.11a90.92,90.92,0,0,1-24.5,3h0a90.68,90.68,0,0,1-14.27-1.31,86.59,86.59,0,0,1,.77,11.57c0,48.27-39.71,87.4-88.7,87.4a89.63,89.63,0,0,1-14-1.09,90.63,90.63,0,0,1-7.42,52.87l3.12,10.46a151.16,151.16,0,0,0,36.57,0l8.61-28.75a124.35,124.35,0,0,0,23.5-7.52l24.12,18.29a153.25,153.25,0,0,0,29.57-21.18L318.9,307.2a122.25,122.25,0,0,0,14.52-19.65l30.43.82a146.67,146.67,0,0,0,11.29-34.24l-25.09-16.95C350.44,233.18,350.67,229.12,350.67,225Z" transform="translate(-43.6 -46.19)"/><path class="cls-2" d="M177.6,271.21a77.71,77.71,0,0,1,19.3,33.51L305.41,198.94a78.07,78.07,0,0,1-52.31-53.66L144.6,251.06A77.84,77.84,0,0,1,177.6,271.21Z" transform="translate(-43.6 -46.19)"/><path class="cls-2" d="M47.3,349.51l45.33-44.2a6.51,6.51,0,0,1,9.21.12l39.65,40.65a6.5,6.5,0,0,1-.13,9.21L96,399.48a78.12,78.12,0,1,0-48.72-50Z" transform="translate(-43.6 -46.19)"/><path class="cls-3" d="M272.34,178.76A77.6,77.6,0,0,1,253,145.25l-17,16.61a78.13,78.13,0,0,0,52.31,53.66l17-16.61A77.84,77.84,0,0,1,272.34,178.76Z" transform="translate(-43.6 -46.19)"/><path class="cls-3" d="M177.56,271.17a77.48,77.48,0,0,1,19.3,33.51l17-16.62a78.13,78.13,0,0,0-52.31-53.66l-17,16.62A77.74,77.74,0,0,1,177.56,271.17Z" transform="translate(-43.6 -46.19)"/><path class="cls-2" d="M402.7,100.5l-45.33,44.2a6.51,6.51,0,0,1-9.21-.12l-39.63-40.66a6.51,6.51,0,0,1,.11-9.21L354,50.52a78.13,78.13,0,1,0,48.72,50Z" transform="translate(-43.6 -46.19)"/></svg>