<svg width="347" height="221" viewBox="0 0 347 221" fill="none" xmlns="http://www.w3.org/2000/svg">
<g clip-path="url(#clip0)">
<path opacity="0.3" d="M32.2036 58.574H141.726C159.538 58.574 173.93 73.0608 173.93 90.8749V188.699C173.93 206.564 159.487 221 141.726 221H32.2036C14.4431 221 0 206.564 0 188.699V90.8749C0 73.0608 14.4431 58.574 32.2036 58.574Z" fill="#301706"/>
<path d="M32.2035 71.4739H141.726C152.444 71.4739 161.069 80.1762 161.069 90.8749V188.699C161.069 199.449 152.393 208.1 141.726 208.1H32.2035C21.486 208.1 12.861 199.398 12.861 188.699V90.8749C12.861 80.1762 21.537 71.4739 32.2035 71.4739Z" fill="url(#paint0_linear)"/>
<path opacity="0.5" d="M124.017 198.476C105.491 198.476 105.491 179.127 86.9649 179.127C68.4389 179.127 68.4389 198.476 49.9129 198.476C31.3869 198.476 31.3869 179.127 12.861 179.127V188.802C12.861 199.449 21.486 208.1 32.1525 208.1H141.828C152.444 208.049 161.069 199.449 161.12 188.75V179.075C142.543 179.127 142.543 198.476 124.017 198.476Z" fill="url(#paint1_linear)"/>
<path opacity="0.5" d="M161.12 114.678C142.594 114.678 142.594 134.028 124.068 134.028C105.542 134.028 105.542 114.678 87.0157 114.678C68.4897 114.678 68.4897 134.028 49.9637 134.028C31.4377 134.028 31.4377 114.678 12.9117 114.678V146.928C31.4377 146.928 31.4377 166.278 49.9637 166.278C68.4897 166.278 68.4897 146.928 87.0157 146.928C105.542 146.928 105.542 166.278 124.068 166.278C142.594 166.278 142.594 146.928 161.12 146.928V114.678Z" fill="url(#paint2_linear)"/>
<path opacity="0.5" d="M161.12 146.877V179.126C142.594 179.126 142.594 198.476 124.068 198.476C105.542 198.476 105.542 179.126 87.0157 179.126C68.4897 179.126 68.4897 198.476 49.9637 198.476C31.4377 198.476 31.4377 179.126 12.9117 179.126V146.877C31.4377 146.877 31.4377 166.227 49.9637 166.227C68.4897 166.227 68.4897 146.877 87.0157 146.877C105.542 146.877 105.542 166.227 124.068 166.227C142.594 166.227 142.543 146.877 161.12 146.877Z" fill="url(#paint3_linear)"/>
<path d="M116.77 201.855L114.83 206.616V208.1H127.998L116.77 201.855Z" fill="url(#paint4_linear)"/>
<path d="M139.277 84.7832L128.355 65.8429C128.1 65.2286 127.64 64.7679 127.028 64.512C125.854 64.0512 124.527 64.6655 124.119 65.8429L113.197 84.7832C112.789 85.2951 112.636 85.9606 112.738 86.5749C112.942 87.8034 114.116 88.6737 115.341 88.4689H137.184C137.848 88.5713 138.46 88.4177 138.97 87.957C139.94 87.1891 140.093 85.7558 139.277 84.7832ZM127.589 72.9071L127.13 79.4594H125.344L124.885 72.9071H127.589ZM126.16 83.657C125.446 83.6058 124.885 83.0428 124.885 82.3773C124.936 81.6094 125.65 81.0463 126.365 81.1487C127.028 81.1999 127.538 81.7118 127.589 82.3773C127.589 83.1451 126.926 83.7082 126.16 83.657Z" fill="url(#paint5_linear)"/>
<path d="M127.589 72.9072L127.13 79.4595H125.344L124.936 72.9072H127.589Z" fill="white"/>
<path d="M127.64 82.3773C127.589 83.1452 126.977 83.7083 126.211 83.6571C125.497 83.6059 124.936 83.0428 124.936 82.3773C124.987 81.6095 125.701 81.0464 126.416 81.1488C127.028 81.1999 127.538 81.7118 127.64 82.3773Z" fill="white"/>
<path d="M40.6754 78.2311C42.1044 78.2311 43.4313 77.668 44.4521 76.593L46.5956 74.3406V70.4502H30.7234L28.0696 77.1561L37.8684 80.4835C38.1236 79.1525 39.2974 78.2311 40.6754 78.2311Z" fill="url(#paint6_linear)"/>
<path d="M32.2072 56.1833L53.6932 59.4083C55.2753 59.6131 56.7554 60.4833 57.725 61.7631C58.3885 62.7357 58.7457 63.8619 58.7457 65.0392C58.7457 66.2166 58.4395 67.4452 57.8781 68.469C56.9595 70.107 55.3263 71.2844 53.4891 71.5404L32.2582 74.9701V56.1833H32.2072Z" fill="#C9E2F4"/>
<path d="M32.2071 75.0213C37.3934 75.0213 41.5977 70.8043 41.5977 65.6023C41.5977 60.4004 37.3934 56.1833 32.2071 56.1833C27.0208 56.1833 22.8165 60.4004 22.8165 65.6023C22.8165 70.8043 27.0208 75.0213 32.2071 75.0213Z" fill="url(#paint7_linear)"/>
<path d="M32.2071 72.769C36.1532 72.769 39.3522 69.5604 39.3522 65.6024C39.3522 61.6444 36.1532 58.4358 32.2071 58.4358C28.2611 58.4358 25.0621 61.6444 25.0621 65.6024C25.0621 69.5604 28.2611 72.769 32.2071 72.769Z" fill="url(#paint8_linear)"/>
<path d="M38.5866 65.6023C38.5866 65.6535 38.5866 65.7559 38.5866 65.8071C38.4845 69.1856 35.7796 71.8987 32.4112 72.0011C32.3602 72.0011 32.2581 72.0011 32.2071 72.0011C31.9009 72.0011 31.5436 72.0011 31.2374 71.8987C30.9312 71.8475 30.574 71.7451 30.2677 71.6427C29.5022 71.3868 28.7877 70.9773 28.1242 70.4654C27.9201 70.2606 27.716 70.107 27.5118 69.8511C27.4097 69.7487 27.3077 69.6463 27.2566 69.5439C26.338 68.4177 25.8276 66.9844 25.8276 65.5511C25.8276 62.019 28.6856 59.1523 32.2071 59.1523C33.6361 59.1523 35.0651 59.6642 36.1879 60.5857C36.29 60.688 36.392 60.7392 36.4941 60.8416C36.6983 61.0464 36.9024 61.2511 37.1065 61.4559C37.6169 62.0702 38.0252 62.7868 38.2804 63.6059C38.3824 63.913 38.4845 64.2202 38.5355 64.5785C38.5355 64.988 38.5866 65.2952 38.5866 65.6023Z" fill="url(#paint9_linear)"/>
<path d="M30.5229 64.425C31.4813 64.425 32.2582 63.6458 32.2582 62.6846C32.2582 61.7233 31.4813 60.9441 30.5229 60.9441C29.5646 60.9441 28.7877 61.7233 28.7877 62.6846C28.7877 63.6458 29.5646 64.425 30.5229 64.425Z" fill="white"/>
<path d="M38.2671 63.643L30.2545 71.6798C29.4889 71.4239 28.7744 71.0143 28.111 70.5024L37.0933 61.5442C37.6036 62.1585 38.0119 62.8751 38.2671 63.643Z" fill="url(#paint10_linear)"/>
<path d="M36.4809 60.9298L27.4986 69.9392C27.3965 69.8369 27.2944 69.7345 27.2434 69.6321L36.1747 60.6738C36.2767 60.725 36.3788 60.8274 36.4809 60.9298Z" fill="url(#paint11_linear)"/>
<path d="M38.5733 65.6393C38.5733 65.6905 38.5733 65.7929 38.5733 65.844L32.3979 71.9869C32.3469 71.9869 32.2448 71.9869 32.1938 71.9869C31.8876 71.9869 31.5303 71.9869 31.2241 71.8845L38.4712 64.6155C38.5222 64.9738 38.5733 65.2809 38.5733 65.6393Z" fill="url(#paint12_linear)"/>
<path d="M155.506 162.387L130.447 208.1L120.138 202.367L126.722 182.3L133.867 160.647L134.275 159.47L118.403 138.328V208.1H52.5158V131.213L21.2308 144.317C12.2996 148.054 3.26626 139.147 6.8898 130.138L28.0696 77.156L37.8685 80.4834L31.1318 113.143L54.6593 99.2189C56.8538 97.888 59.4056 97.2225 61.9574 97.2225H70.0721L78.1867 97.0177L94.8754 96.0451L103.041 98.8094L120.648 103.57C125.089 104.799 128.865 107.614 131.264 111.556L155.2 150.563C157.445 154.146 157.547 158.702 155.506 162.387Z" fill="url(#paint13_linear)"/>
<path d="M94.8753 95.9939L94.7733 96.9153C94.7733 96.9153 94.7733 96.9153 94.7733 96.9665C94.5181 98.2463 93.7015 100.806 91.0477 104.901C88.5979 108.587 84.9744 111.3 80.8405 112.733C80.6364 112.426 77.5232 107.87 77.4211 103.212C77.3701 102.034 77.4211 100.806 77.5742 99.6284L78.2377 97.0689L94.8753 95.9939Z" fill="white"/>
<path d="M80.7895 112.733C80.7895 112.733 77.4212 108.024 77.3701 103.161C77.3191 98.2975 78.1867 97.0178 78.1867 97.0178V92.8202C78.1867 92.8202 74.1549 90.3631 71.2969 94.1C68.0816 98.1952 70.2251 110.788 80.7895 112.733Z" fill="url(#paint14_linear)"/>
<path d="M94.8755 80.1762C94.8755 80.1762 97.6314 76.9001 102.429 71.1668C107.226 65.4335 108.349 53.8133 99.0094 53.1479C99.0094 53.1479 101.153 46.9539 95.2838 45.367C89.4147 43.7801 82.729 46.0325 78.1358 40.4527C73.5425 34.8218 67.061 33.4909 63.7437 39.5825C60.4263 45.6741 64.6113 61.2359 72.777 65.843C80.9427 70.4501 93.9058 75.6715 94.8755 80.1762Z" fill="#2D2824"/>
<path d="M90.5374 57.3967C90.5374 57.3967 83.1882 62.8229 69.3065 59.8539C69.3065 59.8539 71.3479 80.2787 72.6749 83.8108C74.0528 87.3429 78.1357 86.1144 78.1357 86.1144V97.0178C78.1357 97.0178 82.7799 106.078 94.8244 96.0452V75.0573C94.8244 75.0573 101.255 71.6788 98.0396 67.174C95.5389 63.6419 91.2519 68.0955 91.2519 68.0955C91.2519 68.0955 89.0063 63.7443 90.5374 57.3967Z" fill="url(#paint15_linear)"/>
<path d="M74.4611 80.1761C75.9412 77.6166 73.6956 75.6202 76.9108 73.675C80.1261 71.781 79.8199 73.3679 83.8517 71.6274C87.8835 69.8869 86.2504 65.587 86.2504 65.587L77.2171 60.6727C74.5632 60.6727 71.9093 60.3656 69.3065 59.8025C69.3065 59.8025 71.3479 80.2273 72.6749 83.7594C73.1852 82.5309 73.7466 81.3023 74.4611 80.1761Z" fill="#FFC0AC"/>
<path d="M80.7896 112.733C84.9745 111.3 88.547 108.535 91.0477 104.901C95.0285 98.8605 94.8754 96.0451 94.8754 96.0451V92.0522C94.8754 92.0522 102.225 92.1546 102.327 100.806C102.378 109.354 92.1705 119.029 80.7896 112.733Z" fill="url(#paint16_linear)"/>
<path d="M78.1868 86.0631C82.4227 85.5512 86.3014 83.4524 89.0574 80.1763C89.0574 80.1763 86.1483 89.2881 78.1868 89.2881V86.0631Z" fill="#1D164D"/>
<g opacity="0.2">
<path opacity="0.2" d="M101.451 165.064L86.9573 150.577C85.3751 149.041 82.8744 149.041 81.2923 150.577L66.9002 165.064C65.3181 166.599 65.3181 169.159 66.9002 170.695L81.3433 185.181C82.8744 186.768 85.4262 186.768 86.9573 185.181L101.4 170.695C102.115 169.978 102.574 168.954 102.574 167.93C102.574 167.879 102.574 167.828 102.574 167.777C102.574 166.804 102.166 165.78 101.451 165.064ZM89.9684 170.695L86.9573 173.715C85.3751 175.302 82.8744 175.302 81.3433 173.715L78.3322 170.695C76.7501 169.108 76.7501 166.599 78.3322 165.064L81.3433 162.043C82.8744 160.457 85.4262 160.457 86.9573 162.043L89.9684 165.064C91.5505 166.599 91.5505 169.159 89.9684 170.695Z" fill="white"/>
<path opacity="0.2" d="M82.9765 192.706L68.5334 178.219C66.9513 176.633 64.4505 176.633 62.8684 178.219L52.5082 188.662V202.484L58.1731 208.166H73.2287L82.9765 198.388C84.5586 196.801 84.5586 194.293 82.9765 192.706ZM71.5445 198.337L68.5334 201.357C66.9513 202.944 64.4505 202.944 62.8684 201.357L59.8573 198.337C58.2752 196.75 58.2752 194.242 59.8573 192.706L62.8684 189.686C64.4505 188.099 66.9513 188.099 68.5334 189.686L71.5445 192.706C73.1266 194.242 73.1266 196.801 71.5445 198.337C71.5445 198.337 71.5445 198.388 71.5445 198.337Z" fill="white"/>
<path opacity="0.2" d="M105.432 178.219C103.901 176.633 101.349 176.633 99.8184 178.219L85.3242 192.706C83.7931 194.293 83.7931 196.801 85.3242 198.388L95.072 208.166H110.128L118.395 199.873V191.273L105.432 178.219ZM108.392 198.388L105.381 201.409C103.85 202.995 101.298 202.995 99.7673 201.409L96.7562 198.388C95.1741 196.853 95.1741 194.293 96.7562 192.757L99.7673 189.737C101.349 188.15 103.85 188.15 105.381 189.737L108.392 192.757C109.974 194.242 109.974 196.801 108.392 198.388C108.392 198.337 108.392 198.388 108.392 198.388Z" fill="white"/>
<path opacity="0.2" d="M103.748 165.064C103.034 165.78 102.574 166.804 102.574 167.828V167.981C102.574 169.005 102.983 170.029 103.748 170.746L118.191 185.233C118.242 185.284 118.293 185.335 118.395 185.386V173.92C118.344 173.868 118.242 173.817 118.191 173.766L115.18 170.746C113.598 169.21 113.598 166.651 115.18 165.115L118.191 162.095C118.242 162.043 118.293 161.992 118.395 161.941V150.372C118.344 150.423 118.242 150.474 118.191 150.526L103.748 165.064Z" fill="white"/>
<path opacity="0.2" d="M64.5526 165.064L52.5082 152.983V164.449L53.1206 165.064C54.7027 166.65 54.7027 169.159 53.1206 170.694L52.5082 171.309V182.775L64.5526 170.694C66.1347 169.159 66.1347 166.65 64.5526 165.064Z" fill="white"/>
</g>
<path d="M68.3369 208.1C68.3369 208.1 92.0175 207.691 101.255 195.507C110.492 183.324 99.5708 179.587 107.022 168.786C114.473 157.985 108.4 156.961 112.789 149.385C115.953 143.959 104.266 122.715 104.266 122.715L118.403 138.328V208.1H68.3369Z" fill="url(#paint17_linear)"/>
<path d="M52.524 131.217V112.175C52.524 113.045 52.3198 122.976 45.0217 125.689C37.3663 128.504 40.7347 132.753 33.1304 135.005C28.0268 136.49 27.7716 140.124 25.9854 142.428L52.524 131.217Z" fill="url(#paint18_linear)"/>
<path d="M31.1318 113.143L28.9883 122.715L36.7457 109.764L31.1318 113.143Z" fill="url(#paint19_linear)"/>
<path d="M84.8546 158.209L80.8738 119.151L77.7606 158.158L76.5868 158.055L80.2103 112.598C80.2103 112.291 80.4655 112.035 80.7717 112.035C81.0779 112.035 81.3331 112.24 81.3331 112.547L85.9774 158.004L84.8546 158.209Z" fill="white"/>
<path d="M77.1661 159.777C78.0399 159.777 78.7482 159.066 78.7482 158.19C78.7482 157.314 78.0399 156.603 77.1661 156.603C76.2923 156.603 75.584 157.314 75.584 158.19C75.584 159.066 76.2923 159.777 77.1661 159.777Z" fill="white"/>
<path d="M85.4338 159.777C86.3076 159.777 87.0159 159.066 87.0159 158.19C87.0159 157.314 86.3076 156.603 85.4338 156.603C84.56 156.603 83.8517 157.314 83.8517 158.19C83.8517 159.066 84.56 159.777 85.4338 159.777Z" fill="white"/>
<path d="M97.5293 100.755C98.7031 95.0214 94.8754 93.6904 94.8754 93.6904V96.0452C94.8754 96.0452 95.0285 98.8606 91.0477 104.901C88.598 108.587 84.9745 111.3 80.7896 112.733C87.0159 113.45 96.3555 106.488 97.5293 100.755Z" fill="#F56C00"/>
<path d="M78.1869 92.8201C78.1869 92.8201 72.9812 93.8439 73.3895 100.755C73.7468 106.334 78.34 110.327 80.1262 111.658C79.1566 110.02 77.4213 106.641 77.3703 103.16C77.3193 98.2974 78.1869 97.0176 78.1869 97.0176V92.8201Z" fill="#F56C00"/>
<path d="M76.8624 60.4973H80.8432C83.8033 60.4973 86.253 62.9032 86.253 65.8723C86.253 66.5889 86.0999 67.3568 85.7937 68.0223C85.7426 68.0734 85.7426 68.1246 85.6916 68.1758C84.773 70.0187 82.8846 71.196 80.8432 71.1448H72.6775L76.8624 60.4973Z" fill="url(#paint20_linear)"/>
<path d="M52.5183 55.4805L76.0968 59.0126C77.8321 59.2685 79.4652 60.19 80.4859 61.6233C81.2514 62.6983 81.6087 63.9268 81.6087 65.2578C81.6087 66.5887 81.2514 67.8685 80.639 69.0458C79.6183 70.8887 77.8321 72.1172 75.7906 72.4244L52.4673 76.2124L52.5183 55.4805Z" fill="url(#paint21_linear)"/>
<path d="M52.5183 76.2126C58.2402 76.2126 62.8786 71.5601 62.8786 65.821C62.8786 60.0819 58.2402 55.4294 52.5183 55.4294C46.7965 55.4294 42.1581 60.0819 42.1581 65.821C42.1581 71.5601 46.7965 76.2126 52.5183 76.2126Z" fill="url(#paint22_linear)"/>
<path d="M52.5183 73.7043C56.859 73.7043 60.3778 70.1748 60.3778 65.821C60.3778 61.4672 56.859 57.9377 52.5183 57.9377C48.1776 57.9377 44.6588 61.4672 44.6588 65.821C44.6588 70.1748 48.1776 73.7043 52.5183 73.7043Z" fill="url(#paint23_linear)"/>
<path d="M59.5102 65.8211C59.5102 69.7116 56.397 72.8342 52.5183 72.8342C52.2631 72.8342 52.008 72.8342 51.7528 72.783C51.3445 72.7318 50.9362 72.6806 50.579 72.5782C49.6603 72.3223 48.7927 71.8616 48.0782 71.2473C47.823 71.0425 47.5679 70.7866 47.3637 70.5818C47.2616 70.4794 47.1596 70.3259 47.0575 70.2235C44.6588 67.2033 45.1181 62.7497 48.1803 60.3438C50.7321 58.2962 54.3556 58.2962 56.9074 60.3438C57.0095 60.4462 57.1626 60.5486 57.2647 60.6509C57.5198 60.8557 57.724 61.1117 57.9281 61.3676C58.5405 62.0843 58.9999 62.9545 59.255 63.8759C59.3571 64.2854 59.4592 64.6438 59.4592 65.0533C59.5102 65.3092 59.5102 65.5652 59.5102 65.8211Z" fill="url(#paint24_linear)"/>
<path d="M50.3749 64.7973C51.4178 64.7973 52.2632 63.9494 52.2632 62.9033C52.2632 61.8573 51.4178 61.0093 50.3749 61.0093C49.332 61.0093 48.4866 61.8573 48.4866 62.9033C48.4866 63.9494 49.332 64.7973 50.3749 64.7973Z" fill="white"/>
<path d="M59.2561 63.8757L50.58 72.578C49.6613 72.3221 48.7937 71.8614 48.0792 71.2471L57.9291 61.3674C58.5416 62.1353 59.0009 62.9543 59.2561 63.8757Z" fill="url(#paint25_linear)"/>
<path d="M57.2146 60.6509L47.3647 70.5818C47.2626 70.4794 47.1605 70.3258 47.0585 70.2234L56.8573 60.3438C57.0104 60.4461 57.1125 60.5485 57.2146 60.6509Z" fill="url(#paint26_linear)"/>
<path d="M59.5112 65.8212C59.5112 66.0771 59.5112 66.2819 59.4602 66.5378L53.2338 72.8342C52.9786 72.8342 52.7745 72.8854 52.5193 72.8854C52.2641 72.8854 52.009 72.8854 51.7538 72.8342L59.4602 65.1045C59.5112 65.3093 59.5112 65.5652 59.5112 65.8212Z" fill="url(#paint27_linear)"/>
</g>
<g clip-path="url(#clip1)">
<path opacity="0.3" d="M229.16 148.673C214.506 148.673 202.673 136.859 202.631 122.281V42.1008C202.631 27.5226 214.506 15.7511 229.16 15.7092H319.651C334.263 15.7511 346.138 27.5226 346.18 42.1008V122.281C346.18 136.859 334.305 148.631 319.651 148.673H229.16Z" fill="#FFAD41"/>
<path d="M335.568 42.1009V122.281C335.526 130.995 328.452 138.074 319.651 138.116H229.16C220.401 138.074 213.285 131.036 213.243 122.281V42.1009C213.243 33.3875 220.359 26.3079 229.16 26.3079H319.651C328.41 26.3079 335.526 33.3875 335.568 42.1009Z" fill="url(#paint28_linear)"/>
<path opacity="0.2" d="M335.568 122.281V107.535C313.882 73.9385 268.952 64.1777 235.181 85.7099C226.38 91.3234 218.885 98.7801 213.243 107.535V122.281C213.285 130.995 220.359 138.074 229.16 138.116H232.149C236.823 114.908 259.562 99.8693 282.89 104.519C299.902 107.912 313.209 121.15 316.662 138.116H319.651C328.41 138.074 335.526 131.036 335.568 122.281Z" fill="white"/>
<path opacity="0.2" d="M240.571 28.6537C240.571 39.5036 231.728 48.3008 220.822 48.3008C218.211 48.3008 215.643 47.7981 213.243 46.7927V59.9047C230.591 64.0938 248.066 53.4534 252.277 36.1941C252.867 33.7225 253.204 31.1672 253.204 28.6118C253.204 27.8159 253.162 27.0618 253.12 26.2659H240.487C240.529 27.0618 240.571 27.8577 240.571 28.6537Z" fill="white"/>
<path d="M313.293 124.669L315.44 138.074H283.101L313.293 124.669Z" fill="url(#paint29_linear)"/>
<path d="M290.765 138.116L313.251 124.711L283.059 138.116H290.765Z" fill="#2D2824"/>
<path d="M274.384 56.8468C283.756 56.8468 291.354 49.2883 291.354 39.9645C291.354 30.6407 283.756 23.0823 274.384 23.0823C265.012 23.0823 257.414 30.6407 257.414 39.9645C257.414 49.2883 265.012 56.8468 274.384 56.8468Z" fill="#2D2824"/>
<path d="M335.568 43.8186V61.4968C335.568 65.1832 333.421 68.5764 330.01 70.1264L307.271 80.5993L311.945 116.542L326.22 112.437L329.336 119.265L283.059 139.834L274.511 143.646C269.121 146.034 262.804 144.484 259.183 139.834C257.372 137.53 256.446 134.723 256.488 131.791L257.204 92.0775C257.288 86.4222 260.067 81.1857 264.699 77.8763L280.153 66.8589L293.081 60.7008L296.744 59.1508C297.544 58.8157 298.386 58.5225 299.228 58.2711L322.683 55.2968L331.315 31.4187C334.558 35.4403 335.568 37.9957 335.568 43.8186Z" fill="url(#paint30_linear)"/>
<path d="M286.848 73.6871C288.912 73.6871 290.975 73.2263 292.828 72.3466C296.702 70.5872 298.049 67.9899 298.47 66.1467C299.186 63.0886 297.965 60.4495 297.081 59.0251C296.954 59.067 296.87 59.1089 296.744 59.1508L293.08 60.7008L280.153 66.8588L276.658 69.3304L277.163 69.8331C279.816 72.3047 283.269 73.6452 286.848 73.6871Z" fill="#50555A"/>
<path d="M280.195 66.8589L274.426 53.705C274.426 53.705 270.426 54.5429 269.373 50.8564C268.321 47.17 272.995 46.2065 274.426 49.3064C274.426 49.3064 276.827 45.1592 272.995 42.0173C272.995 42.0173 283.185 42.7295 286.09 36.5295C286.09 36.5295 293.333 48.9294 293.628 52.6996C293.965 56.4699 290.765 57.2658 290.765 57.2658L293.123 60.7428C293.123 60.7428 297.207 65.7698 291.059 68.5346C287.438 70.2102 283.143 69.5819 280.195 66.8589Z" fill="url(#paint31_linear)"/>
<path d="M282.764 57.9778C282.764 57.9778 286.091 61.371 292.238 59.4021L290.765 57.2656C288.196 58.1453 285.459 58.3967 282.764 57.9778Z" fill="#1D164D"/>
<path d="M335.568 116.081C337.758 114.489 338.474 111.557 337.253 109.127L335.568 105.818V107.912C335.568 109.546 334.431 110.929 332.831 111.264L330.81 111.683C330.81 111.683 332.368 109.839 332.242 108.415C332.115 106.991 330.978 109.421 329.42 109.546C327.862 109.672 326.22 112.395 326.22 112.395L329.336 119.223L334.726 116.542C335.021 116.416 335.316 116.249 335.568 116.081Z" fill="url(#paint32_linear)"/>
<path d="M311.945 116.5L276.869 122.91L279.858 90.0249C279.858 90.0249 280.574 109.086 282.764 113.568C284.954 118.05 287.985 111.808 292.659 114.992C297.333 118.176 300.365 113.484 303.271 115.16C306.218 116.877 310.008 117.045 311.945 116.5Z" fill="#50555A"/>
<path d="M329.168 70.4614C329.168 70.4614 323.694 72.9749 319.777 72.556C315.861 72.1371 316.24 74.86 312.366 75.9073C308.492 76.9546 305.755 71.2574 305.755 71.2574L307.271 80.5992L329.168 70.4614Z" fill="#50555A"/>
<path opacity="0.2" d="M306.892 60.0304C306.892 59.1088 306.85 58.2291 306.766 57.3494L299.228 58.3129C298.386 58.5642 297.544 58.8575 296.744 59.1926L295.733 59.6115C295.733 59.7372 295.733 59.9047 295.733 60.0304C295.733 71.2154 286.638 80.264 275.395 80.264C271.816 80.264 268.278 79.3005 265.205 77.5411L264.699 77.9181C261.752 80.0126 259.562 82.945 258.299 86.2964C272.868 95.7219 292.323 91.5747 301.797 77.1221C305.166 72.0114 306.892 66.0628 306.892 60.0304Z" fill="white"/>
<path d="M304.895 7.12155C304.895 5.48778 303.422 4.44049 301.232 4.44049C299.295 4.3986 297.442 5.32021 296.305 6.95398L292.221 4.56617C294.073 1.75944 297.232 0 301.821 0C306.917 0 310.412 2.26214 310.412 6.24183C310.412 11.6458 304.727 12.2323 304.727 15.7931H299.632C299.632 11.1012 304.895 10.0539 304.895 7.12155ZM298.958 21.1971C298.958 19.4795 300.306 18.1809 302.2 18.1809C304.095 18.1809 305.443 19.4795 305.443 21.1971C305.359 22.9984 303.801 24.3389 302.032 24.2551C300.348 24.1714 299.042 22.8308 298.958 21.1971Z" fill="#F56C00"/>
</g>
<defs>
<linearGradient id="paint0_linear" x1="60.5816" y1="78.307" x2="103.524" y2="196.034" gradientUnits="userSpaceOnUse">
<stop stop-color="#50555A"/>
<stop offset="1" stop-color="#9BA5AE"/>
</linearGradient>
<linearGradient id="paint1_linear" x1="86.9708" y1="190.929" x2="86.9708" y2="216.718" gradientUnits="userSpaceOnUse">
<stop stop-color="white"/>
<stop offset="1" stop-color="white" stop-opacity="0"/>
</linearGradient>
<linearGradient id="paint2_linear" x1="86.97" y1="127.238" x2="86.97" y2="165.034" gradientUnits="userSpaceOnUse">
<stop stop-color="white"/>
<stop offset="1" stop-color="white" stop-opacity="0"/>
</linearGradient>
<linearGradient id="paint3_linear" x1="86.9702" y1="157.868" x2="86.9702" y2="192.678" gradientUnits="userSpaceOnUse">
<stop stop-color="white"/>
<stop offset="1" stop-color="white" stop-opacity="0"/>
</linearGradient>
<linearGradient id="paint4_linear" x1="122.193" y1="205.355" x2="121.799" y2="209.861" gradientUnits="userSpaceOnUse">
<stop stop-color="#FFC0AC"/>
<stop offset="1" stop-color="#FFD6C7"/>
</linearGradient>
<linearGradient id="paint5_linear" x1="112.703" y1="76.4272" x2="139.794" y2="76.4272" gradientUnits="userSpaceOnUse">
<stop stop-color="#F56C00"/>
<stop offset="0.2623" stop-color="#F88115"/>
<stop offset="0.7376" stop-color="#FDA135"/>
<stop offset="1" stop-color="#FFAD41"/>
</linearGradient>
<linearGradient id="paint6_linear" x1="39.6256" y1="68.7287" x2="38.1363" y2="84.1058" gradientUnits="userSpaceOnUse">
<stop stop-color="#FFC0AC"/>
<stop offset="1" stop-color="#FFD6C7"/>
</linearGradient>
<linearGradient id="paint7_linear" x1="34.9557" y1="71.7952" x2="23.6548" y2="46.6784" gradientUnits="userSpaceOnUse">
<stop offset="0.00134342" stop-color="#601C00"/>
<stop offset="0.1295" stop-color="#661F00"/>
<stop offset="0.3088" stop-color="#792900"/>
<stop offset="0.5182" stop-color="#963900"/>
<stop offset="0.7504" stop-color="#C05000"/>
<stop offset="1" stop-color="#F56C00"/>
</linearGradient>
<linearGradient id="paint8_linear" x1="33.6807" y1="68.1348" x2="23.2607" y2="50.6217" gradientUnits="userSpaceOnUse">
<stop stop-color="#C9E2F4"/>
<stop offset="1" stop-color="#EAF5FF"/>
</linearGradient>
<linearGradient id="paint9_linear" x1="33.0649" y1="68.3945" x2="28.4968" y2="53.9601" gradientUnits="userSpaceOnUse">
<stop offset="0.00134342" stop-color="#601C00"/>
<stop offset="0.1295" stop-color="#661F00"/>
<stop offset="0.3088" stop-color="#792900"/>
<stop offset="0.5182" stop-color="#963900"/>
<stop offset="0.7504" stop-color="#C05000"/>
<stop offset="1" stop-color="#F56C00"/>
</linearGradient>
<linearGradient id="paint10_linear" x1="21.6827" y1="57.2795" x2="36.4172" y2="69.0405" gradientUnits="userSpaceOnUse">
<stop stop-color="white"/>
<stop offset="1" stop-color="white" stop-opacity="0"/>
</linearGradient>
<linearGradient id="paint11_linear" x1="21.7512" y1="57.1901" x2="36.489" y2="68.9543" gradientUnits="userSpaceOnUse">
<stop stop-color="white"/>
<stop offset="1" stop-color="white" stop-opacity="0"/>
</linearGradient>
<linearGradient id="paint12_linear" x1="21.4683" y1="57.5373" x2="36.2093" y2="69.2944" gradientUnits="userSpaceOnUse">
<stop stop-color="white"/>
<stop offset="1" stop-color="white" stop-opacity="0"/>
</linearGradient>
<linearGradient id="paint13_linear" x1="73.3939" y1="129.283" x2="117.305" y2="244.785" gradientUnits="userSpaceOnUse">
<stop stop-color="#FFB965"/>
<stop offset="1" stop-color="#FF8A5F"/>
</linearGradient>
<linearGradient id="paint14_linear" x1="80.5696" y1="114.622" x2="67.1551" y2="104.746" gradientUnits="userSpaceOnUse">
<stop stop-color="#50555A"/>
<stop offset="0.2037" stop-color="#54595F"/>
<stop offset="0.4309" stop-color="#60666C"/>
<stop offset="0.6693" stop-color="#747B82"/>
<stop offset="0.9139" stop-color="#9099A1"/>
<stop offset="1" stop-color="#9BA5AE"/>
</linearGradient>
<linearGradient id="paint15_linear" x1="98.5288" y1="108.329" x2="75.8031" y2="81.5066" gradientUnits="userSpaceOnUse">
<stop stop-color="#FFC0AC"/>
<stop offset="1" stop-color="#FFD6C7"/>
</linearGradient>
<linearGradient id="paint16_linear" x1="94.9428" y1="114.738" x2="87.9451" y2="98.0322" gradientUnits="userSpaceOnUse">
<stop stop-color="#50555A"/>
<stop offset="0.2037" stop-color="#54595F"/>
<stop offset="0.4309" stop-color="#60666C"/>
<stop offset="0.6693" stop-color="#747B82"/>
<stop offset="0.9139" stop-color="#9099A1"/>
<stop offset="1" stop-color="#9BA5AE"/>
</linearGradient>
<linearGradient id="paint17_linear" x1="156.987" y1="146.346" x2="25.0472" y2="165.266" gradientUnits="userSpaceOnUse">
<stop offset="0.062" stop-color="#FF8A5F"/>
<stop offset="0.99" stop-color="#FF8A5F" stop-opacity="0"/>
</linearGradient>
<linearGradient id="paint18_linear" x1="56.5828" y1="121.895" x2="1.64633" y2="135.072" gradientUnits="userSpaceOnUse">
<stop offset="0.062" stop-color="#FF8A5F"/>
<stop offset="0.99" stop-color="#FF8A5F" stop-opacity="0"/>
</linearGradient>
<linearGradient id="paint19_linear" x1="28.7848" y1="119.379" x2="45.827" y2="112.278" gradientUnits="userSpaceOnUse">
<stop offset="0.062" stop-color="#FF8A5F"/>
<stop offset="0.99" stop-color="#FF8A5F" stop-opacity="0"/>
</linearGradient>
<linearGradient id="paint20_linear" x1="81.6745" y1="72.8709" x2="79.5062" y2="65.1127" gradientUnits="userSpaceOnUse">
<stop offset="0.00134342" stop-color="#601C00"/>
<stop offset="0.1295" stop-color="#661F00"/>
<stop offset="0.3088" stop-color="#792900"/>
<stop offset="0.5182" stop-color="#963900"/>
<stop offset="0.7504" stop-color="#C05000"/>
<stop offset="1" stop-color="#F56C00"/>
</linearGradient>
<linearGradient id="paint21_linear" x1="71.3963" y1="79.1076" x2="66.7501" y2="59.7589" gradientUnits="userSpaceOnUse">
<stop stop-color="#C9E2F4"/>
<stop offset="1" stop-color="#EAF5FF"/>
</linearGradient>
<linearGradient id="paint22_linear" x1="56.8805" y1="76.5704" x2="48.5259" y2="56.1454" gradientUnits="userSpaceOnUse">
<stop offset="0.00134342" stop-color="#601C00"/>
<stop offset="0.1295" stop-color="#661F00"/>
<stop offset="0.3088" stop-color="#792900"/>
<stop offset="0.5182" stop-color="#963900"/>
<stop offset="0.7504" stop-color="#C05000"/>
<stop offset="1" stop-color="#F56C00"/>
</linearGradient>
<linearGradient id="paint23_linear" x1="54.5475" y1="70.0199" x2="45.8347" y2="52.1904" gradientUnits="userSpaceOnUse">
<stop stop-color="#C9E2F4"/>
<stop offset="1" stop-color="#EAF5FF"/>
</linearGradient>
<linearGradient id="paint24_linear" x1="53.1955" y1="67.216" x2="46.4829" y2="53.8062" gradientUnits="userSpaceOnUse">
<stop offset="0.00134342" stop-color="#601C00"/>
<stop offset="0.1295" stop-color="#661F00"/>
<stop offset="0.3088" stop-color="#792900"/>
<stop offset="0.5182" stop-color="#963900"/>
<stop offset="0.7504" stop-color="#C05000"/>
<stop offset="1" stop-color="#F56C00"/>
</linearGradient>
<linearGradient id="paint25_linear" x1="45.2982" y1="58.5637" x2="56.3635" y2="69.6338" gradientUnits="userSpaceOnUse">
<stop stop-color="white"/>
<stop offset="1" stop-color="white" stop-opacity="0"/>
</linearGradient>
<linearGradient id="paint26_linear" x1="45.2971" y1="58.5639" x2="56.3612" y2="69.6452" gradientUnits="userSpaceOnUse">
<stop stop-color="white"/>
<stop offset="1" stop-color="white" stop-opacity="0"/>
</linearGradient>
<linearGradient id="paint27_linear" x1="45.3018" y1="58.5529" x2="56.3752" y2="69.6243" gradientUnits="userSpaceOnUse">
<stop stop-color="white"/>
<stop offset="1" stop-color="white" stop-opacity="0"/>
</linearGradient>
<linearGradient id="paint28_linear" x1="252.619" y1="31.8813" x2="287.549" y2="128.408" gradientUnits="userSpaceOnUse">
<stop stop-color="#FFB965"/>
<stop offset="1" stop-color="#FF8A5F"/>
</linearGradient>
<linearGradient id="paint29_linear" x1="303.469" y1="148.21" x2="302.289" y2="126.421" gradientUnits="userSpaceOnUse">
<stop stop-color="#9BA5AE"/>
<stop offset="0.142" stop-color="#949EA6"/>
<stop offset="0.364" stop-color="#818A90"/>
<stop offset="0.638" stop-color="#636A6B"/>
<stop offset="0.951" stop-color="#383E3A"/>
<stop offset="1" stop-color="#313731"/>
</linearGradient>
<linearGradient id="paint30_linear" x1="304.542" y1="76.2085" x2="251.559" y2="141.291" gradientUnits="userSpaceOnUse">
<stop stop-color="#9BA5AE"/>
<stop offset="1" stop-color="#50555A"/>
</linearGradient>
<linearGradient id="paint31_linear" x1="282.405" y1="78.0343" x2="280.903" y2="45.8844" gradientUnits="userSpaceOnUse">
<stop stop-color="#FFC0AC"/>
<stop offset="1" stop-color="#FFD6C7"/>
</linearGradient>
<linearGradient id="paint32_linear" x1="338.637" y1="103.47" x2="326.768" y2="116.174" gradientUnits="userSpaceOnUse">
<stop stop-color="#FFC0AC"/>
<stop offset="1" stop-color="#FFD6C7"/>
</linearGradient>
<clipPath id="clip0">
<rect width="173.93" height="185.41" fill="white" transform="translate(0 35.5896)"/>
</clipPath>
<clipPath id="clip1">
<rect width="143.507" height="148.673" fill="white" transform="translate(202.631)"/>
</clipPath>
</defs>
</svg>
