<svg id="Camada_1" data-name="Camada 1" xmlns="http://www.w3.org/2000/svg" viewBox="0 0 347.24 84.9"><defs><style>.cls-1{fill:#ff9001;}.cls-1,.cls-2{fill-rule:evenodd;}.cls-2{fill:#fff;}</style></defs><path class="cls-1" d="M47.75,18.87A57.63,57.63,0,0,0,1.27,35.36a5.57,5.57,0,0,0,.44,7.56,5.51,5.51,0,0,0,7.76.57l.11-.1A46.26,46.26,0,0,1,38.37,30.25c32.71-2.72,36.31,26.31,64.76,23.48h0a35.89,35.89,0,0,0,22.71-11.12c2.89-3.36,0-9-4.23-9.27a5.63,5.63,0,0,0-4.77,1.95,24.34,24.34,0,0,1-18.56,7C82.74,41.44,74,21.57,47.75,18.87Z"/><path class="cls-2" d="M105.63,75.11c-37.32,4-44.88-24.87-65.23-23.42A24.51,24.51,0,0,0,24.4,59a5.5,5.5,0,0,1-7.78-.07l-.22-.24A5.53,5.53,0,0,1,16.09,51,36.07,36.07,0,0,1,45.24,40.25h0c22.05,2.18,25.47,21.61,51,23.48a46,46,0,0,0,35.69-13.07,5.8,5.8,0,0,1,8.32,8,57.76,57.76,0,0,1-34.63,16.41Z"/><path class="cls-1" d="M101.48,33.78c-6.88,1.15-13.86-4.53-14.09-11.51C86.76,15.42,92.8,8.93,99.67,9.08a12.41,12.41,0,0,1,1.81,24.7Z"/><path class="cls-2" d="M43.6,60.2c-6.88-1.15-13.87,4.53-14.09,11.51A12.4,12.4,0,1,0,43.6,60.2Z"/><path class="cls-1" d="M178.48,8.59c-10.47,0-13.67,5.8-15.15,16.29s.17,16.86,11,16.86a35.9,35.9,0,0,0,7.45-.85l.68-4.83A34.09,34.09,0,0,1,175,37c-6.5,0-7.41-3.38-6.21-11.9,1.24-8.82,3.29-11.82,10.13-11.85a28.25,28.25,0,0,1,6.6.87l.65-4.59a32.18,32.18,0,0,0-7.69-1Zm22.86,0c11,0,12.7,6,11.22,16.53s-4.62,16.63-15.39,16.63c-11,0-12.67-6.2-11.17-16.88C187.45,14.48,190.57,8.59,201.34,8.59Zm-.17,4.7h0c-6.51,0-8.5,3.12-9.73,11.83-1.18,8.4-.38,11.91,5.89,11.91,6.52,0,8.56-3.46,9.79-12.16,1.18-8.41.32-11.58-6-11.58Zm36.1-4.16-3.52,25-9-25h-6.56L213.7,41.19h5.12l3.44-24.52,8.81,24.52h6.8l4.51-32.06Zm27.8,4.44h-14l-1.26,8.94H263L262.46,27H249.23l-1.38,9.82h14l-.62,4.42H241.92l4.51-32H265.7l-.63,4.43ZM293,9.13h-6L278.47,20.5l-5.3-11.37h-5.8l7.46,15.65L262.22,41.2h6l9.13-12.06L283.1,41.2h5.8L281,25Zm13.34-5.68c.47-.17.74.07,1.58.8a4.3,4.3,0,0,0,4,1.18c1.65-.49,3.17-2.34,3.78-5.4h-3.18c-.36,1.31-.75,1.93-1.21,2.1s-.95-.21-1.65-.79a4.11,4.11,0,0,0-4-1.17c-1.65.54-3.16,2.33-3.75,5.39h3.17c.37-1.36.81-2,1.23-2.11Zm5.49,37.75L310.36,33H298.9l-3.75,8.25h-5.68l15.28-32h6.31l6.27,32.05ZM300.91,28.51h8.68L307.2,14.64ZM335.57,8.59c-10.78,0-13.89,5.89-15.34,16.28-1.51,10.68.17,16.88,11.16,16.88,10.78,0,13.92-6.08,15.39-16.63s-.22-16.53-11.21-16.53Zm-.17,4.7c6.27,0,7.12,3.17,5.94,11.58-1.23,8.7-3.27,12.16-9.78,12.16-6.27,0-7.07-3.51-5.9-11.91C326.89,16.41,328.89,13.29,335.4,13.29Z"/><path class="cls-2" d="M174.8,51.7c-10.48,0-13.68,5.8-15.16,16.29s.18,16.86,11,16.86a36.5,36.5,0,0,0,7.44-.85l.68-4.84a33.31,33.31,0,0,1-7.44,1c-6.51,0-7.41-3.38-6.21-11.91,1.23-8.81,3.28-11.81,10.12-11.84a27.73,27.73,0,0,1,6.6.87l.66-4.6a33.3,33.3,0,0,0-7.69-1Zm22.86,0c11,0,12.7,6,11.21,16.53s-4.62,16.63-15.39,16.63c-11,0-12.67-6.2-11.16-16.88C183.77,57.59,186.88,51.7,197.66,51.7Zm-.17,4.7h0c-6.51,0-8.51,3.12-9.74,11.83-1.17,8.4-.37,11.91,5.9,11.91,6.51,0,8.55-3.47,9.78-12.16,1.18-8.41.33-11.58-5.94-11.58Zm36.09-4.16-3.51,25-9-25h-6.56L210,84.3h5.11l3.45-24.53,8.8,24.53h6.8l4.52-32.06Zm18.7-.55h0a46.3,46.3,0,0,1,8.63.91l-.63,4.47a46,46,0,0,0-7.85-.8c-5.22,0-6.54,1.7-7,4.75-.33,2.39.29,2.81,4.9,4.57,6.44,2.31,9.55,3.55,8.64,9.9-1,7.15-5.61,9.37-12.69,9.37a41,41,0,0,1-9.35-1.2l.62-4.47a38.69,38.69,0,0,0,8.57,1.09c4.69,0,6.93-1.35,7.43-5.12.35-2.67-.57-3.27-4.92-4.9-6.79-2.47-9.49-3.32-8.62-9.45.79-5.66,3.76-9.12,12.23-9.12Zm31.92,5,.63-4.42H265.55l-4.5,32h19.27l.62-4.43H267l1.39-9.82h13.23l.62-4.44H269l1.26-9ZM309,70.89h0l-.07.51c-1.21,9.09-3.37,13.45-12.74,13.45-11,0-12.76-6.06-11.23-17,1.47-10.42,4.56-16.17,15.45-16.17a43.49,43.49,0,0,1,8.81,1l-.65,4.59a40,40,0,0,0-7.79-.89c-7.24,0-9.11,2.74-10.37,11.69-1.19,8.49-.48,12.06,6,12.06,5.47,0,6.52-2.31,7.37-8.46l.11-.8h-5.46l.59-4.22h10.59Z"/></svg>